<svg width="38" height="35" viewBox="0 0 38 35" fill="none" xmlns="http://www.w3.org/2000/svg">
<path fill-rule="evenodd" clip-rule="evenodd" d="M31.2816 1.51919C35.2549 3.83487 38.0504 8.53639 37.9271 14.0212C37.7735 20.8677 32.4461 26.9063 23.3636 32.3C22.017 33.1004 20.5984 34.1378 18.9655 34.1378C17.3629 34.1378 15.8836 33.0814 14.5655 32.2981C5.48682 26.9063 0.157541 20.8658 0.00392146 14.0212C-0.119354 8.53639 2.67614 3.83676 6.64939 1.51919C10.3666 -0.644759 15.0359 -0.658035 18.9655 2.53763C22.8951 -0.658035 27.5644 -0.646656 31.2816 1.51919ZM29.3718 4.79831C26.7281 3.25832 23.4243 3.31332 20.5643 6.20744C20.3546 6.41789 20.1055 6.58487 19.8311 6.6988C19.5567 6.81274 19.2626 6.87139 18.9655 6.87139C18.6684 6.87139 18.3743 6.81274 18.0999 6.6988C17.8256 6.58487 17.5764 6.41789 17.3667 6.20744C14.5068 3.31332 11.203 3.25832 8.55921 4.79831C5.82061 6.39519 3.70407 9.78241 3.797 13.9396C3.90321 18.7018 7.66594 23.7903 16.5038 29.0399C17.2776 29.5007 18.0855 30.0906 18.9655 30.3352C19.8455 30.0906 20.6534 29.5007 21.4272 29.0399C30.2651 23.7903 34.0278 18.7037 34.134 13.9377C34.2289 9.78431 32.1104 6.39519 29.3718 4.79831Z" fill="#888888"/>
</svg>
