<svg width="22" height="20" viewBox="0 0 22 20" fill="none" xmlns="http://www.w3.org/2000/svg">
<path d="M1.875 3.75H20.875L17.875 13.75H4.875L1.875 3.75ZM1.875 3.75L1.125 1.25M8.867 8.75H10.867M10.867 8.75H12.867M10.867 8.75V6.75M10.867 8.75V10.75M9.875 17.25C9.875 17.6478 9.71696 18.0294 9.43566 18.3107C9.15436 18.592 8.77282 18.75 8.375 18.75C7.97718 18.75 7.59564 18.592 7.31434 18.3107C7.03304 18.0294 6.875 17.6478 6.875 17.25M15.875 17.25C15.875 17.6478 15.717 18.0294 15.4357 18.3107C15.1544 18.592 14.7728 18.75 14.375 18.75C13.9772 18.75 13.5956 18.592 13.3143 18.3107C13.033 18.0294 12.875 17.6478 12.875 17.25" stroke="white" stroke-width="1.5" stroke-linecap="round" stroke-linejoin="round"/>
</svg>
