<svg
  xmlns="http://www.w3.org/2000/svg"
  viewBox="0 0 28 19"
>
  <rect
    fill="#306FC5"
    width="28"
    height="19"
    rx="1"
  ></rect>
  <path
    fill="#ffffff"
    d="M10.79 9.17l.48.53.51-.53h2.2c.19 0 .54.02.75.14l.1.07v-.21h1.97c.16 0 .48.02.7.14l.11.07v-.21h3v.21c.14-.12.4-.19.63-.2l.11-.01h1.69v.21l.05-.03c.07-.05.22-.14.37-.17l.09-.01h1.76v1.7c.1.17.16.35.18.54v.25c-.03.41-.24.76-.58.96-.18.11-.44.16-.72.17h-1.74v-.21c-.15.12-.42.2-.7.2l-.14.01h-4.99v-.81c0-.1 0-.1-.06-.11h-.12v.92h-1.65v-.96c-.2.09-.46.1-.68.1l-.35.01v.82h-2.05l-.46-.52-.53.52H7.49v-3.6h3.3zm6.01.57h-1.54v2.52h.63v-.92h.76c.44-.04.44.3.44.43v.49h.63c.03-.52-.01-.84-.1-.96-.05-.07-.16-.14-.34-.21a.7.7 0 00.44-.68c0-.28-.15-.67-.92-.67zm8.11-.04H23.7c-.06 0-.85 0-.88.75-.03.78.8.75 1.28.78.11 0 .3.04.3.25-.02.18-.13.26-.33.25h-1.18v.53h1.18c1.12-.03.98-.87.98-.91-.14-.66-.86-.62-1.24-.62-.05 0-.37 0-.37-.21s.19-.21.26-.21h1.21v-.6zm-2.38 0h-1.21c-.66 0-.88.4-.88.75 0 .64.47.74.96.76.44.03.57 0 .61.27 0 .16-.1.25-.33.25h-1.17v.53h1.17c.63 0 .96-.25.96-.78 0-.25-.08-.7-.75-.74h-.46c-.08 0-.35 0-.37-.22-.02-.21.18-.21.25-.21h1.22v-.6zm-2.39.04H18.1v2.52h2.05v-.53h-1.43v-.5h1.4v-.5h-1.4v-.46h1.43v-.53zm-9.64.03H8.1v2.49h2.35l.8-.82.75.82h1.2v-.92h.73c.55 0 1.07-.15 1.07-.86 0-.09.03-.64-.88-.7h-2.06l-.79.83-.78-.84zm2.09.25v2.03l-.96-1.03.96-1zm-2.39.25l.66.75-.7.74h-1.5v-.53h1.36v-.5H8.66v-.46h1.54zm6.54.04c.08 0 .16 0 .21.03.07.04.15.12.11.27 0 .1-.02.19-.07.24l-.04.03a.49.49 0 01-.21.04h-.81v-.62h.81zm-2.76-.04c.22 0 .37.1.4.32 0 .19-.1.3-.28.31l-.08.01h-.8v-.64h.76zm.37-5.26c.24 0 .44.05.6.15l.1.06v-.21h1.65v.21c.24-.12.51-.18.83-.2l.2-.01h2.34l.22.43V5h1.72l.22.43V5h1.65v3.48h-1.72l-.33-.53v.53H19.7l-.22-.57h-.51l-.22.57h-1.1a2.3 2.3 0 01-.9-.17l-.1-.04v.21h-2.63v-.78c0-.08 0-.1-.04-.1h-.1v.92h-5.1V8.1l-.19.43H7.53l-.19-.43v.43H5.22L5 7.96h-.48l-.23.57H2.38l.85-1.85.74-1.67h1.61l.19.43V5h1.87l.4.89.4-.89h5.9zm3.96.5c-.83-.04-1.33.05-1.5.28-.26.29-.32.64-.33 1-.03.8.37 1.22 1.2 1.24h.7l.22-.57h1.29l.21.54h1.25V6.1L22.53 8h.8V5.54h-.62V7.3l-1.06-1.75h-.92v2.38L19.7 5.54h-.91l-.85 1.96c-.59.07-.88-.18-.88-.75 0-.47.22-.7.66-.7h.59V5.5zm-5.98 0h-2.05v2.52h2.05V7.5H10.9V7h1.4v-.5h-1.4v-.46h1.43v-.53zm-7.08 0h-.91L3.25 8h.65l.25-.54H5.4l.26.54H6.9V6.04L7.78 8h.54l.9-1.96V8h.58V5.5h-.99l-.75 1.75-.33-.73-.48-1.01h-.97v2.38L5.25 5.5zm10.93 0h-.62V8h.62V5.5zm-1.9 0h-1.55V8h.63v-.9h.75c.27 0 .46.07.46.52V8h.55v-.58c0-.14-.04-.49-.4-.6a.7.7 0 00.43-.65c0-.38-.17-.66-.87-.66zm-9.5.42l.4 1h-.8l.4-1zm14.48 0l.4 1h-.84l.44-1zm-5.09.11c.37 0 .35.25.34.29-.02.13-.02.32-.34.32h-.81v-.6h.81z"
  ></path>
</svg>