<svg width="53" height="36" viewBox="0 0 53 36" fill="none" xmlns="http://www.w3.org/2000/svg">
<rect x="1" y="0.5" width="51.5" height="35" rx="5.5" fill="white" stroke="#D9D9D9"/>
<path fill-rule="evenodd" clip-rule="evenodd" d="M13.0193 13.3994C13.7244 13.4589 14.4294 13.0426 14.8701 12.5147C15.3034 11.972 15.5899 11.2434 15.5164 10.5C14.8921 10.5297 14.121 10.9163 13.6803 11.459C13.2764 11.9274 12.9312 12.6857 13.0193 13.3994ZM21.4066 22.975V11.3847H25.7031C27.9211 11.3847 29.4708 12.9311 29.4708 15.1911C29.4708 17.4512 27.8917 19.0124 25.6443 19.0124H23.184V22.975H21.4066ZM15.509 13.5407C14.8879 13.5045 14.3211 13.7298 13.8633 13.9117C13.5687 14.0288 13.3192 14.128 13.1294 14.128C12.9164 14.128 12.6567 14.0235 12.365 13.9063C11.9828 13.7526 11.5459 13.5769 11.0877 13.5853C10.0374 13.6002 9.06063 14.2024 8.52449 15.1614C7.42283 17.0795 8.23806 19.9194 9.30299 21.4807C9.82445 22.2539 10.4487 23.1014 11.2713 23.0716C11.6332 23.0578 11.8935 22.946 12.1629 22.8303C12.473 22.6971 12.7952 22.5587 13.2983 22.5587C13.784 22.5587 14.0921 22.6935 14.3879 22.8229C14.6691 22.9459 14.9392 23.064 15.3401 23.0568C16.192 23.0419 16.7282 22.2836 17.2496 21.5104C17.8123 20.6806 18.0596 19.8707 18.0972 19.7478L18.1016 19.7336C18.1007 19.7327 18.0937 19.7295 18.0815 19.7238L18.0815 19.7238C17.8933 19.6366 16.4555 18.9703 16.4417 17.1836C16.4279 15.6839 17.5822 14.924 17.7639 14.8044L17.7639 14.8044L17.7639 14.8044C17.775 14.7971 17.7824 14.7922 17.7858 14.7897C17.0513 13.6894 15.9056 13.5704 15.509 13.5407ZM32.717 23.0642C33.8334 23.0642 34.869 22.4918 35.339 21.5848H35.3757V22.975H37.0209V17.2059C37.0209 15.5331 35.6989 14.4551 33.6645 14.4551C31.777 14.4551 30.3815 15.548 30.3301 17.0497H31.9312C32.0634 16.336 32.717 15.8677 33.6131 15.8677C34.7 15.8677 35.3096 16.3806 35.3096 17.3248V17.9642L33.0916 18.098C31.0278 18.2244 29.9115 19.0794 29.9115 20.5662C29.9115 22.068 31.0646 23.0642 32.717 23.0642ZM33.1943 21.6888C32.2469 21.6888 31.6447 21.2279 31.6447 20.5216C31.6447 19.7931 32.2249 19.3693 33.3339 19.3024L35.3095 19.176V19.8302C35.3095 20.9157 34.3988 21.6888 33.1943 21.6888ZM42.4777 23.4285C41.7653 25.4581 40.95 26.1272 39.2168 26.1272C39.0846 26.1272 38.6439 26.1123 38.5411 26.0826V24.6924C38.6512 24.7072 38.923 24.7221 39.0625 24.7221C39.8484 24.7221 40.289 24.3876 40.5608 23.5177L40.7224 23.0047L37.7112 14.5667H39.5693L41.6624 21.4138H41.6992L43.7923 14.5667H45.599L42.4777 23.4285ZM23.1838 12.9013H25.2329C26.7752 12.9013 27.6565 13.734 27.6565 15.1986C27.6565 16.6632 26.7752 17.5032 25.2255 17.5032H23.1838V12.9013Z" fill="black"/>
</svg>
