<svg xmlns="http://www.w3.org/2000/svg" viewBox="0 0 30 20" fill="#fff">
    <path stroke="#000" d="M1.721.5a.5.5 0 0 0-.5.5v18a.5.5 0 0 0 .5.5h26.543a.5.5 0 0 0 .5-.5V1a.5.5 0 0 0-.5-.5H1.721z" />
    <g fill="#000">
      <path d="M8.36 7.39c.233-.29.39-.679.348-1.076-.339.016-.753.223-.992.513-.215.249-.406.654-.356 1.035.38.033.76-.19 1-.472M8.704 7.936c-.553-.033-1.023.314-1.287.314s-.668-.297-1.106-.29a1.63 1.63 0 0 0-1.385.843c-.594 1.023-.157 2.542.42 3.376.28.412.619.867 1.064.85.421-.016.586-.272 1.098-.272.511 0 .66.272 1.105.264.462-.008.751-.413 1.032-.826.321-.47.453-.924.461-.949-.008-.008-.89-.347-.899-1.362-.008-.85.693-1.254.726-1.28-.396-.585-1.014-.651-1.229-.668" />
      <path d="M14.216 6.786c1.201 0 2.038.828 2.038 2.034 0 1.21-.854 2.043-2.068 2.043h-1.33v2.115h-.962V6.786h2.322zm-1.36 3.27h1.102c.837 0 1.313-.45 1.313-1.232 0-.78-.476-1.227-1.308-1.227h-1.108v2.459zM16.493 11.695c0-.794.605-1.249 1.72-1.317l1.198-.073V9.96c0-.502-.33-.776-.919-.776-.485 0-.837.248-.91.63h-.866c.025-.802.78-1.386 1.802-1.386 1.099 0 1.815.575 1.815 1.468v3.081h-.888v-.742h-.022c-.253.485-.81.79-1.416.79-.892 0-1.514-.533-1.514-1.331zm2.918-.4v-.347l-1.069.069c-.6.039-.914.262-.914.652 0 .378.326.622.837.622.652 0 1.146-.416 1.146-.995zM21.15 14.634v-.742c.06.009.206.017.283.017.425 0 .665-.18.811-.643l.086-.275-1.626-4.506h1.004l1.133 3.656h.021l1.133-3.656h.978l-1.686 4.733c-.386 1.086-.828 1.442-1.764 1.442a2.63 2.63 0 0 1-.373-.026z" />
    </g>
</svg>
