<svg width="257" height="44" viewBox="0 0 257 44" fill="none" xmlns="http://www.w3.org/2000/svg">
<g filter="url(#filter0_d_728_14811)">
<path d="M13.9453 29.0332H31.6484C32.5293 29.0117 33.3887 28.7109 34.1836 28.2168C36.4824 26.7773 36.6543 24.0059 36.6543 21.4707V13.3281C36.6543 12.5762 36.7832 11.5234 35.6016 11.5234C35.2578 11.5234 34.5488 11.5879 34.5488 11.2656C34.5488 11.1797 34.5488 11.1367 34.6348 11.0938C36.4824 11.0938 38.3945 11.0508 40.2637 11.0508C40.8652 11.0508 40.8652 11.4375 40.2207 11.4375C40.1133 11.4375 40.0273 11.4375 39.9414 11.4375C39.3184 11.459 38.9961 11.6523 38.9961 12.8555C38.9961 13.0059 38.9531 17.5176 38.9531 18.0332C38.9531 23.6406 39.168 29.3984 31.6484 30H13.9453C9.08984 29.7422 4.42773 26.2188 4.42773 20.1816C4.42773 19.043 4.62109 17.9258 5.0293 16.8945H7.67188C7.19922 18.0977 6.96289 19.5156 6.96289 20.9121C6.96289 24.9512 8.98242 29.0332 13.9453 29.0332ZM19.3164 4.47656C20.3691 4.47656 21.207 5.31445 21.207 6.36719C21.207 7.44141 20.3691 8.25781 19.3164 8.25781C18.3066 8.25781 17.4258 7.44141 17.4258 6.36719C17.4258 5.31445 18.3066 4.47656 19.3164 4.47656ZM23.9355 4.47656C24.9453 4.47656 25.8262 5.31445 25.8262 6.36719C25.8262 7.44141 24.9453 8.25781 23.9355 8.25781C22.8828 8.25781 22.0449 7.44141 22.0449 6.36719C22.0449 5.31445 22.8828 4.47656 23.9355 4.47656ZM51.9727 29.0547V30C44.8398 29.4199 44.668 24.1992 44.668 18.8711C44.668 16.8516 44.668 6.58203 44.668 3.57422C44.668 2.43555 44.6895 1.74805 44.2812 1.38281C44.0664 1.21094 42.9492 1.14648 42.9492 0.910156C42.9492 0.759766 43.0566 0.716797 43.3359 0.716797C45.1191 0.716797 46.9023 0.716797 48.6855 0.716797C48.9004 0.716797 49.0938 0.716797 49.0938 0.910156C49.0938 0.996094 48.9863 1.10352 48.8789 1.10352C47.375 1.10352 47.0098 1.51172 47.0098 2.5C47.0098 7.67773 46.9668 17.5391 46.9668 21.4922C46.9668 24.6289 47.3965 28.7324 51.9727 29.0547ZM81.4707 22.5664C81.5137 25.4883 82.5879 28.8398 86.498 29.0332V30C83.9414 29.7852 81.6641 28.6035 80.5469 26.1758C79.4512 28.1523 77.4746 30 75.0469 30H51.9941V29.0332H74.4883C77.7539 29.0332 79.4512 25.123 79.4512 21.8789C79.4512 19.6875 78.3125 17.3242 75.9707 17.1523C74.7461 17.1094 73.543 17.0879 72.3398 17.0879C67.6348 17.0879 62.6934 17.4746 58.0742 16.7227C54.5723 15.8418 53.3691 12.4043 52.6602 11.2656C54.1211 13.7793 56.9785 14.4238 59.6641 14.6172C64.4551 14.9609 69.0312 14.7676 73.5645 14.7676C77.7539 14.7676 81.4062 18.334 81.4707 22.5664ZM66.582 31.7188C67.6348 31.7188 68.4727 32.5566 68.4727 33.6094C68.4727 34.6836 67.6348 35.5 66.582 35.5C65.5293 35.5 64.6914 34.6836 64.6914 33.6094C64.6914 32.5566 65.5293 31.7188 66.582 31.7188ZM93.7598 21.4707C93.7598 24.0918 93.9316 26.7773 96.2305 28.2168C97.0254 28.7324 97.9062 29.0117 98.7871 29.0332V30C95.4355 29.7422 93.6309 28.4316 92.6211 26.584C91.6543 28.4316 89.8496 29.7422 86.498 30V29.0332C90.8379 28.8184 91.4395 24.4785 91.4824 21.4062C91.4824 21.3203 91.4824 13.4141 91.4824 13.3281C91.4824 12.2754 91.3535 11.4805 90.1504 11.4805C89.6992 11.4805 89.3555 11.416 89.3555 11.2656C89.3555 11.0938 89.5488 11.0508 89.7637 11.0508H95.5215C95.8438 11.0508 95.9297 11.1582 95.9297 11.2656C95.9297 11.4805 95.2207 11.4805 95.1348 11.4805C93.9102 11.4805 93.8027 12.3398 93.8027 13.0703C93.8027 13.2207 93.8027 13.3711 93.7598 21.4707ZM90.3652 4.47656C89.3555 4.47656 88.4746 5.31445 88.4746 6.36719C88.4746 7.44141 89.3555 8.25781 90.3652 8.25781C91.418 8.25781 92.2559 7.44141 92.2559 6.36719C92.2559 5.31445 91.418 4.47656 90.3652 4.47656ZM94.9844 4.47656C93.9316 4.47656 93.0938 5.31445 93.0938 6.36719C93.0938 7.44141 93.9316 8.25781 94.9844 8.25781C95.9941 8.25781 96.875 7.44141 96.875 6.36719C96.875 5.31445 95.9941 4.47656 94.9844 4.47656ZM106.049 21.4707C106.049 24.0918 106.221 26.7773 108.52 28.2168C109.314 28.7324 110.195 29.0117 111.076 29.0332V30C107.725 29.7422 105.92 28.4316 104.91 26.584C103.943 28.4316 102.139 29.7422 98.7871 30V29.0332C103.127 28.8184 103.729 24.4785 103.771 21.4062C103.771 21.3203 103.771 13.4141 103.771 13.3281C103.771 12.2754 103.643 11.4805 102.439 11.4805C101.988 11.4805 101.645 11.416 101.645 11.2656C101.645 11.0938 101.838 11.0508 102.053 11.0508H107.811C108.133 11.0508 108.219 11.1582 108.219 11.2656C108.219 11.4805 107.51 11.4805 107.424 11.4805C106.199 11.4805 106.092 12.3398 106.092 13.0703C106.092 13.2207 106.092 13.3711 106.049 21.4707ZM104.932 4.47656C105.984 4.47656 106.822 5.35742 106.822 6.36719C106.822 7.41992 105.984 8.25781 104.932 8.25781C103.857 8.25781 103.041 7.41992 103.041 6.36719C103.041 5.35742 103.857 4.47656 104.932 4.47656ZM116.104 20.4824C116.104 15.7344 119.82 11.0293 126.029 11.0293C132.174 11.0293 135.762 14.7891 135.934 20.1387C135.934 25.9609 131.465 30 125.857 30C121.904 30 118.854 28.1523 117.328 25.3379C116.404 28.2812 113.891 29.7852 111.076 30V29.0332C111.957 28.9902 112.838 28.7324 113.633 28.2383C116.232 26.627 116.104 23.125 116.104 20.4824ZM118.682 19.8379C118.682 25.918 122.355 29.0117 126.91 29.0117C128.93 29.0117 133.334 27.7656 133.334 20.8047C133.334 14.6387 129.574 11.9531 125.857 11.9531C121.732 11.9531 118.682 14.5742 118.682 19.8379ZM145.516 29.7852V28.4531C146.461 28.8398 147.449 29.0117 148.459 29.0117C153.336 29.0117 155.291 24.8652 155.291 20.8691C155.291 15.584 152.068 11.9316 147.621 11.9316C146.934 11.9316 146.225 12.0176 145.516 12.2109V11.2871C146.311 11.1152 147.127 11.0508 147.943 11.0508C154.174 11.0508 157.848 15.2402 157.848 20.2031C157.848 20.418 157.848 20.6328 157.826 20.8477C157.826 23.4473 157.762 26.6699 160.297 28.2383C161.07 28.7324 161.994 28.9902 162.854 29.0332V30C159.996 29.7852 157.396 28.2383 156.516 25.166C154.711 28.2812 151.316 29.9785 147.686 29.9785C146.955 29.9785 146.246 29.9141 145.516 29.7852ZM192.33 22.5664C192.373 25.4883 193.447 28.8398 197.357 29.0332V30C194.801 29.7852 192.523 28.6035 191.406 26.1758C190.311 28.1523 188.334 30 185.906 30H162.854V29.0332H185.348C188.613 29.0332 190.311 25.123 190.311 21.8789C190.311 19.6875 189.172 17.3242 186.83 17.1523C185.605 17.1094 184.402 17.0879 183.199 17.0879C178.494 17.0879 173.553 17.4746 168.934 16.7227C165.432 15.8418 164.229 12.4043 163.52 11.2656C164.98 13.7793 167.838 14.4238 170.523 14.6172C175.314 14.9609 179.891 14.7676 184.424 14.7676C188.613 14.7676 192.266 18.334 192.33 22.5664ZM177.441 31.7188C178.494 31.7188 179.332 32.5566 179.332 33.6094C179.332 34.6836 178.494 35.5 177.441 35.5C176.389 35.5 175.551 34.6836 175.551 33.6094C175.551 32.5566 176.389 31.7188 177.441 31.7188ZM197.357 30V29.0332C198.238 29.0117 199.098 28.7109 199.893 28.2168C202.191 26.7773 202.363 24.0059 202.363 21.4707V13.9512C202.363 13.7578 202.363 13.543 202.363 13.3066C202.363 12.4688 202.234 11.4805 201.01 11.4805C200.258 11.4805 200.215 11.459 200.215 11.2656C200.215 11.1797 200.258 11.1367 200.344 11.0938C202.234 11.0938 204.125 11.0508 205.973 11.0508C206.252 11.0508 206.381 11.1152 206.381 11.2656C206.381 11.6953 204.662 11.0293 204.662 12.8555C204.662 13.5645 204.662 17.4102 204.662 18.0332C204.662 23.6406 204.877 29.3984 197.357 30ZM203.502 4.47656C204.555 4.47656 205.393 5.35742 205.393 6.36719C205.393 7.41992 204.555 8.25781 203.502 8.25781C202.428 8.25781 201.611 7.41992 201.611 6.36719C201.611 5.35742 202.428 4.47656 203.502 4.47656ZM213.729 30V29.0332C219.035 28.7324 218.734 23.8555 218.734 20.4824C218.734 16.3145 222 11.0293 228.639 11.0293C234.633 11.0293 238.543 14.7676 238.543 20.1387C238.543 22.7812 238.307 26.584 241.014 28.2383C241.787 28.7109 242.689 28.9902 243.549 29.0332V30C240.691 29.7852 238.156 28.2383 237.275 25.166C237.061 25.4238 236.975 25.7031 236.781 25.9395C234.74 28.582 232.012 30 228.51 30C224.557 30 221.377 28.1094 220.023 25.3809C219.057 28.3242 216.543 29.7852 213.729 30ZM221.334 19.8379C221.334 25.8535 224.922 29.0117 229.541 29.0117C230.357 29.0117 231.131 28.7539 231.99 28.4102C233.559 27.8945 235.986 25.8965 235.986 20.8047C235.986 15.3477 232.828 11.9531 228.51 11.9531C224.32 11.9531 221.334 14.5742 221.334 19.8379ZM243.549 30V29.0547C248.082 28.7324 248.555 24.6504 248.555 21.4922V14.8105C248.555 14.4668 248.555 3.81055 248.533 3.57422C248.533 2.11328 248.555 1.42578 247.674 1.21094C247.459 1.14648 246.428 1.16797 246.428 0.910156C246.428 0.716797 246.621 0.716797 246.836 0.716797C248.619 0.716797 250.381 0.716797 252.186 0.716797C252.465 0.716797 252.572 0.759766 252.572 0.910156C252.572 0.996094 252.465 1.10352 252.379 1.10352C251.047 1.10352 250.854 1.59766 250.854 2.97266C250.854 3.78906 250.854 15.3691 250.854 16.1426C250.854 22.2441 251.799 29.334 243.549 30Z" fill="black"/>
</g>
<defs>
<filter id="filter0_d_728_14811" x="0.427734" y="0.716797" width="256.145" height="42.7832" filterUnits="userSpaceOnUse" color-interpolation-filters="sRGB">
<feFlood flood-opacity="0" result="BackgroundImageFix"/>
<feColorMatrix in="SourceAlpha" type="matrix" values="0 0 0 0 0 0 0 0 0 0 0 0 0 0 0 0 0 0 127 0" result="hardAlpha"/>
<feOffset dy="4"/>
<feGaussianBlur stdDeviation="2"/>
<feComposite in2="hardAlpha" operator="out"/>
<feColorMatrix type="matrix" values="0 0 0 0 0 0 0 0 0 0 0 0 0 0 0 0 0 0 0.25 0"/>
<feBlend mode="normal" in2="BackgroundImageFix" result="effect1_dropShadow_728_14811"/>
<feBlend mode="normal" in="SourceGraphic" in2="effect1_dropShadow_728_14811" result="shape"/>
</filter>
</defs>
</svg>
