<svg width="136" height="27" viewBox="0 0 136 27" fill="none" xmlns="http://www.w3.org/2000/svg">
<g filter="url(#filter0_d_728_14812)">
<path d="M16.3059 0.6C16.3059 0.466666 16.3726 0.4 16.5059 0.4H18.9459C19.0793 0.4 19.1459 0.466666 19.1459 0.6V10.5C19.1726 10.8333 19.3126 11.1 19.5659 11.3C19.8326 11.4867 20.1993 11.58 20.6659 11.58H21.1059C21.3726 11.58 21.5726 11.6733 21.7059 11.86C21.8393 12.0467 21.9059 12.3533 21.9059 12.78C21.9059 13.5933 21.6393 14 21.1059 14C20.6126 14 20.1793 13.94 19.8059 13.82C19.4326 13.7 19.1193 13.4267 18.8659 13C18.6526 13.4 18.3459 13.6667 17.9459 13.8C17.5459 13.9333 16.9859 14 16.2659 14H6.38594C5.54594 14 4.94594 13.8 4.58594 13.4C4.22594 12.9867 4.04594 12.3467 4.04594 11.48V7.06C4.04594 6.92667 4.1126 6.86 4.24594 6.86H6.68594C6.81927 6.86 6.88594 6.92667 6.88594 7.06V10.52C6.88594 10.7733 6.9126 10.9733 6.96594 11.12C7.0326 11.2533 7.12594 11.36 7.24594 11.44C7.37927 11.5067 7.5326 11.5467 7.70594 11.56C7.8926 11.5733 8.10594 11.58 8.34594 11.58H15.3259C15.7526 11.58 16.0193 11.4667 16.1259 11.24C16.2459 11 16.3059 10.58 16.3059 9.98V0.6ZM11.8859 4.94H12.2259C12.7059 4.94 13.0459 5.06667 13.2459 5.32C13.4459 5.57333 13.5459 5.95333 13.5459 6.46V6.88C13.5459 7.4 13.4459 7.76 13.2459 7.96C13.0459 8.14667 12.7459 8.24 12.3459 8.24H9.84594C9.7126 8.24 9.64594 8.17333 9.64594 8.04V7.34C9.64594 7.20667 9.7126 7.14 9.84594 7.14H11.8259C12.0126 7.14 12.1259 7.11333 12.1659 7.06C12.2193 6.99333 12.2459 6.88 12.2459 6.72C12.2459 6.41333 12.2059 6.22667 12.1259 6.16C12.0459 6.08 11.8659 6.04 11.5859 6.04H10.4659C10.2793 6.04 10.1859 5.94667 10.1859 5.76V5.16C10.1859 5.06667 10.2126 4.99333 10.2659 4.94C10.3193 4.88667 10.3593 4.84 10.3859 4.8L11.8659 3.04C11.9326 2.97333 11.9926 2.94667 12.0459 2.96C12.1126 2.96 12.1593 2.97333 12.1859 3C12.2526 3.05333 12.3326 3.11333 12.4259 3.18C12.5193 3.24667 12.5993 3.32 12.6659 3.4C12.7459 3.46667 12.7993 3.54 12.8259 3.62C12.8659 3.68667 12.8593 3.76 12.8059 3.84L11.8859 4.94ZM22.0333 3.56C21.8999 3.56 21.8333 3.49333 21.8333 3.36V1.4C21.8333 1.26667 21.8999 1.2 22.0333 1.2H24.0333C24.1666 1.2 24.2333 1.26667 24.2333 1.4V3.36C24.2333 3.49333 24.1666 3.56 24.0333 3.56H22.0333ZM25.1133 3.56C24.9799 3.56 24.9133 3.49333 24.9133 3.36V1.4C24.9133 1.26667 24.9799 1.2 25.1133 1.2H27.1333C27.2666 1.2 27.3333 1.26667 27.3333 1.4V3.36C27.3333 3.49333 27.2666 3.56 27.1333 3.56H25.1133ZM21.1133 14C20.8466 14 20.6466 13.92 20.5133 13.76C20.3799 13.5867 20.3133 13.2867 20.3133 12.86C20.3133 12.0067 20.5799 11.58 21.1133 11.58H22.3533C22.6866 11.58 22.9266 11.5067 23.0733 11.36C23.2333 11.2 23.3133 10.92 23.3133 10.52V5.78C23.3133 5.64667 23.3799 5.58 23.5133 5.58H25.9333C26.0666 5.58 26.1333 5.64667 26.1333 5.78V11.48C26.1333 12.3467 25.9533 12.9867 25.5933 13.4C25.2333 13.8 24.6333 14 23.7933 14H21.1133ZM31.52 13.8C31.52 13.9333 31.4533 14 31.32 14H28.9C28.7667 14 28.7 13.9333 28.7 13.8V0.6C28.7 0.466666 28.7667 0.4 28.9 0.4H31.32C31.4533 0.4 31.52 0.466666 31.52 0.6V13.8ZM32.9548 18.1C32.8215 18.1 32.7548 18.0333 32.7548 17.9V15.88C32.7548 15.7467 32.8215 15.68 32.9548 15.68H33.3948C33.9415 15.68 34.3282 15.54 34.5548 15.26C34.7948 14.98 34.9148 14.5533 34.9148 13.98V5.78C34.9148 5.64667 34.9815 5.58 35.1148 5.58H37.5548C37.6882 5.58 37.7548 5.64667 37.7548 5.78V14.08C37.7548 15.4533 37.4348 16.4667 36.7948 17.12C36.1548 17.7733 35.1815 18.1 33.8748 18.1H32.9548ZM40.0867 0.6C40.0867 0.466666 40.1534 0.4 40.2867 0.4H42.7067C42.8401 0.4 42.9067 0.466666 42.9067 0.6V10.52C42.9067 10.92 42.9801 11.2 43.1267 11.36C43.2867 11.5067 43.5334 11.58 43.8667 11.58H44.4067C44.6734 11.58 44.8734 11.68 45.0067 11.88C45.1401 12.0667 45.2067 12.3867 45.2067 12.84C45.2067 13.32 45.1401 13.6333 45.0067 13.78C44.8867 13.9267 44.6867 14 44.4067 14H42.4267C41.5867 14 40.9867 13.8 40.6267 13.4C40.2667 12.9867 40.0867 12.3467 40.0867 11.48V0.6ZM45.4141 18.1C45.2807 18.1 45.2141 18.0333 45.2141 17.9V15.94C45.2141 15.8067 45.2807 15.74 45.4141 15.74H47.4141C47.5474 15.74 47.6141 15.8067 47.6141 15.94V17.9C47.6141 18.0333 47.5474 18.1 47.4141 18.1H45.4141ZM48.4941 18.1C48.3607 18.1 48.2941 18.0333 48.2941 17.9V15.94C48.2941 15.8067 48.3607 15.74 48.4941 15.74H50.5141C50.6474 15.74 50.7141 15.8067 50.7141 15.94V17.9C50.7141 18.0333 50.6474 18.1 50.5141 18.1H48.4941ZM46.6741 5.78C46.6741 5.64667 46.7407 5.58 46.8741 5.58H49.2941C49.4274 5.58 49.4941 5.64667 49.4941 5.78V10.5C49.5207 10.8333 49.6607 11.1 49.9141 11.3C50.1807 11.4867 50.5474 11.58 51.0141 11.58H51.4741C51.7407 11.58 51.9407 11.6733 52.0741 11.86C52.2074 12.0467 52.2741 12.3533 52.2741 12.78C52.2741 13.5933 52.0074 14 51.4741 14C50.9674 14 50.5274 13.94 50.1541 13.82C49.7807 13.7 49.4674 13.4267 49.2141 13C49.0007 13.4267 48.6807 13.7 48.2541 13.82C47.8407 13.94 47.2674 14 46.5341 14H44.4741C44.2074 14 44.0074 13.92 43.8741 13.76C43.7407 13.5867 43.6741 13.2733 43.6741 12.82C43.6741 12.3667 43.7407 12.0467 43.8741 11.86C43.9941 11.6733 44.1941 11.58 44.4741 11.58H45.7141C46.1407 11.58 46.4074 11.46 46.5141 11.22C46.6207 10.9667 46.6741 10.54 46.6741 9.94V5.78ZM52.5648 3.56C52.4315 3.56 52.3648 3.49333 52.3648 3.36V1.4C52.3648 1.26667 52.4315 1.2 52.5648 1.2H54.5648C54.6982 1.2 54.7648 1.26667 54.7648 1.4V3.36C54.7648 3.49333 54.6982 3.56 54.5648 3.56H52.5648ZM55.6448 3.56C55.5115 3.56 55.4448 3.49333 55.4448 3.36V1.4C55.4448 1.26667 55.5115 1.2 55.6448 1.2H57.6648C57.7982 1.2 57.8648 1.26667 57.8648 1.4V3.36C57.8648 3.49333 57.7982 3.56 57.6648 3.56H55.6448ZM53.7248 5.78C53.7248 5.64667 53.7915 5.58 53.9248 5.58H56.3448C56.4782 5.58 56.5448 5.64667 56.5448 5.78V10.5C56.5715 10.8333 56.7115 11.1 56.9648 11.3C57.2315 11.4867 57.5982 11.58 58.0648 11.58H58.5248C58.7915 11.58 58.9915 11.6733 59.1248 11.86C59.2582 12.0467 59.3248 12.3533 59.3248 12.78C59.3248 13.5933 59.0582 14 58.5248 14C58.0182 14 57.5782 13.94 57.2048 13.82C56.8315 13.7 56.5182 13.4267 56.2648 13C56.0515 13.4267 55.7315 13.7 55.3048 13.82C54.8915 13.94 54.3182 14 53.5848 14H51.5248C51.2582 14 51.0582 13.92 50.9248 13.76C50.7915 13.5867 50.7248 13.2733 50.7248 12.82C50.7248 12.3667 50.7915 12.0467 50.9248 11.86C51.0448 11.6733 51.2448 11.58 51.5248 11.58H52.7648C53.1915 11.58 53.4582 11.46 53.5648 11.22C53.6715 10.9667 53.7248 10.54 53.7248 9.94V5.78ZM62.0356 3.58C61.9023 3.58 61.8356 3.51333 61.8356 3.38V1.42C61.8356 1.28667 61.9023 1.22 62.0356 1.22H64.5156C64.649 1.22 64.7156 1.28667 64.7156 1.42V3.38C64.7156 3.51333 64.649 3.58 64.5156 3.58H62.0356ZM58.5156 14C58.249 14 58.049 13.9133 57.9156 13.74C57.7823 13.5533 57.7156 13.2467 57.7156 12.82C57.7156 12.38 57.7823 12.0667 57.9156 11.88C58.0356 11.68 58.2356 11.58 58.5156 11.58H63.4756C63.7956 11.58 64.0556 11.56 64.2556 11.52C64.4556 11.4667 64.609 11.3733 64.7156 11.24C64.8356 11.1067 64.9156 10.9333 64.9556 10.72C65.009 10.4933 65.0356 10.2067 65.0356 9.86C65.0356 9.58 65.0023 9.31333 64.9356 9.06C64.869 8.79333 64.7556 8.56 64.5956 8.36C64.4356 8.14667 64.2223 7.98 63.9556 7.86C63.7023 7.72667 63.3823 7.66 62.9956 7.66C62.569 7.66 62.189 7.74667 61.8556 7.92C61.5223 8.08 61.2156 8.28667 60.9356 8.54C60.8423 8.63333 60.749 8.64 60.6556 8.56L59.4756 7.14C59.3556 7.02 59.3356 6.92 59.4156 6.84C59.8823 6.38667 60.4156 6.00667 61.0156 5.7C61.6156 5.39333 62.369 5.24 63.2756 5.24C64.129 5.24 64.8556 5.36667 65.4556 5.62C66.0556 5.87333 66.5423 6.21333 66.9156 6.64C67.289 7.06667 67.5556 7.56667 67.7156 8.14C67.889 8.71333 67.9756 9.32 67.9756 9.96C67.9756 10.8 67.8956 11.48 67.7356 12C67.589 12.52 67.369 12.9333 67.0756 13.24C66.7956 13.5333 66.4423 13.7333 66.0156 13.84C65.6023 13.9467 65.129 14 64.5956 14H58.5156ZM72.9263 13.8C72.9263 13.9333 72.8596 14 72.7263 14H70.3063C70.1729 14 70.1063 13.9333 70.1063 13.8V0.6C70.1063 0.466666 70.1729 0.4 70.3063 0.4H72.7263C72.8596 0.4 72.9263 0.466666 72.9263 0.6V13.8ZM92.1277 5.78C92.1277 5.64667 92.1943 5.58 92.3277 5.58H94.7677C94.901 5.58 94.9677 5.64667 94.9677 5.78V10.54C94.9943 10.86 95.1343 11.1133 95.3877 11.3C95.6543 11.4867 96.021 11.58 96.4877 11.58H96.9277C97.1943 11.58 97.3943 11.6733 97.5277 11.86C97.661 12.0467 97.7277 12.3533 97.7277 12.78C97.7277 13.5933 97.461 14 96.9277 14C96.4343 14 96.001 13.94 95.6277 13.82C95.2543 13.7 94.941 13.4267 94.6877 13C94.4877 13.4 94.1877 13.6667 93.7877 13.8C93.401 13.9333 92.8543 14 92.1477 14H82.2077C81.3677 14 80.7677 13.8 80.4077 13.4C80.0477 12.9867 79.8677 12.3467 79.8677 11.48V7.06C79.8677 6.92667 79.9343 6.86 80.0677 6.86H82.5077C82.641 6.86 82.7077 6.92667 82.7077 7.06V10.52C82.7077 10.92 82.781 11.2 82.9277 11.36C83.0877 11.5067 83.3343 11.58 83.6677 11.58H91.1477C91.5743 11.58 91.841 11.4733 91.9477 11.26C92.0677 11.0467 92.1277 10.6533 92.1277 10.08V5.78ZM86.1677 18.1C86.0343 18.1 85.9677 18.0333 85.9677 17.9V15.94C85.9677 15.8067 86.0343 15.74 86.1677 15.74H88.6477C88.781 15.74 88.8477 15.8067 88.8477 15.94V17.9C88.8477 18.0333 88.781 18.1 88.6477 18.1H86.1677ZM103.735 14C103.215 14 102.788 13.9067 102.455 13.72C102.122 13.52 101.868 13.26 101.695 12.94C101.508 13.3667 101.228 13.6533 100.855 13.8C100.482 13.9333 99.955 14 99.275 14H96.875C96.6083 14 96.4083 13.9267 96.275 13.78C96.1417 13.62 96.075 13.32 96.075 12.88C96.075 12.4133 96.1417 12.08 96.275 11.88C96.395 11.68 96.595 11.58 96.875 11.58H98.215C98.6017 11.58 98.8483 11.4867 98.955 11.3C99.0617 11.1 99.115 10.74 99.115 10.22V7.22C99.115 7.08667 99.1817 7.02 99.315 7.02H101.755C101.888 7.02 101.955 7.08667 101.955 7.22V10.5C101.955 10.9267 102.088 11.2133 102.355 11.36C102.622 11.5067 102.915 11.58 103.235 11.58C103.488 11.58 103.688 11.5533 103.835 11.5C103.995 11.4467 104.108 11.3667 104.175 11.26C104.242 11.1533 104.282 11.0133 104.295 10.84C104.322 10.6533 104.335 10.4267 104.335 10.16V7.22C104.335 7.08667 104.402 7.02 104.535 7.02H106.975C107.108 7.02 107.175 7.08667 107.175 7.22V10.48C107.175 10.9333 107.308 11.2333 107.575 11.38C107.855 11.5133 108.168 11.58 108.515 11.58C108.768 11.58 108.962 11.5533 109.095 11.5C109.228 11.4467 109.328 11.3667 109.395 11.26C109.462 11.14 109.502 10.9933 109.515 10.82C109.528 10.6333 109.535 10.4067 109.535 10.14V5.78C109.535 5.64667 109.602 5.58 109.735 5.58H112.175C112.308 5.58 112.375 5.64667 112.375 5.78V11.48C112.375 12.3467 112.195 12.9867 111.835 13.4C111.475 13.8 110.875 14 110.035 14H108.935C108.415 14 107.988 13.9067 107.655 13.72C107.335 13.52 107.088 13.26 106.915 12.94C106.728 13.3533 106.442 13.6333 106.055 13.78C105.682 13.9267 105.168 14 104.515 14H103.735ZM114.735 0.6C114.735 0.466666 114.802 0.4 114.935 0.4H117.355C117.488 0.4 117.555 0.466666 117.555 0.6V10.52C117.555 10.92 117.628 11.2 117.775 11.36C117.935 11.5067 118.182 11.58 118.515 11.58H119.055C119.322 11.58 119.522 11.68 119.655 11.88C119.788 12.0667 119.855 12.3867 119.855 12.84C119.855 13.32 119.788 13.6333 119.655 13.78C119.535 13.9267 119.335 14 119.055 14H117.075C116.235 14 115.635 13.8 115.275 13.4C114.915 12.9867 114.735 12.3467 114.735 11.48V0.6ZM120.963 3.56C120.829 3.56 120.763 3.49333 120.763 3.36V1.4C120.763 1.26667 120.829 1.2 120.963 1.2H123.443C123.576 1.2 123.643 1.26667 123.643 1.4V3.36C123.643 3.49333 123.576 3.56 123.443 3.56H120.963ZM123.343 13C123.116 13.4133 122.803 13.6867 122.403 13.82C122.003 13.94 121.443 14 120.723 14H119.123C118.856 14 118.656 13.96 118.522 13.88C118.389 13.7867 118.322 13.5933 118.322 13.3C118.322 13.1267 118.336 12.94 118.362 12.74C118.389 12.54 118.436 12.3533 118.502 12.18C118.569 12.0067 118.656 11.8667 118.762 11.76C118.869 11.64 119.002 11.58 119.163 11.58H119.823C120.236 11.58 120.496 11.4667 120.603 11.24C120.723 11 120.783 10.58 120.783 9.98V5.78C120.783 5.67333 120.876 5.61333 121.063 5.6C121.263 5.58667 121.436 5.58 121.583 5.58H123.423C123.556 5.58 123.623 5.64667 123.623 5.78V10.5C123.649 10.8333 123.789 11.1 124.043 11.3C124.309 11.4867 124.676 11.58 125.143 11.58H125.603C125.869 11.58 126.069 11.6733 126.203 11.86C126.336 12.0467 126.403 12.3533 126.403 12.78C126.403 13.5933 126.136 14 125.603 14C125.096 14 124.656 13.94 124.283 13.82C123.909 13.7 123.596 13.4267 123.343 13ZM126.447 3.56C126.314 3.56 126.247 3.49333 126.247 3.36V1.4C126.247 1.26667 126.314 1.2 126.447 1.2H128.447C128.581 1.2 128.647 1.26667 128.647 1.4V3.36C128.647 3.49333 128.581 3.56 128.447 3.56H126.447ZM129.527 3.56C129.394 3.56 129.327 3.49333 129.327 3.36V1.4C129.327 1.26667 129.394 1.2 129.527 1.2H131.547C131.681 1.2 131.747 1.26667 131.747 1.4V3.36C131.747 3.49333 131.681 3.56 131.547 3.56H129.527ZM125.527 14C125.261 14 125.061 13.92 124.927 13.76C124.794 13.5867 124.727 13.2867 124.727 12.86C124.727 12.0067 124.994 11.58 125.527 11.58H126.767C127.101 11.58 127.341 11.5067 127.487 11.36C127.647 11.2 127.727 10.92 127.727 10.52V5.78C127.727 5.64667 127.794 5.58 127.927 5.58H130.347C130.481 5.58 130.547 5.64667 130.547 5.78V11.48C130.547 12.3467 130.367 12.9867 130.007 13.4C129.647 13.8 129.047 14 128.207 14H125.527Z" fill="black"/>
</g>
<defs>
<filter id="filter0_d_728_14812" x="0.0458984" y="0.399994" width="135.701" height="25.7" filterUnits="userSpaceOnUse" color-interpolation-filters="sRGB">
<feFlood flood-opacity="0" result="BackgroundImageFix"/>
<feColorMatrix in="SourceAlpha" type="matrix" values="0 0 0 0 0 0 0 0 0 0 0 0 0 0 0 0 0 0 127 0" result="hardAlpha"/>
<feOffset dy="4"/>
<feGaussianBlur stdDeviation="2"/>
<feComposite in2="hardAlpha" operator="out"/>
<feColorMatrix type="matrix" values="0 0 0 0 0 0 0 0 0 0 0 0 0 0 0 0 0 0 0.25 0"/>
<feBlend mode="normal" in2="BackgroundImageFix" result="effect1_dropShadow_728_14812"/>
<feBlend mode="normal" in="SourceGraphic" in2="effect1_dropShadow_728_14812" result="shape"/>
</filter>
</defs>
</svg>
