<svg width="17" height="16" viewBox="0 0 17 16" fill="none" xmlns="http://www.w3.org/2000/svg">
<path d="M5.03203 15.1668C5.78536 15.1668 6.5787 14.9868 7.3987 14.6402C8.1987 14.3002 9.00536 13.8335 9.79203 13.2668C10.572 12.6935 11.3254 12.0535 12.0387 11.3535C12.7454 10.6402 13.3854 9.88683 13.952 9.1135C14.5254 8.3135 14.9854 7.5135 15.312 6.74016C15.6587 5.9135 15.832 5.1135 15.832 4.36016C15.832 3.84016 15.7387 3.34683 15.5587 2.88683C15.372 2.4135 15.072 1.9735 14.6654 1.5935C14.152 1.08683 13.5654 0.833496 12.9387 0.833496C12.6787 0.833496 12.412 0.893496 12.1854 1.00016C11.9254 1.12016 11.7054 1.30016 11.5454 1.54016L9.9987 3.72016C9.8587 3.9135 9.75203 4.10016 9.6787 4.28683C9.59203 4.48683 9.54536 4.68683 9.54536 4.88016C9.54536 5.1335 9.6187 5.38016 9.7587 5.6135C9.8587 5.7935 10.012 5.98683 10.2054 6.18016L10.6587 6.6535C10.652 6.6735 10.6454 6.68683 10.6387 6.70016C10.5587 6.84016 10.3987 7.08016 10.092 7.44016C9.76536 7.8135 9.4587 8.1535 9.15203 8.46683C8.7587 8.8535 8.43203 9.16016 8.12536 9.4135C7.74536 9.7335 7.4987 9.8935 7.35203 9.96683L7.36536 10.0002L6.8787 9.52016C6.67203 9.3135 6.47203 9.16016 6.2787 9.06016C5.91203 8.8335 5.44536 8.7935 4.9787 8.98683C4.80536 9.06016 4.6187 9.16016 4.4187 9.30016L2.20536 10.8735C1.9587 11.0402 1.7787 11.2535 1.67203 11.5068C1.57203 11.7602 1.52536 11.9935 1.52536 12.2268C1.52536 12.5468 1.5987 12.8668 1.7387 13.1668C1.8787 13.4668 2.05203 13.7268 2.27203 13.9668C2.65203 14.3868 3.06536 14.6868 3.54536 14.8802C4.00536 15.0668 4.50536 15.1668 5.03203 15.1668ZM12.9387 1.8335C13.3054 1.8335 13.6454 1.9935 13.972 2.3135C14.2787 2.60016 14.492 2.9135 14.6254 3.2535C14.7654 3.60016 14.832 3.96683 14.832 4.36016C14.832 4.98016 14.6854 5.6535 14.392 6.34683C14.092 7.0535 13.672 7.78683 13.1387 8.52016C12.6054 9.2535 11.9987 9.96683 11.332 10.6402C10.6654 11.3002 9.94536 11.9135 9.20536 12.4535C8.48536 12.9802 7.74536 13.4068 7.01203 13.7135C5.87203 14.2002 4.80536 14.3135 3.92536 13.9468C3.58536 13.8068 3.28536 13.5935 3.01203 13.2868C2.8587 13.1202 2.7387 12.9402 2.6387 12.7268C2.5587 12.5602 2.5187 12.3868 2.5187 12.2135C2.5187 12.1068 2.5387 12.0002 2.59203 11.8802C2.61203 11.8402 2.65203 11.7668 2.7787 11.6802L4.99203 10.1068C5.12536 10.0135 5.24537 9.94683 5.3587 9.90016C5.50536 9.84016 5.56536 9.78016 5.79203 9.92016C5.92536 9.98683 6.04536 10.0868 6.1787 10.2202L6.68536 10.7202C6.94536 10.9735 7.34536 11.0335 7.65203 10.9202L7.83203 10.8402C8.10536 10.6935 8.42536 10.4668 8.7787 10.1668C9.0987 9.8935 9.44536 9.5735 9.86536 9.16016C10.192 8.82683 10.5187 8.4735 10.8587 8.08016C11.172 7.7135 11.3987 7.40016 11.5387 7.14016L11.6187 6.94016C11.6587 6.78683 11.672 6.70016 11.672 6.60683C11.672 6.36683 11.5854 6.1535 11.4187 5.98683L10.9187 5.46683C10.7854 5.3335 10.6854 5.20683 10.6187 5.0935C10.5654 5.00683 10.5454 4.9335 10.5454 4.86683C10.5454 4.8135 10.5654 4.7335 10.5987 4.6535C10.6454 4.54683 10.7187 4.42683 10.812 4.30016L12.3587 2.1135C12.4254 2.02016 12.5054 1.9535 12.6054 1.90683C12.712 1.86016 12.8254 1.8335 12.9387 1.8335ZM7.36536 10.0068L7.47203 10.4602L7.29203 9.9935C7.32536 9.98683 7.35203 9.9935 7.36536 10.0068Z" fill="#E3A745"/>
<path d="M4.33268 6.49984C4.60602 6.49984 4.83268 6.27317 4.83268 5.99984C4.83268 5.75984 5.07268 5.25984 5.47268 4.83317C5.86602 4.41317 6.29935 4.1665 6.66602 4.1665C6.93935 4.1665 7.16602 3.93984 7.16602 3.6665C7.16602 3.39317 6.93935 3.1665 6.66602 3.1665C6.01935 3.1665 5.33935 3.51317 4.74602 4.1465C4.19268 4.73984 3.83268 5.4665 3.83268 5.99984C3.83268 6.27317 4.05935 6.49984 4.33268 6.49984Z" fill="#E3A745"/>
<path d="M1.99935 6.50016C2.27268 6.50016 2.49935 6.2735 2.49935 6.00016C2.49935 3.70016 4.36602 1.8335 6.66602 1.8335C6.93935 1.8335 7.16602 1.60683 7.16602 1.3335C7.16602 1.06016 6.93935 0.833496 6.66602 0.833496C3.81935 0.833496 1.49935 3.1535 1.49935 6.00016C1.49935 6.2735 1.72602 6.50016 1.99935 6.50016Z" fill="#E3A745"/>
</svg>
