<svg width="24" height="24" viewBox="0 0 24 24" fill="none" xmlns="http://www.w3.org/2000/svg">
<path fill-rule="evenodd" clip-rule="evenodd" d="M5.31344 6.84579C5.29852 6.68077 5.31815 6.51445 5.37107 6.35742C5.42398 6.2004 5.50903 6.05613 5.62078 5.93379C5.73254 5.81145 5.86855 5.71374 6.02016 5.64687C6.17176 5.58 6.33564 5.54545 6.50133 5.54541H20.964C21.1427 5.54549 21.319 5.58567 21.48 5.66301C21.641 5.74034 21.7826 5.85285 21.8944 5.99222C22.0061 6.13159 22.0851 6.29428 22.1256 6.46827C22.166 6.64226 22.1669 6.82311 22.1281 6.99747L20.9061 12.5058C20.6959 13.4524 20.1691 14.299 19.4127 14.9057C18.6563 15.5124 17.7156 15.843 16.7459 15.8428H10.019C8.95533 15.8429 7.93009 15.4451 7.14482 14.7276C6.35955 14.0101 5.87103 13.0249 5.7753 11.9655L5.31344 6.84579ZM7.06034 7.24971L7.47279 11.8121C7.53025 12.448 7.8236 13.0394 8.29513 13.4699C8.76665 13.9005 9.38221 14.139 10.0207 14.1385H16.7476C17.3293 14.1384 17.8935 13.9399 18.3471 13.5758C18.8008 13.2117 19.1167 12.7038 19.2427 12.1359L20.3283 7.24971H7.06034Z" fill="#666666"/>
<path fill-rule="evenodd" clip-rule="evenodd" d="M1.78906 2.68516C1.78906 2.45915 1.87884 2.24241 2.03865 2.0826C2.19846 1.92279 2.41521 1.83301 2.64121 1.83301H5.63056C5.839 1.83322 6.04014 1.90982 6.19591 2.04832C6.35169 2.18683 6.4513 2.37762 6.47589 2.5846L7.16102 8.38093C7.18746 8.60558 7.12358 8.83153 6.98343 9.00908C6.84328 9.18663 6.63833 9.30123 6.41368 9.32767C6.18904 9.35412 5.96309 9.29023 5.78554 9.15008C5.60799 9.00993 5.49339 8.80499 5.46695 8.58034L4.87214 3.53561H2.64121C2.41521 3.53561 2.19846 3.44582 2.03865 3.28602C1.87884 3.12621 1.78906 2.91116 1.78906 2.68516ZM9.45842 20.2957C9.68442 20.2957 9.90117 20.2059 10.061 20.0461C10.2208 19.8863 10.3106 19.6696 10.3106 19.4436C10.3106 19.2176 10.2208 19.0008 10.061 18.841C9.90117 18.6812 9.68442 18.5914 9.45842 18.5914C9.23242 18.5914 9.01567 18.6812 8.85586 18.841C8.69605 19.0008 8.60627 19.2176 8.60627 19.4436C8.60627 19.6696 8.69605 19.8863 8.85586 20.0461C9.01567 20.2059 9.23242 20.2957 9.45842 20.2957ZM9.45842 22C9.79414 22 10.1266 21.9339 10.4367 21.8054C10.7469 21.6769 11.0287 21.4886 11.2661 21.2512C11.5035 21.0138 11.6918 20.732 11.8203 20.4219C11.9487 20.1117 12.0149 19.7793 12.0149 19.4436C12.0149 19.1078 11.9487 18.7754 11.8203 18.4652C11.6918 18.1551 11.5035 17.8733 11.2661 17.6359C11.0287 17.3985 10.7469 17.2102 10.4367 17.0817C10.1266 16.9532 9.79414 16.8871 9.45842 16.8871C8.78041 16.8871 8.13016 17.1564 7.65073 17.6359C7.17131 18.1153 6.90197 18.7655 6.90197 19.4436C6.90197 20.1216 7.17131 20.7718 7.65073 21.2512C8.13016 21.7307 8.78041 22 9.45842 22ZM17.2334 20.2957C17.4594 20.2957 17.6762 20.2059 17.836 20.0461C17.9958 19.8863 18.0856 19.6696 18.0856 19.4436C18.0856 19.2176 17.9958 19.0008 17.836 18.841C17.6762 18.6812 17.4594 18.5914 17.2334 18.5914C17.0074 18.5914 16.7907 18.6812 16.6309 18.841C16.4711 19.0008 16.3813 19.2176 16.3813 19.4436C16.3813 19.6696 16.4711 19.8863 16.6309 20.0461C16.7907 20.2059 17.0074 20.2957 17.2334 20.2957ZM17.2334 22C17.5692 22 17.9016 21.9339 18.2118 21.8054C18.5219 21.6769 18.8037 21.4886 19.0411 21.2512C19.2785 21.0138 19.4668 20.732 19.5953 20.4219C19.7238 20.1117 19.7899 19.7793 19.7899 19.4436C19.7899 19.1078 19.7238 18.7754 19.5953 18.4652C19.4668 18.1551 19.2785 17.8733 19.0411 17.6359C18.8037 17.3985 18.5219 17.2102 18.2118 17.0817C17.9016 16.9532 17.5692 16.8871 17.2334 16.8871C16.5554 16.8871 15.9052 17.1564 15.4258 17.6359C14.9463 18.1153 14.677 18.7655 14.677 19.4436C14.677 20.1216 14.9463 20.7718 15.4258 21.2512C15.9052 21.7307 16.5554 22 17.2334 22Z" fill="#666666"/>
</svg>
