<svg width="17" height="16" viewBox="0 0 17 16" fill="none" xmlns="http://www.w3.org/2000/svg">
<path fill-rule="evenodd" clip-rule="evenodd" d="M4.04229 4.56382C4.03235 4.4538 4.04543 4.34292 4.08071 4.23824C4.11599 4.13356 4.17269 4.03738 4.24719 3.95582C4.32169 3.87426 4.41237 3.80912 4.51344 3.76454C4.61451 3.71996 4.72376 3.69692 4.83422 3.6969H14.476C14.5951 3.69695 14.7127 3.72374 14.82 3.7753C14.9274 3.82685 15.0218 3.90186 15.0962 3.99477C15.1707 4.08769 15.2234 4.19615 15.2504 4.31214C15.2773 4.42813 15.2779 4.5487 15.2521 4.66494L14.4374 8.33714C14.2972 8.96821 13.946 9.5326 13.4418 9.93708C12.9375 10.3416 12.3104 10.5619 11.6639 10.5618H7.17934C6.47022 10.5619 5.78673 10.2967 5.26321 9.81835C4.7397 9.34004 4.41402 8.68321 4.3502 7.97697L4.04229 4.56382ZM5.2069 4.8331L5.48186 7.87471C5.52017 8.29865 5.71573 8.69291 6.03008 8.97992C6.34443 9.26694 6.75481 9.42593 7.18048 9.42562H11.6651C12.0528 9.42553 12.429 9.2932 12.7314 9.05047C13.0338 8.80775 13.2444 8.46916 13.3285 8.09059L14.0522 4.8331H5.2069Z" fill="white"/>
<path fill-rule="evenodd" clip-rule="evenodd" d="M1.69336 1.79009C1.69336 1.63942 1.75321 1.49492 1.85975 1.38838C1.96629 1.28184 2.11079 1.22198 2.26146 1.22198H4.25436C4.39332 1.22213 4.52741 1.27319 4.63126 1.36553C4.73511 1.45786 4.80151 1.58506 4.81791 1.72305L5.27466 5.58727C5.29229 5.73704 5.24971 5.88767 5.15627 6.00603C5.06283 6.1244 4.92621 6.2008 4.77644 6.21843C4.62668 6.23606 4.47604 6.19347 4.35768 6.10003C4.23931 6.0066 4.16291 5.86997 4.14528 5.7202L3.74875 2.35705H2.26146C2.11079 2.35705 1.96629 2.2972 1.85975 2.19066C1.75321 2.08412 1.69336 1.94076 1.69336 1.79009ZM6.80626 13.5305C6.95693 13.5305 7.10143 13.4706 7.20797 13.3641C7.31451 13.2575 7.37436 13.113 7.37436 12.9623C7.37436 12.8117 7.31451 12.6672 7.20797 12.5606C7.10143 12.4541 6.95693 12.3942 6.80626 12.3942C6.65559 12.3942 6.5111 12.4541 6.40456 12.5606C6.29802 12.6672 6.23816 12.8117 6.23816 12.9623C6.23816 13.113 6.29802 13.2575 6.40456 13.3641C6.5111 13.4706 6.65559 13.5305 6.80626 13.5305ZM6.80626 14.6667C7.03008 14.6667 7.2517 14.6226 7.45847 14.5369C7.66525 14.4513 7.85313 14.3257 8.01139 14.1675C8.16965 14.0092 8.29518 13.8213 8.38083 13.6146C8.46648 13.4078 8.51057 13.1862 8.51057 12.9623C8.51057 12.7385 8.46648 12.5169 8.38083 12.3101C8.29518 12.1034 8.16965 11.9155 8.01139 11.7572C7.85313 11.599 7.66525 11.4734 7.45847 11.3878C7.2517 11.3021 7.03008 11.258 6.80626 11.258C6.35426 11.258 5.92076 11.4376 5.60114 11.7572C5.28152 12.0768 5.10196 12.5103 5.10196 12.9623C5.10196 13.4144 5.28152 13.8479 5.60114 14.1675C5.92076 14.4871 6.35426 14.6667 6.80626 14.6667ZM11.9896 13.5305C12.1403 13.5305 12.2848 13.4706 12.3913 13.3641C12.4979 13.2575 12.5577 13.113 12.5577 12.9623C12.5577 12.8117 12.4979 12.6672 12.3913 12.5606C12.2848 12.4541 12.1403 12.3942 11.9896 12.3942C11.8389 12.3942 11.6944 12.4541 11.5879 12.5606C11.4814 12.6672 11.4215 12.8117 11.4215 12.9623C11.4215 13.113 11.4814 13.2575 11.5879 13.3641C11.6944 13.4706 11.8389 13.5305 11.9896 13.5305ZM11.9896 14.6667C12.2134 14.6667 12.435 14.6226 12.6418 14.5369C12.8486 14.4513 13.0365 14.3257 13.1947 14.1675C13.353 14.0092 13.4785 13.8213 13.5642 13.6146C13.6498 13.4078 13.6939 13.1862 13.6939 12.9623C13.6939 12.7385 13.6498 12.5169 13.5642 12.3101C13.4785 12.1034 13.353 11.9155 13.1947 11.7572C13.0365 11.599 12.8486 11.4734 12.6418 11.3878C12.435 11.3021 12.2134 11.258 11.9896 11.258C11.5376 11.258 11.1041 11.4376 10.7845 11.7572C10.4649 12.0768 10.2853 12.5103 10.2853 12.9623C10.2853 13.4144 10.4649 13.8479 10.7845 14.1675C11.1041 14.4871 11.5376 14.6667 11.9896 14.6667Z" fill="white"/>
</svg>
