<svg xmlns="http://www.w3.org/2000/svg" viewBox="0 0 1032 724">
  <path d="M 36 0 C 16 0 0 16 0 36 L 0 672 C 0 692 16 708 36 708 L 972 708 C 992 708 1008 692 1008 672 L 1008 36 C 1008 16 992 0 972 0 L 36 0 Z M 36 36 L 972 36 L 972 672 L 36 672 L 36 36 Z M 610 254 C 600 254 592 256 584 258 C 576 260 568 264 562 268 C 556 272 550 278 546 286 C 542 292 540 300 540 310 C 540 320 542 326 544 332 C 546 338 550 344 556 348 C 560 352 564 356 570 358 C 576 360 582 362 588 364 L 604 370 C 610 372 614 374 618 376 C 622 378 626 380 628 384 C 630 388 632 392 632 396 C 632 402 630 406 628 410 C 626 414 624 416 620 418 C 616 420 614 422 610 424 C 606 424 600 424 598 424 C 590 424 582 422 574 420 C 566 416 560 410 556 404 L 532 426 C 540 436 550 442 560 446 C 572 452 584 454 596 454 C 606 454 614 452 624 450 C 632 448 638 444 644 438 C 652 434 656 426 660 420 C 664 412 666 404 666 394 C 666 384 664 376 660 370 C 656 364 652 358 646 354 C 642 350 636 346 630 344 C 622 342 616 340 610 338 C 604 336 600 334 596 332 C 592 332 588 330 584 328 C 578 324 574 316 574 308 C 574 304 576 300 578 296 C 580 294 582 290 586 288 C 588 286 592 286 596 284 C 606 282 618 282 628 288 C 634 290 638 294 642 298 L 664 274 C 656 268 648 262 638 260 C 628 256 618 254 610 254 Z M 236 254 C 224 256 214 258 202 262 C 190 266 180 272 170 282 C 160 290 154 300 148 312 C 144 324 140 338 140 354 C 140 368 142 382 148 394 C 152 406 160 416 168 426 C 178 434 188 442 200 446 C 214 452 226 454 242 454 C 258 454 272 450 284 444 C 296 440 306 430 314 420 L 288 402 C 284 408 276 414 268 418 C 262 422 252 424 242 424 C 232 424 224 422 216 418 C 208 414 200 410 196 404 C 190 398 186 390 182 382 C 180 374 178 364 178 354 C 178 344 180 334 182 326 C 186 318 190 310 196 304 C 202 298 208 294 216 290 C 232 282 250 282 266 288 C 274 292 282 298 286 304 L 312 284 C 308 278 304 274 298 270 C 294 266 288 264 282 262 C 276 260 268 258 262 256 C 254 254 246 254 236 254 Z M 404 260 L 322 448 L 360 448 L 376 406 L 458 406 L 476 448 L 514 448 L 434 260 L 404 260 Z M 712 260 L 712 448 L 746 448 L 746 364 L 834 364 L 834 448 L 868 448 L 868 260 L 834 260 L 834 336 L 746 336 L 746 260 L 712 260 Z M 418 300 L 446 376 L 388 376 L 418 300 Z" />
</svg>