<svg width="96" height="96" viewBox="0 0 96 96" fill="none" xmlns="http://www.w3.org/2000/svg">
<rect width="96" height="96" rx="4" fill="#EAF7E9"/>
<path opacity="0.2" d="M32.513 57.1876C30.2797 53.4197 29.4985 48.9661 30.3161 44.6629C31.1337 40.3598 33.4939 36.5031 36.9535 33.8168C40.4132 31.1305 44.7344 29.7993 49.106 30.0733C53.4775 30.3473 57.5987 32.2075 60.696 35.3047C63.7932 38.4019 65.6534 42.5231 65.9273 46.8947C66.2013 51.2662 64.8702 55.5875 62.1839 59.0471C59.4976 62.5068 55.6409 64.867 51.3377 65.6846C47.0346 66.5022 42.581 65.721 38.813 63.4876L32.588 65.2501C32.333 65.3247 32.0626 65.3293 31.8051 65.2635C31.5477 65.1976 31.3127 65.0638 31.1248 64.8759C30.9369 64.688 30.803 64.453 30.7372 64.1955C30.6713 63.9381 30.6759 63.6677 30.7505 63.4126L32.513 57.1876Z" fill="#2DB324"/>
<path d="M32.513 57.1876C30.2797 53.4197 29.4985 48.9661 30.3161 44.6629C31.1337 40.3598 33.4939 36.5031 36.9535 33.8168C40.4132 31.1305 44.7344 29.7993 49.106 30.0733C53.4775 30.3473 57.5987 32.2075 60.696 35.3047C63.7932 38.4019 65.6534 42.5231 65.9273 46.8947C66.2013 51.2662 64.8702 55.5875 62.1839 59.0471C59.4976 62.5068 55.6409 64.867 51.3377 65.6846C47.0346 66.5022 42.581 65.721 38.813 63.4876L32.588 65.2501C32.333 65.3247 32.0626 65.3293 31.8051 65.2635C31.5477 65.1976 31.3127 65.0638 31.1248 64.8759C30.9369 64.688 30.803 64.453 30.7372 64.1955C30.6713 63.9381 30.6759 63.6677 30.7505 63.4126L32.513 57.1876Z" stroke="#2DB324" stroke-width="3" stroke-linecap="round" stroke-linejoin="round"/>
<path d="M48 50.25C49.2426 50.25 50.25 49.2426 50.25 48C50.25 46.7574 49.2426 45.75 48 45.75C46.7574 45.75 45.75 46.7574 45.75 48C45.75 49.2426 46.7574 50.25 48 50.25Z" fill="#2DB324"/>
<path d="M39 50.25C40.2426 50.25 41.25 49.2426 41.25 48C41.25 46.7574 40.2426 45.75 39 45.75C37.7574 45.75 36.75 46.7574 36.75 48C36.75 49.2426 37.7574 50.25 39 50.25Z" fill="#2DB324"/>
<path d="M57 50.25C58.2426 50.25 59.25 49.2426 59.25 48C59.25 46.7574 58.2426 45.75 57 45.75C55.7574 45.75 54.75 46.7574 54.75 48C54.75 49.2426 55.7574 50.25 57 50.25Z" fill="#2DB324"/>
</svg>
