<svg width="36" height="36" viewBox="0 0 36 36" fill="none" xmlns="http://www.w3.org/2000/svg">
<g clip-path="url(#clip0_369_21066)">
<path d="M26.5398 17.9996C26.5354 16.655 26.3913 15.3144 26.1098 13.9996H29.7098C29.5253 13.4508 29.3014 12.9161 29.0398 12.3996H25.6898C25.0604 10.2955 24.0836 8.31151 22.7998 6.52961C21.9797 6.18481 21.1247 5.92999 20.2498 5.76961C22.0089 7.65827 23.3362 9.9069 24.1398 12.3596H18.7498V5.59961H17.2498V12.3696H11.8598C12.665 9.91246 13.9958 7.66023 15.7598 5.76961C14.8886 5.92746 14.037 6.17892 13.2198 6.51961C11.9309 8.29404 10.9474 10.2712 10.3098 12.3696H6.93977C6.67337 12.8955 6.44609 13.4403 6.25977 13.9996H9.88977C9.6082 15.3144 9.46409 16.655 9.45977 17.9996C9.46278 19.4704 9.63049 20.9362 9.95977 22.3696H6.41977C6.62551 22.9306 6.87286 23.4755 7.15977 23.9996H10.3898C11.0017 25.9155 11.9093 27.724 13.0798 29.3596C13.9178 29.7189 14.7932 29.9838 15.6898 30.1496C14.0575 28.3695 12.8023 26.2776 11.9998 23.9996H17.2598V30.3396H18.7598V23.9996H23.9998C23.1943 26.2784 21.9357 28.3704 20.2998 30.1496C21.2006 29.9781 22.0794 29.7064 22.9198 29.3396C24.0884 27.7102 24.9959 25.9085 25.6098 23.9996H28.8098C29.0953 23.4851 29.3427 22.9504 29.5498 22.3996H25.9998C26.3447 20.9579 26.5259 19.4819 26.5398 17.9996ZM17.2498 22.3696H11.5098C10.8061 19.6174 10.7753 16.7363 11.4198 13.9696H17.2498V22.3696ZM24.4898 22.3696H18.7498V13.9996H24.5798C24.8671 15.3133 25.008 16.6549 24.9998 17.9996C25.0091 19.4717 24.8378 20.9393 24.4898 22.3696Z" fill="#282828"/>
<path d="M18 2C14.8355 2 11.7421 2.93838 9.11088 4.69649C6.4797 6.45459 4.42894 8.95345 3.21793 11.8771C2.00693 14.8007 1.69008 18.0177 2.30744 21.1214C2.92481 24.2251 4.44866 27.0761 6.6863 29.3137C8.92394 31.5513 11.7749 33.0752 14.8786 33.6926C17.9823 34.3099 21.1993 33.9931 24.1229 32.7821C27.0466 31.5711 29.5454 29.5203 31.3035 26.8891C33.0616 24.2579 34 21.1645 34 18C34 13.7565 32.3143 9.68687 29.3137 6.68629C26.3131 3.68571 22.2435 2 18 2ZM18 32C15.2311 32 12.5243 31.1789 10.222 29.6406C7.91974 28.1022 6.12532 25.9157 5.06569 23.3576C4.00607 20.7994 3.72882 17.9845 4.26901 15.2687C4.80921 12.553 6.14258 10.0584 8.10051 8.1005C10.0584 6.14257 12.553 4.8092 15.2687 4.26901C17.9845 3.72881 20.7994 4.00606 23.3576 5.06569C25.9157 6.12531 28.1022 7.91973 29.6406 10.222C31.1789 12.5243 32 15.2311 32 18C32 21.713 30.525 25.274 27.8995 27.8995C25.274 30.525 21.713 32 18 32Z" fill="#282828"/>
</g>
<defs>
<clipPath id="clip0_369_21066">
<rect width="36" height="36" fill="white"/>
</clipPath>
</defs>
</svg>
