<svg width="32" height="32" viewBox="0 0 32 32" fill="none" xmlns="http://www.w3.org/2000/svg">
<rect x="0.5" y="0.5" width="31" height="31" rx="15.5" fill="white"/>
<rect x="0.5" y="0.5" width="31" height="31" rx="15.5" stroke="#EEEEEE"/>
<path d="M20.916 15.5834H16.416V11.0834C16.416 10.8532 16.2295 10.6667 15.9993 10.6667C15.7692 10.6667 15.5827 10.8532 15.5827 11.0834V15.5834H11.0827C10.8526 15.5834 10.666 15.7699 10.666 16C10.666 16.2301 10.8526 16.4167 11.0827 16.4167H15.5827V20.9167C15.5827 21.1468 15.7692 21.3334 15.9993 21.3334C16.2295 21.3334 16.416 21.1468 16.416 20.9167V16.4167H20.916C21.1461 16.4167 21.3327 16.2301 21.3327 16C21.3327 15.7699 21.1461 15.5834 20.916 15.5834Z" fill="#666666"/>
</svg>
