<svg width="36" height="36" viewBox="0 0 36 36" fill="none" xmlns="http://www.w3.org/2000/svg">
<path d="M27.1892 21.4033C24.687 21.4033 22.6514 23.4389 22.6514 25.9411C22.6514 28.4434 24.687 30.479 27.1892 30.479C29.6918 30.479 31.727 28.4434 31.727 25.9411C31.727 23.4389 29.6914 21.4033 27.1892 21.4033ZM27.1892 28.2101C25.9379 28.2101 24.9203 27.1924 24.9203 25.9411C24.9203 24.6899 25.9379 23.6722 27.1892 23.6722C28.4405 23.6722 29.4581 24.6899 29.4581 25.9411C29.4581 27.1925 28.4405 28.2101 27.1892 28.2101Z" fill="#B87153"/>
<path d="M11.6848 21.4033C9.18259 21.4033 7.14697 23.4389 7.14697 25.9411C7.14697 28.4434 9.18259 30.479 11.6848 30.479C14.187 30.479 16.2226 28.4434 16.2226 25.9411C16.2226 23.4389 14.187 21.4033 11.6848 21.4033ZM11.6848 28.2101C10.4335 28.2101 9.41589 27.1924 9.41589 25.9411C9.41589 24.6899 10.4335 23.6722 11.6848 23.6722C12.9357 23.6722 13.9537 24.6899 13.9537 25.9411C13.9537 27.1925 12.9361 28.2101 11.6848 28.2101Z" fill="#B87153"/>
<path d="M30.2445 8.41446C30.0516 8.0314 29.6595 7.78973 29.2307 7.78973H23.2559V10.0586H28.5311L31.6202 16.2028L33.6478 15.1833L30.2445 8.41446Z" fill="#B87153"/>
<path d="M23.7857 24.8445H15.2017V27.1135H23.7857V24.8445Z" fill="#B87153"/>
<path d="M8.28052 24.8445H4.3478C3.72118 24.8445 3.21338 25.3523 3.21338 25.9789C3.21338 26.6055 3.72125 27.1133 4.3478 27.1133H8.28059C8.90722 27.1133 9.41501 26.6055 9.41501 25.9789C9.41501 25.3523 8.90714 24.8445 8.28052 24.8445Z" fill="#B87153"/>
<path d="M35.7608 17.9091L33.5294 15.0351C33.315 14.7583 32.9841 14.5965 32.6335 14.5965H24.3898V6.6553C24.3898 6.02867 23.882 5.52087 23.2554 5.52087H4.3478C3.72118 5.52087 3.21338 6.02874 3.21338 6.6553C3.21338 7.28185 3.72125 7.78972 4.3478 7.78972H22.1209V15.7309C22.1209 16.3575 22.6288 16.8653 23.2553 16.8653H32.078L33.7301 18.9935V24.8443H30.5915C29.9648 24.8443 29.457 25.3522 29.457 25.9787C29.457 26.6053 29.9649 27.1131 30.5915 27.1131H34.8646C35.4912 27.1131 35.999 26.6053 35.999 25.9787V18.6049C35.999 18.353 35.9151 18.108 35.7608 17.9091Z" fill="#B87153"/>
<path d="M8.20597 19.0967H2.98745C2.36082 19.0967 1.85303 19.6045 1.85303 20.2311C1.85303 20.8577 2.36089 21.3655 2.98745 21.3655H8.2059C8.83253 21.3655 9.34033 20.8577 9.34033 20.2311C9.3404 19.6045 8.83253 19.0967 8.20597 19.0967Z" fill="#B87153"/>
<path d="M10.8151 14.6344H1.13442C0.507867 14.6344 0 15.1423 0 15.7689C0 16.3955 0.507867 16.9033 1.13442 16.9033H10.8151C11.4417 16.9033 11.9495 16.3954 11.9495 15.7689C11.9495 15.1423 11.4417 14.6344 10.8151 14.6344Z" fill="#B87153"/>
<path d="M12.6681 10.1722H2.98745C2.36082 10.1722 1.85303 10.6801 1.85303 11.3067C1.85303 11.9333 2.36089 12.4411 2.98745 12.4411H12.6681C13.2948 12.4411 13.8026 11.9332 13.8026 11.3067C13.8026 10.6801 13.2948 10.1722 12.6681 10.1722Z" fill="#B87153"/>
</svg>
