<svg width="64" height="64" viewBox="0 0 64 64" fill="none" xmlns="http://www.w3.org/2000/svg">
<rect width="64" height="64" rx="32" fill="#D6F8F0" fill-opacity="0.05"/>
<path d="M42.8653 43.7775H21.1337C19.8331 43.7758 18.5863 43.2583 17.6667 42.3386C16.7472 41.4189 16.23 40.172 16.2285 38.8714V25.1288C16.23 23.8283 16.7472 22.5815 17.6668 21.6619C18.5864 20.7423 19.8332 20.2251 21.1337 20.2236H42.8653C44.1659 20.2251 45.4128 20.7423 46.3325 21.6619C47.2522 22.5814 47.7697 23.8282 47.7714 25.1288V38.8714C47.7699 40.1721 47.2526 41.4192 46.3328 42.3389C45.4131 43.2587 44.166 43.776 42.8653 43.7775ZM21.1337 22.5093C20.4392 22.5101 19.7733 22.7863 19.2822 23.2774C18.7912 23.7684 18.515 24.4343 18.5142 25.1288V38.8714C18.5147 39.5661 18.7908 40.2321 19.2819 40.7234C19.773 41.2147 20.439 41.491 21.1337 41.4917H42.8653C43.5601 41.491 44.2261 41.2147 44.7174 40.7235C45.2086 40.2322 45.4849 39.5661 45.4857 38.8714V25.1288C45.4847 24.4342 45.2083 23.7684 44.7171 23.2773C44.2258 22.7863 43.5599 22.5101 42.8653 22.5093H21.1337Z" fill="#E3A745"/>
<path d="M31.9856 35.0763C31.0267 35.0858 30.0927 34.7717 29.3342 34.1849L17.112 24.445C16.875 24.256 16.7228 23.9806 16.6888 23.6793C16.6549 23.378 16.742 23.0756 16.931 22.8386C17.12 22.6016 17.3955 22.4493 17.6967 22.4154C17.998 22.3814 18.3004 22.4686 18.5374 22.6576L30.7559 32.3975C31.1169 32.6535 31.5487 32.7905 31.9912 32.7893C32.4338 32.7882 32.8649 32.6489 33.2245 32.3911L45.2922 22.6622C45.528 22.4719 45.8297 22.3832 46.131 22.4154C46.4322 22.4476 46.7083 22.5982 46.8986 22.834C47.0888 23.0699 47.1775 23.3716 47.1453 23.6728C47.1131 23.9741 46.9625 24.2502 46.7267 24.4404L34.6627 34.1693C33.899 34.7665 32.955 35.0863 31.9856 35.0763Z" fill="#E3A745"/>
</svg>
