<svg width="32" height="32" viewBox="0 0 32 32" fill="none" xmlns="http://www.w3.org/2000/svg">
<path d="M26.8658 27.7771H5.13415C3.83358 27.7754 2.58679 27.2579 1.66723 26.3382C0.747683 25.4185 0.230455 24.1716 0.229004 22.871V9.12841C0.230456 7.82793 0.747712 6.58113 1.66729 5.66155C2.58687 4.74198 3.83367 4.22472 5.13415 4.22327H26.8658C28.1664 4.22472 29.4133 4.74195 30.333 5.6615C31.2527 6.58105 31.7702 7.82785 31.7719 9.12841V22.871C31.7704 24.1718 31.2531 25.4188 30.3333 26.3385C29.4136 27.2583 28.1665 27.7756 26.8658 27.7771ZM5.13415 6.50898C4.43965 6.50971 3.77381 6.78592 3.28273 7.277C2.79165 7.76808 2.51544 8.43392 2.51472 9.12841V22.871C2.5152 23.5657 2.7913 24.2318 3.28241 24.723C3.77352 25.2143 4.4395 25.4907 5.13415 25.4914H26.8658C27.5605 25.4907 28.2266 25.2144 28.7179 24.7231C29.2091 24.2318 29.4854 23.5658 29.4861 22.871V9.12841C29.4852 8.43383 29.2088 7.768 28.7175 7.27694C28.2263 6.78589 27.5604 6.50971 26.8658 6.50898H5.13415Z" fill="#B87153"/>
<path d="M15.9861 19.0763C15.0272 19.0858 14.0931 18.7717 13.3347 18.1849L1.11253 8.44501C0.875506 8.25599 0.723272 7.98056 0.689323 7.6793C0.655373 7.37804 0.742489 7.07564 0.931505 6.83861C1.12052 6.60158 1.39595 6.44935 1.69721 6.4154C1.99847 6.38145 2.30088 6.46856 2.5379 6.65758L14.7564 16.3975C15.1174 16.6535 15.5492 16.7905 15.9917 16.7893C16.4342 16.7882 16.8654 16.6489 17.225 16.3911L29.2926 6.66215C29.5285 6.47192 29.8302 6.38316 30.1314 6.4154C30.4327 6.44763 30.7088 6.59822 30.899 6.83404C31.0893 7.06985 31.178 7.37158 31.1458 7.67283C31.1136 7.97409 30.963 8.25021 30.7272 8.44044L18.6632 18.1693C17.8995 18.7665 16.9555 19.0863 15.9861 19.0763Z" fill="#B87153"/>
</svg>
