<svg width="340" height="35" viewBox="0 0 340 35" fill="none" xmlns="http://www.w3.org/2000/svg">
<g filter="url(#filter0_d_707_18861)">
<path d="M6.84766 17.0625V11.584C6.84766 6.70703 6.84766 5.84766 6.7832 4.83789C6.71875 3.78516 6.48242 3.29102 5.45117 3.07617C5.19336 3.01172 4.67773 2.96875 4.39844 2.96875C4.26953 2.96875 4.14062 2.92578 4.14062 2.79688C4.14062 2.60352 4.29102 2.53906 4.63477 2.53906C6.03125 2.53906 8.00781 2.64648 8.1582 2.64648C8.52344 2.64648 10.5 2.53906 12.3691 2.53906C15.4414 2.53906 21.1562 2.25977 24.8516 6.08398C26.4199 7.7168 27.8809 10.2949 27.8809 14.0117C27.8809 17.9219 26.248 20.9512 24.5078 22.7988C23.1758 24.1953 20.3613 26.3652 15.0762 26.3652C13.7441 26.3652 12.0898 26.2793 10.7363 26.1934C9.38281 26.0859 8.30859 26 8.1582 26C8.09375 26 7.55664 26 6.91211 26.0215C6.28906 26.0215 5.58008 26.0859 5.10742 26.0859C4.76367 26.0859 4.61328 26.0215 4.61328 25.8496C4.61328 25.7422 4.67773 25.6562 4.84961 25.6562C5.12891 25.6562 5.51562 25.5918 5.79492 25.5273C6.41797 25.3984 6.56836 24.7324 6.69727 23.8301C6.84766 22.5195 6.84766 20.0488 6.84766 17.0625ZM9.46875 11.0684V14.9355C9.46875 18.2441 9.49023 21.1016 9.5332 21.7031C9.55469 22.4766 9.61914 23.7227 9.87695 24.0664C10.2852 24.668 11.4883 25.3125 15.1621 25.3125C18.0625 25.3125 20.748 24.2598 22.5742 22.4121C24.207 20.8223 25.0664 17.8359 25.0664 14.9785C25.0664 11.0254 23.3691 8.46875 22.0801 7.11523C19.1582 4.04297 15.6133 3.5918 11.8965 3.5918C11.2734 3.5918 10.1133 3.69922 9.87695 3.82812C9.59766 3.93555 9.49023 4.10742 9.49023 4.45117C9.46875 5.50391 9.46875 8.68359 9.46875 11.0684ZM38.1289 11.584V17.0625C38.1289 20.0488 38.1289 22.5195 38.2793 23.8301C38.3652 24.7324 38.5586 25.3984 39.5039 25.5273C39.9336 25.5918 40.6211 25.6562 40.9004 25.6562C41.0938 25.6562 41.1582 25.7422 41.1582 25.8496C41.1582 26 40.9863 26.0859 40.6426 26.0859C38.9453 26.0859 36.9688 26 36.8184 26C36.668 26 34.6914 26.0859 33.7676 26.0859C33.4238 26.0859 33.2734 26.0215 33.2734 25.8496C33.2734 25.7422 33.3379 25.6562 33.5098 25.6562C33.7891 25.6562 34.1758 25.5918 34.4551 25.5273C35.0781 25.3984 35.2285 24.7324 35.3574 23.8301C35.5078 22.5195 35.5078 20.0488 35.5078 17.0625V11.584C35.5078 6.70703 35.5078 5.84766 35.4434 4.83789C35.3789 3.78516 35.0781 3.26953 34.3906 3.09766C34.0469 3.01172 33.6387 2.96875 33.4238 2.96875C33.2949 2.96875 33.166 2.92578 33.166 2.79688C33.166 2.60352 33.3379 2.53906 33.6816 2.53906C34.6914 2.53906 36.668 2.64648 36.8184 2.64648C36.9688 2.64648 38.9453 2.53906 39.8691 2.53906C40.2129 2.53906 40.3633 2.60352 40.3633 2.79688C40.3633 2.92578 40.2344 2.96875 40.127 2.96875C39.9121 2.96875 39.7188 3.01172 39.332 3.07617C38.4941 3.22656 38.2578 3.76367 38.1934 4.83789C38.1289 5.84766 38.1289 6.70703 38.1289 11.584ZM48.8711 17.0625V11.584C48.8711 6.70703 48.8711 5.84766 48.8066 4.83789C48.7422 3.78516 48.5059 3.29102 47.4746 3.07617C47.2168 3.01172 46.7012 2.96875 46.4219 2.96875C46.293 2.96875 46.1641 2.92578 46.1641 2.79688C46.1641 2.60352 46.3145 2.53906 46.6582 2.53906C48.0547 2.53906 50.0312 2.64648 50.1816 2.64648C50.5469 2.64648 52.5234 2.53906 54.3926 2.53906C57.4648 2.53906 63.1797 2.25977 66.875 6.08398C68.4434 7.7168 69.9043 10.2949 69.9043 14.0117C69.9043 17.9219 68.2715 20.9512 66.5312 22.7988C65.1992 24.1953 62.3848 26.3652 57.0996 26.3652C55.7676 26.3652 54.1133 26.2793 52.7598 26.1934C51.4062 26.0859 50.332 26 50.1816 26C50.1172 26 49.5801 26 48.9355 26.0215C48.3125 26.0215 47.6035 26.0859 47.1309 26.0859C46.7871 26.0859 46.6367 26.0215 46.6367 25.8496C46.6367 25.7422 46.7012 25.6562 46.873 25.6562C47.1523 25.6562 47.5391 25.5918 47.8184 25.5273C48.4414 25.3984 48.5918 24.7324 48.7207 23.8301C48.8711 22.5195 48.8711 20.0488 48.8711 17.0625ZM51.4922 11.0684V14.9355C51.4922 18.2441 51.5137 21.1016 51.5566 21.7031C51.5781 22.4766 51.6426 23.7227 51.9004 24.0664C52.3086 24.668 53.5117 25.3125 57.1855 25.3125C60.0859 25.3125 62.7715 24.2598 64.5977 22.4121C66.2305 20.8223 67.0898 17.8359 67.0898 14.9785C67.0898 11.0254 65.3926 8.46875 64.1035 7.11523C61.1816 4.04297 57.6367 3.5918 53.9199 3.5918C53.2969 3.5918 52.1367 3.69922 51.9004 3.82812C51.6211 3.93555 51.5137 4.10742 51.5137 4.45117C51.4922 5.50391 51.4922 8.68359 51.4922 11.0684ZM77.9609 6.94336L78.3691 21.8535C78.4336 24.4102 78.7559 25.2266 79.5938 25.4629C80.1738 25.6348 80.8613 25.6562 81.1406 25.6562C81.3125 25.6562 81.3984 25.7207 81.3984 25.8496C81.3984 26.0215 81.2051 26.0859 80.8398 26.0859C76.8223 26.0859 78.3262 26.0859 74.5449 26.0859C74.2227 26.0859 74.0508 26.0645 74.0508 25.8496C74.0508 25.7207 74.1367 25.6562 74.2871 25.6562C74.5449 25.6562 75.1035 25.6348 75.5762 25.4629C76.3496 25.248 76.5 24.3457 76.5 21.5098L76.543 3.65625C76.543 2.45312 76.6289 2.10938 76.8867 2.10938C77.123 2.10938 77.6602 2.79688 77.9609 3.09766C78.4336 3.63477 83.0742 8.64062 87.8652 13.7969C90.959 17.084 94.3535 20.8867 95.3418 21.918L95.0195 6.08398C94.9766 4.06445 94.7617 3.37695 93.7949 3.14062C93.2363 3.01172 92.5273 2.96875 92.2695 2.96875C92.0547 2.96875 92.0117 2.88281 92.0117 2.75391C92.0117 2.58203 92.2695 2.53906 92.6348 2.53906C96.0723 2.53906 95.3418 2.53906 98.5215 2.53906C98.8652 2.53906 99.0801 2.58203 99.0801 2.75391C99.0801 2.88281 98.9727 2.96875 98.7578 2.96875C98.5859 2.96875 98.3711 2.96875 98.0059 3.07617C96.9746 3.29102 96.8457 3.97852 96.8457 5.84766L96.7812 24.1094C96.7812 26.1504 96.7168 26.3223 96.502 26.3223C96.2656 26.3223 95.8789 25.9785 94.2246 24.3242C93.8809 24.002 89.4121 19.4258 86.1035 15.8809C82.4941 11.9922 78.9707 8.06055 77.9609 6.94336ZM104.451 3.20508C104.451 2.23828 104.043 1.42188 103.828 1.16406C103.592 0.884766 103.549 0.798828 103.549 0.648438C103.549 0.541016 103.699 0.455078 103.828 0.455078C104.322 0.455078 105.525 0.820312 106.02 1.01367C106.385 1.20703 106.535 1.35742 106.535 1.83008C106.535 4.04297 104.945 6.66406 103.871 7.95312C103.742 8.14648 103.613 8.21094 103.463 8.21094C103.398 8.21094 103.312 8.14648 103.312 8.06055C103.312 7.95312 103.334 7.86719 103.42 7.65234C103.893 6.66406 104.451 4.9668 104.451 3.20508ZM120.178 3.89258V17.0625C120.178 20.0488 120.178 22.5195 120.328 23.8301C120.436 24.7324 120.607 25.3984 121.553 25.5273C121.982 25.5918 122.67 25.6562 122.949 25.6562C123.143 25.6562 123.207 25.7422 123.207 25.8496C123.207 26 123.035 26.0859 122.691 26.0859C120.994 26.0859 119.018 26 118.867 26C118.717 26 116.74 26.0859 115.816 26.0859C115.473 26.0859 115.322 26.0215 115.322 25.8496C115.322 25.7422 115.387 25.6562 115.559 25.6562C115.838 25.6562 116.225 25.5918 116.504 25.5273C117.127 25.3984 117.277 24.7324 117.406 23.8301C117.557 22.5195 117.557 20.0488 117.557 17.0625V3.89258L112.959 3.93555C111.025 3.97852 110.273 4.19336 109.779 4.94531C109.436 5.46094 109.328 5.69727 109.242 5.91211C109.156 6.14844 109.049 6.21289 108.92 6.21289C108.834 6.21289 108.77 6.12695 108.77 5.93359C108.77 5.63281 109.393 2.94727 109.457 2.68945C109.521 2.51758 109.65 2.10938 109.779 2.10938C109.994 2.10938 110.295 2.41016 111.133 2.47461C112.035 2.58203 113.238 2.64648 113.604 2.64648H125.291C126.279 2.64648 126.988 2.58203 127.504 2.47461C127.955 2.41016 128.234 2.32422 128.363 2.32422C128.535 2.32422 128.535 2.51758 128.535 2.68945C128.535 3.63477 128.428 5.7832 128.428 6.12695C128.428 6.40625 128.342 6.53516 128.213 6.53516C128.062 6.53516 127.998 6.42773 127.955 5.99805L127.934 5.6543C127.848 4.73047 127.096 4 124.109 3.93555L120.178 3.89258ZM142.5 17.0625V11.584C142.5 6.70703 142.5 5.84766 142.436 4.83789C142.371 3.78516 142.135 3.29102 141.104 3.07617C140.846 3.01172 140.33 2.96875 140.051 2.96875C139.922 2.96875 139.793 2.92578 139.793 2.79688C139.793 2.60352 139.943 2.53906 140.287 2.53906C140.996 2.53906 141.855 2.53906 142.543 2.58203L143.811 2.64648C144.434 2.66797 150.75 2.64648 151.48 2.60352C152.061 2.58203 152.555 2.58203 152.834 2.47461C153.027 2.41016 153.156 2.30273 153.285 2.30273C153.414 2.30273 153.457 2.41016 153.457 2.58203C153.457 2.79688 153.307 3.16211 153.221 4.04297C153.178 4.34375 153.135 5.71875 153.07 6.08398C153.027 6.25586 152.963 6.42773 152.812 6.42773C152.662 6.42773 152.598 6.27734 152.598 6.0625C152.598 5.80469 152.512 5.28906 152.318 4.88086C152.125 4.47266 151.416 3.91406 150.191 3.89258L145.4 3.78516C145.207 3.78516 145.121 3.89258 145.121 4.12891V12.7227C145.121 12.916 145.143 13.002 145.336 13.002L149.332 12.9805C149.848 12.9805 150.299 12.9805 150.729 12.9375C151.48 12.8945 151.889 12.7871 152.168 12.3789C152.275 12.2285 152.383 12.0781 152.512 12.0781C152.619 12.0781 152.662 12.1641 152.662 12.3145C152.662 12.5078 152.512 13.0449 152.404 14.0762C152.34 14.6992 152.275 15.9453 152.275 16.1602C152.275 16.4395 152.275 16.7402 152.061 16.7402C151.91 16.7402 151.846 16.6328 151.846 16.4609C151.824 16.1602 151.781 15.7305 151.652 15.3438C151.502 14.9141 151.008 14.3555 150.041 14.2266C149.268 14.1406 145.873 14.1406 145.336 14.1406C145.186 14.1406 145.121 14.1836 145.121 14.4199V17.0625C145.121 20.0488 145.121 22.5195 145.271 23.8301C145.357 24.7324 145.551 25.3984 146.496 25.5273C146.926 25.5918 147.613 25.6562 147.893 25.6562C148.086 25.6562 148.15 25.7422 148.15 25.8496C148.15 26 147.979 26.0859 147.635 26.0859C145.938 26.0859 143.961 26 143.811 26C143.66 26 141.684 26.0859 140.76 26.0859C140.416 26.0859 140.266 26.0215 140.266 25.8496C140.266 25.7422 140.33 25.6562 140.502 25.6562C140.781 25.6562 141.168 25.5918 141.447 25.5273C142.07 25.3984 142.221 24.7324 142.35 23.8301C142.5 22.5195 142.5 20.0488 142.5 17.0625ZM163.469 11.584V17.0625C163.469 20.0488 163.469 22.5195 163.619 23.8301C163.705 24.7324 163.898 25.3984 164.844 25.5273C165.273 25.5918 165.961 25.6562 166.24 25.6562C166.434 25.6562 166.498 25.7422 166.498 25.8496C166.498 26 166.326 26.0859 165.982 26.0859C164.285 26.0859 162.309 26 162.158 26C162.008 26 160.031 26.0859 159.107 26.0859C158.764 26.0859 158.613 26.0215 158.613 25.8496C158.613 25.7422 158.678 25.6562 158.85 25.6562C159.129 25.6562 159.516 25.5918 159.795 25.5273C160.418 25.3984 160.568 24.7324 160.697 23.8301C160.848 22.5195 160.848 20.0488 160.848 17.0625V11.584C160.848 6.70703 160.848 5.84766 160.783 4.83789C160.719 3.78516 160.418 3.26953 159.73 3.09766C159.387 3.01172 158.979 2.96875 158.764 2.96875C158.635 2.96875 158.506 2.92578 158.506 2.79688C158.506 2.60352 158.678 2.53906 159.021 2.53906C160.031 2.53906 162.008 2.64648 162.158 2.64648C162.309 2.64648 164.285 2.53906 165.209 2.53906C165.553 2.53906 165.703 2.60352 165.703 2.79688C165.703 2.92578 165.574 2.96875 165.467 2.96875C165.252 2.96875 165.059 3.01172 164.672 3.07617C163.834 3.22656 163.598 3.76367 163.533 4.83789C163.469 5.84766 163.469 6.70703 163.469 11.584ZM174.641 6.94336L175.049 21.8535C175.113 24.4102 175.436 25.2266 176.273 25.4629C176.854 25.6348 177.541 25.6562 177.82 25.6562C177.992 25.6562 178.078 25.7207 178.078 25.8496C178.078 26.0215 177.885 26.0859 177.52 26.0859C173.502 26.0859 175.006 26.0859 171.225 26.0859C170.902 26.0859 170.73 26.0645 170.73 25.8496C170.73 25.7207 170.816 25.6562 170.967 25.6562C171.225 25.6562 171.783 25.6348 172.256 25.4629C173.029 25.248 173.18 24.3457 173.18 21.5098L173.223 3.65625C173.223 2.45312 173.309 2.10938 173.566 2.10938C173.803 2.10938 174.34 2.79688 174.641 3.09766C175.113 3.63477 179.754 8.64062 184.545 13.7969C187.639 17.084 191.033 20.8867 192.021 21.918L191.699 6.08398C191.656 4.06445 191.441 3.37695 190.475 3.14062C189.916 3.01172 189.207 2.96875 188.949 2.96875C188.734 2.96875 188.691 2.88281 188.691 2.75391C188.691 2.58203 188.949 2.53906 189.314 2.53906C192.752 2.53906 192.021 2.53906 195.201 2.53906C195.545 2.53906 195.76 2.58203 195.76 2.75391C195.76 2.88281 195.652 2.96875 195.438 2.96875C195.266 2.96875 195.051 2.96875 194.686 3.07617C193.654 3.29102 193.525 3.97852 193.525 5.84766L193.461 24.1094C193.461 26.1504 193.396 26.3223 193.182 26.3223C192.945 26.3223 192.559 25.9785 190.904 24.3242C190.561 24.002 186.092 19.4258 182.783 15.8809C179.174 11.9922 175.65 8.06055 174.641 6.94336ZM204.031 17.0625V11.584C204.031 6.70703 204.031 5.84766 203.967 4.83789C203.902 3.78516 203.666 3.29102 202.635 3.07617C202.377 3.01172 201.861 2.96875 201.582 2.96875C201.453 2.96875 201.324 2.92578 201.324 2.79688C201.324 2.60352 201.475 2.53906 201.818 2.53906C203.215 2.53906 205.191 2.64648 205.342 2.64648C205.707 2.64648 207.684 2.53906 209.553 2.53906C212.625 2.53906 218.34 2.25977 222.035 6.08398C223.604 7.7168 225.064 10.2949 225.064 14.0117C225.064 17.9219 223.432 20.9512 221.691 22.7988C220.359 24.1953 217.545 26.3652 212.26 26.3652C210.928 26.3652 209.273 26.2793 207.92 26.1934C206.566 26.0859 205.492 26 205.342 26C205.277 26 204.74 26 204.096 26.0215C203.473 26.0215 202.764 26.0859 202.291 26.0859C201.947 26.0859 201.797 26.0215 201.797 25.8496C201.797 25.7422 201.861 25.6562 202.033 25.6562C202.312 25.6562 202.699 25.5918 202.979 25.5273C203.602 25.3984 203.752 24.7324 203.881 23.8301C204.031 22.5195 204.031 20.0488 204.031 17.0625ZM206.652 11.0684V14.9355C206.652 18.2441 206.674 21.1016 206.717 21.7031C206.738 22.4766 206.803 23.7227 207.061 24.0664C207.469 24.668 208.672 25.3125 212.346 25.3125C215.246 25.3125 217.932 24.2598 219.758 22.4121C221.391 20.8223 222.25 17.8359 222.25 14.9785C222.25 11.0254 220.553 8.46875 219.264 7.11523C216.342 4.04297 212.797 3.5918 209.08 3.5918C208.457 3.5918 207.297 3.69922 207.061 3.82812C206.781 3.93555 206.674 4.10742 206.674 4.45117C206.652 5.50391 206.652 8.68359 206.652 11.0684ZM242.66 11.584V17.0625C242.66 20.0488 242.66 22.5195 242.811 23.8301C242.896 24.7324 243.09 25.3984 244.035 25.5273C244.465 25.5918 245.152 25.6562 245.432 25.6562C245.625 25.6562 245.689 25.7422 245.689 25.8496C245.689 26 245.518 26.0859 245.174 26.0859C243.477 26.0859 241.5 26 241.35 26C241.199 26 239.223 26.0859 238.299 26.0859C237.955 26.0859 237.805 26.0215 237.805 25.8496C237.805 25.7422 237.869 25.6562 238.041 25.6562C238.32 25.6562 238.707 25.5918 238.986 25.5273C239.609 25.3984 239.76 24.7324 239.889 23.8301C240.039 22.5195 240.039 20.0488 240.039 17.0625V11.584C240.039 6.70703 240.039 5.84766 239.975 4.83789C239.91 3.78516 239.609 3.26953 238.922 3.09766C238.578 3.01172 238.17 2.96875 237.955 2.96875C237.826 2.96875 237.697 2.92578 237.697 2.79688C237.697 2.60352 237.869 2.53906 238.213 2.53906C239.223 2.53906 241.199 2.64648 241.35 2.64648C241.5 2.64648 243.477 2.53906 244.4 2.53906C244.744 2.53906 244.895 2.60352 244.895 2.79688C244.895 2.92578 244.766 2.96875 244.658 2.96875C244.443 2.96875 244.25 3.01172 243.863 3.07617C243.025 3.22656 242.789 3.76367 242.725 4.83789C242.66 5.84766 242.66 6.70703 242.66 11.584ZM260.041 3.89258V17.0625C260.041 20.0488 260.041 22.5195 260.191 23.8301C260.299 24.7324 260.471 25.3984 261.416 25.5273C261.846 25.5918 262.533 25.6562 262.812 25.6562C263.006 25.6562 263.07 25.7422 263.07 25.8496C263.07 26 262.898 26.0859 262.555 26.0859C260.857 26.0859 258.881 26 258.73 26C258.58 26 256.604 26.0859 255.68 26.0859C255.336 26.0859 255.186 26.0215 255.186 25.8496C255.186 25.7422 255.25 25.6562 255.422 25.6562C255.701 25.6562 256.088 25.5918 256.367 25.5273C256.99 25.3984 257.141 24.7324 257.27 23.8301C257.42 22.5195 257.42 20.0488 257.42 17.0625V3.89258L252.822 3.93555C250.889 3.97852 250.137 4.19336 249.643 4.94531C249.299 5.46094 249.191 5.69727 249.105 5.91211C249.02 6.14844 248.912 6.21289 248.783 6.21289C248.697 6.21289 248.633 6.12695 248.633 5.93359C248.633 5.63281 249.256 2.94727 249.32 2.68945C249.385 2.51758 249.514 2.10938 249.643 2.10938C249.857 2.10938 250.158 2.41016 250.996 2.47461C251.898 2.58203 253.102 2.64648 253.467 2.64648H265.154C266.143 2.64648 266.852 2.58203 267.367 2.47461C267.818 2.41016 268.098 2.32422 268.227 2.32422C268.398 2.32422 268.398 2.51758 268.398 2.68945C268.398 3.63477 268.291 5.7832 268.291 6.12695C268.291 6.40625 268.205 6.53516 268.076 6.53516C267.926 6.53516 267.861 6.42773 267.818 5.99805L267.797 5.6543C267.711 4.73047 266.959 4 263.973 3.93555L260.041 3.89258ZM275.016 17.0625V11.584C275.016 6.70703 275.016 5.84766 274.951 4.83789C274.887 3.78516 274.65 3.29102 273.619 3.07617C273.361 3.01172 272.846 2.96875 272.566 2.96875C272.438 2.96875 272.309 2.92578 272.309 2.79688C272.309 2.60352 272.459 2.53906 272.803 2.53906C273.512 2.53906 274.371 2.53906 275.059 2.58203L276.326 2.64648C276.541 2.64648 282.75 2.64648 283.459 2.60352C284.061 2.58203 284.555 2.51758 284.791 2.45312C284.963 2.41016 285.07 2.30273 285.242 2.30273C285.328 2.30273 285.35 2.41016 285.35 2.58203C285.35 2.79688 285.199 3.16211 285.113 4.04297C285.07 4.34375 285.027 5.71875 284.963 6.08398C284.92 6.25586 284.855 6.42773 284.727 6.42773C284.555 6.42773 284.49 6.27734 284.49 6.04102C284.49 5.80469 284.447 5.28906 284.297 4.90234C284.082 4.4082 283.781 4.04297 282.084 3.84961C281.568 3.78516 278.174 3.76367 277.83 3.76367C277.701 3.76367 277.637 3.84961 277.637 4.06445V12.6582C277.637 12.8945 277.658 12.9805 277.83 12.9805C278.217 12.9805 282.062 12.9805 282.771 12.916C283.523 12.8516 283.953 12.7871 284.232 12.4863C284.447 12.2285 284.576 12.0781 284.705 12.0781C284.791 12.0781 284.855 12.1426 284.855 12.3145C284.855 12.5078 284.705 13.0449 284.619 14.0762C284.555 14.6992 284.49 15.8379 284.49 16.0527C284.49 16.3105 284.49 16.6543 284.275 16.6543C284.104 16.6543 284.061 16.5254 284.061 16.375C284.061 16.0527 284.061 15.752 283.932 15.3438C283.803 14.9141 283.523 14.377 282.299 14.248C281.461 14.1621 278.389 14.0977 277.852 14.0977C277.701 14.0977 277.637 14.1836 277.637 14.3125V17.0625C277.637 18.1152 277.594 21.7246 277.637 22.3906C277.723 24.5391 278.195 24.9473 281.246 24.9473C282.062 24.9473 283.438 24.9473 284.232 24.6035C285.049 24.2598 285.414 23.6367 285.65 22.3477C285.693 22.0039 285.758 21.8965 285.93 21.8965C286.102 21.8965 286.102 22.1328 286.102 22.3477C286.102 22.6055 285.865 24.7324 285.693 25.377C285.479 26.1934 285.242 26.1934 284.018 26.1934C281.676 26.1934 279.979 26.1289 278.754 26.0859C277.551 26.0215 276.799 26 276.326 26C276.262 26 275.725 26 275.08 26.0215C274.457 26.0215 273.748 26.0859 273.275 26.0859C272.932 26.0859 272.781 26.0215 272.781 25.8496C272.781 25.7422 272.846 25.6562 273.018 25.6562C273.297 25.6562 273.684 25.5918 273.963 25.5273C274.586 25.3984 274.736 24.7324 274.865 23.8301C275.016 22.5195 275.016 20.0488 275.016 17.0625ZM314.461 2.94727L316.545 22.0684C316.674 23.207 316.889 24.9473 318.221 25.377C319.123 25.6562 319.939 25.6562 320.24 25.6562C320.412 25.6562 320.498 25.6992 320.498 25.8066C320.498 26 320.219 26.0859 319.854 26.0859C319.166 26.0859 315.793 26 314.633 25.9141C313.924 25.8496 313.773 25.7422 313.773 25.5918C313.773 25.4629 313.838 25.3984 313.988 25.377C314.139 25.3555 314.182 24.8184 314.117 24.2598L312.613 8.18945H312.527L304.9 24.3887C304.234 25.7422 304.148 26.0215 303.869 26.0215C303.654 26.0215 303.482 25.7207 302.902 24.6035C302.086 23.0781 299.4 17.6855 299.25 17.3633C298.971 16.8047 295.49 9.32812 295.146 8.49023H295.018L293.771 22.9492C293.729 23.4434 293.729 24.002 293.729 24.5391C293.729 25.0117 294.072 25.3984 294.545 25.5059C295.082 25.6348 295.555 25.6562 295.727 25.6562C295.855 25.6562 295.984 25.7207 295.984 25.8066C295.984 26.0215 295.791 26.0859 295.426 26.0859C294.266 26.0859 292.783 26 292.525 26C292.246 26 290.742 26.0859 289.904 26.0859C289.604 26.0859 289.367 26.0215 289.367 25.8066C289.367 25.7207 289.539 25.6562 289.689 25.6562C289.947 25.6562 290.162 25.6562 290.613 25.5703C291.645 25.377 291.752 24.1523 291.859 22.9707L294.115 2.66797C294.137 2.32422 294.266 2.10938 294.459 2.10938C294.652 2.10938 294.76 2.23828 294.932 2.58203L304.449 22.1758L313.623 2.60352C313.73 2.32422 313.859 2.10938 314.074 2.10938C314.289 2.10938 314.396 2.3457 314.461 2.94727ZM328.254 26.5371C326.771 26.5371 325.354 26.3223 324.064 25.6992C323.635 25.4629 323.613 25.3555 323.613 24.4961C323.613 22.9492 323.721 21.7031 323.764 21.209C323.785 20.8652 323.85 20.7148 324 20.7148C324.193 20.7148 324.236 20.8008 324.236 21.0371C324.236 21.3379 324.236 21.7676 324.322 22.1973C324.795 24.4961 326.836 25.377 328.92 25.377C331.928 25.377 333.389 23.2285 333.389 21.2305C333.389 19.082 332.486 17.8359 329.801 15.623L328.404 14.4844C325.096 11.7559 324.344 9.82227 324.344 7.7168C324.344 4.38672 326.836 2.10938 330.789 2.10938C332.014 2.10938 332.916 2.23828 333.689 2.41016C334.291 2.53906 334.527 2.58203 334.785 2.58203C335.043 2.58203 335.107 2.64648 335.107 2.79688C335.107 2.94727 334.979 3.97852 334.979 6.08398C334.979 6.59961 334.914 6.81445 334.764 6.81445C334.57 6.81445 334.527 6.66406 334.506 6.40625C334.484 6.04102 334.291 5.18164 334.098 4.83789C333.904 4.51562 333.066 3.20508 330.209 3.20508C328.061 3.20508 326.385 4.53711 326.385 6.81445C326.385 8.57617 327.18 9.71484 330.166 12.0352L331.047 12.7227C334.721 15.623 335.602 17.5566 335.602 20.0488C335.602 21.3379 335.107 23.7012 332.959 25.2266C331.605 26.1504 329.93 26.5371 328.254 26.5371Z" fill="black"/>
</g>
<defs>
<filter id="filter0_d_707_18861" x="0.140625" y="0.455078" width="339.461" height="34.082" filterUnits="userSpaceOnUse" color-interpolation-filters="sRGB">
<feFlood flood-opacity="0" result="BackgroundImageFix"/>
<feColorMatrix in="SourceAlpha" type="matrix" values="0 0 0 0 0 0 0 0 0 0 0 0 0 0 0 0 0 0 127 0" result="hardAlpha"/>
<feOffset dy="4"/>
<feGaussianBlur stdDeviation="2"/>
<feComposite in2="hardAlpha" operator="out"/>
<feColorMatrix type="matrix" values="0 0 0 0 0 0 0 0 0 0 0 0 0 0 0 0 0 0 0.25 0"/>
<feBlend mode="normal" in2="BackgroundImageFix" result="effect1_dropShadow_707_18861"/>
<feBlend mode="normal" in="SourceGraphic" in2="effect1_dropShadow_707_18861" result="shape"/>
</filter>
</defs>
</svg>
