<svg width="214" height="23" viewBox="0 0 214 23" fill="none" xmlns="http://www.w3.org/2000/svg">
<g filter="url(#filter0_d_728_14810)">
<path d="M4.72578 0.6C4.72578 0.466666 4.79245 0.4 4.92578 0.4H7.30578C7.46578 0.4 7.57245 0.466666 7.62578 0.6L11.0658 8.36H11.1458L14.5258 0.6C14.5791 0.466666 14.6858 0.4 14.8458 0.4H17.1858C17.3191 0.4 17.3858 0.466666 17.3858 0.6V13.8C17.3858 13.9333 17.3191 14 17.1858 14H14.9258C14.7924 14 14.7258 13.9333 14.7258 13.8V6.14H14.6458L12.1258 11.88C12.0458 12.0533 11.9191 12.14 11.7458 12.14H10.3658C10.1924 12.14 10.0658 12.0533 9.98578 11.88L7.46578 6.14H7.38578V13.8C7.38578 13.9333 7.31911 14 7.18578 14H4.92578C4.79245 14 4.72578 13.9333 4.72578 13.8V0.6ZM23.6397 0.6C23.6797 0.466666 23.7664 0.4 23.8997 0.4H26.4197C26.553 0.4 26.6397 0.466666 26.6797 0.6L31.2797 13.8C31.3197 13.9333 31.273 14 31.1397 14H28.5397C28.4064 14 28.3197 13.9333 28.2797 13.8L27.4997 11.42H22.7397L21.9797 13.8C21.9397 13.9333 21.853 14 21.7197 14H19.0997C18.9664 14 18.9197 13.9333 18.9597 13.8L23.6397 0.6ZM26.6997 8.92L25.1597 4.16H25.0997L23.5597 8.92H26.6997ZM34.5617 14C34.4284 14 34.3617 13.9333 34.3617 13.8V3.14C34.3617 3.06 34.3217 3.02 34.2417 3.02H30.8017C30.6684 3.02 30.6017 2.95333 30.6017 2.82V0.6C30.6017 0.466666 30.6684 0.4 30.8017 0.4H40.8617C40.9951 0.4 41.0617 0.466666 41.0617 0.6V2.82C41.0617 2.95333 40.9951 3.02 40.8617 3.02H37.4217C37.3417 3.02 37.3017 3.06 37.3017 3.14V13.8C37.3017 13.9333 37.2351 14 37.1017 14H34.5617ZM42.363 10.88C42.283 10.6667 42.2163 10.4533 42.163 10.24C42.123 10.0133 42.0896 9.76667 42.063 9.5C42.0363 9.22 42.0163 8.9 42.003 8.54C41.9896 8.16667 41.983 7.72 41.983 7.2C41.983 6.68 41.9896 6.24 42.003 5.88C42.0163 5.50667 42.0363 5.18667 42.063 4.92C42.0896 4.64 42.123 4.39333 42.163 4.18C42.2163 3.96667 42.283 3.74667 42.363 3.52C42.723 2.4 43.3163 1.56667 44.143 1.02C44.983 0.459999 46.003 0.179999 47.203 0.179999C48.363 0.179999 49.343 0.446666 50.143 0.98C50.9563 1.5 51.5563 2.24 51.943 3.2C52.0096 3.32 51.9763 3.4 51.843 3.44L49.663 4.42C49.543 4.48667 49.4496 4.45333 49.383 4.32C49.1963 3.88 48.9296 3.51333 48.583 3.22C48.2496 2.92667 47.7963 2.78 47.223 2.78C46.6896 2.78 46.2496 2.91333 45.903 3.18C45.5696 3.44667 45.3296 3.81333 45.183 4.28C45.143 4.4 45.1096 4.53333 45.083 4.68C45.0563 4.81333 45.0296 4.98667 45.003 5.2C44.9896 5.41333 44.9763 5.68 44.963 6C44.963 6.32 44.963 6.72 44.963 7.2C44.963 7.68 44.963 8.08 44.963 8.4C44.9763 8.72 44.9896 8.98667 45.003 9.2C45.0296 9.41333 45.0563 9.59333 45.083 9.74C45.1096 9.87333 45.143 10 45.183 10.12C45.3296 10.5867 45.5696 10.9533 45.903 11.22C46.2496 11.4867 46.6896 11.62 47.223 11.62C47.7963 11.62 48.2496 11.4733 48.583 11.18C48.9296 10.8867 49.1963 10.52 49.383 10.08C49.4496 9.94667 49.543 9.91333 49.663 9.98L51.843 10.96C51.9763 11 52.0096 11.08 51.943 11.2C51.5563 12.16 50.9563 12.9067 50.143 13.44C49.343 13.96 48.363 14.22 47.203 14.22C46.003 14.22 44.983 13.9467 44.143 13.4C43.3163 12.84 42.723 12 42.363 10.88ZM53.8469 0.6C53.8469 0.466666 53.9135 0.4 54.0469 0.4H56.5869C56.7202 0.4 56.7869 0.466666 56.7869 0.6V5.7C56.7869 5.78 56.8269 5.82 56.9069 5.82H61.3469C61.4269 5.82 61.4669 5.78 61.4669 5.7V0.6C61.4669 0.466666 61.5335 0.4 61.6669 0.4H64.2069C64.3402 0.4 64.4069 0.466666 64.4069 0.6V13.8C64.4069 13.9333 64.3402 14 64.2069 14H61.6669C61.5335 14 61.4669 13.9333 61.4669 13.8V8.56C61.4669 8.48 61.4269 8.44 61.3469 8.44H56.9069C56.8269 8.44 56.7869 8.48 56.7869 8.56V13.8C56.7869 13.9333 56.7202 14 56.5869 14H54.0469C53.9135 14 53.8469 13.9333 53.8469 13.8V0.6ZM74.3102 14C74.1768 14 74.1102 13.9333 74.1102 13.8V8.58L70.0902 0.6C70.0368 0.466666 70.0835 0.4 70.2302 0.4H72.8302C72.9768 0.4 73.0768 0.466666 73.1302 0.6L75.5902 5.56H75.6502L78.1102 0.6C78.1635 0.466666 78.2635 0.4 78.4102 0.4H80.9302C80.9968 0.4 81.0435 0.42 81.0702 0.459999C81.0968 0.499999 81.0968 0.546666 81.0702 0.6L77.0502 8.58V13.8C77.0502 13.9333 76.9835 14 76.8502 14H74.3102ZM87.5573 14.22C86.3707 14.22 85.3307 13.9467 84.4373 13.4C83.5573 12.8533 82.944 12.0267 82.5973 10.92C82.5173 10.68 82.4507 10.4467 82.3973 10.22C82.3573 9.99333 82.324 9.74 82.2973 9.46C82.2707 9.18 82.2507 8.86 82.2373 8.5C82.224 8.14 82.2173 7.70667 82.2173 7.2C82.2173 6.69333 82.224 6.26 82.2373 5.9C82.2507 5.54 82.2707 5.22 82.2973 4.94C82.324 4.66 82.3573 4.40667 82.3973 4.18C82.4507 3.95333 82.5173 3.72 82.5973 3.48C82.944 2.38667 83.5573 1.56667 84.4373 1.02C85.3307 0.459999 86.3707 0.179999 87.5573 0.179999C88.744 0.179999 89.7773 0.459999 90.6573 1.02C91.5507 1.56667 92.1707 2.38667 92.5173 3.48C92.5973 3.72 92.6573 3.95333 92.6973 4.18C92.7507 4.40667 92.7907 4.66 92.8173 4.94C92.844 5.22 92.864 5.54 92.8773 5.9C92.8907 6.26 92.8973 6.69333 92.8973 7.2C92.8973 7.70667 92.8907 8.14 92.8773 8.5C92.864 8.86 92.844 9.18 92.8173 9.46C92.7907 9.74 92.7507 9.99333 92.6973 10.22C92.6573 10.4467 92.5973 10.68 92.5173 10.92C92.1707 12.0267 91.5507 12.8533 90.6573 13.4C89.7773 13.9467 88.744 14.22 87.5573 14.22ZM87.5573 11.62C88.1173 11.62 88.5773 11.4867 88.9373 11.22C89.2973 10.9533 89.5507 10.5867 89.6973 10.12C89.7373 10 89.7707 9.86667 89.7973 9.72C89.824 9.56 89.844 9.37333 89.8573 9.16C89.884 8.93333 89.8973 8.66 89.8973 8.34C89.9107 8.02 89.9173 7.64 89.9173 7.2C89.9173 6.76 89.9107 6.38 89.8973 6.06C89.8973 5.74 89.884 5.47333 89.8573 5.26C89.844 5.03333 89.824 4.84667 89.7973 4.7C89.7707 4.54 89.7373 4.4 89.6973 4.28C89.5507 3.81333 89.2973 3.44667 88.9373 3.18C88.5773 2.91333 88.1173 2.78 87.5573 2.78C86.9973 2.78 86.5373 2.91333 86.1773 3.18C85.8173 3.44667 85.564 3.81333 85.4173 4.28C85.3773 4.4 85.344 4.54 85.3173 4.7C85.2907 4.84667 85.264 5.03333 85.2373 5.26C85.224 5.47333 85.2107 5.74 85.1973 6.06C85.1973 6.38 85.1973 6.76 85.1973 7.2C85.1973 7.64 85.1973 8.02 85.1973 8.34C85.2107 8.66 85.224 8.93333 85.2373 9.16C85.264 9.37333 85.2907 9.56 85.3173 9.72C85.344 9.86667 85.3773 10 85.4173 10.12C85.564 10.5867 85.8173 10.9533 86.1773 11.22C86.5373 11.4867 86.9973 11.62 87.5573 11.62ZM100.296 14.22C99.5359 14.22 98.8359 14.1067 98.1959 13.88C97.5559 13.6533 97.0026 13.32 96.5359 12.88C96.0826 12.44 95.7226 11.8933 95.4559 11.24C95.2026 10.5867 95.0759 9.84 95.0759 9V0.6C95.0759 0.466666 95.1426 0.4 95.2759 0.4H97.8159C97.9493 0.4 98.0159 0.466666 98.0159 0.6V9.08C98.0159 9.89333 98.2226 10.52 98.6359 10.96C99.0493 11.4 99.6026 11.62 100.296 11.62C100.976 11.62 101.523 11.4 101.936 10.96C102.349 10.52 102.556 9.89333 102.556 9.08V0.6C102.556 0.466666 102.623 0.4 102.756 0.4H105.296C105.429 0.4 105.496 0.466666 105.496 0.6V9C105.496 9.84 105.363 10.5867 105.096 11.24C104.843 11.8933 104.483 12.44 104.016 12.88C103.563 13.32 103.016 13.6533 102.376 13.88C101.749 14.1067 101.056 14.22 100.296 14.22ZM117.333 14.22C116.8 14.22 116.273 14.1667 115.753 14.06C115.246 13.9667 114.766 13.84 114.313 13.68C113.86 13.5067 113.44 13.3067 113.053 13.08C112.68 12.8533 112.36 12.6133 112.093 12.36C111.986 12.2533 111.98 12.14 112.073 12.02L113.593 10.28C113.673 10.1733 113.773 10.1667 113.893 10.26C114.346 10.62 114.873 10.9467 115.473 11.24C116.073 11.52 116.733 11.66 117.453 11.66C118.173 11.66 118.72 11.5133 119.093 11.22C119.48 10.9133 119.673 10.52 119.673 10.04C119.673 9.64 119.526 9.31333 119.233 9.06C118.94 8.80667 118.386 8.62667 117.573 8.52L116.853 8.42C115.466 8.23333 114.4 7.81333 113.653 7.16C112.92 6.49333 112.553 5.55333 112.553 4.34C112.553 3.71333 112.666 3.14667 112.893 2.64C113.12 2.12 113.44 1.68 113.853 1.32C114.28 0.96 114.786 0.679999 115.373 0.479999C115.973 0.279999 116.64 0.179999 117.373 0.179999C118.28 0.179999 119.133 0.306666 119.933 0.559999C120.733 0.813332 121.42 1.16 121.993 1.6C122.113 1.68 122.126 1.78 122.033 1.9L120.813 3.72C120.733 3.82667 120.64 3.84667 120.533 3.78C120.013 3.43333 119.493 3.17333 118.973 3C118.466 2.82667 117.933 2.74 117.373 2.74C116.773 2.74 116.32 2.88 116.013 3.16C115.706 3.44 115.553 3.79333 115.553 4.22C115.553 4.60667 115.706 4.92667 116.013 5.18C116.333 5.43333 116.886 5.61333 117.673 5.72L118.393 5.82C119.806 6.00667 120.873 6.43333 121.593 7.1C122.313 7.75333 122.673 8.7 122.673 9.94C122.673 10.5533 122.56 11.1267 122.333 11.66C122.106 12.18 121.766 12.6333 121.313 13.02C120.873 13.3933 120.32 13.6867 119.653 13.9C118.986 14.1133 118.213 14.22 117.333 14.22ZM124.648 0.6C124.648 0.466666 124.714 0.4 124.848 0.4H133.568C133.701 0.4 133.768 0.466666 133.768 0.6V2.74C133.768 2.87333 133.701 2.94 133.568 2.94H127.708C127.628 2.94 127.588 2.98 127.588 3.06V5.76C127.588 5.84 127.628 5.88 127.708 5.88H132.588C132.721 5.88 132.788 5.94667 132.788 6.08V8.2C132.788 8.33333 132.721 8.4 132.588 8.4H127.708C127.628 8.4 127.588 8.44 127.588 8.52V11.34C127.588 11.42 127.628 11.46 127.708 11.46H133.568C133.701 11.46 133.768 11.5267 133.768 11.66V13.8C133.768 13.9333 133.701 14 133.568 14H124.848C124.714 14 124.648 13.9333 124.648 13.8V0.6ZM135.956 0.6C135.956 0.466666 136.023 0.4 136.156 0.4H138.696C138.83 0.4 138.896 0.466666 138.896 0.6V11.26C138.896 11.34 138.936 11.38 139.016 11.38H145.016C145.15 11.38 145.216 11.4467 145.216 11.58V13.8C145.216 13.9333 145.15 14 145.016 14H136.156C136.023 14 135.956 13.9333 135.956 13.8V0.6ZM146.952 0.6C146.952 0.466666 147.019 0.4 147.152 0.4H155.872C156.006 0.4 156.072 0.466666 156.072 0.6V2.74C156.072 2.87333 156.006 2.94 155.872 2.94H150.012C149.932 2.94 149.892 2.98 149.892 3.06V5.76C149.892 5.84 149.932 5.88 150.012 5.88H154.892C155.026 5.88 155.092 5.94667 155.092 6.08V8.2C155.092 8.33333 155.026 8.4 154.892 8.4H150.012C149.932 8.4 149.892 8.44 149.892 8.52V11.34C149.892 11.42 149.932 11.46 150.012 11.46H155.872C156.006 11.46 156.072 11.5267 156.072 11.66V13.8C156.072 13.9333 156.006 14 155.872 14H147.152C147.019 14 146.952 13.9333 146.952 13.8V0.6ZM158.281 10.88C158.201 10.6667 158.134 10.4533 158.081 10.24C158.041 10.0133 158.008 9.76667 157.981 9.5C157.954 9.22 157.934 8.9 157.921 8.54C157.908 8.16667 157.901 7.72 157.901 7.2C157.901 6.68 157.908 6.24 157.921 5.88C157.934 5.50667 157.954 5.18667 157.981 4.92C158.008 4.64 158.041 4.39333 158.081 4.18C158.134 3.96667 158.201 3.74667 158.281 3.52C158.641 2.4 159.234 1.56667 160.061 1.02C160.901 0.459999 161.921 0.179999 163.121 0.179999C164.281 0.179999 165.261 0.446666 166.061 0.98C166.874 1.5 167.474 2.24 167.861 3.2C167.928 3.32 167.894 3.4 167.761 3.44L165.581 4.42C165.461 4.48667 165.368 4.45333 165.301 4.32C165.114 3.88 164.848 3.51333 164.501 3.22C164.168 2.92667 163.714 2.78 163.141 2.78C162.608 2.78 162.168 2.91333 161.821 3.18C161.488 3.44667 161.248 3.81333 161.101 4.28C161.061 4.4 161.028 4.53333 161.001 4.68C160.974 4.81333 160.948 4.98667 160.921 5.2C160.908 5.41333 160.894 5.68 160.881 6C160.881 6.32 160.881 6.72 160.881 7.2C160.881 7.68 160.881 8.08 160.881 8.4C160.894 8.72 160.908 8.98667 160.921 9.2C160.948 9.41333 160.974 9.59333 161.001 9.74C161.028 9.87333 161.061 10 161.101 10.12C161.248 10.5867 161.488 10.9533 161.821 11.22C162.168 11.4867 162.608 11.62 163.141 11.62C163.714 11.62 164.168 11.4733 164.501 11.18C164.848 10.8867 165.114 10.52 165.301 10.08C165.368 9.94667 165.461 9.91333 165.581 9.98L167.761 10.96C167.894 11 167.928 11.08 167.861 11.2C167.474 12.16 166.874 12.9067 166.061 13.44C165.261 13.96 164.281 14.22 163.121 14.22C161.921 14.22 160.901 13.9467 160.061 13.4C159.234 12.84 158.641 12 158.281 10.88ZM172.53 14C172.397 14 172.33 13.9333 172.33 13.8V3.14C172.33 3.06 172.29 3.02 172.21 3.02H168.77C168.637 3.02 168.57 2.95333 168.57 2.82V0.6C168.57 0.466666 168.637 0.4 168.77 0.4H178.83C178.964 0.4 179.03 0.466666 179.03 0.6V2.82C179.03 2.95333 178.964 3.02 178.83 3.02H175.39C175.31 3.02 175.27 3.06 175.27 3.14V13.8C175.27 13.9333 175.204 14 175.07 14H172.53ZM180.663 0.6C180.663 0.466666 180.73 0.4 180.863 0.4H183.403C183.537 0.4 183.603 0.466666 183.603 0.6V13.8C183.603 13.9333 183.537 14 183.403 14H180.863C180.73 14 180.663 13.9333 180.663 13.8V0.6ZM191.19 14.22C190.003 14.22 188.963 13.9467 188.07 13.4C187.19 12.8533 186.577 12.0267 186.23 10.92C186.15 10.68 186.083 10.4467 186.03 10.22C185.99 9.99333 185.957 9.74 185.93 9.46C185.903 9.18 185.883 8.86 185.87 8.5C185.857 8.14 185.85 7.70667 185.85 7.2C185.85 6.69333 185.857 6.26 185.87 5.9C185.883 5.54 185.903 5.22 185.93 4.94C185.957 4.66 185.99 4.40667 186.03 4.18C186.083 3.95333 186.15 3.72 186.23 3.48C186.577 2.38667 187.19 1.56667 188.07 1.02C188.963 0.459999 190.003 0.179999 191.19 0.179999C192.377 0.179999 193.41 0.459999 194.29 1.02C195.183 1.56667 195.803 2.38667 196.15 3.48C196.23 3.72 196.29 3.95333 196.33 4.18C196.383 4.40667 196.423 4.66 196.45 4.94C196.477 5.22 196.497 5.54 196.51 5.9C196.523 6.26 196.53 6.69333 196.53 7.2C196.53 7.70667 196.523 8.14 196.51 8.5C196.497 8.86 196.477 9.18 196.45 9.46C196.423 9.74 196.383 9.99333 196.33 10.22C196.29 10.4467 196.23 10.68 196.15 10.92C195.803 12.0267 195.183 12.8533 194.29 13.4C193.41 13.9467 192.377 14.22 191.19 14.22ZM191.19 11.62C191.75 11.62 192.21 11.4867 192.57 11.22C192.93 10.9533 193.183 10.5867 193.33 10.12C193.37 10 193.403 9.86667 193.43 9.72C193.457 9.56 193.477 9.37333 193.49 9.16C193.517 8.93333 193.53 8.66 193.53 8.34C193.543 8.02 193.55 7.64 193.55 7.2C193.55 6.76 193.543 6.38 193.53 6.06C193.53 5.74 193.517 5.47333 193.49 5.26C193.477 5.03333 193.457 4.84667 193.43 4.7C193.403 4.54 193.37 4.4 193.33 4.28C193.183 3.81333 192.93 3.44667 192.57 3.18C192.21 2.91333 191.75 2.78 191.19 2.78C190.63 2.78 190.17 2.91333 189.81 3.18C189.45 3.44667 189.197 3.81333 189.05 4.28C189.01 4.4 188.977 4.54 188.95 4.7C188.923 4.84667 188.897 5.03333 188.87 5.26C188.857 5.47333 188.843 5.74 188.83 6.06C188.83 6.38 188.83 6.76 188.83 7.2C188.83 7.64 188.83 8.02 188.83 8.34C188.843 8.66 188.857 8.93333 188.87 9.16C188.897 9.37333 188.923 9.56 188.95 9.72C188.977 9.86667 189.01 10 189.05 10.12C189.197 10.5867 189.45 10.9533 189.81 11.22C190.17 11.4867 190.63 11.62 191.19 11.62ZM198.769 0.6C198.769 0.466666 198.835 0.4 198.969 0.4H201.369C201.515 0.4 201.629 0.466666 201.709 0.6L206.509 9.16H206.609V0.6C206.609 0.466666 206.675 0.4 206.809 0.4H209.069C209.202 0.4 209.269 0.466666 209.269 0.6V13.8C209.269 13.9333 209.202 14 209.069 14H206.689C206.542 14 206.429 13.9333 206.349 13.8L201.529 5.26H201.429V13.8C201.429 13.9333 201.362 14 201.229 14H198.969C198.835 14 198.769 13.9333 198.769 13.8V0.6Z" fill="black"/>
</g>
<defs>
<filter id="filter0_d_728_14810" x="0.725586" y="0.179993" width="212.543" height="22.04" filterUnits="userSpaceOnUse" color-interpolation-filters="sRGB">
<feFlood flood-opacity="0" result="BackgroundImageFix"/>
<feColorMatrix in="SourceAlpha" type="matrix" values="0 0 0 0 0 0 0 0 0 0 0 0 0 0 0 0 0 0 127 0" result="hardAlpha"/>
<feOffset dy="4"/>
<feGaussianBlur stdDeviation="2"/>
<feComposite in2="hardAlpha" operator="out"/>
<feColorMatrix type="matrix" values="0 0 0 0 0 0 0 0 0 0 0 0 0 0 0 0 0 0 0.25 0"/>
<feBlend mode="normal" in2="BackgroundImageFix" result="effect1_dropShadow_728_14810"/>
<feBlend mode="normal" in="SourceGraphic" in2="effect1_dropShadow_728_14810" result="shape"/>
</filter>
</defs>
</svg>
