<svg width="136" height="135" viewBox="0 0 136 135" fill="none" xmlns="http://www.w3.org/2000/svg">
<path d="M67.3359 130.836C102.313 130.836 130.668 102.481 130.668 67.5039C130.668 32.5266 102.313 4.17188 67.3359 4.17188C32.3586 4.17188 4.00391 32.5266 4.00391 67.5039C4.00391 102.481 32.3586 130.836 67.3359 130.836Z" fill="#F8F8F8"/>
<path d="M17.3339 123.282C18.0238 121.759 17.3276 119.956 15.8045 119.266C14.2814 118.576 12.487 119.251 11.7971 120.775C11.1073 122.298 11.7737 124.113 13.2968 124.802C14.8199 125.492 16.6441 124.805 17.3339 123.282ZM21.8097 129.241C22.2488 128.271 21.8056 127.123 20.8362 126.684C19.8668 126.245 18.7248 126.675 18.2857 127.645C17.8466 128.614 18.2708 129.769 19.2402 130.208C20.2096 130.647 21.3706 130.21 21.8097 129.241ZM123.338 12.2493C124.427 10.9807 124.264 9.05427 122.996 7.96501C121.727 6.87576 119.815 7.02105 118.726 8.28971C117.637 9.55827 117.768 11.4872 119.036 12.5765C120.305 13.6657 122.248 13.5179 123.338 12.2493ZM125.963 19.2238C126.656 18.4164 126.553 17.1903 125.745 16.497C124.938 15.8037 123.721 15.8962 123.028 16.7036C122.335 17.511 122.418 18.7388 123.225 19.432C124.033 20.1253 125.27 20.0313 125.963 19.2238ZM15.1764 18.2539C16.2658 16.9852 16.1032 15.0588 14.8347 13.9695C13.5661 12.8803 11.6543 13.0256 10.565 14.2942C9.47574 15.5628 9.60649 17.4917 10.875 18.581C12.1436 19.6702 14.0872 19.5224 15.1764 18.2539Z" fill="#E6E6E6"/>
<path opacity="0.2" fill-rule="evenodd" clip-rule="evenodd" d="M72.7542 42.2587C85.477 19.5006 129.216 27.443 129.216 60.3266C129.216 82.2941 110.396 102.352 72.7542 120.5C35.1127 102.357 16.292 82.2992 16.292 60.3266C16.292 27.443 60.0314 19.5006 72.7542 42.2587Z" fill="black"/>
<path fill-rule="evenodd" clip-rule="evenodd" d="M32.2374 26.4192C21.4493 29.0391 12.5283 37.3503 12.5283 51.8498C12.5283 71.1524 28.8572 90.0409 65.2264 107.921C101.596 90.0409 117.924 71.1524 117.924 51.8498C117.924 37.3579 109.003 29.0391 98.2154 26.4192C87.1413 23.7241 74.712 27.1947 68.2603 35.9802C67.9106 36.4563 67.4537 36.8435 66.9267 37.1104C66.3996 37.3772 65.8171 37.5163 65.2264 37.5163C64.6356 37.5163 64.0531 37.3772 63.5261 37.1104C62.999 36.8435 62.5422 36.4563 62.1925 35.9802C55.7407 27.1947 43.3115 23.7241 32.2374 26.4192ZM65.2264 28.0002C56.2677 19.0189 42.4006 16.1958 30.4607 19.0942C16.7818 22.4292 5 33.4055 5 51.8498C5 76.2415 25.8233 97.2605 63.5927 115.494C64.1023 115.74 64.6607 115.867 65.2264 115.867C65.792 115.867 66.3504 115.74 66.86 115.494C104.629 97.2605 125.453 76.249 125.453 51.8498C125.453 33.4055 113.671 22.4292 99.9921 19.1017C88.0522 16.2033 74.1926 19.034 65.2264 28.0002Z" fill="#B87153"/>
<path d="M114.974 118.847C124.379 118.847 132.003 111.223 132.003 101.818C132.003 92.4132 124.379 84.7891 114.974 84.7891C105.569 84.7891 97.9453 92.4132 97.9453 101.818C97.9453 111.223 105.569 118.847 114.974 118.847Z" fill="url(#paint0_linear_314_4077)"/>
<path d="M125.301 102.168V102.168C125.301 104.228 123.631 105.898 121.571 105.898H109.121C107.061 105.898 105.391 104.228 105.391 102.168V102.168C105.391 100.108 107.061 98.4376 109.121 98.4376H121.571C123.631 98.4376 125.301 100.108 125.301 102.168Z" fill="url(#paint1_linear_314_4077)"/>
<defs>
<linearGradient id="paint0_linear_314_4077" x1="97.9463" y1="101.818" x2="132.003" y2="101.818" gradientUnits="userSpaceOnUse">
<stop stop-color="#CACACA"/>
<stop offset="1" stop-color="#CDCDCD"/>
</linearGradient>
<linearGradient id="paint1_linear_314_4077" x1="105.39" y1="102.168" x2="125.301" y2="102.168" gradientUnits="userSpaceOnUse">
<stop stop-color="#F7F7F7"/>
<stop offset="1" stop-color="white"/>
</linearGradient>
</defs>
</svg>
