<svg width="16" height="17" viewBox="0 0 16 17" fill="none" xmlns="http://www.w3.org/2000/svg">
<g clip-path="url(#clip0_2122_7395)">
<path d="M11.5365 5.49419C8.68055 3.75666 10.0198 1.30425 10.0773 1.20231C10.1606 1.05725 10.1604 0.878781 10.0766 0.733969C9.9928 0.589156 9.83817 0.5 9.67086 0.5C8.20077 0.5 7.04958 0.917688 6.2493 1.7415C4.88183 3.14916 4.94527 5.34 4.97233 6.27556C4.97533 6.37919 4.97792 6.46875 4.97792 6.53525C4.97792 7.22988 5.08936 7.87116 5.1877 8.43694C5.25108 8.80153 5.3058 9.11641 5.31552 9.36397C5.32592 9.62897 5.27755 9.68972 5.27548 9.69216C5.26858 9.70034 5.21108 9.73094 5.05561 9.73094C4.8783 9.73094 4.74758 9.673 4.63177 9.54316C4.17939 9.03591 4.14811 7.65084 4.23461 6.89731C4.25008 6.76444 4.20805 6.63131 4.11908 6.53144C4.03014 6.43156 3.90277 6.37444 3.76902 6.37444C2.55198 6.37444 1.64258 8.36469 1.64258 10.1442C1.64258 10.9807 1.81083 11.8002 2.14267 12.5798C2.46348 13.3335 2.92095 14.0138 3.50242 14.6016C4.71342 15.8258 6.31008 16.5 7.99833 16.5C9.69336 16.5 11.2896 15.8353 12.493 14.6284C13.6934 13.4247 14.3544 11.8321 14.3544 10.1441C14.3544 7.99031 12.6692 6.18328 11.5365 5.49419ZM7.99833 15.5625C5.06136 15.5625 2.58011 13.0812 2.58011 10.1441C2.58011 9.42984 2.75055 8.68006 3.0477 8.08709C3.11711 7.94856 3.18833 7.82972 3.25861 7.72959C3.26645 8.50294 3.38895 9.55716 3.9313 10.1662C4.22386 10.4948 4.61264 10.6684 5.05564 10.6684C5.46948 10.6684 5.78486 10.543 5.99292 10.2956C6.38192 9.83316 6.26252 9.14616 6.11139 8.27637C6.01955 7.74794 5.91545 7.14897 5.91545 6.53522C5.91545 6.45512 5.91267 6.35934 5.90948 6.24837C5.88383 5.36219 5.83042 3.51816 6.92176 2.39475C7.41167 1.89041 8.09567 1.58347 8.96098 1.47844C8.8633 1.80281 8.77908 2.21459 8.77583 2.67566C8.76864 3.69153 9.1572 5.14406 11.0492 6.29513C11.9646 6.85203 13.4169 8.38944 13.4169 10.1442C13.4169 13.1318 10.9861 15.5625 7.99833 15.5625Z" fill="#F55157"/>
</g>
<defs>
<clipPath id="clip0_2122_7395">
<rect width="16" height="16" fill="white" transform="translate(0 0.5)"/>
</clipPath>
</defs>
</svg>
