<svg width="28" height="29" viewBox="0 0 28 29" fill="none" xmlns="http://www.w3.org/2000/svg">
<path d="M9.54637 8.32304L9.54637 8.32303C9.35036 8.31641 9.11751 8.31629 8.87448 8.31628C8.76178 8.31994 8.65096 8.34636 8.54872 8.39399C8.44476 8.44241 8.35188 8.51171 8.27586 8.59759L8.27091 8.60318L8.26579 8.60863L8.19971 8.67892L8.19848 8.68023L8.19848 8.68023L8.19589 8.68297C7.84625 9.05224 7.13477 9.80368 7.13477 11.2776C7.13477 12.04 7.41381 12.8192 7.74007 13.4638C8.06172 14.0993 8.40818 14.5636 8.50782 14.6972L8.50815 14.6976L8.50888 14.6986L8.51658 14.7089L8.52176 14.7158L8.5267 14.7228L8.60122 14.8297L8.6057 14.8361L8.60565 14.8362C9.06268 15.5139 11.2387 18.7129 14.4897 19.9914L14.49 19.9915C15.8577 20.5301 16.707 20.765 17.2749 20.86C17.8182 20.9509 18.1116 20.9159 18.3938 20.8822L18.4034 20.8811L18.4037 20.881L18.5935 20.8585L18.6062 20.857L18.6063 20.8572C18.8246 20.837 19.2805 20.667 19.7418 20.3701C20.2085 20.0698 20.5347 19.7327 20.6307 19.4712C20.765 19.0893 20.8304 18.7406 20.8528 18.4784C20.8638 18.3501 20.8638 18.2495 20.8588 18.1806C20.8031 18.1476 20.7249 18.1094 20.6002 18.0502L20.5948 18.0476L20.5948 18.0476L20.3938 17.9492L20.3921 17.9484C20.2126 17.8596 19.6788 17.5975 19.1487 17.3422C18.6051 17.0803 18.1047 16.845 17.9635 16.792C17.8836 16.7625 17.8306 16.7452 17.7898 16.7357C17.7847 16.7345 17.7801 16.7336 17.7761 16.7328C17.7677 16.7427 17.7566 16.7572 17.7432 16.7776L17.7388 16.7844L17.7387 16.7844C17.4739 17.1741 16.755 18.0108 16.5554 18.2425M9.54637 8.32304L16.1766 17.9162M9.54637 8.32304L9.54959 8.32313C9.68051 8.3267 9.69809 8.33493 9.71436 8.34436C9.72875 8.3527 9.81008 8.40476 9.92135 8.65141M9.54637 8.32304L9.56325 7.82331M16.5554 18.2425L16.1766 17.9162M16.5554 18.2425C16.5555 18.2425 16.5555 18.2424 16.5556 18.2424L16.1766 17.9162M16.5554 18.2425C16.4009 18.4221 16.1902 18.5817 15.9005 18.6159C15.6344 18.6474 15.3861 18.5614 15.1734 18.4559M16.1766 17.9162C15.9685 18.1581 15.7534 18.1862 15.3921 18.0062M15.1734 18.4559C15.1746 18.4564 15.1757 18.457 15.1769 18.4575L15.3921 18.0062M15.1734 18.4559C15.1218 18.4313 15.051 18.3996 14.9592 18.3603M15.1734 18.4559C15.172 18.4552 15.1706 18.4545 15.1692 18.4538L15.3921 18.0062M15.3921 18.0062L14.9592 18.3603M14.9592 18.3603C14.9603 18.3607 14.9613 18.3611 14.9624 18.3616L15.1531 17.8994L14.9561 18.3589C14.9572 18.3594 14.9582 18.3598 14.9592 18.3603ZM14.9592 18.3603C13.9264 17.9337 12.9744 17.3333 12.1445 16.5851M14.9592 18.3603L12.4777 16.2123M12.1445 16.5851C12.1451 16.5856 12.1457 16.5862 12.1462 16.5867L12.4777 16.2123M12.1445 16.5851C12.1439 16.5846 12.1434 16.5841 12.1428 16.5836L12.4777 16.2123M12.1445 16.5851C11.0077 15.5782 10.2454 14.3414 10.0273 13.9643C9.8641 13.6819 9.8202 13.3871 9.92603 13.1043C10.0098 12.8805 10.1741 12.7182 10.2565 12.6369C10.2607 12.6328 10.2646 12.6289 10.2683 12.6252L10.6205 12.9801L10.2669 12.6266C10.3476 12.546 10.4516 12.4221 10.5736 12.2729L10.578 12.2674L10.5781 12.2674L10.7791 12.0284L10.7833 12.0234L10.7834 12.0235C10.8835 11.9075 10.9649 11.7766 11.0246 11.6354L11.0294 11.624L11.0348 11.6127L11.0742 11.5312L11.0747 11.5302C11.0928 11.4929 11.0923 11.4735 11.091 11.4601C11.0888 11.439 11.0798 11.4036 11.0491 11.3423C11.0053 11.2547 10.871 10.9279 10.7148 10.5479C10.6918 10.4918 10.6683 10.4346 10.6445 10.3769L10.6445 10.3768C10.6277 10.3359 10.6106 10.2945 10.5934 10.2526C10.3555 9.67384 10.0853 9.01643 9.92135 8.65141M12.4777 16.2123C11.3993 15.2577 10.6683 14.0739 10.4602 13.714C10.2521 13.3541 10.4391 13.1601 10.6205 12.9801C10.7217 12.8789 10.8412 12.7355 10.9607 12.5893L11.1618 12.3503C11.296 12.1948 11.4051 12.0193 11.4851 11.8301L11.5245 11.7486C11.6426 11.5054 11.5863 11.2987 11.4964 11.1187C11.4616 11.0492 11.3346 10.7404 11.1727 10.3465C11.1513 10.2946 11.1294 10.2412 11.1069 10.1866C11.0897 10.1447 11.0722 10.1021 11.0544 10.059C10.8179 9.48363 10.5447 8.81887 10.3773 8.44613M9.92135 8.65141C9.92139 8.65149 9.92142 8.65158 9.92146 8.65166L10.3773 8.44613M9.92135 8.65141C9.92128 8.65126 9.92122 8.65112 9.92115 8.65098L10.3773 8.44613M10.3773 8.44613C10.1059 7.8444 9.82053 7.83034 9.56325 7.82331M14.3067 20.4567C17.0676 21.5439 17.8463 21.4511 18.4586 21.378L18.4626 21.3776L14.3067 20.4567ZM14.3067 20.4567C10.896 19.1155 8.6452 15.7891 8.19109 15.1157L14.3067 20.4567ZM9.56325 7.82331C9.35518 7.81628 9.11055 7.81628 8.86733 7.81628C8.68408 7.82098 8.50376 7.86334 8.3376 7.94074C8.17143 8.01814 8.02298 8.12892 7.90148 8.26617L9.56325 7.82331Z" fill="white" stroke="white"/>
<path d="M3.89653 22.011L3.42213 21.8803C3.47885 21.6744 3.49402 21.4594 3.46676 21.2476C3.43951 21.0358 3.37038 20.8316 3.2634 20.6468L3.2633 20.6467C2.18057 18.775 1.60994 16.6512 1.60885 14.489L1.60885 14.4887C1.60885 7.701 7.16755 2.16372 13.9999 2.16372C17.3231 2.16372 20.4274 3.44877 22.7678 5.77852C23.9201 6.91847 24.8339 8.27643 25.456 9.77321C26.0781 11.27 26.3959 12.8756 26.391 14.4965C26.391 14.4968 26.391 14.497 26.391 14.4973L25.891 14.4957L3.89653 22.011ZM3.89653 22.011L3.42213 21.8803L2.40426 25.575L2.1741 26.4104L3.0126 26.1916L6.89568 25.1779L6.89602 25.1778M3.89653 22.011L6.89602 25.1778M6.89602 25.1778C7.29091 25.0744 7.71032 25.125 8.0693 25.3193L6.89602 25.1778ZM0.622328 27.8662L0.622641 27.865L2.35189 21.5863L2.4075 21.3844L2.30261 21.2031C1.12074 19.1606 0.5 16.8457 0.5 14.4887C0.5 7.08402 6.56092 1.05487 13.9999 1.05488L14.0014 1.05487C15.7739 1.04952 17.53 1.39466 19.1686 2.07044C20.8072 2.74622 22.2961 3.73931 23.5495 4.99258L23.5513 4.99432C24.8064 6.23696 25.8019 7.71682 26.4798 9.34778C27.1577 10.9787 27.5044 12.7282 27.4998 14.4945V14.4957C27.4998 21.9019 21.4389 27.931 13.9999 27.931H13.9944C13.9944 27.931 13.9943 27.931 13.9943 27.931C11.7404 27.9304 9.52221 27.3679 7.54036 26.2944L7.36679 26.2004L7.1758 26.2503L0.698836 27.943L0.698255 27.9432C0.687639 27.946 0.67648 27.9459 0.665904 27.943C0.655326 27.9401 0.645701 27.9345 0.638 27.9266C0.630299 27.9188 0.624795 27.9091 0.622043 27.8985C0.619291 27.8879 0.619389 27.8767 0.622328 27.8662Z" fill="white" stroke="white"/>
</svg>
