<svg width="34" height="34" viewBox="0 0 34 34" fill="none" xmlns="http://www.w3.org/2000/svg">
<circle cx="17" cy="17" r="16.75" stroke="white" stroke-width="0.5"/>
<g clip-path="url(#clip0_577_3258)">
<path d="M16.5 14.9541V18.2459H21.0745C20.8737 19.3046 20.2709 20.201 19.3668 20.8037L22.1254 22.9441C23.7327 21.4606 24.66 19.2814 24.66 16.6928C24.66 16.0901 24.6059 15.5105 24.5054 14.9542L16.5 14.9541Z" fill="white"/>
<path d="M11.7366 18.1182L11.1144 18.5944L8.91211 20.3099C10.3107 23.0839 13.1773 25.0003 16.5 25.0003C18.795 25.0003 20.7191 24.243 22.1255 22.9449L19.3668 20.8044C18.6096 21.3144 17.6436 21.6235 16.5 21.6235C14.2901 21.6235 12.4124 20.1322 11.7401 18.1231L11.7366 18.1182Z" fill="white"/>
<path d="M8.91175 12.6904C8.33224 13.834 8 15.1245 8 16.4999C8 17.8754 8.33224 19.1658 8.91175 20.3094C8.91175 20.3171 11.74 18.1149 11.74 18.1149C11.57 17.6049 11.4695 17.064 11.4695 16.4998C11.4695 15.9357 11.57 15.3948 11.74 14.8848L8.91175 12.6904Z" fill="white"/>
<path d="M16.5002 11.3845C17.7521 11.3845 18.8648 11.8173 19.7534 12.6518L22.1875 10.2178C20.7116 8.84233 18.7953 8 16.5002 8C13.1775 8 10.3107 9.90863 8.91211 12.6905L11.7403 14.885C12.4125 12.8759 14.2902 11.3845 16.5002 11.3845Z" fill="white"/>
</g>
<defs>
<clipPath id="clip0_577_3258">
<rect width="17" height="17" fill="white" transform="translate(8 8)"/>
</clipPath>
</defs>
</svg>
