<svg width="53" height="36" viewBox="0 0 53 36" fill="none" xmlns="http://www.w3.org/2000/svg">
<rect x="0.5" y="0.5" width="51.5" height="35" rx="5.5" fill="white" stroke="#D9D9D9"/>
<path fill-rule="evenodd" clip-rule="evenodd" d="M24.7945 23.6367V19.1053H27.1332C28.0916 19.1053 28.9005 18.7841 29.5599 18.1508L29.7182 17.9903C30.9227 16.679 30.8436 14.6363 29.5599 13.4231C28.9181 12.7809 28.0388 12.433 27.1332 12.4508H23.3789V23.6367H24.7945ZM24.7946 17.7316V13.8245H27.1689C27.679 13.8245 28.1626 14.0208 28.5232 14.3776C29.2882 15.1269 29.3058 16.3757 28.5672 17.1517C28.2066 17.5353 27.6966 17.7494 27.1689 17.7316H24.7946ZM36.3213 16.5809C35.7146 16.0189 34.8881 15.7335 33.8418 15.7335C32.4966 15.7335 31.4855 16.233 30.8173 17.2231L32.0658 18.017C32.523 17.3391 33.1472 17.0001 33.9385 17.0001C34.4397 17.0001 34.9233 17.1875 35.3013 17.5264C35.6706 17.8475 35.8816 18.3114 35.8816 18.802V19.132C35.3365 18.8288 34.6507 18.6682 33.8066 18.6682C32.8219 18.6682 32.0306 18.9001 31.4415 19.3729C30.8524 19.8457 30.5535 20.4701 30.5535 21.264C30.5359 21.9865 30.8436 22.6733 31.3888 23.1372C31.9427 23.6367 32.6461 23.8865 33.4725 23.8865C34.4485 23.8865 35.2222 23.4494 35.8113 22.5752H35.8728V23.6367H37.2269V18.918C37.2269 17.9278 36.9279 17.1429 36.3213 16.5809ZM32.4793 22.2273C32.1891 22.0132 32.0132 21.6654 32.0132 21.2907C32.0132 20.8715 32.2066 20.5236 32.5848 20.2471C32.9717 19.9705 33.4554 19.8278 34.027 19.8278C34.8184 19.8189 35.434 19.9973 35.8736 20.3541C35.8736 20.9607 35.6362 21.487 35.1701 21.933C34.748 22.3611 34.1764 22.602 33.5785 22.602C33.1828 22.6109 32.7958 22.4771 32.4793 22.2273ZM40.269 26.9996L44.9993 15.9832H43.4607L41.2714 21.478H41.245L39.0029 15.9832H37.4643L40.568 23.1461L38.8095 26.9996H40.269Z" fill="#3C4043"/>
<path d="M19.9075 18.1246C19.9075 17.6875 19.8724 17.2504 19.802 16.8223H13.832V19.2931H17.2522C17.1116 20.087 16.6544 20.8006 15.9862 21.2467V22.8523H18.026C19.2217 21.7373 19.9075 20.087 19.9075 18.1246Z" fill="#4285F4"/>
<path d="M13.8332 24.4044C15.5389 24.4044 16.9808 23.8335 18.0271 22.8523L15.9873 21.2467C15.4158 21.6392 14.686 21.8622 13.8332 21.8622C12.1802 21.8622 10.7822 20.7293 10.2811 19.2129H8.17969V20.872C9.25235 23.0396 11.4416 24.4044 13.8332 24.4044Z" fill="#34A853"/>
<path d="M10.281 19.2128C10.0172 18.4189 10.0172 17.5536 10.281 16.7508V15.1006H8.17932C7.27356 16.9114 7.27356 19.0522 8.17932 20.863L10.281 19.2128Z" fill="#FBBC04"/>
<path d="M13.8332 14.1012C14.7388 14.0834 15.6092 14.4313 16.2598 15.0646L18.0711 13.227C16.9193 12.1388 15.407 11.5411 13.8332 11.559C11.4416 11.559 9.25235 12.9327 8.17969 15.1003L10.2811 16.7594C10.7822 15.2341 12.1802 14.1012 13.8332 14.1012Z" fill="#EA4335"/>
</svg>
