<svg width="22" height="22" viewBox="0 0 22 22" fill="none" xmlns="http://www.w3.org/2000/svg">
<path d="M10.0827 13.4447C9.83957 13.4447 9.60641 13.3481 9.4345 13.1762C9.26259 13.0043 9.16602 12.7711 9.16602 12.528C9.16602 12.2849 9.26259 12.0517 9.4345 11.8798C9.60641 11.7079 9.83957 11.6113 10.0827 11.6113C10.3258 11.6113 10.559 11.7079 10.7309 11.8798C10.9028 12.0517 10.9993 12.2849 10.9993 12.528C10.9993 12.7711 10.9028 13.0043 10.7309 13.1762C10.559 13.3481 10.3258 13.4447 10.0827 13.4447Z" fill="#747474"/>
<path fill-rule="evenodd" clip-rule="evenodd" d="M2.0955 8.55556C2.21446 8.55556 2.33078 8.54578 2.44445 8.52622V13.4444H0.916668C0.83563 13.4444 0.75791 13.4766 0.700608 13.5339C0.643305 13.5912 0.611112 13.669 0.611112 13.75V14.3611C0.611112 14.4421 0.643305 14.5199 0.700608 14.5772C0.75791 14.6345 0.83563 14.6667 0.916668 14.6667H21.0833C21.1644 14.6667 21.2421 14.6345 21.2994 14.5772C21.3567 14.5199 21.3889 14.4421 21.3889 14.3611V13.75C21.3889 13.669 21.3567 13.5912 21.2994 13.5339C21.2421 13.4766 21.1644 13.4444 21.0833 13.4444H19.5556V8.52622C19.6696 8.54578 19.7859 8.55556 19.9045 8.55556C21.0668 8.55556 22 7.60711 22 6.44783V4.98728C22.0004 4.79345 21.9667 4.60107 21.9004 4.41894L20.5682 0.746167C20.4891 0.527566 20.3446 0.338639 20.1544 0.205119C19.9641 0.0715978 19.7373 -2.6748e-05 19.5048 7.49317e-09H2.49456C2.26224 0.000269833 2.03565 0.0721003 1.84561 0.205719C1.65557 0.339339 1.51131 0.528259 1.43245 0.746778L0.100224 4.41894C0.0336883 4.60103 -0.00023795 4.79342 1.25615e-06 4.98728V6.44783C1.25615e-06 7.60711 0.933168 8.55556 2.0955 8.55556ZM1.24911 4.83572L2.55995 1.22222H19.4394L20.7503 4.83572C20.7682 4.88461 20.7772 4.93513 20.7772 4.98728V6.44783C20.7786 6.68102 20.6875 6.90524 20.5238 7.07127C20.36 7.2373 20.1371 7.33156 19.9039 7.33333C19.4272 7.33333 19.0312 6.94222 19.0312 6.44783C19.0312 6.28576 18.9668 6.13032 18.8522 6.01571C18.7376 5.90111 18.5822 5.83672 18.4201 5.83672C18.258 5.83672 18.1026 5.90111 17.988 6.01571C17.8734 6.13032 17.809 6.28576 17.809 6.44783C17.8105 6.68102 17.7193 6.90524 17.5556 7.07127C17.3918 7.2373 17.1689 7.33156 16.9357 7.33333C16.4591 7.33333 16.0631 6.94222 16.0631 6.44844C16.0631 6.28637 15.9987 6.13093 15.8841 6.01632C15.7695 5.90172 15.614 5.83733 15.4519 5.83733C15.2899 5.83733 15.1344 5.90172 15.0198 6.01632C14.9052 6.13093 14.8408 6.28637 14.8408 6.44844C14.8408 6.94222 14.4448 7.33333 13.9676 7.33333C13.4903 7.33333 13.0949 6.94222 13.0949 6.44783C13.0949 6.28576 13.0305 6.13032 12.9159 6.01571C12.8013 5.90111 12.6459 5.83672 12.4838 5.83672C12.3217 5.83672 12.1663 5.90111 12.0517 6.01571C11.9371 6.13032 11.8727 6.28576 11.8727 6.44783C11.8741 6.68091 11.7831 6.90505 11.6195 7.07106C11.4559 7.23707 11.2331 7.3314 11 7.33333C10.7669 7.33156 10.5441 7.23739 10.3804 7.07149C10.2166 6.90559 10.1254 6.68152 10.1267 6.44844C10.1267 6.28637 10.0623 6.13093 9.94773 6.01632C9.83313 5.90172 9.67769 5.83733 9.51561 5.83733C9.35354 5.83733 9.1981 5.90172 9.08349 6.01632C8.96889 6.13093 8.9045 6.28637 8.9045 6.44844C8.9045 6.94222 8.50911 7.33333 8.03183 7.33333C7.55456 7.33333 7.15856 6.94222 7.15856 6.44783C7.15856 6.28576 7.09417 6.13032 6.97957 6.01571C6.86496 5.90111 6.70952 5.83672 6.54745 5.83672C6.38537 5.83672 6.22993 5.90111 6.11533 6.01571C6.00072 6.13032 5.93634 6.28576 5.93634 6.44783C5.93634 6.94161 5.54095 7.33333 5.06367 7.33333C4.58639 7.33333 4.19039 6.94222 4.19039 6.44783C4.19039 6.28576 4.12601 6.13032 4.0114 6.01571C3.89679 5.90111 3.74136 5.83672 3.57928 5.83672C3.4172 5.83672 3.26176 5.90111 3.14716 6.01571C3.03255 6.13032 2.96817 6.28576 2.96817 6.44783C2.96817 6.94161 2.57278 7.33333 2.0955 7.33333C1.61761 7.33333 1.22222 6.94222 1.22222 6.44783V4.98728C1.22222 4.93472 1.23119 4.8842 1.24911 4.83572ZM18.3333 8.019C17.9505 8.36516 17.4525 8.55643 16.9363 8.55556C16.6602 8.55603 16.3868 8.50147 16.1321 8.39507C15.8773 8.28868 15.6463 8.13258 15.4526 7.93589C15.2587 8.13265 15.0276 8.28879 14.7728 8.39519C14.5179 8.50159 14.2444 8.55611 13.9682 8.55556C13.6921 8.55603 13.4187 8.50147 13.1639 8.39507C12.9091 8.28868 12.6781 8.13258 12.4844 7.93589C12.2906 8.13265 12.0595 8.28879 11.8046 8.39519C11.5497 8.50159 11.2762 8.55611 11 8.55556C10.7238 8.55611 10.4503 8.50159 10.1954 8.39519C9.94054 8.28879 9.70943 8.13265 9.51561 7.93589C9.32186 8.13258 9.09086 8.28868 8.8361 8.39507C8.58134 8.50147 8.30792 8.55603 8.03183 8.55556C7.45067 8.55556 6.92572 8.31783 6.54745 7.93589C6.3537 8.13258 6.12269 8.28868 5.86793 8.39507C5.61317 8.50147 5.33976 8.55603 5.06367 8.55556C4.52589 8.55556 4.037 8.35206 3.66667 8.019V13.4444H5.19445C5.11341 13.4444 5.03569 13.4123 4.97839 13.3549C4.92108 13.2976 4.88889 13.2199 4.88889 13.1389V11.9167C4.88889 11.8356 4.92108 11.7579 4.97839 11.7006C5.03569 11.6433 5.11341 11.6111 5.19445 11.6111H7.02778C7.10882 11.6111 7.18654 11.6433 7.24384 11.7006C7.30114 11.7579 7.33333 11.8356 7.33333 11.9167V12.2222H8.25C8.33104 12.2222 8.40876 12.2544 8.46606 12.3117C8.52337 12.369 8.55556 12.4467 8.55556 12.5278V13.1389C8.55556 13.2199 8.52337 13.2976 8.46606 13.3549C8.40876 13.4123 8.33104 13.4444 8.25 13.4444H18.3333V8.019ZM1.22222 16.5C1.22222 16.3379 1.28661 16.1825 1.40121 16.0679C1.51582 15.9533 1.67126 15.8889 1.83333 15.8889H20.1667C20.3287 15.8889 20.4842 15.9533 20.5988 16.0679C20.7134 16.1825 20.7778 16.3379 20.7778 16.5V21.3889C20.7778 21.551 20.7134 21.7064 20.5988 21.821C20.4842 21.9356 20.3287 22 20.1667 22H1.83333C1.67126 22 1.51582 21.9356 1.40121 21.821C1.28661 21.7064 1.22222 21.551 1.22222 21.3889V16.5ZM2.44445 20.7778V17.1111H19.5556V20.7778H2.44445Z" fill="#747474"/>
</svg>
