<svg width="24" height="24" viewBox="0 0 24 24" fill="none" xmlns="http://www.w3.org/2000/svg">
<path d="M11.9545 19C11.9545 19 4 14.5455 4 9.13637C4 8.18014 4.3313 7.25345 4.93754 6.51396C5.54378 5.77447 6.3875 5.26786 7.32515 5.08033C8.26281 4.8928 9.23648 5.03593 10.0805 5.48537C10.9245 5.93481 11.5868 6.66279 11.9545 7.54546C12.3223 6.66279 12.9846 5.93481 13.8286 5.48537C14.6726 5.03593 15.6463 4.8928 16.5839 5.08033C17.5216 5.26786 18.3653 5.77447 18.9715 6.51396C19.5778 7.25345 19.9091 8.18014 19.9091 9.13637C19.9091 14.5455 11.9545 19 11.9545 19Z" stroke="#5F6C72" stroke-width="2" stroke-linecap="round" stroke-linejoin="round"/>
</svg>
