<svg width="16" height="15" viewBox="0 0 16 15" fill="none" xmlns="http://www.w3.org/2000/svg">
<path d="M11.666 0.833496H4.99935C3.1584 0.833496 1.66602 2.32588 1.66602 4.16683V10.8335C1.66602 12.6744 3.1584 14.1668 4.99935 14.1668H11.666C13.507 14.1668 14.9993 12.6744 14.9993 10.8335V4.16683C14.9993 2.32588 13.507 0.833496 11.666 0.833496Z" stroke="#E3A745" stroke-width="1.5" stroke-linecap="round" stroke-linejoin="round"/>
<path d="M10.9998 7.0802C11.0821 7.63503 10.9873 8.20168 10.729 8.69954C10.4706 9.19741 10.0619 9.60114 9.56089 9.85332C9.05988 10.1055 8.4921 10.1933 7.93833 10.1042C7.38455 10.015 6.87298 9.75359 6.47636 9.35698C6.07975 8.96036 5.81829 8.44878 5.72918 7.89501C5.64007 7.34124 5.72785 6.77346 5.98002 6.27245C6.2322 5.77144 6.63593 5.36269 7.13379 5.10436C7.63166 4.84603 8.19831 4.75126 8.75314 4.83353C9.31909 4.91746 9.84304 5.18118 10.2476 5.58574C10.6522 5.9903 10.9159 6.51425 10.9998 7.0802Z" stroke="#E3A745" stroke-width="1.5" stroke-linecap="round" stroke-linejoin="round"/>
<path d="M12 3.8335H12.0067" stroke="#E3A745" stroke-width="1.5" stroke-linecap="round" stroke-linejoin="round"/>
</svg>
