<svg width="38" height="38" viewBox="0 0 38 38" fill="none" xmlns="http://www.w3.org/2000/svg">
<path d="M0 7.125V9.5H22.5625V27.3125H15.2522C14.7226 25.2712 12.8868 23.75 10.6875 23.75C8.48825 23.75 6.65238 25.2712 6.12275 27.3125H4.75V21.375H2.375V29.6875H6.12275C6.65238 31.7288 8.48825 33.25 10.6875 33.25C12.8868 33.25 14.7226 31.7288 15.2522 29.6875H25.1227C25.6524 31.7288 27.4883 33.25 29.6875 33.25C31.8867 33.25 33.7226 31.7288 34.2523 29.6875H38V20.0022L37.9252 19.8158L35.5502 12.6908L35.2925 11.875H24.9375V7.125H0ZM1.1875 11.875V14.25H11.875V11.875H1.1875ZM24.9375 14.25H33.5837L35.625 20.3359V27.3125H34.2523C33.7226 25.2712 31.8867 23.75 29.6875 23.75C27.4883 23.75 25.6524 25.2712 25.1227 27.3125H24.9375V14.25ZM2.375 16.625V19H9.5V16.625H2.375ZM10.6875 26.125C12.0139 26.125 13.0625 27.1736 13.0625 28.5C13.0625 29.8264 12.0139 30.875 10.6875 30.875C9.36106 30.875 8.3125 29.8264 8.3125 28.5C8.3125 27.1736 9.36106 26.125 10.6875 26.125ZM29.6875 26.125C31.0139 26.125 32.0625 27.1736 32.0625 28.5C32.0625 29.8264 31.0139 30.875 29.6875 30.875C28.3611 30.875 27.3125 29.8264 27.3125 28.5C27.3125 27.1736 28.3611 26.125 29.6875 26.125Z" fill="#282828"/>
</svg>
