<svg width="16" height="16" viewBox="0 0 16 16" fill="none" xmlns="http://www.w3.org/2000/svg">
<path d="M8 0C3.58873 0 0 3.58873 0 8C0 12.4113 3.589 16 8 16C12.411 16 16 12.4113 16 8C16 3.58873 12.4113 0 8 0Z" fill="#008C56"/>
<path d="M11.5354 4.7013C11.706 4.91094 11.8804 5.13393 12.0556 5.36681C12.0925 5.84164 12.1023 6.27668 12.1397 6.75231C12.1344 6.95581 12.0719 7.2258 12.0126 7.25144C12.0126 7.25144 11.9221 7.30352 11.8615 7.24583C11.8174 7.22821 11.6414 6.95233 11.6414 6.95233C11.5514 6.86981 11.4913 6.89331 11.4272 6.95233C11.2504 7.12299 11.1706 7.44265 11.0504 7.66271C11.0194 7.71185 10.9321 7.75378 10.8352 7.65897C10.6333 7.38337 10.6936 7.01242 10.7051 6.95501L10.7024 6.96649C10.4832 7.21379 10.5801 7.62319 10.6298 7.71132C10.7022 7.85606 10.7606 7.94873 10.9014 8.02003C11.0296 8.11431 11.1294 8.05555 11.1845 7.98932C11.3135 7.85579 11.3151 7.51396 11.3757 7.44613C11.4181 7.32194 11.5244 7.34331 11.5765 7.39832C11.6267 7.4707 11.6863 7.5177 11.7602 7.55695C11.8804 7.66298 12.0241 7.68247 12.1656 7.58553C12.2623 7.53132 12.3251 7.46081 12.3817 7.32168C12.4423 7.15931 12.4124 6.30766 12.3988 5.83389C12.4896 5.96182 12.5793 6.09267 12.6685 6.22487C12.7078 6.64068 12.7254 7.05035 12.7126 7.44292C12.7032 7.5209 12.985 7.20978 12.9831 7.06236C12.9818 6.93337 12.9834 6.8164 12.9831 6.70771C13.1201 6.92578 13.2514 7.14733 13.377 7.37215C13.4545 7.33102 13.428 6.89251 13.3789 6.83189C13.248 6.61237 13.0803 6.37496 12.9505 6.19122C12.9249 5.95941 12.8899 5.68594 12.8741 5.60235C12.8493 5.47176 12.8245 5.27548 12.7871 5.12058C12.7769 5.05996 12.7457 4.86661 12.7556 4.84818C12.7708 4.80492 12.8285 4.84952 12.857 4.79931C12.8995 4.75284 12.7096 4.26092 12.6132 4.12045C12.5785 4.05742 12.5158 4.07932 12.4383 4.1816C12.3665 4.2489 12.3926 4.40273 12.4201 4.54881C12.4914 4.92136 12.5553 5.30058 12.6057 5.679C12.5123 5.54013 12.3985 5.37242 12.2863 5.21058L12.2719 5.13687C12.2719 5.1302 12.2564 4.83216 12.2434 4.76112C12.2409 4.73228 12.2343 4.724 12.2644 4.72774C12.2965 4.75471 12.3008 4.75605 12.3208 4.76513C12.3531 4.771 12.3814 4.71626 12.3619 4.66578L12.0618 4.1111C12.0497 4.09935 12.0361 4.0868 12.0206 4.0844C12.0051 4.08199 11.988 4.08974 11.9691 4.11778C11.9456 4.13823 11.9267 4.16352 11.9139 4.19191C11.901 4.22029 11.8944 4.25112 11.8946 4.28229C11.9034 4.41341 11.9269 4.54774 11.9357 4.67914L11.9453 4.73175C11.9348 4.71819 11.9236 4.70509 11.9119 4.69249C11.6561 4.42383 12.0294 4.64869 11.8631 4.44092C11.7223 4.28656 11.6812 4.23742 11.561 4.14448C11.5007 4.10549 11.4641 4.03098 11.4443 4.15784C11.4366 4.26947 11.4283 4.39846 11.4358 4.49246C11.4344 4.54507 11.4886 4.64335 11.5354 4.7013ZM5.2352 6.6754C5.23227 6.724 5.36927 6.78302 5.37755 6.89519C5.39704 6.94139 5.34817 7.08987 5.38903 7.10349C5.42642 7.11898 5.4785 7.00094 5.49799 6.89118C5.50894 6.83109 5.45099 6.62092 5.35271 6.58326C5.33738 6.57987 5.32165 6.57861 5.30598 6.57952C5.25844 6.58299 5.21598 6.60836 5.2352 6.6754Z" fill="white"/>
<path d="M11.949 5.86091C11.9454 5.86035 11.9418 5.86071 11.9384 5.86197C11.9384 5.86197 11.3551 6.27671 11.3407 6.2914C11.2827 6.34268 11.3118 6.52348 11.3407 6.50265C11.3826 6.51867 11.9696 6.12075 11.9584 6.07428C11.984 6.07562 11.9966 5.86945 11.949 5.86091ZM13.0213 4.91525C13.0418 4.97828 12.99 5.18151 13.0328 5.2002C13.072 5.2213 13.127 5.05973 13.1476 4.91044C13.1588 4.82872 13.0985 4.5419 12.9956 4.49063C12.9875 4.48845 12.9792 4.4872 12.9708 4.48689C12.9121 4.48475 12.848 4.52935 12.8733 4.61695C12.8584 4.66475 12.9986 4.82659 13.0213 4.91525ZM11.6208 5.86571C11.623 5.7474 11.6344 5.58984 11.6409 5.49183C11.6435 5.45498 11.6523 5.41412 11.6876 5.40477C11.7231 5.39542 11.7845 5.44029 11.7851 5.40183C11.7787 5.32652 11.7634 5.21542 11.721 5.16281C11.7103 5.14743 11.6962 5.13476 11.6798 5.12581C11.6634 5.11686 11.6451 5.11188 11.6264 5.11127C11.5647 5.10833 11.4988 5.14839 11.482 5.23278C11.4822 5.28246 11.5044 5.30996 11.5001 5.3551C11.4937 5.381 11.467 5.39783 11.4034 5.36765C11.4133 5.35857 11.3623 5.28646 11.3623 5.28646C11.3129 5.25628 11.2467 5.28806 11.2037 5.31611C11.1882 5.34546 11.179 5.37767 11.1765 5.41075C11.174 5.44382 11.1784 5.47706 11.1893 5.50839C11.2606 5.63951 11.5044 5.86357 11.6208 5.86571ZM9.14065 6.63831L9.14172 6.63724L9.14279 6.63618L9.14386 6.63511V6.63324C9.14409 6.62999 9.14373 6.62674 9.14279 6.62362L9.08724 6.59104L7.99444 6.58624C7.98387 6.58264 7.97388 6.57751 7.9648 6.57101L7.96293 6.56914L7.96213 6.56808L7.96106 6.56701L7.96026 6.56514L7.95919 6.56407V6.563L7.95812 6.56193V6.55339L7.95919 6.55232L7.96026 6.55045C7.9656 6.54324 7.97842 6.53656 7.99471 6.53042C8.25562 6.4949 8.71924 6.41879 8.74995 5.97307C8.74514 5.74073 8.6506 5.58877 8.36565 5.54658C8.15628 5.56287 8.00699 5.7653 8.03103 5.98829C8.02115 6.04838 8.05132 6.16615 7.9899 6.17951C7.58825 6.21609 7.14974 6.46793 7.13505 6.64793H7.13398L7.13291 6.64899L7.13104 6.65006H7.12917L7.12623 6.65113H7.12063C7.11937 6.65081 7.11812 6.65045 7.11689 6.65006C7.09072 6.64285 7.05707 6.59959 7.06241 6.53923C7.04719 6.22784 6.9457 5.87559 6.78707 5.60426C6.73045 5.54764 6.70562 5.52468 6.68959 5.52201H6.68185C6.68025 5.52254 6.67864 5.52388 6.67704 5.52495L6.6741 5.52682C6.66182 5.53616 6.6474 5.55726 6.61482 5.58023C6.56007 5.64245 6.55019 5.68598 6.55366 5.8107C6.55687 5.82378 6.65755 6.10419 6.74301 6.30128C6.80069 6.50612 6.85383 6.74059 6.81484 6.96199C6.67998 7.25468 6.40892 7.5172 6.14746 7.66008C6.0142 7.70281 5.8991 7.68812 5.86839 7.65901L5.86732 7.65794C5.84205 7.64043 5.8219 7.6165 5.80895 7.58862C5.79599 7.56074 5.7907 7.52991 5.79361 7.49931V7.49824L5.79468 7.49717C6.01527 7.34335 6.26764 7.2189 6.465 6.80389C6.52322 6.64525 6.54111 6.54992 6.48316 6.30476C6.46046 6.21342 6.43268 6.13811 6.37046 6.07348L6.37153 6.07242C6.40918 6.05452 6.50666 6.12636 6.52161 6.08096C6.49865 5.96399 6.41933 5.80669 6.32933 5.72631C6.25082 5.655 6.16509 5.64672 6.09325 5.71189C6.01207 5.75702 5.99497 5.91912 6.03397 6.06093C6.07723 6.16776 6.19447 6.18645 6.27779 6.40143V6.4025C6.27966 6.41585 6.30637 6.563 6.26444 6.62229C6.23025 6.72858 5.79254 7.07388 5.76157 7.09471C5.76063 7.0954 5.75965 7.09602 5.75863 7.09658L5.75756 7.09765L5.75649 7.09872L5.75542 7.09979H5.75329L5.75249 7.09872V7.09765L5.75142 7.09578C5.75008 7.08724 5.75249 7.06534 5.75142 7.02982C5.74848 6.96519 5.77519 6.81884 5.77332 6.79374V6.79267L5.77252 6.7916V6.79053H5.77145C5.6267 6.88401 5.5789 7.17056 5.55246 7.25522C5.18606 7.50839 4.76998 7.69666 4.53043 7.95331C4.40571 8.14826 5.39036 7.72951 5.50466 7.67877L5.50759 7.68171C5.52923 7.70574 5.53109 7.78907 5.59652 7.86438C5.69881 8.00298 5.91646 8.08844 6.12824 8.03556C6.48316 7.90737 6.68772 7.66515 6.89603 7.39676C6.92567 7.35349 6.97241 7.31931 7.01567 7.35269C7.15882 7.67316 7.57142 7.90096 8.10474 7.92446C8.22812 7.77438 8.1691 7.70067 8.11916 7.66916C8.10367 7.65901 7.85397 7.56153 7.81498 7.46459C7.79068 7.37432 7.84996 7.29421 7.9688 7.23412C8.31117 7.19272 8.64793 7.14679 8.97374 7.04184C8.97695 6.93234 9.04158 6.76864 9.08457 6.6976C9.11422 6.65006 9.13344 6.64526 9.14065 6.63831ZM8.23933 5.95197C8.24018 5.94863 8.24144 5.9454 8.24307 5.94236C8.24361 5.94129 8.24414 5.93942 8.24494 5.93862L8.24574 5.93755C8.24721 5.93582 8.24882 5.93421 8.25055 5.93274C8.25868 5.92679 8.26829 5.92319 8.27832 5.92233C8.30837 5.92132 8.33804 5.92932 8.36352 5.94529C8.40705 5.9704 8.43375 6.00859 8.43055 6.03609V6.03903L8.42868 6.04197L8.42761 6.04491L8.42654 6.04678L8.42547 6.04865C8.4239 6.0511 8.42201 6.05335 8.41987 6.05532C8.39903 6.07482 8.3507 6.07215 8.30503 6.04571C8.26177 6.02087 8.23533 5.98242 8.238 5.95491C8.23853 5.95411 8.23933 5.95277 8.23933 5.95197ZM7.80243 7.04664C7.68519 7.0867 7.57249 7.11822 7.57196 7.28753C7.58744 7.37139 7.58397 7.41545 7.57115 7.43575L7.56741 7.44055L7.56635 7.44162L7.56528 7.44269L7.56448 7.44376L7.56341 7.44483L7.56154 7.4459C7.55966 7.44703 7.5577 7.44802 7.55566 7.44883L7.55006 7.4499C7.52228 7.45391 7.48169 7.42747 7.45151 7.41171C7.37914 7.3599 7.17644 7.23412 7.14733 6.96412C7.14333 6.90323 7.18873 6.85062 7.26217 6.84555H7.27445C7.39623 6.87866 7.57569 6.88214 7.73139 6.89816C7.85851 6.90537 7.92127 7.00498 7.80243 7.04664Z" fill="white"/>
<path d="M7.43635 5.99002C7.56214 6.05011 7.86205 6.01459 7.78914 5.82071C7.7879 5.78913 7.78567 5.7576 7.78246 5.72617C7.76964 5.69626 7.74587 5.68504 7.72317 5.68878C7.70047 5.69278 7.67858 5.71148 7.67056 5.74219C7.66549 5.76249 7.68018 5.79614 7.66202 5.80629C7.6516 5.81697 7.61074 5.81082 7.61235 5.75474C7.61235 5.73685 7.59926 5.71735 7.59125 5.70587C7.58324 5.70053 7.57896 5.69919 7.56454 5.69919C7.54692 5.7 7.54638 5.70454 7.53677 5.71922C7.53276 5.73418 7.52715 5.74913 7.52715 5.76596C7.52502 5.78599 7.51807 5.79266 7.50339 5.7956C7.4871 5.7956 7.49083 5.79747 7.47748 5.78893C7.46947 5.78038 7.45932 5.77691 7.45932 5.76222C7.4595 5.74535 7.45688 5.72856 7.45158 5.71255C7.44463 5.70347 7.43262 5.69946 7.42006 5.69626C7.35143 5.69652 7.34716 5.77451 7.35116 5.80442C7.34609 5.81002 7.34262 5.95103 7.43635 5.99002ZM11.9766 11.2212C11.9016 11.2324 11.6906 11.2537 11.6906 11.2537C11.4468 11.2246 11.2678 11.2217 10.9936 11.2115C11.0189 11.1795 11.0635 11.0492 11.0088 11.0022C10.9946 10.9904 10.9733 10.9837 10.9439 10.9859H10.941L10.9399 10.9848L10.937 10.9837C10.9352 10.9823 10.9335 10.9807 10.9321 10.9789L10.9303 10.9771C10.9164 10.9568 10.9089 10.9074 10.8996 10.8948L10.8985 10.8937L10.8977 10.8927L10.8958 10.8916H10.8937L10.8929 10.8924C10.7116 10.9389 10.7172 11.1272 10.8336 11.2099C8.91853 11.2099 5.97928 11.1774 5.34903 11.1774C4.99651 11.1774 3.88074 11.1352 3.85938 11.1352C4.09866 11.485 4.4453 11.5563 4.89877 11.5635C5.74935 11.5635 9.69086 11.5531 10.8125 11.5531C10.7327 11.6947 10.8197 11.9225 10.8822 11.9644L10.887 11.9673C10.8894 11.9684 10.8924 11.9697 10.8948 11.9703H10.8977C10.9719 11.9879 11.0045 11.9339 11.0296 11.8947C11.1501 11.9054 11.8281 11.915 11.8901 11.8936L11.8912 11.8925C11.9331 11.9542 11.9747 12.0127 12.0546 12.0026C12.1943 11.9727 12.3046 11.9574 12.308 11.6736C12.3083 11.6744 12.2939 11.191 11.9766 11.2212ZM11.8399 11.7395L11.8351 11.7414H11.8276L11.5934 11.7347C11.5935 11.7302 11.5928 11.7257 11.5915 11.7214C11.5699 11.6575 11.4139 11.6618 11.3773 11.7117L11.3755 11.7147L11.3736 11.7184L11.3717 11.7232L11.3707 11.7299C11.3704 11.7323 11.3696 11.7352 11.3696 11.7377C11.247 11.7523 11.1364 11.7336 11.0139 11.7291C10.9778 11.6842 10.9821 11.6033 11.0243 11.5838H11.0251C11.3044 11.5974 11.5669 11.5865 11.8466 11.6001C11.8909 11.6375 11.8687 11.7238 11.8399 11.7395ZM8.55933 7.85756C8.55933 7.86237 8.60847 7.90456 8.66643 7.87091C8.78847 7.82444 8.86458 7.77904 9.0355 7.74192C9.08037 7.74112 9.0777 7.62095 9.00693 7.61667C8.91426 7.62121 8.8288 7.62602 8.73639 7.69893C8.67951 7.71201 8.66963 7.6773 8.65708 7.64632C8.64266 7.56914 8.68966 7.51492 8.68004 7.45697C8.68272 7.45964 8.6512 7.43133 8.61114 7.4292C8.59657 7.42828 8.58201 7.43122 8.56895 7.43774C8.56601 7.43774 8.44023 7.52294 8.39963 7.58222C8.3748 7.60092 8.37773 7.61747 8.38521 7.65006C8.40444 7.69439 8.43836 7.6805 8.47708 7.65967C8.52836 7.65273 8.55293 7.68611 8.54892 7.74753C8.52515 7.82444 8.55933 7.85275 8.55933 7.85756ZM12.7818 7.82711C12.758 7.79988 12.7041 7.81617 12.668 7.81189C12.6509 7.81189 12.5943 7.80361 12.6213 7.75367C12.6437 7.7227 12.652 7.704 12.6672 7.66581C12.6843 7.62842 12.6694 7.60305 12.6079 7.58276C12.5831 7.57771 12.5577 7.57547 12.5324 7.57608C12.5097 7.57688 12.4856 7.57982 12.4512 7.58276C12.4138 7.59077 12.4007 7.60706 12.3938 7.65246C12.3964 7.72136 12.4386 7.71789 12.4816 7.74513C12.5067 7.77691 12.5227 7.80575 12.4798 7.85783C12.4389 7.89522 12.4098 7.91605 12.3689 7.95343C12.3497 7.98628 12.3377 8.03702 12.3967 8.05278C12.5057 8.08349 12.758 7.91952 12.758 7.91605C12.7989 7.88533 12.7853 7.82711 12.7818 7.82711ZM10.8323 7.5013C10.9199 7.50184 11.0213 7.30074 11.0646 7.10152C11.0884 6.82725 11.0489 6.66034 11.0416 6.49903C11.0344 6.33773 10.8592 5.02995 10.8237 4.9079C10.7807 4.67716 10.9944 4.87746 10.9709 4.74339C10.8972 4.57434 10.7129 4.32812 10.6555 4.18124C10.6338 4.14198 10.6312 4.10539 10.6133 4.10859C10.6026 4.11046 10.5868 4.12676 10.5577 4.16494C10.4859 4.40022 10.4605 4.5925 10.488 4.73859C10.6731 5.704 10.8624 6.58289 10.8323 7.5013Z" fill="white"/>
<path d="M13.5657 4.94719C13.5574 4.8863 13.5304 4.74636 13.5409 4.7282C13.5577 4.68548 13.6418 4.73248 13.672 4.68334C13.7161 4.63847 13.4541 4.30278 13.3622 4.15937C13.3438 4.12332 13.3326 4.09367 13.3163 4.09528C13.3037 4.09661 13.2882 4.11691 13.2647 4.16685C13.2078 4.25978 13.1883 4.42616 13.211 4.57331C13.3478 5.49733 13.4493 6.39225 13.4701 7.21131C13.4583 7.28903 13.4549 7.33042 13.4186 7.42843C13.3379 7.53178 13.249 7.66131 13.1651 7.7238C13.0813 7.78629 12.9031 7.84584 12.8446 7.89205C12.6598 7.99887 12.6588 8.12198 12.8083 8.12626C13.066 8.09634 13.3707 8.07525 13.5809 7.75825C13.637 7.66932 13.7032 7.42843 13.7062 7.28102C13.7259 6.41682 13.6952 5.57184 13.5657 4.94719ZM11.8624 6.98698C11.9017 7.00808 12.0047 6.88123 12.001 6.72206C12.0125 6.64034 11.9719 6.3391 11.8691 6.28783C11.8569 6.28457 11.8442 6.28357 11.8317 6.28489C11.778 6.29157 11.727 6.34231 11.7505 6.42349C11.7358 6.47129 11.8234 6.63794 11.8461 6.7266C11.8667 6.7899 11.8199 6.96802 11.8624 6.98698ZM3.74757 4.42803C3.87335 4.48812 4.10943 4.46275 4.09955 4.25979C4.09857 4.22822 4.09661 4.19669 4.09368 4.16525C4.08086 4.13534 4.05735 4.12412 4.03465 4.12813C4.01195 4.13213 3.99006 4.15082 3.98204 4.18154C3.97697 4.20183 3.99086 4.23548 3.97243 4.24563C3.96202 4.25631 3.92196 4.2491 3.92356 4.19302C3.92356 4.17513 3.91047 4.15643 3.90246 4.14522C3.89445 4.14014 3.88911 4.13854 3.87469 4.13854C3.85706 4.13934 3.8576 4.14388 3.84798 4.15857C3.84371 4.17352 3.8381 4.18821 3.8381 4.2053C3.83596 4.22533 3.82795 4.23201 3.81326 4.23495C3.79697 4.23495 3.80071 4.23682 3.78736 4.22827C3.77961 4.21973 3.77027 4.21625 3.77027 4.20157C3.77008 4.18466 3.76719 4.16789 3.76172 4.15189C3.75478 4.14281 3.74383 4.13801 3.73101 4.1348C3.66238 4.13507 3.6573 4.21412 3.66131 4.24376C3.6565 4.2491 3.65383 4.38904 3.74757 4.42803ZM5.64876 5.085C5.62758 5.08468 5.60684 5.09103 5.58947 5.10315C5.47811 5.16324 5.43511 5.3419 5.50428 5.44632C5.56891 5.53846 5.67146 5.50454 5.68508 5.50454C5.79404 5.51816 5.8592 5.29998 5.8592 5.29998C5.8592 5.29998 5.8624 5.23855 5.73288 5.35446C5.6784 5.36461 5.67092 5.34511 5.6573 5.3144C5.64434 5.25699 5.65033 5.19693 5.67439 5.14321C5.68668 5.1093 5.67466 5.08767 5.64876 5.085ZM10.1751 7.30505C9.9727 7.51629 9.68107 7.77694 9.36327 7.89685C9.32909 7.93531 9.44819 8.09875 9.60229 8.09848C9.86 8.06857 10.0865 7.92383 10.2964 7.543C10.3525 7.45407 10.4513 7.26392 10.4542 7.11651C10.474 6.25231 10.4107 5.58039 10.2811 4.95574C10.2729 4.89485 10.2785 4.82301 10.2889 4.80458C10.3055 4.78455 10.3621 4.80512 10.3922 4.75571C10.4363 4.71085 10.2747 4.33803 10.1829 4.19436C10.1644 4.1583 10.1532 4.12973 10.1369 4.13133C10.1244 4.13266 10.1089 4.15216 10.0854 4.2021C10.0288 4.29504 9.99006 4.45687 9.9946 4.60856C10.1174 5.45968 10.1551 6.20424 10.2355 7.05535C10.2419 7.13787 10.2299 7.25725 10.1751 7.30505ZM3.16805 6.02905C2.86574 6.03466 2.42349 6.42509 2.41174 6.64195C2.73061 6.48892 3.04387 6.34151 3.36781 6.18287C3.31547 6.10489 3.36461 6.03466 3.16805 6.02905ZM2.58212 7.63246C2.50254 7.79377 2.46969 7.68347 2.46248 7.59321C2.4502 7.42229 2.46676 7.26473 2.48545 7.14001C2.49533 7.07618 2.49506 7.05375 2.48732 7.05402C2.47984 7.05428 2.46435 7.07698 2.44432 7.10289C2.26459 7.38918 2.24857 7.81674 2.34765 7.94439C2.40026 8.00474 2.48732 8.03118 2.55141 8.01222C2.66438 7.96335 2.71405 7.73448 2.68708 7.65089C2.64942 7.5916 2.61978 7.58226 2.58212 7.63246Z" fill="white"/>
<path d="M2.61696 5.76806C2.98417 5.80331 2.78147 5.14715 2.91447 5.02804C2.93957 4.96929 2.98604 4.96822 2.99004 5.04246V5.59981C2.98657 5.78114 3.10595 5.83482 3.19862 5.87221C3.29503 5.86473 3.35885 5.8674 3.39651 5.96114C3.41146 6.28241 3.42722 6.60448 3.44244 6.92602C3.44244 6.92602 3.66517 6.99012 3.67585 6.38389C3.68653 6.02791 3.60508 5.72934 3.65288 5.66017C3.65449 5.59207 3.74181 5.58886 3.8019 5.62198C3.89778 5.68981 3.9405 5.77313 4.08979 5.73948C4.31679 5.67699 4.45352 5.5667 4.457 5.39231C4.44364 5.22673 4.42441 5.06089 4.35284 4.89504C4.36299 4.86487 4.30931 4.78662 4.31946 4.75644C4.36032 4.82027 4.42201 4.81493 4.43617 4.75644C4.39744 4.62905 4.33735 4.50701 4.24014 4.4544C4.15976 4.38363 4.04225 4.39858 3.99926 4.54627C3.97923 4.71638 4.06095 4.91801 4.18486 5.08279C4.2113 5.14715 4.24789 5.25424 4.2316 5.35038C4.16564 5.38803 4.10047 5.37228 4.04519 5.31406C4.04519 5.31406 3.86439 5.17866 3.86439 5.14875C3.91246 4.84163 3.87481 4.80665 3.8481 4.72146C3.82941 4.60395 3.77386 4.56656 3.72846 4.48618C3.68333 4.43838 3.6219 4.43838 3.59279 4.48618C3.51294 4.62478 3.55033 4.92202 3.60802 5.05501C3.64968 5.17759 3.71377 5.25397 3.68359 5.25397C3.65876 5.32314 3.60722 5.30712 3.56983 5.22727C3.51668 5.06222 3.50573 4.81626 3.50573 4.70517C3.48971 4.56763 3.47182 4.27387 3.38155 4.19936C3.35752 4.16651 3.32894 4.15503 3.30117 4.15823C3.26565 4.1625 3.23227 4.19135 3.21598 4.23007C3.20816 4.36299 3.21102 4.49632 3.22452 4.62879C3.28648 4.84938 3.30624 5.04353 3.33642 5.26946C3.3447 5.57204 3.16176 5.40032 3.17004 5.25023C3.21224 5.05528 3.20102 4.7487 3.16336 4.67072C3.13345 4.593 3.099 4.57377 3.02663 4.58659C2.96921 4.58312 2.82046 4.74496 2.77907 5.01308C2.77907 5.01308 2.74435 5.15062 2.7294 5.2732C2.7091 5.41154 2.61723 5.50955 2.5534 5.25397C2.49812 5.0681 2.46421 4.61036 2.3718 4.71745C2.34483 5.07451 2.31332 5.70343 2.61696 5.76806Z" fill="white"/>
<path d="M2.73477 4.42135C2.754 4.46942 2.71555 4.62404 2.75587 4.63847C2.79273 4.65449 2.84373 4.53137 2.86296 4.41761C2.87364 4.35538 2.86563 4.142 2.72062 4.09821C2.71307 4.09654 2.70538 4.09556 2.69765 4.09527C2.64211 4.09367 2.58095 4.12812 2.60498 4.19461C2.5911 4.2312 2.71341 4.35378 2.73477 4.42135ZM4.83198 7.20329C4.96284 6.76745 4.82931 6.43871 4.87311 6.39811L4.87498 6.39704L4.87685 6.39598L4.87872 6.39491L4.88433 6.39384C5.0459 6.56796 5.27263 6.41601 5.3223 6.35565C5.34367 6.32547 5.39681 6.30598 5.4342 6.34523C5.56025 6.43577 5.78111 6.39304 5.82731 6.23334C5.85402 6.07711 5.87645 5.91634 5.88179 5.74943C5.7998 5.7748 5.73357 5.79403 5.70687 5.82207C5.70064 5.82841 5.69629 5.83637 5.69431 5.84504L5.67322 5.98364C5.67254 5.98729 5.67127 5.9908 5.66948 5.99405C5.66557 5.99996 5.66036 6.00489 5.65426 6.00847C5.62515 6.02423 5.57467 6.01515 5.572 5.97322C5.53301 5.79563 5.37224 5.77266 5.2745 6.04773C5.2088 6.10088 5.08916 6.11129 5.07661 6.03144C5.09263 5.8469 5.01812 5.82207 4.8691 5.90913C4.8213 5.54353 4.77376 5.19421 4.72569 4.82861C4.78792 4.82674 4.8448 4.87187 4.90169 4.80084C4.84026 4.60962 4.7102 4.22052 4.63676 4.1842L4.63489 4.18313C4.63176 4.17933 4.62828 4.17584 4.62448 4.17272L4.61967 4.16898L4.61486 4.16604C4.61181 4.16445 4.60858 4.16319 4.60525 4.1623C4.59857 4.16043 4.59216 4.15963 4.58522 4.16043C4.56706 4.16283 4.54677 4.17325 4.523 4.17859C4.44502 4.20343 4.37184 4.27099 4.39481 4.40239C4.48721 4.96321 4.5473 5.3913 4.63943 5.95239C4.65359 6.01809 4.59857 6.10462 4.52754 6.0958C4.40683 6.01408 4.37692 5.84877 4.17101 5.85572C4.022 5.85759 3.85188 6.01969 3.83051 6.17592C3.80568 6.3001 3.79687 6.4347 3.83051 6.54313C3.9352 6.66918 4.06099 6.65582 4.17101 6.62725C4.26155 6.59013 4.33606 6.50066 4.36784 6.52203H4.3689V6.5231C4.38867 6.55755 4.36704 6.84944 3.94241 7.07484C3.6815 7.19208 3.47373 7.22012 3.36209 7.00701C3.29293 6.87374 3.36717 6.36687 3.19679 6.48411C2.69258 7.78334 4.37772 7.96494 4.56599 6.53752C4.57828 6.49719 4.6154 6.45687 4.64157 6.46675C4.65305 6.47155 4.66347 6.48731 4.66748 6.51642C4.62849 7.80872 3.36396 7.89738 3.14898 7.49065C3.09584 7.39477 3.07981 7.18166 3.07447 7.05374C3.06486 6.97629 3.04536 6.93169 3.02293 6.91407C2.97166 6.87561 2.90275 6.97603 2.88807 7.15015C2.8667 7.29035 2.87284 7.32881 2.87284 7.46368C2.94014 8.48491 4.56733 8.0464 4.83198 7.20329ZM4.20333 6.32013V6.3212C4.20306 6.32173 4.20279 6.3228 4.20226 6.32307C4.18971 6.33936 4.14511 6.33268 4.11333 6.33268C4.07487 6.33108 4.05618 6.32467 4.03294 6.29343C4.022 6.25871 4.05538 6.22452 4.07033 6.19889L4.07113 6.19782C4.07313 6.19504 4.07536 6.19245 4.07781 6.19007C4.09601 6.17461 4.11909 6.16609 4.14297 6.16604C4.17262 6.16631 4.20386 6.18099 4.22042 6.22239C4.2265 6.23873 4.22812 6.2564 4.22512 6.27358C4.22211 6.29075 4.21459 6.30682 4.20333 6.32013ZM9.58402 5.34537C9.7098 5.40546 9.94695 5.37902 9.9368 5.17605C9.93556 5.14448 9.93334 5.11295 9.93013 5.08152C9.91731 5.0516 9.89354 5.04039 9.87084 5.04413C9.84814 5.04813 9.82624 5.06763 9.81823 5.09861C9.81316 5.1189 9.82784 5.15148 9.80968 5.16163C9.79927 5.17231 9.75841 5.16617 9.76001 5.11009C9.76001 5.0922 9.74692 5.0727 9.73891 5.06122C9.7309 5.05614 9.72556 5.05454 9.71114 5.05454C9.69351 5.05534 9.69405 5.05988 9.68443 5.07457C9.68043 5.08953 9.67482 5.10448 9.67482 5.12131C9.67268 5.14134 9.66574 5.14801 9.65105 5.15095C9.63476 5.15095 9.6377 5.15282 9.62434 5.14427C9.61633 5.13573 9.60725 5.13226 9.60725 5.11757C9.60706 5.10066 9.60418 5.08389 9.59871 5.0679C9.59176 5.05882 9.58081 5.05481 9.568 5.0516C9.49936 5.05187 9.49536 5.12985 9.49909 5.15976C9.49375 5.16564 9.49028 5.30664 9.58402 5.34537ZM9.66894 4.55861C9.71381 4.6844 9.63476 4.80431 9.6815 4.82167C9.72449 4.84116 9.78431 4.69188 9.80675 4.55408C9.83265 4.44244 9.75307 4.21411 9.64037 4.16684C9.6316 4.16491 9.62264 4.16393 9.61366 4.1639C9.5493 4.16203 9.47773 4.20263 9.5055 4.28354C9.48921 4.32734 9.64411 4.47663 9.66894 4.55861Z" fill="white"/>
<path d="M4.9818 5.16388H4.98287L4.98394 5.16495H4.98501L4.98608 5.16602C5.00985 5.18204 5.30441 5.18177 5.33699 5.16708L5.33779 5.16602H5.33886V5.16495C5.44008 5.12756 5.92025 4.57875 5.92025 4.57875C5.89541 4.55739 5.87244 4.54163 5.84761 4.52054C5.8209 4.49757 5.82357 4.47487 5.84761 4.45164C5.96645 4.38247 5.92879 4.23024 5.86683 4.16108C5.82201 4.1402 5.77283 4.1304 5.72342 4.1325C5.68333 4.13468 5.64418 4.14542 5.60859 4.16401C5.52527 4.24386 5.5055 4.37205 5.5712 4.4519C5.63503 4.48208 5.69886 4.54644 5.65639 4.58196C5.47559 4.77504 5.00504 5.09765 4.98127 5.15667L4.98047 5.15854V5.16148L4.98127 5.16334L4.9818 5.16388ZM5.69378 4.30342L5.69939 4.30235C5.72877 4.29941 5.76428 4.32638 5.78164 4.36457C5.80007 4.40517 5.79099 4.44416 5.76055 4.45164C5.73037 4.45911 5.69111 4.43214 5.67268 4.39128C5.65426 4.35069 5.6636 4.3109 5.69378 4.30342ZM8.50217 4.60706C8.71308 4.88942 8.91647 5.17732 9.11213 5.47046C9.14284 5.68945 9.16554 5.90363 9.17996 6.11674C9.21174 6.58436 9.22135 7.16655 9.19251 7.65901C9.28011 7.66248 9.42058 7.51746 9.46972 7.30515C9.50177 7.01139 9.45823 6.41238 9.4553 6.23906C9.45252 6.15649 9.4487 6.07396 9.44381 5.99149C9.68293 6.38214 9.90524 6.78282 10.1101 7.19245C10.1892 7.1548 10.1718 6.70908 10.1253 6.64659C9.95149 6.27244 9.71141 5.9031 9.63476 5.76129C9.60725 5.71001 9.51298 5.56687 9.40135 5.40183C9.38079 5.16628 9.35836 4.96679 9.34393 4.90644C9.30815 4.65754 9.44622 4.93448 9.42726 4.78973C9.38239 4.5411 9.24512 4.37205 9.08302 4.14425C9.03067 4.07028 9.03174 4.05505 8.95109 4.16241C8.90275 4.27191 8.90356 4.36297 8.91771 4.44816C8.89115 4.40924 8.86272 4.37163 8.83252 4.33546C8.69258 4.21529 8.68403 4.20888 8.5676 4.11087C8.53101 4.08496 8.46131 4.04491 8.4079 4.04971C8.37585 4.05265 8.35048 4.07134 8.34086 4.11861C8.32804 4.22971 8.33472 4.29006 8.35341 4.38247C8.3681 4.44416 8.45783 4.54724 8.50217 4.60706ZM8.94869 4.59024C8.95403 4.61427 8.95937 4.63831 8.96311 4.66288C8.97513 4.71576 8.98554 4.76837 8.99649 4.82071C8.96424 4.77501 8.93048 4.73038 8.89528 4.68691C8.79032 4.5622 8.89741 4.60493 8.94869 4.59024Z" fill="white"/>
<path d="M6.35621 5.48483C6.50309 5.54572 6.59629 5.26611 6.65638 4.95979C6.69751 4.8738 6.72902 4.86392 6.75012 4.90825C6.74478 5.31524 6.77923 5.40631 6.88392 5.52969C7.11732 5.70996 7.31041 5.55239 7.32563 5.53744L7.50723 5.35584C7.54782 5.31338 7.60123 5.3107 7.65838 5.34809C7.71393 5.39857 7.70672 5.48563 7.82583 5.54598C7.92598 5.58604 8.13962 5.5556 8.1893 5.4696C8.25606 5.3553 8.27208 5.31605 8.30306 5.27252C8.3506 5.20922 8.43205 5.23726 8.43205 5.25729C8.42457 5.29254 8.3765 5.32753 8.40908 5.39109C8.4657 5.43355 8.47879 5.40631 8.51244 5.3967C8.63101 5.34008 8.71994 5.08317 8.71994 5.08317C8.72528 4.9873 8.67054 4.99451 8.63582 5.01427C8.59042 5.04204 8.58748 5.05139 8.54208 5.07917C8.48413 5.08771 8.37196 5.1259 8.31642 5.03991C8.2598 4.93656 8.25927 4.79234 8.216 4.68792C8.216 4.68045 8.14016 4.52395 8.21039 4.5138C8.24565 4.52048 8.32176 4.53997 8.33378 4.47641C8.3709 4.41446 8.25366 4.239 8.17407 4.15034C8.10491 4.07449 8.0093 4.06514 7.9169 4.14259C7.852 4.20215 7.86162 4.26864 7.84906 4.33194C7.83251 4.40431 7.83571 4.49431 7.90942 4.59018C7.97405 4.71757 8.09155 4.88127 8.05283 5.11228C8.05283 5.11228 7.98446 5.22231 7.86455 5.20789C7.81461 5.19694 7.73289 5.17531 7.68963 4.8551C7.65678 4.61261 7.69791 4.27318 7.59509 4.11402C7.57186 4.05393 7.55183 3.99571 7.51871 4.00025C7.49868 4.00292 7.47438 4.02856 7.4402 4.09025C7.4159 4.15461 7.31094 4.25235 7.38679 4.45371C7.44874 4.58137 7.47411 4.78861 7.44607 5.01988C7.40308 5.08557 7.39346 5.10827 7.33711 5.1737C7.25806 5.25863 7.17234 5.237 7.10664 5.20522C7.04522 5.16382 6.99688 5.14246 6.96884 5.01107C6.97391 4.80142 6.9862 4.45852 6.94774 4.38561C6.89139 4.27292 6.79819 4.31324 6.7584 4.34742C6.56718 4.52208 6.47291 4.81718 6.41523 5.05219C6.36235 5.22338 6.30573 5.1737 6.26621 5.1048C6.16953 5.01427 6.16286 4.30683 6.04615 4.423C5.85894 4.95712 6.15271 5.54171 6.35621 5.48483Z" fill="white"/>
<path d="M7.18392 4.47535C7.2563 4.28013 7.25656 4.19681 7.26137 4.11402C7.25015 4.05099 7.22265 4.02055 7.19167 4.02322C7.16069 4.02589 7.12597 4.06221 7.09793 4.13218C7.0739 4.18532 7.04425 4.46387 7.04933 4.46387C7.02983 4.54665 7.13559 4.58191 7.18392 4.47535ZM6.42842 4.42968C6.44623 4.41863 6.46155 4.40399 6.47341 4.38671C6.48527 4.36942 6.49341 4.34986 6.49732 4.32927C6.51441 4.24408 6.40758 4.3696 6.39396 4.27479C6.3702 4.18666 6.4383 4.15061 6.50292 4.06542C6.50426 4.02536 6.50506 3.99251 6.47916 3.99171C6.46741 3.99144 6.44951 3.99785 6.42468 4.01281C6.36886 4.05019 6.25777 4.16583 6.25456 4.29856C6.25109 4.3736 6.23693 4.37333 6.28607 4.42087C6.32159 4.47215 6.35684 4.46707 6.42842 4.42968Z" fill="white"/>
</svg>
