<svg width="203" height="126" viewBox="0 0 203 126" fill="none" xmlns="http://www.w3.org/2000/svg">
<g filter="url(#filter0_d_314_3686)">
<path d="M29.625 76.9375V79C14.0625 77.7344 13.6875 66.3438 13.6875 54.7188C13.6875 50.3125 13.6875 27.9062 13.6875 21.3438C13.6875 18.8594 13.7344 17.3594 12.8438 16.5625C12.375 16.1875 9.9375 16.0469 9.9375 15.5312C9.9375 15.2031 10.1719 15.1094 10.7812 15.1094C14.6719 15.1094 18.5625 15.1094 22.4531 15.1094C22.9219 15.1094 23.3438 15.1094 23.3438 15.5312C23.3438 15.7188 23.1094 15.9531 22.875 15.9531C19.5938 15.9531 18.7969 16.8438 18.7969 19C18.7969 30.2969 18.7031 51.8125 18.7031 60.4375C18.7031 67.2812 19.6406 76.2344 29.625 76.9375ZM20.4844 6.95312C15.4688 8.54688 8.76562 9.0625 5.71875 12.7188C5.48438 12.9531 5.25 13.0469 5.10938 13.0469C5.01562 13.0469 4.92188 13 4.92188 12.8125C6.9375 10.6094 9.46875 8.26562 13.5 7.04688C18.5625 5.3125 24.8906 4.9375 28.2656 1.28125C28.5 1 28.6875 0.859375 28.8281 0.859375C28.9688 0.859375 29.0156 0.953125 29.0156 1.09375C26.9062 3.39062 24.4219 5.6875 20.4844 6.95312ZM20.4844 10.3281C15.4688 11.9219 8.76562 12.4375 5.71875 16.0938C5.48438 16.3281 5.25 16.4219 5.10938 16.4219C5.01562 16.4219 4.92188 16.375 4.92188 16.1875C6.9375 13.9844 9.46875 11.6406 13.5 10.4219C18.5625 8.6875 24.8906 8.3125 28.2656 4.65625C28.5 4.375 28.6875 4.23438 28.8281 4.23438C28.9688 4.23438 29.0156 4.32812 29.0156 4.46875C26.9062 6.76562 24.4219 9.0625 20.4844 10.3281ZM45.5156 60.3906C45.5156 66.1094 45.8906 71.9688 50.9062 75.1094C52.6406 76.2344 54.5625 76.8438 56.4844 76.8906V79C49.1719 78.4375 45.2344 75.5781 43.0312 71.5469C40.9219 75.5781 36.9844 78.4375 29.6719 79V76.8906C39.1406 76.4219 40.4531 66.9531 40.5469 60.25C40.5469 60.0625 40.5469 42.8125 40.5469 42.625C40.5469 40.3281 40.2656 38.5938 37.6406 38.5938C36.6562 38.5938 35.9062 38.4531 35.9062 38.125C35.9062 37.75 36.3281 37.6562 36.7969 37.6562H49.3594C50.0625 37.6562 50.25 37.8906 50.25 38.125C50.25 38.5938 48.7031 38.5938 48.5156 38.5938C45.8438 38.5938 45.6094 40.4688 45.6094 42.0625C45.6094 42.3906 45.6094 42.7188 45.5156 60.3906ZM43.0312 82.75C45.3281 82.75 47.1562 84.5781 47.1562 86.875C47.1562 89.2188 45.3281 91 43.0312 91C40.7344 91 38.9062 89.2188 38.9062 86.875C38.9062 84.5781 40.7344 82.75 43.0312 82.75ZM108.797 50.9688C106.125 50.875 103.5 50.8281 100.875 50.8281C95.4375 50.8281 90 50.9688 84.5625 50.9688C75.7031 50.9688 58.1719 49.6094 57.9375 38.125C61.0781 43.6094 67.3125 45.0156 73.1719 45.4375C84.0938 46.2344 93.8438 45.7656 103.547 45.7656C113.016 45.7656 120.891 53.2656 120.891 62.3125C120.891 71.1719 114.984 79 106.781 79H56.4844V76.8906H105.516C112.734 76.8906 116.391 68.3594 116.391 61.2344C116.391 56.9219 114.047 51.2031 108.797 50.9688ZM133.734 52.8906C133.734 56.2188 133.734 59.5938 133.734 62.9688C133.969 69.1094 135.938 76.4688 144.609 76.8906C144.609 77.6406 144.609 78.2969 144.609 79C140.25 78.625 136.219 76.9844 133.547 73.6094C133.594 74.0312 133.594 74.4531 133.594 74.875C133.594 82.5156 128.016 87.6719 120.891 90.2969C126.609 84.7656 128.766 84.9062 128.766 68.2188C128.766 56.6406 128.719 43.4688 128.719 41.6875C128.719 40.4219 128.391 38.6406 126.094 38.6406C125.812 38.6406 125.438 38.7344 125.109 38.7344C124.688 38.7344 124.078 38.5938 124.078 38.0312C124.078 37.8906 124.172 37.7969 124.359 37.7031C128.484 37.7031 132.609 37.6094 136.641 37.6094C137.438 37.6094 137.484 37.7969 137.484 38.0781C137.484 38.6875 136.922 38.4062 135.656 38.6875C134.016 39.0625 133.734 39.8594 133.734 41.5469C133.734 45.0156 133.734 46.8438 133.734 52.8906ZM155.578 58.2344C155.578 47.875 163.688 37.6094 177.234 37.6094C190.641 37.6094 198.469 45.8125 198.844 57.4844C198.844 70.1875 189.094 79 176.859 79C168.234 79 161.578 74.9688 158.25 68.8281C156.234 75.25 150.75 78.5312 144.609 79V76.8906C146.531 76.7969 148.453 76.2344 150.188 75.1562C155.859 71.6406 155.578 64 155.578 58.2344ZM161.203 56.8281C161.203 70.0938 169.219 76.8438 179.156 76.8438C183.562 76.8438 193.172 74.125 193.172 58.9375C193.172 45.4844 184.969 39.625 176.859 39.625C167.859 39.625 161.203 45.3438 161.203 56.8281ZM42.6375 107.168V106.48C42.6375 106.373 42.6908 106.32 42.7975 106.32H43.8215C43.9282 106.32 43.9815 106.373 43.9815 106.48V111.904C43.9815 112.224 44.0402 112.448 44.1575 112.576C44.2855 112.693 44.4828 112.752 44.7495 112.752H45.4535C45.8802 112.752 46.0935 112.965 46.0935 113.392C46.0935 113.659 46.0402 113.829 45.9335 113.904C45.8375 113.968 45.6775 114 45.4535 114H44.5095C43.9868 114 43.5762 113.904 43.2775 113.712C42.9895 113.509 42.7975 113.179 42.7015 112.72C42.4882 112.912 42.2322 113.056 41.9335 113.152C41.6348 113.248 41.3095 113.296 40.9575 113.296C40.5415 113.296 40.1522 113.237 39.7895 113.12C39.4375 113.003 39.1282 112.827 38.8615 112.592C38.6055 112.347 38.4028 112.043 38.2535 111.68C38.1042 111.307 38.0295 110.869 38.0295 110.368C38.0295 109.771 38.1148 109.269 38.2855 108.864C38.4562 108.459 38.6802 108.133 38.9575 107.888C39.2348 107.632 39.5548 107.451 39.9175 107.344C40.2908 107.227 40.6748 107.168 41.0695 107.168H42.6375ZM40.9735 112.048C41.5815 112.048 42.0082 111.872 42.2535 111.52C42.5095 111.157 42.6375 110.656 42.6375 110.016V108.416H41.0695C40.5682 108.416 40.1575 108.56 39.8375 108.848C39.5282 109.125 39.3735 109.632 39.3735 110.368C39.3735 110.923 39.5122 111.344 39.7895 111.632C40.0668 111.909 40.4615 112.048 40.9735 112.048ZM41.5335 105.232C41.4268 105.232 41.3735 105.179 41.3735 105.072V103.904C41.3735 103.797 41.4268 103.744 41.5335 103.744H42.6215C42.7282 103.744 42.7815 103.797 42.7815 103.904V105.072C42.7815 105.179 42.7282 105.232 42.6215 105.232H41.5335ZM39.5815 105.232C39.4748 105.232 39.4215 105.179 39.4215 105.072V103.904C39.4215 103.797 39.4748 103.744 39.5815 103.744H40.6695C40.7762 103.744 40.8295 103.797 40.8295 103.904V105.072C40.8295 105.179 40.7762 105.232 40.6695 105.232H39.5815ZM49.8051 107.168C50.9465 107.168 51.7891 107.392 52.3331 107.84C52.8771 108.288 53.1491 108.896 53.1491 109.664C53.1491 110.005 53.0905 110.336 52.9731 110.656C52.8665 110.965 52.7225 111.253 52.5411 111.52C52.3705 111.776 52.1731 112.011 51.9491 112.224C51.7358 112.427 51.5225 112.592 51.3091 112.72C51.3838 112.741 51.4585 112.752 51.5331 112.752C51.6185 112.752 51.7038 112.752 51.7891 112.752H54.1411C54.3545 112.752 54.5145 112.789 54.6211 112.864C54.7278 112.939 54.7811 113.088 54.7811 113.312C54.7811 113.579 54.7278 113.76 54.6211 113.856C54.5251 113.952 54.3651 114 54.1411 114H51.8851C51.5011 114 51.1331 113.968 50.7811 113.904C50.4398 113.829 50.1145 113.696 49.8051 113.504C49.4531 113.696 49.0798 113.829 48.6851 113.904C48.2905 113.968 47.9385 114 47.6291 114H45.4531C45.0265 114 44.8131 113.787 44.8131 113.36C44.8131 113.093 44.8665 112.928 44.9731 112.864C45.0691 112.789 45.2291 112.752 45.4531 112.752H47.5171C47.6558 112.752 47.8371 112.747 48.0611 112.736C48.2958 112.715 48.5678 112.661 48.8771 112.576C48.7918 112.149 48.6745 111.787 48.5251 111.488C48.3865 111.189 48.2211 110.928 48.0291 110.704C47.8371 110.469 47.6238 110.267 47.3891 110.096C47.1651 109.925 46.9358 109.755 46.7011 109.584C46.6051 109.52 46.5411 109.467 46.5091 109.424C46.4878 109.371 46.4771 109.317 46.4771 109.264V108.304C46.4771 108.155 46.5305 108.048 46.6371 107.984C46.7651 107.909 46.9305 107.824 47.1331 107.728C47.3465 107.632 47.5865 107.541 47.8531 107.456C48.1305 107.371 48.4345 107.301 48.7651 107.248C49.0958 107.195 49.4425 107.168 49.8051 107.168ZM49.8051 108.416C49.3251 108.416 48.9038 108.469 48.5411 108.576C48.1785 108.672 47.9385 108.757 47.8211 108.832C48.3651 109.141 48.8398 109.573 49.2451 110.128C49.6611 110.683 49.9598 111.344 50.1411 112.112C50.3118 112.005 50.4931 111.872 50.6851 111.712C50.8771 111.541 51.0478 111.36 51.1971 111.168C51.3571 110.965 51.4851 110.747 51.5811 110.512C51.6878 110.267 51.7411 110.016 51.7411 109.76C51.7411 109.493 51.6878 109.275 51.5811 109.104C51.4851 108.933 51.3518 108.8 51.1811 108.704C51.0105 108.597 50.8025 108.523 50.5571 108.48C50.3225 108.437 50.0718 108.416 49.8051 108.416ZM54.1406 114C53.9273 114 53.7673 113.963 53.6606 113.888C53.554 113.813 53.5006 113.664 53.5006 113.44C53.5006 113.173 53.554 112.992 53.6606 112.896C53.7566 112.8 53.9166 112.752 54.1406 112.752H55.1486C55.4153 112.752 55.6073 112.693 55.7246 112.576C55.8526 112.448 55.9166 112.224 55.9166 111.904V107.616C55.9166 107.509 55.97 107.456 56.0766 107.456H57.1006C57.2073 107.456 57.2606 107.509 57.2606 107.616V111.984C57.2606 112.677 57.1166 113.189 56.8286 113.52C56.5406 113.84 56.0606 114 55.3886 114H54.1406ZM55.6766 116.928C55.57 116.928 55.5166 116.875 55.5166 116.768V115.6C55.5166 115.493 55.57 115.44 55.6766 115.44H56.7646C56.8713 115.44 56.9246 115.493 56.9246 115.6V116.768C56.9246 116.875 56.8713 116.928 56.7646 116.928H55.6766ZM59.495 103.28C59.495 103.173 59.5483 103.12 59.655 103.12H60.679C60.7857 103.12 60.839 103.173 60.839 103.28V111.904C60.839 112.224 60.8977 112.448 61.015 112.576C61.143 112.693 61.3403 112.752 61.607 112.752H62.311C62.7377 112.752 62.951 112.965 62.951 113.392C62.951 113.659 62.8977 113.829 62.791 113.904C62.695 113.968 62.535 114 62.311 114H61.367C60.695 114 60.215 113.84 59.927 113.52C59.639 113.189 59.495 112.677 59.495 111.984V103.28ZM62.4245 114C62.2112 114 62.0512 113.963 61.9445 113.888C61.8378 113.813 61.7845 113.664 61.7845 113.44C61.7845 113.173 61.8378 112.992 61.9445 112.896C62.0405 112.8 62.2005 112.752 62.4245 112.752H63.5125C63.7792 112.752 63.9712 112.693 64.0885 112.576C64.2165 112.448 64.2805 112.224 64.2805 111.904V107.616C64.2805 107.509 64.3338 107.456 64.4405 107.456H65.4645C65.5712 107.456 65.6245 107.509 65.6245 107.616V111.664C65.6245 112.027 65.7525 112.299 66.0085 112.48C66.2752 112.661 66.6272 112.752 67.0645 112.752H67.2565C67.4698 112.752 67.6298 112.8 67.7365 112.896C67.8432 112.981 67.8965 113.131 67.8965 113.344C67.8965 113.621 67.8432 113.803 67.7365 113.888C67.6405 113.963 67.4805 114 67.2565 114H66.9045C66.5632 114 66.2645 113.931 66.0085 113.792C65.7525 113.653 65.5552 113.445 65.4165 113.168C65.1498 113.723 64.5952 114 63.7525 114H62.4245ZM65.3525 105.872C65.2458 105.872 65.1925 105.819 65.1925 105.712V104.544C65.1925 104.437 65.2458 104.384 65.3525 104.384H66.4405C66.5472 104.384 66.6005 104.437 66.6005 104.544V105.712C66.6005 105.819 66.5472 105.872 66.4405 105.872H65.3525ZM63.4005 105.872C63.2938 105.872 63.2405 105.819 63.2405 105.712V104.544C63.2405 104.437 63.2938 104.384 63.4005 104.384H64.4885C64.5952 104.384 64.6485 104.437 64.6485 104.544V105.712C64.6485 105.819 64.5952 105.872 64.4885 105.872H63.4005ZM72.082 114.112C71.5807 114.112 71.138 114.043 70.754 113.904C70.37 113.755 70.0447 113.525 69.778 113.216C69.554 113.557 69.266 113.776 68.914 113.872C68.562 113.957 68.2367 114 67.938 114H67.25C66.8233 114 66.61 113.787 66.61 113.36C66.61 113.093 66.6633 112.928 66.77 112.864C66.866 112.789 67.026 112.752 67.25 112.752H68.05C68.1673 112.752 68.2847 112.731 68.402 112.688C68.5193 112.635 68.626 112.555 68.722 112.448C68.818 112.331 68.8927 112.181 68.946 112C69.01 111.808 69.042 111.573 69.042 111.296C69.0313 111.189 69.026 111.088 69.026 110.992C69.026 110.885 69.026 110.773 69.026 110.656C69.026 109.429 69.298 108.544 69.842 108C70.386 107.445 71.1327 107.168 72.082 107.168C73.0313 107.168 73.778 107.445 74.322 108C74.866 108.544 75.138 109.429 75.138 110.656C75.138 110.773 75.1327 110.891 75.122 111.008C75.122 111.125 75.1167 111.237 75.106 111.344C75.1167 111.888 75.2233 112.261 75.426 112.464C75.6393 112.656 75.8633 112.752 76.098 112.752H76.562C76.7753 112.752 76.9353 112.8 77.042 112.896C77.1487 112.981 77.202 113.131 77.202 113.344C77.202 113.621 77.1487 113.803 77.042 113.888C76.946 113.963 76.786 114 76.562 114H76.21C76.0607 114 75.9007 113.995 75.73 113.984C75.5593 113.963 75.3887 113.925 75.218 113.872C75.058 113.819 74.9033 113.744 74.754 113.648C74.6047 113.541 74.4767 113.403 74.37 113.232C74.1033 113.541 73.778 113.765 73.394 113.904C73.01 114.043 72.5727 114.112 72.082 114.112ZM72.082 108.416C71.4847 108.416 71.0473 108.613 70.77 109.008C70.5033 109.403 70.37 109.952 70.37 110.656C70.37 111.424 70.5033 111.984 70.77 112.336C71.0473 112.688 71.4847 112.864 72.082 112.864C72.6793 112.864 73.1113 112.688 73.378 112.336C73.6553 111.984 73.794 111.424 73.794 110.656C73.794 109.952 73.6553 109.403 73.378 109.008C73.1113 108.613 72.6793 108.416 72.082 108.416ZM76.5469 114C76.3335 114 76.1735 113.963 76.0669 113.888C75.9602 113.813 75.9069 113.664 75.9069 113.44C75.9069 113.173 75.9602 112.992 76.0669 112.896C76.1629 112.8 76.3229 112.752 76.5469 112.752H77.5549C77.8215 112.752 78.0135 112.693 78.1309 112.576C78.2589 112.448 78.3229 112.224 78.3229 111.904V103.28C78.3229 103.173 78.3762 103.12 78.4829 103.12H79.5069C79.6135 103.12 79.6669 103.173 79.6669 103.28V111.664C79.6669 112.027 79.7949 112.299 80.0509 112.48C80.3175 112.661 80.6695 112.752 81.1069 112.752H81.2989C81.5122 112.752 81.6722 112.8 81.7789 112.896C81.8855 112.981 81.9389 113.131 81.9389 113.344C81.9389 113.621 81.8855 113.803 81.7789 113.888C81.6829 113.963 81.5229 114 81.2989 114H80.9469C80.6055 114 80.3069 113.931 80.0509 113.792C79.7949 113.653 79.5975 113.445 79.4589 113.168C79.1922 113.723 78.6375 114 77.7949 114H76.5469ZM81.2812 114C81.0679 114 80.9079 113.963 80.8012 113.888C80.6946 113.813 80.6412 113.664 80.6412 113.44C80.6412 113.173 80.6946 112.992 80.8012 112.896C80.8972 112.8 81.0572 112.752 81.2812 112.752H82.2893C82.5559 112.752 82.7479 112.693 82.8653 112.576C82.9933 112.448 83.0573 112.224 83.0573 111.904V103.28C83.0573 103.173 83.1106 103.12 83.2173 103.12H84.2413C84.3479 103.12 84.4013 103.173 84.4013 103.28V111.984C84.4013 112.677 84.2573 113.189 83.9693 113.52C83.6813 113.84 83.2013 114 82.5293 114H81.2812ZM91.1194 110.4C91.162 110.325 91.2367 110.32 91.3434 110.384L92.2234 110.864C92.3087 110.917 92.3247 110.987 92.2714 111.072C92.0794 111.371 91.8927 111.739 91.7114 112.176C91.5407 112.613 91.4554 113.072 91.4554 113.552C91.4554 114.011 91.53 114.389 91.6794 114.688C91.8394 114.997 92.042 115.237 92.2874 115.408C92.5327 115.589 92.7994 115.717 93.0874 115.792C93.3754 115.867 93.658 115.904 93.9354 115.904C94.618 115.904 95.178 115.728 95.6154 115.376C96.0527 115.024 96.2714 114.453 96.2714 113.664V103.28C96.2714 103.173 96.3247 103.12 96.4314 103.12H97.4554C97.562 103.12 97.6154 103.173 97.6154 103.28V113.68C97.6154 114.779 97.29 115.637 96.6394 116.256C95.9994 116.875 95.0714 117.184 93.8554 117.184C93.2794 117.184 92.7567 117.104 92.2874 116.944C91.8287 116.795 91.434 116.571 91.1034 116.272C90.7834 115.973 90.5327 115.605 90.3514 115.168C90.17 114.741 90.0794 114.245 90.0794 113.68C90.0794 113.051 90.1807 112.448 90.3834 111.872C90.5967 111.285 90.842 110.795 91.1194 110.4ZM100.974 117.184C100.868 117.184 100.814 117.131 100.814 117.024V116.096C100.814 115.989 100.868 115.936 100.974 115.936H102.894C103.108 115.936 103.305 115.909 103.486 115.856C103.668 115.813 103.822 115.733 103.95 115.616C104.089 115.509 104.196 115.355 104.27 115.152C104.345 114.96 104.382 114.715 104.382 114.416V114H102.67C102.201 114 101.774 113.947 101.39 113.84C101.017 113.723 100.697 113.541 100.43 113.296C100.164 113.04 99.961 112.704 99.8224 112.288C99.6837 111.872 99.6144 111.36 99.6144 110.752C99.6144 110.144 99.6944 109.616 99.8544 109.168C100.025 108.709 100.249 108.336 100.526 108.048C100.814 107.749 101.145 107.531 101.518 107.392C101.892 107.243 102.286 107.168 102.702 107.168C103.652 107.168 104.393 107.445 104.926 108C105.46 108.544 105.726 109.429 105.726 110.656V112.752H106.83C107.044 112.752 107.204 112.8 107.31 112.896C107.417 112.981 107.47 113.131 107.47 113.344C107.47 113.621 107.417 113.803 107.31 113.888C107.214 113.963 107.054 114 106.83 114H105.726V114.384C105.726 114.885 105.657 115.312 105.518 115.664C105.39 116.016 105.204 116.304 104.958 116.528C104.724 116.752 104.436 116.917 104.094 117.024C103.753 117.131 103.374 117.184 102.958 117.184H100.974ZM102.702 108.416C102.169 108.416 101.742 108.629 101.422 109.056C101.113 109.483 100.958 110.048 100.958 110.752C100.958 111.509 101.108 112.032 101.406 112.32C101.716 112.608 102.169 112.752 102.766 112.752H104.382V110.656C104.382 109.952 104.249 109.403 103.982 109.008C103.726 108.613 103.3 108.416 102.702 108.416ZM110.588 108.416C110.225 108.416 109.889 108.491 109.58 108.64C109.281 108.789 109.014 108.992 108.78 109.248C108.716 109.323 108.641 109.328 108.556 109.264L107.852 108.688C107.756 108.613 107.74 108.539 107.804 108.464C108.102 108.091 108.47 107.781 108.908 107.536C109.356 107.291 109.9 107.168 110.54 107.168C111.276 107.168 111.878 107.285 112.348 107.52C112.817 107.744 113.185 108.043 113.452 108.416C113.729 108.789 113.921 109.221 114.028 109.712C114.134 110.203 114.188 110.709 114.188 111.232C114.188 111.765 114.14 112.208 114.044 112.56C113.958 112.912 113.82 113.195 113.628 113.408C113.446 113.621 113.206 113.776 112.908 113.872C112.62 113.957 112.278 114 111.884 114H106.844C106.417 114 106.204 113.787 106.204 113.36C106.204 113.093 106.257 112.928 106.364 112.864C106.46 112.789 106.62 112.752 106.844 112.752H111.388C111.686 112.752 111.926 112.731 112.108 112.688C112.289 112.635 112.428 112.549 112.524 112.432C112.62 112.315 112.684 112.16 112.716 111.968C112.748 111.765 112.764 111.52 112.764 111.232C112.764 110.816 112.726 110.437 112.652 110.096C112.577 109.744 112.454 109.445 112.284 109.2C112.124 108.944 111.905 108.752 111.628 108.624C111.35 108.485 111.004 108.416 110.588 108.416ZM110.204 105.888C110.097 105.888 110.044 105.835 110.044 105.728V104.56C110.044 104.453 110.097 104.4 110.204 104.4H111.292C111.398 104.4 111.452 104.453 111.452 104.56V105.728C111.452 105.835 111.398 105.888 111.292 105.888H110.204ZM121.991 111.664C121.991 112.027 122.119 112.299 122.375 112.48C122.641 112.661 122.993 112.752 123.431 112.752H123.607C123.82 112.752 123.98 112.8 124.087 112.896C124.193 112.981 124.247 113.131 124.247 113.344C124.247 113.621 124.193 113.803 124.087 113.888C123.991 113.963 123.831 114 123.607 114H123.271C122.908 114 122.583 113.925 122.295 113.776C122.007 113.616 121.804 113.381 121.687 113.072C121.505 113.424 121.255 113.669 120.935 113.808C120.615 113.936 120.199 114 119.687 114H116.135C116.028 114 115.975 113.947 115.975 113.84V112.912C115.975 112.805 116.028 112.752 116.135 112.752H119.191C119.489 112.752 119.729 112.731 119.911 112.688C120.092 112.635 120.231 112.555 120.327 112.448C120.423 112.331 120.487 112.181 120.519 112C120.551 111.819 120.567 111.589 120.567 111.312V110.032C120.567 108.955 119.959 108.416 118.743 108.416H116.887C116.78 108.416 116.727 108.363 116.727 108.256V107.328C116.727 107.221 116.78 107.168 116.887 107.168H119.239C120.049 107.168 120.711 107.397 121.223 107.856C121.735 108.315 121.991 109.035 121.991 110.016V111.664ZM123.609 114C123.396 114 123.236 113.963 123.129 113.888C123.023 113.813 122.969 113.664 122.969 113.44C122.969 113.173 123.023 112.992 123.129 112.896C123.225 112.8 123.385 112.752 123.609 112.752H124.617C124.884 112.752 125.076 112.693 125.193 112.576C125.321 112.448 125.385 112.224 125.385 111.904V103.28C125.385 103.173 125.439 103.12 125.545 103.12H126.569C126.676 103.12 126.729 103.173 126.729 103.28V111.984C126.729 112.677 126.585 113.189 126.297 113.52C126.009 113.84 125.529 114 124.857 114H123.609ZM130.308 113.84C130.308 113.947 130.254 114 130.148 114H129.124C129.017 114 128.964 113.947 128.964 113.84V103.28C128.964 103.173 129.017 103.12 129.124 103.12H130.148C130.254 103.12 130.308 103.173 130.308 103.28V113.84ZM137.026 110.4C137.068 110.325 137.143 110.32 137.25 110.384L138.13 110.864C138.215 110.917 138.231 110.987 138.178 111.072C137.986 111.371 137.799 111.739 137.618 112.176C137.447 112.613 137.362 113.072 137.362 113.552C137.362 114.011 137.436 114.389 137.586 114.688C137.746 114.997 137.948 115.237 138.194 115.408C138.439 115.589 138.706 115.717 138.994 115.792C139.282 115.867 139.564 115.904 139.842 115.904C140.524 115.904 141.084 115.728 141.522 115.376C141.959 115.024 142.178 114.453 142.178 113.664V103.28C142.178 103.173 142.231 103.12 142.338 103.12H143.362C143.468 103.12 143.522 103.173 143.522 103.28V111.664C143.522 112.027 143.65 112.299 143.906 112.48C144.172 112.661 144.524 112.752 144.962 112.752H145.138C145.351 112.752 145.511 112.8 145.618 112.896C145.724 112.981 145.778 113.131 145.778 113.344C145.778 113.621 145.724 113.803 145.618 113.888C145.522 113.963 145.362 114 145.138 114H144.802C144.247 114 143.82 113.829 143.522 113.488V113.68C143.522 114.779 143.196 115.637 142.546 116.256C141.906 116.875 140.978 117.184 139.762 117.184C139.186 117.184 138.663 117.104 138.194 116.944C137.735 116.795 137.34 116.571 137.01 116.272C136.69 115.973 136.439 115.605 136.258 115.168C136.076 114.741 135.986 114.245 135.986 113.68C135.986 113.051 136.087 112.448 136.29 111.872C136.503 111.285 136.748 110.795 137.026 110.4ZM148.885 108.416C148.522 108.416 148.186 108.491 147.877 108.64C147.578 108.789 147.311 108.992 147.077 109.248C147.013 109.323 146.938 109.328 146.853 109.264L146.149 108.688C146.053 108.613 146.037 108.539 146.101 108.464C146.399 108.091 146.767 107.781 147.205 107.536C147.653 107.291 148.197 107.168 148.837 107.168C149.573 107.168 150.175 107.285 150.645 107.52C151.114 107.744 151.482 108.043 151.749 108.416C152.026 108.789 152.218 109.221 152.325 109.712C152.431 110.203 152.485 110.709 152.485 111.232C152.485 111.328 152.479 111.419 152.469 111.504C152.469 111.589 152.469 111.675 152.469 111.76C152.49 112.091 152.629 112.341 152.885 112.512C153.151 112.672 153.493 112.752 153.909 112.752H154.085C154.298 112.752 154.458 112.8 154.565 112.896C154.671 112.981 154.725 113.131 154.725 113.344C154.725 113.621 154.671 113.803 154.565 113.888C154.469 113.963 154.309 114 154.085 114H153.749C153.386 114 153.061 113.925 152.773 113.776C152.485 113.616 152.282 113.381 152.165 113.072C151.983 113.413 151.727 113.653 151.397 113.792C151.077 113.931 150.671 114 150.181 114H145.141C144.714 114 144.501 113.787 144.501 113.36C144.501 113.093 144.554 112.928 144.661 112.864C144.757 112.789 144.917 112.752 145.141 112.752H149.685C149.983 112.752 150.223 112.731 150.405 112.688C150.586 112.635 150.725 112.549 150.821 112.432C150.917 112.315 150.981 112.16 151.013 111.968C151.045 111.765 151.061 111.52 151.061 111.232C151.061 110.816 151.023 110.437 150.949 110.096C150.874 109.744 150.751 109.445 150.581 109.2C150.421 108.944 150.202 108.752 149.925 108.624C149.647 108.485 149.301 108.416 148.885 108.416ZM148.581 116.944C148.474 116.944 148.421 116.891 148.421 116.784V115.616C148.421 115.509 148.474 115.456 148.581 115.456H149.669C149.775 115.456 149.829 115.509 149.829 115.616V116.784C149.829 116.891 149.775 116.944 149.669 116.944H148.581ZM158.958 114C158.617 114 158.318 113.931 158.062 113.792C157.806 113.653 157.609 113.445 157.47 113.168C157.203 113.723 156.649 114 155.806 114H154.078C153.865 114 153.705 113.963 153.598 113.888C153.491 113.813 153.438 113.664 153.438 113.44C153.438 113.173 153.491 112.992 153.598 112.896C153.694 112.8 153.854 112.752 154.078 112.752H155.566C155.833 112.752 156.025 112.693 156.142 112.576C156.27 112.448 156.334 112.224 156.334 111.904V108.992C156.334 108.885 156.387 108.832 156.494 108.832H157.518C157.625 108.832 157.678 108.885 157.678 108.992V111.664C157.678 112.027 157.806 112.299 158.062 112.48C158.318 112.661 158.659 112.752 159.086 112.752H159.486C159.753 112.752 159.945 112.693 160.062 112.576C160.19 112.448 160.254 112.224 160.254 111.904V108.992C160.254 108.885 160.307 108.832 160.414 108.832H161.438C161.545 108.832 161.598 108.885 161.598 108.992V111.664C161.598 112.027 161.726 112.299 161.982 112.48C162.238 112.661 162.579 112.752 163.006 112.752H163.406C163.673 112.752 163.865 112.693 163.982 112.576C164.11 112.448 164.174 112.224 164.174 111.904V107.616C164.174 107.509 164.227 107.456 164.334 107.456H165.358C165.465 107.456 165.518 107.509 165.518 107.616V111.984C165.518 112.677 165.374 113.189 165.086 113.52C164.798 113.84 164.318 114 163.646 114H162.878C162.537 114 162.238 113.931 161.982 113.792C161.726 113.653 161.529 113.445 161.39 113.168C161.123 113.723 160.569 114 159.726 114H158.958Z" fill="black"/>
</g>
<defs>
<filter id="filter0_d_314_3686" x="0.921875" y="0.859375" width="201.922" height="124.325" filterUnits="userSpaceOnUse" color-interpolation-filters="sRGB">
<feFlood flood-opacity="0" result="BackgroundImageFix"/>
<feColorMatrix in="SourceAlpha" type="matrix" values="0 0 0 0 0 0 0 0 0 0 0 0 0 0 0 0 0 0 127 0" result="hardAlpha"/>
<feOffset dy="4"/>
<feGaussianBlur stdDeviation="2"/>
<feComposite in2="hardAlpha" operator="out"/>
<feColorMatrix type="matrix" values="0 0 0 0 0 0 0 0 0 0 0 0 0 0 0 0 0 0 0.25 0"/>
<feBlend mode="normal" in2="BackgroundImageFix" result="effect1_dropShadow_314_3686"/>
<feBlend mode="normal" in="SourceGraphic" in2="effect1_dropShadow_314_3686" result="shape"/>
</filter>
</defs>
</svg>
