<svg width="302" height="100" viewBox="0 0 302 100" fill="none" xmlns="http://www.w3.org/2000/svg">
<g filter="url(#filter0_d_742_14826)">
<path d="M79.4219 21.5469V33.5C79.4219 40.0156 79.4219 45.4062 79.75 48.2656C79.9375 50.2344 80.3594 51.6875 82.4219 51.9688C83.3594 52.1094 84.8594 52.25 85.4688 52.25C85.8906 52.25 86.0312 52.4375 86.0312 52.6719C86.0312 53 85.6562 53.1875 84.9062 53.1875C81.2031 53.1875 76.8906 53 76.5625 53C76.2344 53 71.9219 53.1875 69.9062 53.1875C69.1562 53.1875 68.8281 53.0469 68.8281 52.6719C68.8281 52.4375 68.9688 52.25 69.3438 52.25C69.9531 52.25 70.7969 52.1094 71.4062 51.9688C72.7656 51.6875 73.0938 50.2344 73.375 48.2656C73.7031 45.4062 73.7031 40.0156 73.7031 33.5V26.375C73.7031 26.0938 73.5156 25.9531 73.2812 25.9531H44.5C44.2656 25.9531 44.0781 26 44.0781 26.375V33.5C44.0781 40.0156 44.0781 45.4062 44.4062 48.2656C44.5938 50.2344 45.0156 51.6875 47.0781 51.9688C48.0156 52.1094 49.5156 52.25 50.125 52.25C50.5469 52.25 50.6875 52.4375 50.6875 52.6719C50.6875 53 50.3125 53.1875 49.5625 53.1875C45.8594 53.1875 41.5469 53 41.2188 53C40.8906 53 36.5781 53.1875 34.5625 53.1875C33.8125 53.1875 33.4844 53.0469 33.4844 52.6719C33.4844 52.4375 33.625 52.25 34 52.25C34.6094 52.25 35.4531 52.1094 36.0625 51.9688C37.4219 51.6875 37.75 50.2344 38.0312 48.2656C38.3594 45.4062 38.3594 40.0156 38.3594 33.5V21.5469C38.3594 10.9062 38.3594 9.03125 38.2188 6.82812C38.0781 4.53125 37.5625 3.45312 35.3125 2.98438C34.75 2.84375 33.625 2.75 33.0156 2.75C32.7344 2.75 32.4531 2.65625 32.4531 2.375C32.4531 1.95312 32.7812 1.8125 33.5312 1.8125C36.5781 1.8125 40.8906 2.04688 41.2188 2.04688C41.5469 2.04688 45.8594 1.8125 47.875 1.8125C48.625 1.8125 48.9531 1.95312 48.9531 2.375C48.9531 2.65625 48.6719 2.75 48.4375 2.75C47.9688 2.75 47.5469 2.84375 46.7031 2.98438C44.875 3.3125 44.3594 4.48438 44.2188 6.82812C44.0781 9.03125 44.0781 10.9062 44.0781 21.5469V22.9531C44.0781 23.2812 44.2656 23.375 44.5 23.375H73.2812C73.5156 23.375 73.7031 23.2812 73.7031 22.9531V21.5469C73.7031 10.9062 73.7031 9.03125 73.5625 6.82812C73.4219 4.53125 72.9062 3.45312 70.6562 2.98438C70.0938 2.84375 68.9688 2.75 68.3594 2.75C68.0781 2.75 67.7969 2.65625 67.7969 2.375C67.7969 1.95312 68.125 1.8125 68.875 1.8125C71.9219 1.8125 76.2344 2.04688 76.5625 2.04688C76.8906 2.04688 81.2031 1.8125 83.2188 1.8125C83.9688 1.8125 84.2969 1.95312 84.2969 2.375C84.2969 2.65625 84.0156 2.75 83.7812 2.75C83.3125 2.75 82.8906 2.84375 82.0469 2.98438C80.2188 3.3125 79.7031 4.48438 79.5625 6.82812C79.4219 9.03125 79.4219 10.9062 79.4219 21.5469ZM102.109 33.5V21.5469C102.109 10.9062 102.109 9.03125 101.969 6.82812C101.828 4.53125 101.312 3.45312 99.0625 2.98438C98.5 2.84375 97.375 2.75 96.7656 2.75C96.4844 2.75 96.2031 2.65625 96.2031 2.375C96.2031 1.95312 96.5312 1.8125 97.2812 1.8125C98.8281 1.8125 100.703 1.8125 102.203 1.90625L104.969 2.04688C105.438 2.04688 118.984 2.04688 120.531 1.95312C121.844 1.90625 122.922 1.76562 123.438 1.625C123.812 1.53125 124.047 1.29688 124.422 1.29688C124.609 1.29688 124.656 1.53125 124.656 1.90625C124.656 2.375 124.328 3.17188 124.141 5.09375C124.047 5.75 123.953 8.75 123.812 9.54688C123.719 9.92188 123.578 10.2969 123.297 10.2969C122.922 10.2969 122.781 9.96875 122.781 9.45312C122.781 8.9375 122.688 7.8125 122.359 6.96875C121.891 5.89062 121.234 5.09375 117.531 4.67188C116.406 4.53125 109 4.48438 108.25 4.48438C107.969 4.48438 107.828 4.67188 107.828 5.14062V23.8906C107.828 24.4062 107.875 24.5938 108.25 24.5938C109.094 24.5938 117.484 24.5938 119.031 24.4531C120.672 24.3125 121.609 24.1719 122.219 23.5156C122.688 22.9531 122.969 22.625 123.25 22.625C123.438 22.625 123.578 22.7656 123.578 23.1406C123.578 23.5625 123.25 24.7344 123.062 26.9844C122.922 28.3438 122.781 30.8281 122.781 31.2969C122.781 31.8594 122.781 32.6094 122.312 32.6094C121.938 32.6094 121.844 32.3281 121.844 32C121.844 31.2969 121.844 30.6406 121.562 29.75C121.281 28.8125 120.672 27.6406 118 27.3594C116.172 27.1719 109.469 27.0312 108.297 27.0312C107.969 27.0312 107.828 27.2188 107.828 27.5V33.5C107.828 35.7969 107.734 43.6719 107.828 45.125C108.016 49.8125 109.047 50.7031 115.703 50.7031C117.484 50.7031 120.484 50.7031 122.219 49.9531C124 49.2031 124.797 47.8438 125.312 45.0312C125.406 44.2812 125.547 44.0469 125.922 44.0469C126.297 44.0469 126.297 44.5625 126.297 45.0312C126.297 45.5938 125.781 50.2344 125.406 51.6406C124.938 53.4219 124.422 53.4219 121.75 53.4219C116.641 53.4219 112.938 53.2812 110.266 53.1875C107.641 53.0469 106 53 104.969 53C104.828 53 103.656 53 102.25 53.0469C100.891 53.0469 99.3438 53.1875 98.3125 53.1875C97.5625 53.1875 97.2344 53.0469 97.2344 52.6719C97.2344 52.4375 97.375 52.25 97.75 52.25C98.3594 52.25 99.2031 52.1094 99.8125 51.9688C101.172 51.6875 101.5 50.2344 101.781 48.2656C102.109 45.4062 102.109 40.0156 102.109 33.5ZM147.859 21.5469V33.6406C147.859 43.625 148.141 47.9844 149.359 49.2031C150.438 50.2812 152.219 50.75 157.516 50.75C161.125 50.75 164.078 50.7031 165.719 48.7344C166.609 47.6094 167.312 45.9219 167.5 44.6562C167.547 44.0938 167.688 43.7656 168.109 43.7656C168.438 43.7656 168.531 44.0469 168.531 44.7969C168.531 45.5469 168.062 49.625 167.5 51.5938C167.031 53.1406 166.797 53.4219 163.234 53.4219C158.312 53.4219 154.797 53.2812 151.938 53.1875C149.078 53.0469 146.969 53 145 53C144.719 53 143.594 53.0469 142.234 53.0469C140.875 53.1406 139.375 53.1875 138.344 53.1875C137.594 53.1875 137.266 53.0469 137.266 52.6719C137.266 52.4375 137.406 52.25 137.781 52.25C138.391 52.25 139.234 52.1094 139.844 51.9688C141.203 51.6875 141.531 50.2344 141.812 48.2656C142.141 45.4062 142.141 40.0156 142.141 33.5V21.5469C142.141 10.9062 142.141 9.03125 142 6.82812C141.859 4.53125 141.344 3.45312 139.094 2.98438C138.531 2.84375 137.406 2.75 136.797 2.75C136.516 2.75 136.234 2.65625 136.234 2.375C136.234 1.95312 136.562 1.8125 137.312 1.8125C140.359 1.8125 144.672 2.04688 145 2.04688C145.328 2.04688 150.297 1.8125 152.359 1.8125C153.109 1.8125 153.438 1.95312 153.438 2.375C153.438 2.65625 153.156 2.75 152.875 2.75C152.406 2.75 151.469 2.84375 150.625 2.98438C148.656 3.3125 148.141 4.48438 148 6.82812C147.859 9.03125 147.859 10.9062 147.859 21.5469ZM189.391 21.5469V33.6406C189.391 43.625 189.672 47.9844 190.891 49.2031C191.969 50.2812 193.75 50.75 199.047 50.75C202.656 50.75 205.609 50.7031 207.25 48.7344C208.141 47.6094 208.844 45.9219 209.031 44.6562C209.078 44.0938 209.219 43.7656 209.641 43.7656C209.969 43.7656 210.062 44.0469 210.062 44.7969C210.062 45.5469 209.594 49.625 209.031 51.5938C208.562 53.1406 208.328 53.4219 204.766 53.4219C199.844 53.4219 196.328 53.2812 193.469 53.1875C190.609 53.0469 188.5 53 186.531 53C186.25 53 185.125 53.0469 183.766 53.0469C182.406 53.1406 180.906 53.1875 179.875 53.1875C179.125 53.1875 178.797 53.0469 178.797 52.6719C178.797 52.4375 178.938 52.25 179.312 52.25C179.922 52.25 180.766 52.1094 181.375 51.9688C182.734 51.6875 183.062 50.2344 183.344 48.2656C183.672 45.4062 183.672 40.0156 183.672 33.5V21.5469C183.672 10.9062 183.672 9.03125 183.531 6.82812C183.391 4.53125 182.875 3.45312 180.625 2.98438C180.062 2.84375 178.938 2.75 178.328 2.75C178.047 2.75 177.766 2.65625 177.766 2.375C177.766 1.95312 178.094 1.8125 178.844 1.8125C181.891 1.8125 186.203 2.04688 186.531 2.04688C186.859 2.04688 191.828 1.8125 193.891 1.8125C194.641 1.8125 194.969 1.95312 194.969 2.375C194.969 2.65625 194.688 2.75 194.406 2.75C193.938 2.75 193 2.84375 192.156 2.98438C190.188 3.3125 189.672 4.48438 189.531 6.82812C189.391 9.03125 189.391 10.9062 189.391 21.5469ZM217.469 27.4531C217.469 16.4375 225.484 0.875 244.234 0.875C259.516 0.875 270.953 10.5312 270.953 26.375C270.953 41.5625 260.219 54.1719 243.812 54.1719C225.203 54.1719 217.469 39.6875 217.469 27.4531ZM223.938 25.5312C223.938 41.375 233.453 51.5938 245.688 51.5938C251.781 51.5938 264.438 48.0312 264.438 28.25C264.438 11.9375 254.5 3.17188 243.766 3.17188C232.422 3.17188 223.938 10.6719 223.938 25.5312ZM8.829 88.176C8.40233 88.176 7.981 88.1333 7.565 88.048C7.15967 87.9733 6.77567 87.872 6.413 87.744C6.05033 87.6053 5.71433 87.4453 5.405 87.264C5.10633 87.0827 4.85033 86.8907 4.637 86.688C4.55167 86.6027 4.54633 86.512 4.621 86.416L5.837 85.024C5.901 84.9387 5.981 84.9333 6.077 85.008C6.43967 85.296 6.861 85.5573 7.341 85.792C7.821 86.016 8.349 86.128 8.925 86.128C9.501 86.128 9.93833 86.0107 10.237 85.776C10.5463 85.5307 10.701 85.216 10.701 84.832C10.701 84.512 10.5837 84.2507 10.349 84.048C10.1143 83.8453 9.67167 83.7013 9.021 83.616L8.445 83.536C7.33567 83.3867 6.48233 83.0507 5.885 82.528C5.29833 81.9947 5.005 81.2427 5.005 80.272C5.005 79.7707 5.09567 79.3173 5.277 78.912C5.45833 78.496 5.71433 78.144 6.045 77.856C6.38633 77.568 6.79167 77.344 7.261 77.184C7.741 77.024 8.27433 76.944 8.861 76.944C9.58633 76.944 10.269 77.0453 10.909 77.248C11.549 77.4507 12.0983 77.728 12.557 78.08C12.653 78.144 12.6637 78.224 12.589 78.32L11.613 79.776C11.549 79.8613 11.4743 79.8773 11.389 79.824C10.973 79.5467 10.557 79.3387 10.141 79.2C9.73567 79.0613 9.309 78.992 8.861 78.992C8.381 78.992 8.01833 79.104 7.773 79.328C7.52767 79.552 7.405 79.8347 7.405 80.176C7.405 80.4853 7.52767 80.7413 7.773 80.944C8.029 81.1467 8.47167 81.2907 9.101 81.376L9.677 81.456C10.8077 81.6053 11.661 81.9467 12.237 82.48C12.813 83.0027 13.101 83.76 13.101 84.752C13.101 85.2427 13.0103 85.7013 12.829 86.128C12.6477 86.544 12.3757 86.9067 12.013 87.216C11.661 87.5147 11.2183 87.7493 10.685 87.92C10.1517 88.0907 9.533 88.176 8.829 88.176ZM14.8086 79.024C14.702 79.024 14.6486 78.9707 14.6486 78.864V77.28C14.6486 77.1733 14.702 77.12 14.8086 77.12H16.7286C16.8353 77.12 16.8886 77.1733 16.8886 77.28V78.864C16.8886 78.9707 16.8353 79.024 16.7286 79.024H14.8086ZM14.8086 88C14.702 88 14.6486 87.9467 14.6486 87.84V80.416C14.6486 80.3093 14.702 80.256 14.8086 80.256H16.7286C16.8353 80.256 16.8886 80.3093 16.8886 80.416V87.84C16.8886 87.9467 16.8353 88 16.7286 88H14.8086ZM21.7146 91.056C21.4266 91.056 21.1386 91.024 20.8506 90.96C20.5626 90.9067 20.2853 90.8267 20.0186 90.72C19.7626 90.624 19.528 90.5013 19.3146 90.352C19.1013 90.2133 18.9253 90.0587 18.7866 89.888C18.7226 89.8027 18.728 89.7227 18.8026 89.648L19.9386 88.496C20.0133 88.4213 20.0933 88.4213 20.1786 88.496C20.424 88.7093 20.6746 88.8747 20.9306 88.992C21.1866 89.1093 21.4693 89.168 21.7786 89.168C22.3226 89.168 22.7173 89.024 22.9626 88.736C23.208 88.4587 23.3306 88.032 23.3306 87.456V86.8H23.3146C23.144 87.0773 22.8933 87.296 22.5626 87.456C22.232 87.616 21.8213 87.696 21.3306 87.696C20.6906 87.696 20.1466 87.5413 19.6986 87.232C19.2613 86.912 18.9413 86.4427 18.7386 85.824C18.6533 85.536 18.5893 85.248 18.5466 84.96C18.504 84.6613 18.4826 84.304 18.4826 83.888C18.4826 83.472 18.504 83.1147 18.5466 82.816C18.5893 82.5173 18.6533 82.2293 18.7386 81.952C18.9413 81.3333 19.2613 80.8693 19.6986 80.56C20.1466 80.24 20.6906 80.08 21.3306 80.08C21.8213 80.08 22.232 80.16 22.5626 80.32C22.8933 80.48 23.144 80.6987 23.3146 80.976H23.3306V80.416C23.3306 80.3093 23.384 80.256 23.4906 80.256H25.4106C25.5173 80.256 25.5706 80.3093 25.5706 80.416V87.168C25.5706 89.76 24.2853 91.056 21.7146 91.056ZM22.0346 85.808C22.344 85.808 22.5893 85.7387 22.7706 85.6C22.9626 85.4613 23.1013 85.2533 23.1866 84.976C23.24 84.8267 23.2773 84.672 23.2986 84.512C23.32 84.3413 23.3306 84.1333 23.3306 83.888C23.3306 83.6427 23.32 83.44 23.2986 83.28C23.2773 83.1093 23.24 82.9493 23.1866 82.8C23.1013 82.5227 22.9626 82.3147 22.7706 82.176C22.5893 82.0373 22.344 81.968 22.0346 81.968C21.7253 81.968 21.48 82.0373 21.2986 82.176C21.1173 82.3147 20.9786 82.5227 20.8826 82.8C20.84 82.9493 20.808 83.1093 20.7866 83.28C20.7653 83.44 20.7546 83.6427 20.7546 83.888C20.7546 84.1333 20.7653 84.3413 20.7866 84.512C20.808 84.672 20.84 84.8267 20.8826 84.976C20.9786 85.2533 21.1173 85.4613 21.2986 85.6C21.48 85.7387 21.7253 85.808 22.0346 85.808ZM32.4021 88C32.2955 88 32.2421 87.9467 32.2421 87.84V83.392C32.2421 82.9653 32.1408 82.624 31.9381 82.368C31.7461 82.112 31.4475 81.984 31.0421 81.984C30.6581 81.984 30.3595 82.112 30.1461 82.368C29.9328 82.624 29.8261 82.9653 29.8261 83.392V87.84C29.8261 87.9467 29.7728 88 29.6661 88H27.7461C27.6395 88 27.5861 87.9467 27.5861 87.84V80.416C27.5861 80.3093 27.6395 80.256 27.7461 80.256H29.6661C29.7728 80.256 29.8261 80.3093 29.8261 80.416V80.96H29.8421C30.0235 80.7147 30.2741 80.5067 30.5941 80.336C30.9248 80.1653 31.3408 80.08 31.8421 80.08C32.2688 80.08 32.6475 80.1493 32.9781 80.288C33.3088 80.4267 33.5861 80.624 33.8101 80.88C34.0341 81.136 34.1995 81.44 34.3061 81.792C34.4235 82.144 34.4821 82.5333 34.4821 82.96V87.84C34.4821 87.9467 34.4288 88 34.3221 88H32.4021ZM40.3711 79.024C40.2645 79.024 40.2111 78.9707 40.2111 78.864V77.28C40.2111 77.1733 40.2645 77.12 40.3711 77.12H42.2911C42.3978 77.12 42.4511 77.1733 42.4511 77.28V78.864C42.4511 78.9707 42.3978 79.024 42.2911 79.024H40.3711ZM40.3711 88C40.2645 88 40.2111 87.9467 40.2111 87.84V80.416C40.2111 80.3093 40.2645 80.256 40.3711 80.256H42.2911C42.3978 80.256 42.4511 80.3093 42.4511 80.416V87.84C42.4511 87.9467 42.3978 88 42.2911 88H40.3711ZM49.2771 88C49.1705 88 49.1171 87.9467 49.1171 87.84V83.392C49.1171 82.9653 49.0158 82.624 48.8131 82.368C48.6211 82.112 48.3225 81.984 47.9171 81.984C47.5331 81.984 47.2345 82.112 47.0211 82.368C46.8078 82.624 46.7011 82.9653 46.7011 83.392V87.84C46.7011 87.9467 46.6478 88 46.5411 88H44.6211C44.5145 88 44.4611 87.9467 44.4611 87.84V80.416C44.4611 80.3093 44.5145 80.256 44.6211 80.256H46.5411C46.6478 80.256 46.7011 80.3093 46.7011 80.416V80.96H46.7171C46.8985 80.7147 47.1491 80.5067 47.4691 80.336C47.7998 80.1653 48.2158 80.08 48.7171 80.08C49.1438 80.08 49.5225 80.1493 49.8531 80.288C50.1838 80.4267 50.4611 80.624 50.6851 80.88C50.9091 81.136 51.0745 81.44 51.1811 81.792C51.2985 82.144 51.3571 82.5333 51.3571 82.96V87.84C51.3571 87.9467 51.3038 88 51.1971 88H49.2771ZM61.6301 88C61.5235 88 61.4701 87.9467 61.4701 87.84V87.328H61.4541C61.2515 87.584 60.9795 87.792 60.6381 87.952C60.2968 88.1013 59.8595 88.176 59.3261 88.176C58.9848 88.176 58.6541 88.128 58.3341 88.032C58.0248 87.9467 57.7528 87.808 57.5181 87.616C57.2835 87.424 57.0968 87.1787 56.9581 86.88C56.8195 86.5813 56.7501 86.224 56.7501 85.808C56.7501 84.9547 57.0435 84.3253 57.6301 83.92C58.2275 83.5147 59.0061 83.312 59.9661 83.312H61.3421C61.4061 83.312 61.4381 83.28 61.4381 83.216V82.928C61.4381 82.5653 61.3261 82.2987 61.1021 82.128C60.8888 81.9573 60.4728 81.872 59.8541 81.872C59.4595 81.872 59.1181 81.92 58.8301 82.016C58.5421 82.112 58.3075 82.2293 58.1261 82.368C58.0408 82.432 57.9715 82.4213 57.9181 82.336L57.1981 81.072C57.1448 80.976 57.1608 80.9013 57.2461 80.848C57.5768 80.6133 57.9768 80.4267 58.4461 80.288C58.9261 80.1493 59.4861 80.08 60.1261 80.08C60.7555 80.08 61.2888 80.1387 61.7261 80.256C62.1635 80.3627 62.5155 80.5333 62.7821 80.768C63.0595 80.992 63.2568 81.28 63.3741 81.632C63.5021 81.984 63.5661 82.4 63.5661 82.88V87.84C63.5661 87.9467 63.5128 88 63.4061 88H61.6301ZM59.9981 86.496C60.9581 86.496 61.4381 86.1387 61.4381 85.424V84.896C61.4381 84.832 61.4061 84.8 61.3421 84.8H60.2541C59.3368 84.8 58.8781 85.0933 58.8781 85.68C58.8781 86.224 59.2515 86.496 59.9981 86.496ZM70.3553 88C70.2486 88 70.1953 87.9467 70.1953 87.84V83.392C70.1953 82.9653 70.0939 82.624 69.8913 82.368C69.6993 82.112 69.4006 81.984 68.9953 81.984C68.6113 81.984 68.3126 82.112 68.0993 82.368C67.8859 82.624 67.7793 82.9653 67.7793 83.392V87.84C67.7793 87.9467 67.7259 88 67.6193 88H65.6993C65.5926 88 65.5393 87.9467 65.5393 87.84V80.416C65.5393 80.3093 65.5926 80.256 65.6993 80.256H67.6193C67.7259 80.256 67.7793 80.3093 67.7793 80.416V80.96H67.7953C67.9766 80.7147 68.2273 80.5067 68.5473 80.336C68.8779 80.1653 69.2939 80.08 69.7953 80.08C70.2219 80.08 70.6006 80.1493 70.9313 80.288C71.2619 80.4267 71.5393 80.624 71.7633 80.88C71.9873 81.136 72.1526 81.44 72.2593 81.792C72.3766 82.144 72.4353 82.5333 72.4353 82.96V87.84C72.4353 87.9467 72.3819 88 72.2753 88H70.3553ZM79.103 88C78.9963 88 78.943 87.9467 78.943 87.84V87.28H78.927C78.7457 87.5467 78.4897 87.7653 78.159 87.936C77.8283 88.096 77.407 88.176 76.895 88.176C76.2443 88.176 75.695 88.0213 75.247 87.712C74.799 87.392 74.4737 86.928 74.271 86.32C74.175 86.0107 74.1057 85.696 74.063 85.376C74.0203 85.0453 73.999 84.6293 73.999 84.128C73.999 83.616 74.0203 83.2 74.063 82.88C74.1057 82.56 74.175 82.2453 74.271 81.936C74.4737 81.3173 74.799 80.8533 75.247 80.544C75.695 80.2347 76.2443 80.08 76.895 80.08C77.407 80.08 77.8283 80.1653 78.159 80.336C78.4897 80.496 78.7457 80.7093 78.927 80.976H78.943V77.28C78.943 77.1733 78.9963 77.12 79.103 77.12H81.023C81.1297 77.12 81.183 77.1733 81.183 77.28V87.84C81.183 87.9467 81.1297 88 81.023 88H79.103ZM77.615 86.288C78.223 86.288 78.6177 86.0107 78.799 85.456C78.8523 85.3067 78.8897 85.136 78.911 84.944C78.9323 84.7413 78.943 84.4693 78.943 84.128C78.943 83.7867 78.9323 83.52 78.911 83.328C78.8897 83.1253 78.8523 82.9493 78.799 82.8C78.6283 82.2453 78.2337 81.968 77.615 81.968C76.9857 81.968 76.5857 82.2453 76.415 82.8C76.3617 82.9493 76.3243 83.1253 76.303 83.328C76.2817 83.52 76.271 83.7867 76.271 84.128C76.271 84.4693 76.2817 84.7413 76.303 84.944C76.3243 85.136 76.3617 85.3067 76.415 85.456C76.5963 86.0107 76.9963 86.288 77.615 86.288ZM90.2888 88.176C89.4034 88.176 88.6674 87.984 88.0807 87.6C87.4941 87.216 87.0888 86.672 86.8648 85.968C86.7794 85.7227 86.7101 85.456 86.6568 85.168C86.6141 84.88 86.5928 84.5333 86.5928 84.128C86.5928 83.7227 86.6141 83.376 86.6568 83.088C86.6994 82.7893 86.7634 82.5173 86.8488 82.272C87.0728 81.568 87.4728 81.0293 88.0488 80.656C88.6354 80.272 89.3448 80.08 90.1768 80.08C91.0408 80.08 91.7554 80.272 92.3208 80.656C92.8968 81.04 93.2968 81.5733 93.5208 82.256C93.5634 82.384 93.6008 82.5227 93.6328 82.672C93.6648 82.8107 93.6914 82.9707 93.7128 83.152C93.7341 83.3333 93.7501 83.5467 93.7608 83.792C93.7714 84.0267 93.7768 84.3093 93.7768 84.64C93.7768 84.7467 93.7181 84.8 93.6008 84.8H88.9128C88.8488 84.8 88.8168 84.832 88.8168 84.896C88.8274 85.056 88.8594 85.2 88.9128 85.328C89.0194 85.6693 89.2114 85.9253 89.4888 86.096C89.7661 86.2667 90.1074 86.352 90.5128 86.352C90.8968 86.352 91.2328 86.2933 91.5208 86.176C91.8088 86.048 92.0648 85.8773 92.2888 85.664C92.3848 85.5893 92.4594 85.5893 92.5128 85.664L93.5688 86.656C93.6541 86.7307 93.6594 86.8053 93.5848 86.88C93.2114 87.2747 92.7474 87.5893 92.1928 87.824C91.6381 88.0587 91.0034 88.176 90.2888 88.176ZM91.4728 83.312C91.5368 83.312 91.5688 83.28 91.5688 83.216C91.5688 83.0987 91.5581 82.9973 91.5368 82.912C91.5261 82.816 91.5101 82.7253 91.4888 82.64C91.4034 82.3733 91.2434 82.1653 91.0088 82.016C90.7848 81.8667 90.5127 81.792 90.1927 81.792C89.8728 81.792 89.5954 81.8667 89.3608 82.016C89.1368 82.1653 88.9821 82.3733 88.8968 82.64C88.8754 82.7253 88.8541 82.816 88.8328 82.912C88.8221 82.9973 88.8168 83.0987 88.8168 83.216C88.8168 83.28 88.8488 83.312 88.9128 83.312H91.4728ZM100.23 88C100.124 88 100.07 87.9467 100.07 87.84V83.392C100.07 82.9653 99.9689 82.624 99.7663 82.368C99.5743 82.112 99.2756 81.984 98.8703 81.984C98.4863 81.984 98.1876 82.112 97.9743 82.368C97.7609 82.624 97.6543 82.9653 97.6543 83.392V87.84C97.6543 87.9467 97.6009 88 97.4943 88H95.5743C95.4676 88 95.4143 87.9467 95.4143 87.84V80.416C95.4143 80.3093 95.4676 80.256 95.5743 80.256H97.4943C97.6009 80.256 97.6543 80.3093 97.6543 80.416V80.96H97.6703C97.8516 80.7147 98.1023 80.5067 98.4223 80.336C98.7529 80.1653 99.1689 80.08 99.6703 80.08C100.097 80.08 100.476 80.1493 100.806 80.288C101.137 80.4267 101.414 80.624 101.638 80.88C101.862 81.136 102.028 81.44 102.134 81.792C102.252 82.144 102.31 82.5333 102.31 82.96V87.84C102.31 87.9467 102.257 88 102.15 88H100.23ZM104.418 79.024C104.311 79.024 104.258 78.9707 104.258 78.864V77.28C104.258 77.1733 104.311 77.12 104.418 77.12H106.338C106.445 77.12 106.498 77.1733 106.498 77.28V78.864C106.498 78.9707 106.445 79.024 106.338 79.024H104.418ZM103.074 90.88C102.967 90.88 102.914 90.8267 102.914 90.72V89.152C102.914 89.0453 102.967 88.992 103.074 88.992H103.394C103.703 88.992 103.922 88.928 104.05 88.8C104.189 88.6827 104.258 88.448 104.258 88.096V80.416C104.258 80.3093 104.311 80.256 104.418 80.256H106.338C106.445 80.256 106.498 80.3093 106.498 80.416V88.08C106.498 89.072 106.247 89.7867 105.746 90.224C105.255 90.6613 104.541 90.88 103.602 90.88H103.074ZM111.74 88.176C110.919 88.176 110.209 87.9893 109.612 87.616C109.015 87.2427 108.604 86.704 108.38 86C108.295 85.7227 108.231 85.44 108.188 85.152C108.145 84.8533 108.124 84.512 108.124 84.128C108.124 83.744 108.145 83.408 108.188 83.12C108.231 82.8213 108.295 82.5333 108.38 82.256C108.604 81.552 109.015 81.0133 109.612 80.64C110.209 80.2667 110.919 80.08 111.74 80.08C112.561 80.08 113.271 80.2667 113.868 80.64C114.465 81.0133 114.876 81.552 115.1 82.256C115.185 82.5333 115.249 82.8213 115.292 83.12C115.335 83.408 115.356 83.744 115.356 84.128C115.356 84.512 115.335 84.8533 115.292 85.152C115.249 85.44 115.185 85.7227 115.1 86C114.876 86.704 114.465 87.2427 113.868 87.616C113.271 87.9893 112.561 88.176 111.74 88.176ZM111.74 86.288C112.359 86.288 112.759 86.0107 112.94 85.456C112.993 85.2747 113.031 85.0933 113.052 84.912C113.073 84.72 113.084 84.4587 113.084 84.128C113.084 83.7973 113.073 83.5413 113.052 83.36C113.031 83.168 112.993 82.9813 112.94 82.8C112.759 82.2453 112.359 81.968 111.74 81.968C111.121 81.968 110.721 82.2453 110.54 82.8C110.487 82.9813 110.449 83.168 110.428 83.36C110.407 83.5413 110.396 83.7973 110.396 84.128C110.396 84.4587 110.407 84.72 110.428 84.912C110.449 85.0933 110.487 85.2747 110.54 85.456C110.721 86.0107 111.121 86.288 111.74 86.288ZM117.285 90.88C117.178 90.88 117.125 90.8267 117.125 90.72V89.152C117.125 89.0453 117.178 88.992 117.285 88.992H117.621C117.898 88.992 118.117 88.928 118.277 88.8C118.448 88.6827 118.581 88.48 118.677 88.192L118.885 87.616L116.005 80.416C115.973 80.3093 116.016 80.256 116.133 80.256H118.181C118.277 80.256 118.341 80.3093 118.373 80.416L119.925 84.896H119.957L121.397 80.416C121.429 80.3093 121.493 80.256 121.589 80.256H123.573C123.69 80.256 123.733 80.3093 123.701 80.416L120.565 88.656C120.405 89.0827 120.234 89.44 120.053 89.728C119.882 90.016 119.69 90.2453 119.477 90.416C119.264 90.5867 119.024 90.704 118.757 90.768C118.49 90.8427 118.181 90.88 117.829 90.88H117.285ZM133.24 88C133.133 88 133.08 87.9467 133.08 87.84V87.328H133.064C132.861 87.584 132.589 87.792 132.248 87.952C131.906 88.1013 131.469 88.176 130.936 88.176C130.594 88.176 130.264 88.128 129.944 88.032C129.634 87.9467 129.362 87.808 129.128 87.616C128.893 87.424 128.706 87.1787 128.568 86.88C128.429 86.5813 128.36 86.224 128.36 85.808C128.36 84.9547 128.653 84.3253 129.24 83.92C129.837 83.5147 130.616 83.312 131.576 83.312H132.952C133.016 83.312 133.048 83.28 133.048 83.216V82.928C133.048 82.5653 132.936 82.2987 132.712 82.128C132.498 81.9573 132.082 81.872 131.464 81.872C131.069 81.872 130.728 81.92 130.44 82.016C130.152 82.112 129.917 82.2293 129.736 82.368C129.65 82.432 129.581 82.4213 129.528 82.336L128.808 81.072C128.754 80.976 128.77 80.9013 128.856 80.848C129.186 80.6133 129.586 80.4267 130.056 80.288C130.536 80.1493 131.096 80.08 131.736 80.08C132.365 80.08 132.898 80.1387 133.336 80.256C133.773 80.3627 134.125 80.5333 134.392 80.768C134.669 80.992 134.866 81.28 134.984 81.632C135.112 81.984 135.176 82.4 135.176 82.88V87.84C135.176 87.9467 135.122 88 135.016 88H133.24ZM131.608 86.496C132.568 86.496 133.048 86.1387 133.048 85.424V84.896C133.048 84.832 133.016 84.8 132.952 84.8H131.864C130.946 84.8 130.488 85.0933 130.488 85.68C130.488 86.224 130.861 86.496 131.608 86.496ZM141.965 88C141.858 88 141.805 87.9467 141.805 87.84V83.392C141.805 82.9653 141.703 82.624 141.501 82.368C141.309 82.112 141.01 81.984 140.605 81.984C140.221 81.984 139.922 82.112 139.709 82.368C139.495 82.624 139.389 82.9653 139.389 83.392V87.84C139.389 87.9467 139.335 88 139.229 88H137.309C137.202 88 137.149 87.9467 137.149 87.84V80.416C137.149 80.3093 137.202 80.256 137.309 80.256H139.229C139.335 80.256 139.389 80.3093 139.389 80.416V80.96H139.405C139.586 80.7147 139.837 80.5067 140.157 80.336C140.487 80.1653 140.903 80.08 141.405 80.08C141.831 80.08 142.21 80.1493 142.541 80.288C142.871 80.4267 143.149 80.624 143.373 80.88C143.597 81.136 143.762 81.44 143.869 81.792C143.986 82.144 144.045 82.5333 144.045 82.96V87.84C144.045 87.9467 143.991 88 143.885 88H141.965ZM149.806 77.28C149.806 77.1733 149.859 77.12 149.966 77.12H156.942C157.048 77.12 157.102 77.1733 157.102 77.28V78.992C157.102 79.0987 157.048 79.152 156.942 79.152H152.254C152.19 79.152 152.158 79.184 152.158 79.248V81.408C152.158 81.472 152.19 81.504 152.254 81.504H156.158C156.264 81.504 156.318 81.5573 156.318 81.664V83.36C156.318 83.4667 156.264 83.52 156.158 83.52H152.254C152.19 83.52 152.158 83.552 152.158 83.616V85.872C152.158 85.936 152.19 85.968 152.254 85.968H156.942C157.048 85.968 157.102 86.0213 157.102 86.128V87.84C157.102 87.9467 157.048 88 156.942 88H149.966C149.859 88 149.806 87.9467 149.806 87.84V77.28ZM163.557 88C163.461 88 163.381 87.952 163.317 87.856L161.924 85.744H161.909L160.533 87.856C160.447 87.952 160.362 88 160.277 88H158.213C158.149 88 158.106 87.984 158.085 87.952C158.074 87.92 158.079 87.8827 158.101 87.84L160.709 83.984L158.293 80.416C158.271 80.3733 158.266 80.336 158.277 80.304C158.298 80.272 158.341 80.256 158.405 80.256H160.485C160.602 80.256 160.693 80.304 160.757 80.4L161.924 82.224H161.941L163.125 80.4C163.199 80.304 163.285 80.256 163.381 80.256H165.445C165.519 80.256 165.562 80.272 165.573 80.304C165.594 80.336 165.594 80.3733 165.573 80.416L163.157 83.984L165.765 87.84C165.786 87.8827 165.786 87.92 165.765 87.952C165.754 87.984 165.711 88 165.637 88H163.557ZM169.974 88.176C169.152 88.176 168.448 87.9947 167.862 87.632C167.275 87.2587 166.864 86.7093 166.63 85.984C166.544 85.7493 166.48 85.4827 166.438 85.184C166.406 84.8853 166.39 84.5333 166.39 84.128C166.39 83.7227 166.406 83.3707 166.438 83.072C166.48 82.7733 166.544 82.5067 166.63 82.272C166.864 81.5467 167.275 81.0027 167.862 80.64C168.448 80.2667 169.152 80.08 169.974 80.08C170.646 80.08 171.232 80.2187 171.734 80.496C172.235 80.7627 172.624 81.1093 172.902 81.536C172.955 81.6213 172.944 81.696 172.87 81.76L171.478 82.672C171.382 82.736 171.302 82.7253 171.238 82.64C171.067 82.4053 170.886 82.2347 170.694 82.128C170.512 82.0213 170.283 81.968 170.006 81.968C169.707 81.968 169.451 82.0373 169.238 82.176C169.035 82.3147 168.891 82.5227 168.806 82.8C168.752 82.96 168.715 83.1413 168.694 83.344C168.672 83.5467 168.662 83.808 168.662 84.128C168.662 84.448 168.672 84.7093 168.694 84.912C168.715 85.1147 168.752 85.296 168.806 85.456C168.891 85.7333 169.035 85.9413 169.238 86.08C169.451 86.2187 169.707 86.288 170.006 86.288C170.283 86.288 170.512 86.2347 170.694 86.128C170.886 86.0213 171.067 85.8507 171.238 85.616C171.302 85.5307 171.382 85.52 171.478 85.584L172.87 86.496C172.944 86.56 172.955 86.6347 172.902 86.72C172.624 87.1467 172.235 87.4987 171.734 87.776C171.232 88.0427 170.646 88.176 169.974 88.176ZM176.845 88.096C175.981 88.096 175.362 87.904 174.989 87.52C174.626 87.1253 174.445 86.496 174.445 85.632V77.28C174.445 77.1733 174.498 77.12 174.605 77.12H176.525C176.631 77.12 176.685 77.1733 176.685 77.28V85.456C176.685 85.7227 176.738 85.9147 176.845 86.032C176.951 86.1387 177.122 86.192 177.357 86.192H177.693C177.799 86.192 177.853 86.2453 177.853 86.352V87.936C177.853 88.0427 177.799 88.096 177.693 88.096H176.845ZM184.024 88C183.917 88 183.864 87.9467 183.864 87.84V87.28H183.848C183.645 87.5467 183.384 87.7653 183.064 87.936C182.755 88.096 182.355 88.176 181.864 88.176C181.437 88.176 181.059 88.1067 180.728 87.968C180.408 87.8187 180.136 87.616 179.912 87.36C179.699 87.104 179.533 86.8 179.416 86.448C179.309 86.096 179.256 85.712 179.256 85.296V80.416C179.256 80.3093 179.309 80.256 179.416 80.256H181.336C181.443 80.256 181.496 80.3093 181.496 80.416V84.864C181.496 85.28 181.592 85.6213 181.784 85.888C181.987 86.144 182.285 86.272 182.68 86.272C183.064 86.272 183.357 86.144 183.56 85.888C183.763 85.632 183.864 85.2907 183.864 84.864V80.416C183.864 80.3093 183.917 80.256 184.024 80.256H185.944C186.051 80.256 186.104 80.3093 186.104 80.416V87.84C186.104 87.9467 186.051 88 185.944 88H184.024ZM191.157 88.176C190.347 88.176 189.648 88.0587 189.061 87.824C188.485 87.5787 188.011 87.296 187.637 86.976C187.563 86.9013 187.563 86.8267 187.637 86.752L188.677 85.584C188.741 85.52 188.816 85.52 188.901 85.584C189.243 85.8507 189.621 86.0587 190.037 86.208C190.453 86.3573 190.864 86.432 191.269 86.432C191.675 86.432 191.973 86.3627 192.165 86.224C192.368 86.0853 192.469 85.9093 192.469 85.696C192.469 85.5147 192.395 85.3707 192.245 85.264C192.107 85.1467 191.813 85.0667 191.365 85.024L190.501 84.928C189.68 84.8427 189.051 84.6027 188.613 84.208C188.187 83.8133 187.973 83.264 187.973 82.56C187.973 81.792 188.251 81.1893 188.805 80.752C189.36 80.304 190.144 80.08 191.157 80.08C191.819 80.08 192.416 80.1707 192.949 80.352C193.483 80.5333 193.931 80.7627 194.293 81.04C194.368 81.1147 194.373 81.1947 194.309 81.28L193.413 82.384C193.349 82.4587 193.275 82.4693 193.189 82.416C192.923 82.2453 192.608 82.1013 192.245 81.984C191.883 81.856 191.499 81.792 191.093 81.792C190.763 81.792 190.517 81.8507 190.357 81.968C190.197 82.0853 190.117 82.24 190.117 82.432C190.117 82.6133 190.187 82.7573 190.325 82.864C190.464 82.96 190.752 83.0293 191.189 83.072L192.037 83.168C192.955 83.2533 193.611 83.504 194.005 83.92C194.411 84.336 194.613 84.8693 194.613 85.52C194.603 86.32 194.299 86.9653 193.701 87.456C193.115 87.936 192.267 88.176 191.157 88.176ZM196.356 79.024C196.249 79.024 196.196 78.9707 196.196 78.864V77.28C196.196 77.1733 196.249 77.12 196.356 77.12H198.276C198.382 77.12 198.436 77.1733 198.436 77.28V78.864C198.436 78.9707 198.382 79.024 198.276 79.024H196.356ZM196.356 88C196.249 88 196.196 87.9467 196.196 87.84V80.416C196.196 80.3093 196.249 80.256 196.356 80.256H198.276C198.382 80.256 198.436 80.3093 198.436 80.416V87.84C198.436 87.9467 198.382 88 198.276 88H196.356ZM202.622 88C202.526 88 202.462 87.9467 202.43 87.84L199.678 80.416C199.646 80.3093 199.688 80.256 199.806 80.256H201.822C201.928 80.256 201.998 80.3093 202.03 80.416L203.534 85.008H203.566L205.006 80.416C205.038 80.3093 205.107 80.256 205.214 80.256H207.198C207.315 80.256 207.358 80.3093 207.326 80.416L204.574 87.84C204.542 87.9467 204.478 88 204.382 88H202.622ZM211.695 88.176C210.81 88.176 210.074 87.984 209.487 87.6C208.9 87.216 208.495 86.672 208.271 85.968C208.186 85.7227 208.116 85.456 208.063 85.168C208.02 84.88 207.999 84.5333 207.999 84.128C207.999 83.7227 208.02 83.376 208.063 83.088C208.106 82.7893 208.17 82.5173 208.255 82.272C208.479 81.568 208.879 81.0293 209.455 80.656C210.042 80.272 210.751 80.08 211.583 80.08C212.447 80.08 213.162 80.272 213.727 80.656C214.303 81.04 214.703 81.5733 214.927 82.256C214.97 82.384 215.007 82.5227 215.039 82.672C215.071 82.8107 215.098 82.9707 215.119 83.152C215.14 83.3333 215.156 83.5467 215.167 83.792C215.178 84.0267 215.183 84.3093 215.183 84.64C215.183 84.7467 215.124 84.8 215.007 84.8H210.319C210.255 84.8 210.223 84.832 210.223 84.896C210.234 85.056 210.266 85.2 210.319 85.328C210.426 85.6693 210.618 85.9253 210.895 86.096C211.172 86.2667 211.514 86.352 211.919 86.352C212.303 86.352 212.639 86.2933 212.927 86.176C213.215 86.048 213.471 85.8773 213.695 85.664C213.791 85.5893 213.866 85.5893 213.919 85.664L214.975 86.656C215.06 86.7307 215.066 86.8053 214.991 86.88C214.618 87.2747 214.154 87.5893 213.599 87.824C213.044 88.0587 212.41 88.176 211.695 88.176ZM212.879 83.312C212.943 83.312 212.975 83.28 212.975 83.216C212.975 83.0987 212.964 82.9973 212.943 82.912C212.932 82.816 212.916 82.7253 212.895 82.64C212.81 82.3733 212.65 82.1653 212.415 82.016C212.191 81.8667 211.919 81.792 211.599 81.792C211.279 81.792 211.002 81.8667 210.767 82.016C210.543 82.1653 210.388 82.3733 210.303 82.64C210.282 82.7253 210.26 82.816 210.239 82.912C210.228 82.9973 210.223 83.0987 210.223 83.216C210.223 83.28 210.255 83.312 210.319 83.312H212.879ZM223.914 88.176C223.028 88.176 222.292 87.984 221.706 87.6C221.119 87.216 220.714 86.672 220.49 85.968C220.404 85.7227 220.335 85.456 220.282 85.168C220.239 84.88 220.218 84.5333 220.218 84.128C220.218 83.7227 220.239 83.376 220.282 83.088C220.324 82.7893 220.388 82.5173 220.474 82.272C220.698 81.568 221.098 81.0293 221.674 80.656C222.26 80.272 222.97 80.08 223.802 80.08C224.666 80.08 225.38 80.272 225.946 80.656C226.522 81.04 226.922 81.5733 227.146 82.256C227.188 82.384 227.226 82.5227 227.258 82.672C227.29 82.8107 227.316 82.9707 227.338 83.152C227.359 83.3333 227.375 83.5467 227.386 83.792C227.396 84.0267 227.402 84.3093 227.402 84.64C227.402 84.7467 227.343 84.8 227.226 84.8H222.538C222.474 84.8 222.442 84.832 222.442 84.896C222.452 85.056 222.484 85.2 222.538 85.328C222.644 85.6693 222.836 85.9253 223.114 86.096C223.391 86.2667 223.732 86.352 224.138 86.352C224.522 86.352 224.858 86.2933 225.146 86.176C225.434 86.048 225.69 85.8773 225.914 85.664C226.01 85.5893 226.084 85.5893 226.138 85.664L227.194 86.656C227.279 86.7307 227.284 86.8053 227.21 86.88C226.836 87.2747 226.372 87.5893 225.818 87.824C225.263 88.0587 224.628 88.176 223.914 88.176ZM225.098 83.312C225.162 83.312 225.194 83.28 225.194 83.216C225.194 83.0987 225.183 82.9973 225.162 82.912C225.151 82.816 225.135 82.7253 225.114 82.64C225.028 82.3733 224.868 82.1653 224.634 82.016C224.41 81.8667 224.138 81.792 223.818 81.792C223.498 81.792 223.22 81.8667 222.986 82.016C222.762 82.1653 222.607 82.3733 222.522 82.64C222.5 82.7253 222.479 82.816 222.458 82.912C222.447 82.9973 222.442 83.0987 222.442 83.216C222.442 83.28 222.474 83.312 222.538 83.312H225.098ZM233.65 88C233.554 88 233.474 87.952 233.41 87.856L232.018 85.744H232.002L230.626 87.856C230.541 87.952 230.456 88 230.37 88H228.306C228.242 88 228.2 87.984 228.178 87.952C228.168 87.92 228.173 87.8827 228.194 87.84L230.802 83.984L228.386 80.416C228.365 80.3733 228.36 80.336 228.37 80.304C228.392 80.272 228.434 80.256 228.498 80.256H230.578C230.696 80.256 230.786 80.304 230.85 80.4L232.018 82.224H232.034L233.218 80.4C233.293 80.304 233.378 80.256 233.474 80.256H235.538C235.613 80.256 235.656 80.272 235.666 80.304C235.688 80.336 235.688 80.3733 235.666 80.416L233.25 83.984L235.858 87.84C235.88 87.8827 235.88 87.92 235.858 87.952C235.848 87.984 235.805 88 235.73 88H233.65ZM237.309 90.88C237.202 90.88 237.149 90.8267 237.149 90.72V80.416C237.149 80.3093 237.202 80.256 237.309 80.256H239.229C239.335 80.256 239.389 80.3093 239.389 80.416V80.976H239.405C239.586 80.7093 239.842 80.496 240.173 80.336C240.503 80.1653 240.925 80.08 241.437 80.08C242.087 80.08 242.637 80.2347 243.085 80.544C243.533 80.8533 243.858 81.3173 244.061 81.936C244.157 82.2453 244.226 82.56 244.269 82.88C244.311 83.2 244.333 83.616 244.333 84.128C244.333 84.6293 244.311 85.0453 244.269 85.376C244.226 85.696 244.157 86.0107 244.061 86.32C243.858 86.928 243.533 87.392 243.085 87.712C242.637 88.0213 242.087 88.176 241.437 88.176C240.925 88.176 240.503 88.096 240.173 87.936C239.842 87.7653 239.586 87.5467 239.405 87.28H239.389V90.72C239.389 90.8267 239.335 90.88 239.229 90.88H237.309ZM240.717 86.288C241.335 86.288 241.735 86.0107 241.917 85.456C241.97 85.3067 242.007 85.136 242.029 84.944C242.05 84.7413 242.061 84.4693 242.061 84.128C242.061 83.7867 242.05 83.52 242.029 83.328C242.007 83.1253 241.97 82.9493 241.917 82.8C241.746 82.2453 241.346 81.968 240.717 81.968C240.098 81.968 239.703 82.2453 239.533 82.8C239.479 82.9493 239.442 83.1253 239.421 83.328C239.399 83.52 239.389 83.7867 239.389 84.128C239.389 84.4693 239.399 84.7413 239.421 84.944C239.442 85.136 239.479 85.3067 239.533 85.456C239.714 86.0107 240.109 86.288 240.717 86.288ZM249.273 88.176C248.388 88.176 247.652 87.984 247.065 87.6C246.478 87.216 246.073 86.672 245.849 85.968C245.764 85.7227 245.694 85.456 245.641 85.168C245.598 84.88 245.577 84.5333 245.577 84.128C245.577 83.7227 245.598 83.376 245.641 83.088C245.684 82.7893 245.748 82.5173 245.833 82.272C246.057 81.568 246.457 81.0293 247.033 80.656C247.62 80.272 248.329 80.08 249.161 80.08C250.025 80.08 250.74 80.272 251.305 80.656C251.881 81.04 252.281 81.5733 252.505 82.256C252.548 82.384 252.585 82.5227 252.617 82.672C252.649 82.8107 252.676 82.9707 252.697 83.152C252.718 83.3333 252.734 83.5467 252.745 83.792C252.756 84.0267 252.761 84.3093 252.761 84.64C252.761 84.7467 252.702 84.8 252.585 84.8H247.897C247.833 84.8 247.801 84.832 247.801 84.896C247.812 85.056 247.844 85.2 247.897 85.328C248.004 85.6693 248.196 85.9253 248.473 86.096C248.75 86.2667 249.092 86.352 249.497 86.352C249.881 86.352 250.217 86.2933 250.505 86.176C250.793 86.048 251.049 85.8773 251.273 85.664C251.369 85.5893 251.444 85.5893 251.497 85.664L252.553 86.656C252.638 86.7307 252.644 86.8053 252.569 86.88C252.196 87.2747 251.732 87.5893 251.177 87.824C250.622 88.0587 249.988 88.176 249.273 88.176ZM250.457 83.312C250.521 83.312 250.553 83.28 250.553 83.216C250.553 83.0987 250.542 82.9973 250.521 82.912C250.51 82.816 250.494 82.7253 250.473 82.64C250.388 82.3733 250.228 82.1653 249.993 82.016C249.769 81.8667 249.497 81.792 249.177 81.792C248.857 81.792 248.58 81.8667 248.345 82.016C248.121 82.1653 247.966 82.3733 247.881 82.64C247.86 82.7253 247.838 82.816 247.817 82.912C247.806 82.9973 247.801 83.0987 247.801 83.216C247.801 83.28 247.833 83.312 247.897 83.312H250.457ZM254.559 88C254.452 88 254.399 87.9467 254.399 87.84V80.416C254.399 80.3093 254.452 80.256 254.559 80.256H256.479C256.585 80.256 256.639 80.3093 256.639 80.416V81.072H256.655C256.836 80.7627 257.097 80.5227 257.439 80.352C257.78 80.1707 258.191 80.08 258.671 80.08C258.927 80.08 259.172 80.1227 259.407 80.208C259.652 80.2827 259.86 80.3947 260.031 80.544C260.105 80.608 260.121 80.6827 260.079 80.768L259.183 82.4C259.129 82.464 259.055 82.4747 258.959 82.432C258.575 82.1867 258.201 82.0693 257.839 82.08C257.423 82.1013 257.119 82.256 256.927 82.544C256.735 82.832 256.639 83.2373 256.639 83.76V87.84C256.639 87.9467 256.585 88 256.479 88H254.559ZM261.371 79.024C261.264 79.024 261.211 78.9707 261.211 78.864V77.28C261.211 77.1733 261.264 77.12 261.371 77.12H263.291C263.398 77.12 263.451 77.1733 263.451 77.28V78.864C263.451 78.9707 263.398 79.024 263.291 79.024H261.371ZM261.371 88C261.264 88 261.211 87.9467 261.211 87.84V80.416C261.211 80.3093 261.264 80.256 261.371 80.256H263.291C263.398 80.256 263.451 80.3093 263.451 80.416V87.84C263.451 87.9467 263.398 88 263.291 88H261.371ZM268.773 88.176C267.888 88.176 267.152 87.984 266.565 87.6C265.978 87.216 265.573 86.672 265.349 85.968C265.264 85.7227 265.194 85.456 265.141 85.168C265.098 84.88 265.077 84.5333 265.077 84.128C265.077 83.7227 265.098 83.376 265.141 83.088C265.184 82.7893 265.248 82.5173 265.333 82.272C265.557 81.568 265.957 81.0293 266.533 80.656C267.12 80.272 267.829 80.08 268.661 80.08C269.525 80.08 270.24 80.272 270.805 80.656C271.381 81.04 271.781 81.5733 272.005 82.256C272.048 82.384 272.085 82.5227 272.117 82.672C272.149 82.8107 272.176 82.9707 272.197 83.152C272.218 83.3333 272.234 83.5467 272.245 83.792C272.256 84.0267 272.261 84.3093 272.261 84.64C272.261 84.7467 272.202 84.8 272.085 84.8H267.397C267.333 84.8 267.301 84.832 267.301 84.896C267.312 85.056 267.344 85.2 267.397 85.328C267.504 85.6693 267.696 85.9253 267.973 86.096C268.25 86.2667 268.592 86.352 268.997 86.352C269.381 86.352 269.717 86.2933 270.005 86.176C270.293 86.048 270.549 85.8773 270.773 85.664C270.869 85.5893 270.944 85.5893 270.997 85.664L272.053 86.656C272.138 86.7307 272.144 86.8053 272.069 86.88C271.696 87.2747 271.232 87.5893 270.677 87.824C270.122 88.0587 269.488 88.176 268.773 88.176ZM269.957 83.312C270.021 83.312 270.053 83.28 270.053 83.216C270.053 83.0987 270.042 82.9973 270.021 82.912C270.01 82.816 269.994 82.7253 269.973 82.64C269.888 82.3733 269.728 82.1653 269.493 82.016C269.269 81.8667 268.997 81.792 268.677 81.792C268.357 81.792 268.08 81.8667 267.845 82.016C267.621 82.1653 267.466 82.3733 267.381 82.64C267.36 82.7253 267.338 82.816 267.317 82.912C267.306 82.9973 267.301 83.0987 267.301 83.216C267.301 83.28 267.333 83.312 267.397 83.312H269.957ZM278.715 88C278.608 88 278.555 87.9467 278.555 87.84V83.392C278.555 82.9653 278.453 82.624 278.251 82.368C278.059 82.112 277.76 81.984 277.355 81.984C276.971 81.984 276.672 82.112 276.459 82.368C276.245 82.624 276.139 82.9653 276.139 83.392V87.84C276.139 87.9467 276.085 88 275.979 88H274.059C273.952 88 273.899 87.9467 273.899 87.84V80.416C273.899 80.3093 273.952 80.256 274.059 80.256H275.979C276.085 80.256 276.139 80.3093 276.139 80.416V80.96H276.155C276.336 80.7147 276.587 80.5067 276.907 80.336C277.237 80.1653 277.653 80.08 278.155 80.08C278.581 80.08 278.96 80.1493 279.291 80.288C279.621 80.4267 279.899 80.624 280.123 80.88C280.347 81.136 280.512 81.44 280.619 81.792C280.736 82.144 280.795 82.5333 280.795 82.96V87.84C280.795 87.9467 280.741 88 280.635 88H278.715ZM285.942 88.176C285.121 88.176 284.417 87.9947 283.83 87.632C283.244 87.2587 282.833 86.7093 282.598 85.984C282.513 85.7493 282.449 85.4827 282.406 85.184C282.374 84.8853 282.358 84.5333 282.358 84.128C282.358 83.7227 282.374 83.3707 282.406 83.072C282.449 82.7733 282.513 82.5067 282.598 82.272C282.833 81.5467 283.244 81.0027 283.83 80.64C284.417 80.2667 285.121 80.08 285.942 80.08C286.614 80.08 287.201 80.2187 287.702 80.496C288.204 80.7627 288.593 81.1093 288.87 81.536C288.924 81.6213 288.913 81.696 288.838 81.76L287.446 82.672C287.35 82.736 287.27 82.7253 287.206 82.64C287.036 82.4053 286.854 82.2347 286.662 82.128C286.481 82.0213 286.252 81.968 285.974 81.968C285.676 81.968 285.42 82.0373 285.206 82.176C285.004 82.3147 284.86 82.5227 284.774 82.8C284.721 82.96 284.684 83.1413 284.662 83.344C284.641 83.5467 284.63 83.808 284.63 84.128C284.63 84.448 284.641 84.7093 284.662 84.912C284.684 85.1147 284.721 85.296 284.774 85.456C284.86 85.7333 285.004 85.9413 285.206 86.08C285.42 86.2187 285.676 86.288 285.974 86.288C286.252 86.288 286.481 86.2347 286.662 86.128C286.854 86.0213 287.036 85.8507 287.206 85.616C287.27 85.5307 287.35 85.52 287.446 85.584L288.838 86.496C288.913 86.56 288.924 86.6347 288.87 86.72C288.593 87.1467 288.204 87.4987 287.702 87.776C287.201 88.0427 286.614 88.176 285.942 88.176ZM293.758 88.176C292.872 88.176 292.136 87.984 291.549 87.6C290.963 87.216 290.558 86.672 290.334 85.968C290.248 85.7227 290.179 85.456 290.126 85.168C290.083 84.88 290.062 84.5333 290.062 84.128C290.062 83.7227 290.083 83.376 290.126 83.088C290.168 82.7893 290.232 82.5173 290.318 82.272C290.542 81.568 290.942 81.0293 291.518 80.656C292.104 80.272 292.814 80.08 293.646 80.08C294.51 80.08 295.224 80.272 295.79 80.656C296.366 81.04 296.766 81.5733 296.99 82.256C297.032 82.384 297.07 82.5227 297.102 82.672C297.134 82.8107 297.16 82.9707 297.182 83.152C297.203 83.3333 297.219 83.5467 297.23 83.792C297.24 84.0267 297.246 84.3093 297.246 84.64C297.246 84.7467 297.187 84.8 297.07 84.8H292.382C292.318 84.8 292.286 84.832 292.286 84.896C292.296 85.056 292.328 85.2 292.382 85.328C292.488 85.6693 292.68 85.9253 292.958 86.096C293.235 86.2667 293.576 86.352 293.982 86.352C294.366 86.352 294.702 86.2933 294.99 86.176C295.278 86.048 295.534 85.8773 295.758 85.664C295.854 85.5893 295.928 85.5893 295.982 85.664L297.038 86.656C297.123 86.7307 297.128 86.8053 297.054 86.88C296.68 87.2747 296.216 87.5893 295.662 87.824C295.107 88.0587 294.472 88.176 293.758 88.176ZM294.942 83.312C295.006 83.312 295.038 83.28 295.038 83.216C295.038 83.0987 295.027 82.9973 295.006 82.912C294.995 82.816 294.979 82.7253 294.958 82.64C294.872 82.3733 294.712 82.1653 294.478 82.016C294.254 81.8667 293.981 81.792 293.661 81.792C293.342 81.792 293.064 81.8667 292.83 82.016C292.606 82.1653 292.451 82.3733 292.366 82.64C292.344 82.7253 292.323 82.816 292.302 82.912C292.291 82.9973 292.286 83.0987 292.286 83.216C292.286 83.28 292.318 83.312 292.382 83.312H294.942Z" fill="black"/>
</g>
<defs>
<filter id="filter0_d_742_14826" x="0.508789" y="0.875" width="300.736" height="98.181" filterUnits="userSpaceOnUse" color-interpolation-filters="sRGB">
<feFlood flood-opacity="0" result="BackgroundImageFix"/>
<feColorMatrix in="SourceAlpha" type="matrix" values="0 0 0 0 0 0 0 0 0 0 0 0 0 0 0 0 0 0 127 0" result="hardAlpha"/>
<feOffset dy="4"/>
<feGaussianBlur stdDeviation="2"/>
<feComposite in2="hardAlpha" operator="out"/>
<feColorMatrix type="matrix" values="0 0 0 0 0 0 0 0 0 0 0 0 0 0 0 0 0 0 0.25 0"/>
<feBlend mode="normal" in2="BackgroundImageFix" result="effect1_dropShadow_742_14826"/>
<feBlend mode="normal" in="SourceGraphic" in2="effect1_dropShadow_742_14826" result="shape"/>
</filter>
</defs>
</svg>
