<svg
  xmlns="http://www.w3.org/2000/svg"
  viewBox="0 0 29 20"
  fill="#fff"
>
  <rect stroke="#000" width="28" height="19" x=".5" y=".5" rx="1" />
  <path fill="#C00" d="M9.92 16.24A6.4 6.4 0 013.5 9.87 6.4 6.4 0 019.92 3.5a6.4 6.4 0 016.43 6.37 6.4 6.4 0 01-6.43 6.37z" />
  <path fill="#F90" d="M13.59 5.82h1.3c.17.22.33.44.48.68H13.1c-.14.22-.26.44-.37.67h3.01c.1.22.2.45.28.68h-3.56c-.08.22-.14.44-.2.67h3.94a6.37 6.37 0 01-.18 3.38h-3.56c.07.23.16.45.27.67h3.01a6.3 6.3 0 01-.37.68H13.1c.15.23.31.46.49.67h1.3c-.2.24-.42.47-.65.68a6.43 6.43 0 0010.73-4.73 6.43 6.43 0 00-11.39-4.05z" />
  <path fill="#FFF" d="M6.9 11.55h-.69l.4-2.48-.9 2.48h-.47l-.06-2.47-.42 2.47h-.65l.55-3.23h1l.03 2 .67-2h1.09l-.54 3.23zm1.72-1.17l-.15-.01c-.4 0-.6.13-.6.4 0 .16.1.27.25.27.29 0 .5-.27.5-.66zm-.07 1.17l.02-.27a.88.88 0 01-.73.32c-.38 0-.64-.3-.64-.72 0-.64.45-1.02 1.22-1.02l.29.02a.65.65 0 00.02-.17c0-.17-.12-.24-.44-.24-.25 0-.5.04-.74.12l.1-.59c.34-.1.57-.14.83-.14.6 0 .92.27.92.77 0 .4-.25 1.72-.27 1.92h-.58zm9.93-3.15l-.11.7a1.33 1.33 0 00-.62-.17c-.52 0-.89.5-.89 1.21 0 .5.25.79.65.79.17 0 .36-.05.6-.17l-.13.74c-.25.07-.42.1-.61.1-.75 0-1.22-.54-1.22-1.4 0-1.16.64-1.96 1.57-1.96.2 0 .46.05.77.16zm1.13 1.98l-.16-.01c-.4 0-.6.13-.6.4 0 .16.1.27.26.27.28 0 .49-.27.5-.66zm-.07 1.17l.01-.27a.88.88 0 01-.73.32c-.38 0-.64-.3-.64-.72 0-.64.46-1.02 1.23-1.02l.28.02a.64.64 0 00.03-.17c0-.17-.12-.24-.45-.24-.25 0-.5.04-.73.12l.1-.59c.34-.1.57-.14.83-.14.6 0 .91.27.91.77 0 .33-.24 1.65-.26 1.92h-.58zm-7.81.05c-.36 0-.55-.2-.55-.58-.03-.2.4-2.5.4-2.5h.69l-.08.4h.36l-.1.63h-.36c-.08.5-.2 1.13-.2 1.2 0 .14.08.2.24.2.08 0 .14 0 .2-.02l-.1.58c-.19.06-.34.09-.5.09zm1.91 0c-.77 0-1.18-.4-1.18-1.18 0-.9.52-1.56 1.22-1.56.57 0 .93.37.93.95 0 .2-.02.38-.08.65h-1.38c-.05.38.2.54.6.54.25 0 .47-.05.72-.17l-.11.66c-.23.07-.47.1-.71.1zm.33-1.67c0-.05.07-.47-.33-.47-.22 0-.38.17-.44.47h.77zm-4.42-.18c0 .33.16.56.53.74.28.13.33.17.33.29 0 .16-.13.23-.4.23-.22 0-.43-.03-.63-.1l-.1.6c.16.04.3.07.73.09.74 0 1.08-.28 1.08-.88 0-.36-.14-.58-.5-.74-.29-.13-.32-.16-.32-.28 0-.14.12-.22.34-.22.14 0 .33.02.5.04l.1-.6c-.2-.04-.4-.05-.61-.06-.78 0-1.05.4-1.05.9zm13.6 1.8l.03-.25c-.19.2-.39.3-.64.3-.5 0-.84-.44-.84-1.1 0-.87.52-1.6 1.13-1.6.27 0 .48.1.67.35l.15-.93h.69l-.53 3.23h-.66zm-.37-.6c.32 0 .55-.37.55-.9 0-.33-.13-.5-.37-.5-.31 0-.54.36-.54.87 0 .35.12.52.36.52zm-2.04-2.03c-.08.81-.24 1.64-.36 2.45l-.03.18h.7c.25-1.6.3-1.92.7-1.88.06-.33.18-.62.26-.76-.29-.06-.45.1-.67.4.02-.12.05-.26.05-.39h-.64zm-5.73 0c-.08.6-.21 1.47-.4 2.63h.7c.25-1.6.3-1.92.7-1.88.06-.33.18-.62.26-.76-.29-.06-.45.1-.67.4.02-.12.05-.26.04-.39h-.63z" />
</svg>