<svg width="53" height="36" viewBox="0 0 53 36" fill="none" xmlns="http://www.w3.org/2000/svg">
<rect x="1" y="0.5" width="51.5" height="35" rx="5.5" fill="white" stroke="#D9D9D9"/>
<path fill-rule="evenodd" clip-rule="evenodd" d="M27.125 25.7354C25.3376 27.2778 23.0191 28.209 20.4857 28.209C14.8327 28.209 10.25 23.5731 10.25 17.8545C10.25 12.1359 14.8327 7.5 20.4857 7.5C23.0191 7.5 25.3376 8.43113 27.125 9.97354C28.9124 8.43113 31.2309 7.5 33.7643 7.5C39.4173 7.5 44 12.1359 44 17.8545C44 23.5731 39.4173 28.209 33.7643 28.209C31.2309 28.209 28.9124 27.2778 27.125 25.7354Z" fill="#ED0006"/>
<path fill-rule="evenodd" clip-rule="evenodd" d="M27.125 25.7354C29.3258 23.8362 30.7213 21.0102 30.7213 17.8545C30.7213 14.6988 29.3258 11.8727 27.125 9.97354C28.9124 8.43113 31.2309 7.5 33.7643 7.5C39.4173 7.5 44 12.1359 44 17.8545C44 23.5731 39.4173 28.209 33.7643 28.209C31.2309 28.209 28.9124 27.2778 27.125 25.7354Z" fill="#F9A000"/>
<path fill-rule="evenodd" clip-rule="evenodd" d="M27.1256 9.97363C29.3263 11.8728 30.7218 14.6988 30.7218 17.8545C30.7218 21.0102 29.3263 23.8362 27.1256 25.7354C24.9248 23.8362 23.5293 21.0102 23.5293 17.8545C23.5293 14.6988 24.9248 11.8728 27.1256 9.97363Z" fill="#FF5E00"/>
</svg>
