<svg width="105" height="48" viewBox="0 0 105 48" fill="none" xmlns="http://www.w3.org/2000/svg">
<g clip-path="url(#clip0_369_6638)">
<path d="M67.6608 40.9867C66.886 40.4428 66.1418 40.1709 65.4242 40.1709C64.7066 40.1709 63.9318 40.9829 63.0998 42.6069C62.3822 43.9743 62.0234 44.928 62.0234 45.4604C62.0234 45.9239 62.2792 46.4218 62.7868 46.958C63.4586 47.6551 64.3593 48.0036 65.4929 48.0036C66.4395 48.0036 67.2753 47.2951 67.9891 45.8817C68.5425 44.6522 68.8211 43.5147 68.8211 42.469C68.8211 42.0285 68.4357 41.5344 67.6608 40.9906V40.9867Z" fill="#282828"/>
<path d="M103.718 22.2418C103.531 22.2418 102.081 22.7972 99.3669 23.9118C96.6532 25.0263 94.6455 25.5817 93.3478 25.5817C92.1226 25.5817 90.9776 25.0838 89.9127 24.0841C88.8478 23.0883 88.3173 22.0426 88.3173 20.951C88.3173 20.0931 88.9051 19.3845 90.0845 18.8291C91.031 18.3427 91.8669 18.0975 92.5806 18.0975C93.1341 18.0975 93.5921 18.4576 93.9509 19.1776C94.3096 19.8977 94.6608 20.2577 95.0081 20.2577C95.657 20.2577 96.4089 19.9207 97.2638 19.2466C98.4432 18.3427 99.031 17.1132 99.031 15.5581C99.031 12.8885 97.6074 11.5555 94.7638 11.5555C92.3593 11.5555 89.9203 13.0072 87.447 15.9066C84.9509 18.8521 83.699 21.9162 83.699 25.0953C83.699 26.095 83.8364 27.0449 84.115 27.9488C82.1722 28.5769 79.6188 28.8872 76.4509 28.8872C76.4432 28.8872 76.4394 28.8872 76.4318 28.8872C76.428 28.8872 76.4203 28.8872 76.4165 28.8872C75.1913 28.8872 74.3364 28.6191 73.8516 28.0867C73.4814 27.6232 73.4814 26.6235 73.8516 25.0915C74.1532 24.0458 73.9432 23.5249 73.2257 23.5249C72.947 23.5249 72.3364 23.9539 71.386 24.8118C70.2524 25.8575 69.3974 26.5163 68.8211 26.7959C65.9318 28.1901 63.4203 28.8833 61.2944 28.8833C61.2867 28.8833 61.2829 28.8833 61.2753 28.8833C61.2715 28.8833 61.2638 28.8833 61.26 28.8833C60.2677 28.8833 59.6074 28.6382 59.2829 28.1518C59.0501 27.8262 58.8783 27.0372 58.7638 25.7847C58.0692 18.1511 57.5081 11.9424 57.0806 7.16231C56.6532 2.38223 56.0577 -0.0078125 55.2944 -0.0078125C54.7409 -0.0078125 54.0806 0.811849 53.3173 2.44734C52.5539 4.08284 52.218 5.59576 52.3096 6.98995C53.1188 16.2475 53.8364 23.8007 54.4585 29.6494C54.6455 32.1314 54.989 33.6979 55.5005 34.349C56.1264 35.1151 57.4547 35.4981 59.489 35.4981C59.4967 35.4981 59.5005 35.4981 59.5081 35.4981C59.5158 35.4981 59.5196 35.4981 59.5234 35.4981C63.5005 35.4981 66.8402 34.3375 69.5463 32.0164C69.9165 34.3375 71.615 35.4981 74.6455 35.4981C74.6532 35.4981 74.657 35.4981 74.6646 35.4981C74.6722 35.4981 74.6761 35.4981 74.6799 35.4981C78.3783 35.4981 83.6035 34.5712 90.3554 32.7135C97.0387 30.9517 101.165 29.4081 102.737 28.0828C104.241 26.8074 104.993 25.4247 104.993 23.9386C104.993 22.801 104.565 22.2341 103.71 22.2341L103.718 22.2418Z" fill="#282828"/>
<path d="M48.5693 18.8638C46.8136 18.8638 44.8708 20.0243 42.7411 22.3454C40.5197 24.7584 39.4128 27.183 39.4128 29.619C39.4128 30.6646 40.0617 31.446 41.3556 31.9669C42.6495 32.4878 43.2983 32.844 43.2983 33.0278C43.2983 33.8858 41.554 34.9774 38.0617 36.2988C36.2105 37.0189 34.9052 37.5743 34.1418 37.9688C33.0082 38.5242 32.4434 39.0259 32.4434 39.4664C32.4434 39.9298 33.1037 40.1635 34.4205 40.1635C38.9739 40.1635 42.3861 39.1676 44.6533 37.1721C47.1266 34.9889 48.3632 32.7521 48.3632 30.4539C48.3632 29.1785 48.0502 28.2592 47.4281 27.7039C47.1953 27.4472 46.6304 27.183 45.7296 26.9033C45.1037 26.7195 44.7945 26.4054 44.7945 25.965C44.7945 25.5015 45.3479 24.9806 46.4586 24.3984C47.7296 23.7932 48.5044 23.2264 48.7831 22.694C49.222 22.0428 49.4434 21.2653 49.4434 20.3614C49.4434 19.3617 49.1533 18.8638 48.5769 18.8638H48.5693Z" fill="#282828"/>
<path d="M19.2173 6.64914C20.3966 7.1126 21.4386 7.3922 22.3394 7.48413C25.2287 7.71777 27.3814 7.21601 28.7898 5.98652C29.786 5.17452 30.2821 3.79182 30.2821 1.84225C30.2821 0.612755 29.9119 -0.00390625 29.1715 -0.00390625C28.7783 -0.00390625 28.3279 0.145471 27.8203 0.448057C25.5302 1.76947 23.0913 2.7117 20.4997 3.26708C19.6447 3.47774 18.7669 3.67308 17.8623 3.85693C17.2363 4.04461 16.973 4.42763 17.0646 5.00599C17.1104 5.46944 17.8279 6.01333 19.2134 6.64148L19.2173 6.64914Z" fill="#282828"/>
<path d="M24.6603 12.7046C21.145 12.7046 17.145 13.3442 12.6603 14.6197C9.28244 15.6194 6.27863 16.9982 3.64122 18.7601C1.21374 20.3152 0 21.5677 0 22.5214C0 23.0538 0.290076 23.3219 0.866412 23.3219C1.32824 23.3219 2.53053 22.9159 4.47328 22.1039C6.99237 21.108 9.17939 20.342 11.0305 19.8058C14.1069 19.0168 17.2061 18.5763 20.3244 18.4844C22.5458 18.4154 24.5802 18.741 26.4275 19.4572C28.5076 20.3152 29.5267 21.4872 29.4809 22.9733C29.4809 24.1109 28.5114 25.2025 26.5687 26.2443C24.8588 27.1483 23.2977 27.6002 21.8855 27.6002C20.8893 27.6002 20.416 27.3091 20.4618 26.7308C20.5076 26.0566 21.0534 24.8923 22.0916 23.2338C23.1336 21.5753 23.6527 20.6293 23.6527 20.3956C23.6527 20.162 23.4198 20.0471 22.958 20.0471C21.7557 20.0471 20.2634 21.6596 18.4847 24.8846C16.8206 28.0177 16.0573 30.1741 16.1947 31.3576C16.5649 34.0273 18.0344 35.3602 20.5992 35.3602C23.584 35.3602 26.4962 33.8626 29.3397 30.8712C32.5076 27.5543 34.0916 23.6551 34.0916 19.1776C34.1374 14.861 30.9924 12.7046 24.6565 12.7046H24.6603Z" fill="#282828"/>
</g>
<defs>
<clipPath id="clip0_369_6638">
<rect width="105" height="48" fill="white"/>
</clipPath>
</defs>
</svg>
