<svg width="96" height="37" viewBox="0 0 96 37" fill="none" xmlns="http://www.w3.org/2000/svg">
<path d="M26.2424 31.0987C23.2268 30.8261 20.5282 29.2311 19.5955 25.9775C17.5761 29.0266 14.8549 30.9397 10.3632 31.0987C3.10512 30.8261 -0.000976562 25.7502 -0.000976562 21.0379C-0.000976562 20.3336 0.0895802 19.5792 0.270694 18.8522C0.904591 16.2802 3.37679 10.9998 10.4991 10.9998C16.2358 10.9998 20.9312 14.4579 20.9312 20.6062C20.9312 24.1098 20.6143 29.531 26.2378 30.0763V31.0987H26.2424ZM11.0922 30.0263C14.9047 30.0263 18.2598 27.3862 18.2598 21.3515C18.2598 15.3168 14.4247 11.9268 10.3678 11.9268C5.85351 11.9268 2.74742 14.8169 2.74742 20.329C2.74742 26.2001 6.3063 30.0263 11.0922 30.0263ZM10.1142 6.05574C10.1142 7.19179 9.23128 8.05973 8.11743 8.05973C7.00359 8.05973 6.12066 7.19633 6.12066 6.05574C6.12066 4.91515 7.04886 4.05176 8.11743 4.05176C9.186 4.05176 10.1142 4.93787 10.1142 6.05574ZM14.9907 6.05574C14.9907 7.19179 14.0625 8.05973 12.9939 8.05973C11.9253 8.05973 10.9971 7.19633 10.9971 6.05574C10.9971 4.91515 11.8801 4.05176 12.9939 4.05176C14.1078 4.05176 14.9907 4.93787 14.9907 6.05574Z" fill="#231F20"/>
<path d="M26.2428 30.0763C27.171 30.0536 28.0811 29.7355 28.9188 29.2129C31.3457 27.686 31.5268 24.7505 31.5268 22.0649V13.4128C31.5268 12.5266 31.391 11.4769 30.096 11.4769C29.3036 11.4769 29.2583 11.4542 29.2583 11.2497C29.2583 11.1588 29.3036 11.1134 29.3942 11.068C31.391 11.068 33.3877 11.0225 35.3347 11.0225C35.629 11.0225 35.7648 11.0907 35.7648 11.2497C35.7648 11.7042 33.9492 10.9998 33.9492 12.9356V18.4205C33.9492 24.3597 34.1756 30.4625 26.2383 31.0987V30.0763H26.2428ZM26.8993 9.47296C27.2616 8.72317 27.9634 8.17332 28.7603 7.92339C27.3748 7.6053 26.5824 6.32838 26.5824 4.9424C26.5824 3.21107 28.0585 1.87053 29.7564 1.87053H33.5462C35.0223 1.87053 37.2907 2.0523 38.2416 0.43457C37.9246 0.91171 37.4718 2.30223 36.0637 2.66577C34.8864 2.98386 31.0514 2.75665 28.8056 2.84753C27.8094 2.84753 27.3748 4.03357 27.3748 4.73791C27.3748 6.06027 28.0766 7.37809 29.4168 7.65074H38.5132V8.05971H29.8696C28.7603 8.05971 27.8049 8.78678 26.8993 9.47296Z" fill="#231F20"/>
<path d="M50.3762 31.0987C42.8464 30.4853 42.6653 24.9505 42.6653 19.3066V3.09747C42.6653 1.88872 42.6879 1.16165 42.2578 0.775394C42.0314 0.593626 40.8496 0.525464 40.8496 0.275533C40.8496 0.116487 40.9628 0.0710449 41.2571 0.0710449H46.9033C47.1297 0.0710449 47.3335 0.0710449 47.3335 0.275533C47.3335 0.366417 47.2203 0.480022 47.1071 0.480022C45.5178 0.480022 45.1329 0.911719 45.1329 1.96143C45.1329 7.44626 45.0877 17.8979 45.0877 22.0831C45.0877 25.4049 45.5404 29.7537 50.3716 30.0945V31.0942L50.3762 31.0987Z" fill="#231F20"/>
<path d="M60.6493 29.2084C61.4869 29.7537 62.4197 30.0491 63.3479 30.0718V31.0943C59.8116 30.8216 57.9054 29.4311 56.8368 27.4771C55.8181 29.4356 53.9119 30.8216 50.3711 31.0943V30.0718C54.9533 29.8446 55.5872 25.2459 55.6324 21.9922V13.4355C55.6324 12.3177 55.4966 11.477 54.2243 11.477C53.7489 11.477 53.3866 11.4088 53.3866 11.2498C53.3866 11.068 53.5904 11.0226 53.8168 11.0226H59.8977C60.2372 11.0226 60.3278 11.1362 60.3278 11.2498C60.3278 11.477 59.5807 11.477 59.4902 11.477C58.1952 11.477 58.082 12.3858 58.082 13.1629C58.082 13.3219 58.082 13.481 58.0367 22.065C58.0367 24.8415 58.2178 27.6861 60.6448 29.213L60.6493 29.2084ZM58.8381 34.925C58.8381 36.061 57.9552 36.929 56.8414 36.929C55.7275 36.929 54.8446 36.0656 54.8446 34.925C54.8446 33.7844 55.7275 32.921 56.8414 32.921C57.9552 32.921 58.8381 33.8071 58.8381 34.925Z" fill="#231F20"/>
<path d="M73.2413 14.9578C77.9141 14.9578 82.6321 15.1623 87.916 14.7988C90.7505 14.5943 93.766 13.9126 95.31 11.2498C94.6535 12.5494 93.1774 16.1211 89.5959 17.03C84.8779 18.2342 79.3222 17.4162 74.5137 17.4162C70.5654 17.4162 66.9839 17.6207 66.9839 22.5375C66.9839 25.9502 68.8674 29.322 72.2678 30.0718H95.9937V31.0942H63.3525V30.0718H68.9535C66.5039 28.7721 64.8241 26.2456 64.8241 22.9919C64.8241 18.575 68.5686 14.9578 73.2368 14.9578H73.2413Z" fill="#231F20"/>
</svg>
