<svg width="203" height="56" viewBox="0 0 203 56" fill="none" xmlns="http://www.w3.org/2000/svg">
<g clip-path="url(#clip0_369_5174)">
<path d="M113.587 5.47212C113.193 3.2858 112.877 2.23516 112.64 2.32625C112.142 2.55096 111.699 3.02466 111.304 3.74736C110.879 4.54293 110.672 5.44175 110.672 6.43774C110.672 7.85277 110.927 9.78401 111.444 12.2315C111.954 14.6789 112.215 16.264 112.215 16.9867C112.215 17.843 112.142 18.426 111.99 18.7236C111.48 19.75 110.041 20.7581 107.672 21.748C104.581 23.0294 100.895 23.6671 96.6132 23.6671C93.5706 23.6671 90.8559 23.0234 88.4753 21.7237C86.3193 20.5516 85.2444 19.3856 85.2444 18.2256C85.2444 16.7681 87.1453 15.432 90.9409 14.2295C93.7163 13.3428 96.6557 12.7173 99.7591 12.359C102.067 12.1039 103.373 11.946 103.67 11.8853C104.18 11.7821 104.441 11.5999 104.441 11.3448C104.441 10.8043 101.696 10.531 96.2124 10.531C92.5017 10.531 89.3376 11.442 86.7141 13.27C83.8779 15.2134 82.4629 17.758 82.4629 20.8917C82.4629 22.7622 83.5986 24.4141 85.876 25.8473C88.4085 27.4446 91.6454 28.2462 95.5747 28.2462C100.773 28.2462 105.085 27.2199 108.51 25.1732C112.628 22.7015 114.687 19.0576 114.687 14.2538C114.687 12.3226 114.322 9.40141 113.6 5.47819L113.587 5.47212Z" fill="#444144"/>
<path d="M142.282 12.2432C141.45 11.6298 140.546 11.3262 139.568 11.3262C137.819 11.3262 136.495 13.142 135.59 16.7737C135.286 16.8952 134.558 17.047 133.398 17.2292C132.189 17.4236 131.308 17.5268 130.75 17.5268C130.744 17.5268 130.731 17.5268 130.725 17.5268V17.4964C130.489 16.8466 130.088 16.1604 129.529 15.4377C128.746 14.4417 127.986 13.9437 127.246 13.9437C126.158 13.9437 125.223 14.6482 124.44 16.0571C123.79 17.2596 123.468 18.4013 123.468 19.5006C123.468 21.1646 124.33 21.9966 126.049 21.9966H126.796C127.306 21.9359 127.567 22.0998 127.567 22.4946C127.567 22.6889 127.464 22.8893 127.252 23.0837C126.013 24.1525 122.721 25.3064 117.371 26.5453C114.158 27.2863 112.555 28.0454 112.555 28.8288C112.555 29.6123 114.522 29.9827 118.458 29.9827C121.713 29.9827 124.415 29.1932 126.565 27.6203C128.569 26.1506 129.796 24.2011 130.276 21.784C132.657 21.7112 134.995 21.2739 137.272 20.4662C139.398 19.7131 140.904 18.9297 141.797 18.1159C142.957 17.0895 143.54 15.7352 143.54 14.0469C143.54 13.4578 143.127 12.8566 142.295 12.2493L142.282 12.2432Z" fill="#444144"/>
<path d="M160.965 23.8126C162.774 22.7741 163.776 21.438 163.971 19.8105C164.074 18.772 163.898 18.2497 163.43 18.2497C163.339 18.2497 163.029 18.4805 162.501 18.9359C161.882 19.5007 161.226 19.9258 160.533 20.2113C159.477 20.685 158.25 20.9158 156.847 20.9158C156.847 20.9158 156.841 20.9158 156.835 20.9158C156.835 20.9158 156.829 20.9158 156.823 20.9158C156.161 20.9158 155.724 20.7579 155.511 20.4421C155.359 20.2174 155.244 19.7072 155.171 18.9238C154.715 13.9439 154.351 9.89917 154.059 6.80189C153.768 3.70461 153.391 2.1499 152.906 2.1499C152.529 2.1499 152.098 2.68433 151.618 3.74105C151.138 4.80384 150.92 5.78161 150.962 6.66828C151.472 12.6867 151.934 17.5999 152.341 21.4138C152.474 22.9988 152.717 24.007 153.064 24.4442C153.452 24.9422 154.308 25.1912 155.62 25.1912C155.632 25.1912 155.645 25.1912 155.651 25.1912C155.651 25.1912 155.657 25.1912 155.663 25.1912C157.576 25.1912 159.343 24.7297 160.952 23.8126H160.965Z" fill="#444144"/>
<path d="M165.166 31.228C164.923 31.228 164.637 31.3191 164.303 31.5013C162.828 32.3637 161.237 32.9771 159.53 33.3536C158.959 33.4751 158.382 33.5844 157.811 33.6937C157.404 33.8273 157.228 34.0885 157.289 34.465C157.35 34.799 157.811 35.1512 158.668 35.5278C159.451 35.8618 160.137 36.0501 160.726 36.0926C162.609 36.2444 164.018 35.9286 164.953 35.1452C165.603 34.6047 165.925 33.6998 165.925 32.4305C165.925 31.6289 165.67 31.2341 165.154 31.2341L165.166 31.228Z" fill="#444144"/>
<path d="M180.872 29.7156C180.35 29.3695 179.876 29.1934 179.439 29.1934C178.971 29.1934 178.461 29.7035 177.902 30.7299C177.423 31.6347 177.18 32.2603 177.18 32.6064C177.18 32.9101 177.356 33.232 177.702 33.5781C178.157 34.0458 178.753 34.2765 179.487 34.2765C180.107 34.2765 180.641 33.8089 181.091 32.8737C181.467 32.072 181.656 31.3372 181.656 30.657C181.656 30.3715 181.394 30.0557 180.872 29.7096V29.7156Z" fill="#444144"/>
<path d="M202.164 16.5733C202.042 16.5733 201.095 16.9377 199.316 17.6604C197.536 18.3831 196.243 18.7475 195.429 18.7475C194.615 18.7475 193.886 18.4317 193.188 17.794C192.495 17.1563 192.149 16.4822 192.149 15.7777C192.149 15.2251 192.532 14.7514 193.303 14.3627C193.904 14.0651 194.439 13.9133 194.907 13.9133C195.283 13.9133 195.587 14.144 195.824 14.6056C196.054 15.0672 196.273 15.2979 196.467 15.2979C196.923 15.2979 197.427 15.0854 197.986 14.6663C198.757 14.0651 199.139 13.2574 199.139 12.2492C199.139 10.5184 198.204 9.64996 196.334 9.64996C194.749 9.64996 193.157 10.5852 191.56 12.4618C189.914 14.3809 189.095 16.3789 189.095 18.4681C189.095 19.1179 189.192 19.7313 189.386 20.3022C188.135 20.7273 186.471 20.9338 184.388 20.9338C183.574 20.9338 183.015 20.7577 182.718 20.4115C182.463 20.1078 182.457 19.4641 182.694 18.4742C182.876 17.7636 182.736 17.4053 182.287 17.4053C182.104 17.4053 181.698 17.6907 181.066 18.2616C180.343 18.9418 179.797 19.373 179.438 19.5491C177.537 20.454 175.898 20.9034 174.507 20.9034C174.452 20.9034 174.404 20.9095 174.355 20.9155C173.772 20.8973 173.371 20.7455 173.177 20.4479C173.025 20.2232 172.91 19.7131 172.837 18.9296C172.381 13.9497 172.017 9.90503 171.726 6.80775C171.434 3.71047 171.057 2.15576 170.572 2.15576C170.195 2.15576 169.764 2.69019 169.284 3.74691C168.804 4.8097 168.586 5.78747 168.628 6.67414C169.138 12.6926 169.6 17.6057 170.007 21.4196C170.14 23.0047 170.383 24.0128 170.73 24.4501C171.118 24.9481 171.975 25.1971 173.286 25.1971C173.292 25.1971 173.305 25.1971 173.311 25.1971C173.317 25.1971 173.323 25.1971 173.329 25.1971C175.922 25.1971 178.102 24.444 179.863 22.9379C180.119 24.444 181.23 25.1971 183.185 25.1971C183.185 25.1971 183.198 25.1971 183.204 25.1971C183.204 25.1971 183.204 25.1971 183.21 25.1971C185.639 25.1971 189.058 24.6019 193.479 23.4116C197.822 22.2516 200.506 21.2313 201.532 20.3568C202.51 19.5309 203.002 18.6442 203.002 17.709C203.002 16.9559 202.723 16.5794 202.164 16.5794V16.5733Z" fill="#444144"/>
<path d="M103.559 47.3761H100.62L99.4783 50.5827H100.59V50.8621H98.3184V50.5827H99.0168L102.8 40.3921H104.015L107.756 50.5827H108.436V50.8621H103.584V50.5827H104.634L103.553 47.3761H103.559ZM100.754 47.0482H103.438L102.15 43.1614L100.754 47.0482Z" fill="#E3A745"/>
<path d="M113.277 40.4771C115.889 40.4771 117.401 41.0722 117.401 42.9124C117.401 44.3335 116.508 45.0926 114.953 45.3477V45.378C116.824 45.6149 117.923 46.4044 117.923 47.9591C117.923 50.2608 115.992 50.8681 113.204 50.8681H108.844V50.5888H109.809V40.7686H108.844V40.4892H113.277V40.4771ZM112.7 45.3295H113.089C114.158 45.3295 114.467 44.6493 114.467 43.4286V42.7302C114.467 41.3091 114.212 40.7564 113.18 40.7564H112.706V45.3234L112.7 45.3295ZM112.7 50.5766H113.399C114.54 50.5766 114.868 49.7142 114.868 48.3478V47.5644C114.868 46.3497 114.48 45.6027 113.046 45.6027H112.706V50.5705L112.7 50.5766Z" fill="#E3A745"/>
<path d="M123.188 47.3761H120.249L119.107 50.5827H120.219V50.8621H117.947V50.5827H118.646L122.429 40.3921H123.644L127.385 50.5827H128.065V50.8621H123.213V50.5827H124.263L123.182 47.3761H123.188ZM120.389 47.0482H123.073L121.785 43.1614L120.389 47.0482Z" fill="#E3A745"/>
<path d="M134.526 40.7139H133.026V40.4771H135.947V40.7139H134.97L132.729 45.6695V50.5827H133.634V50.862H128.933V50.5827H129.838V45.955L127.318 40.72H126.619V40.4831H131.368V40.72H130.403L132.419 45.3659L134.526 40.72V40.7139Z" fill="#E3A745"/>
<path d="M139.737 47.3761H136.798L135.656 50.5827H136.767V50.8621H134.496V50.5827H135.194L138.978 40.3921H140.193L143.934 50.5827H144.614V50.8621H139.761V50.5827H140.812L139.731 47.3761H139.737ZM136.931 47.0482H139.616L138.328 43.1614L136.931 47.0482Z" fill="#E3A745"/>
<path d="M159.467 40.4773V40.7566H158.654V50.5768H159.467V50.8562H154.943V50.5768H155.757V41.3032H155.696L153.467 50.8562H151.615L149.003 41.2546H148.943V50.5707H149.756V50.8501H147.74V50.5707H148.554V40.7506H147.74V40.4712H151.748L153.722 48.1111L155.502 40.4712H159.461L159.467 40.4773Z" fill="#E3A745"/>
<path d="M165.165 47.3761H162.226L161.084 50.5827H162.195V50.8621H159.924V50.5827H160.622L164.406 40.3921H165.62L169.361 50.5827H170.042V50.8621H165.189V50.5827H166.24L165.159 47.3761H165.165ZM162.365 47.0482H165.05L163.762 43.1614L162.365 47.0482Z" fill="#E3A745"/>
<path d="M175.794 40.4771V40.805H174.221V50.5402H174.755C176.595 50.5402 177.409 49.2041 178.284 47.3943H178.593L178.314 50.8681H170.449V50.5402H171.324V40.805H170.449V40.4771H175.787H175.794Z" fill="#E3A745"/>
<path d="M184.635 40.4771V40.805H183.062V50.5402H183.597C185.437 50.5402 186.251 49.2041 187.125 47.3943H187.435L187.156 50.8681H179.291V50.5402H180.166V40.805H179.291V40.4771H184.629H184.635Z" fill="#E3A745"/>
<path d="M16.459 13.2148C17.7951 16.0571 19.2283 19.13 20.6373 21.8569H59.1832C59.5233 19.4641 59.8391 16.1785 60.082 13.2148H16.459Z" fill="#E3A745"/>
<path d="M60.5199 5.08936H13.666C14.1883 6.11571 14.7592 7.29389 15.3604 8.55709H60.2649C60.3681 7.16635 60.4592 5.95173 60.5139 5.08936H60.5199Z" fill="#D0675C"/>
<path d="M26.4801 30.724C30.6949 31.7989 57.3861 27.8089 58.4611 26.0234C58.5643 25.8473 58.6675 25.5254 58.7708 25.0942H21.8828C23.6015 28.1551 25.2169 30.4082 26.4801 30.7301V30.724Z" fill="#9BCCE5"/>
<path d="M69.1501 1.14781C65.3058 1.14781 63.909 5.56295 63.2531 10.8891H13.6116C10.156 4.80382 6.2996 0 1.28322 0C0.639474 0 0.117188 0.522286 0.117188 1.16603C0.117188 1.80978 0.639474 2.33207 1.28322 2.33207C4.86027 2.33207 8.03043 6.06702 10.9151 10.8951H10.484C9.84021 10.8951 9.31793 11.4174 9.31793 12.0612C9.31793 12.7049 9.84021 13.2272 10.484 13.2272H12.2391C13.4233 15.3892 14.559 17.6727 15.6582 19.8833C15.9923 20.5574 16.3202 21.2133 16.6482 21.8692H16.2352C15.5914 21.8692 15.0691 22.3915 15.0691 23.0352C15.0691 23.679 15.5914 24.2013 16.2352 24.2013H17.8324C21.1362 30.5841 24.3002 35.4729 28.43 35.4729C35.5962 35.4729 50.5542 33.5235 58.3642 30.9181C52.6252 35.8677 41.3474 38.0844 32.5171 39.8152C23.9723 41.4914 19.8487 42.4084 19.4296 44.8437C19.3021 45.5907 19.4964 46.2831 20.0005 46.8539C21.3305 48.354 24.7254 48.5969 26.7295 48.5969V50.0119C25.5877 50.4735 24.774 51.5909 24.774 52.8966C24.774 54.6153 26.1708 56.0121 27.8894 56.0121C29.6081 56.0121 31.0049 54.6153 31.0049 52.8966C31.0049 51.5849 30.1972 50.4735 29.0494 50.0119V48.5726H54.7143V50.0119C53.5726 50.4735 52.7588 51.5909 52.7588 52.8966C52.7588 54.6153 54.1556 56.0121 55.8743 56.0121C57.593 56.0121 58.9898 54.6153 58.9898 52.8966C58.9898 51.5849 58.182 50.4735 57.0342 50.0119V48.5726H63.1134C63.7571 48.5726 64.2794 48.0503 64.2794 47.4126C64.2794 46.775 63.7571 46.2527 63.1134 46.2527H55.8743H27.8955C27.8955 46.2527 27.8955 46.2527 27.8894 46.2527C27.8834 46.2527 27.8895 46.2527 27.8834 46.2527H27.8348C24.7436 46.4045 21.956 45.8458 21.7131 45.2871C22.2415 44.2121 28.4421 42.9975 32.9666 42.1048C45.3253 39.6755 62.1964 36.3596 64.2126 25.592C64.2248 25.5313 64.2369 25.4706 64.2491 25.4098C64.2551 25.3734 64.2673 25.3369 64.2734 25.3005C64.2734 25.3005 64.2734 25.2884 64.2734 25.2823C64.3402 24.9422 64.4009 24.59 64.4556 24.2074H65.4698C66.1135 24.2074 66.6358 23.6851 66.6358 23.0413C66.6358 22.3976 66.1135 21.8753 65.4698 21.8753H64.7167C64.826 20.6546 64.9171 19.2881 65.0143 17.7759C65.1054 16.3427 65.2025 14.7819 65.3483 13.2393H66.1621C66.8058 13.2393 67.3281 12.7171 67.3281 12.0733C67.3281 11.4296 66.8058 10.9073 66.1621 10.9073H65.6034C66.1257 6.88689 67.0852 3.49203 69.1561 3.49203C69.7999 3.49203 70.3222 2.96974 70.3222 2.32599C70.3222 1.68225 69.7999 1.15996 69.1561 1.15996L69.1501 1.14781ZM20.4621 24.1831H62.0992C62.0567 24.4746 62.0081 24.7479 61.9534 25.009C61.9352 25.1062 61.9109 25.2033 61.8927 25.3005C61.7105 26.1204 61.4858 26.7398 61.2004 27.0253C58.51 29.7156 38.5659 33.1287 28.436 33.1287C25.776 33.1287 23.1038 29.1205 20.4681 24.1831H20.4621ZM62.6883 17.6059C62.6033 18.9723 62.5061 20.4663 62.3725 21.8571H19.2535C18.7494 20.8611 18.2393 19.8469 17.7413 18.8387C16.8 16.95 15.8586 15.0491 14.887 13.2211H63.0041C62.8765 14.6787 62.7794 16.1666 62.6883 17.612V17.6059Z" fill="#444144"/>
<path d="M76.7422 8.55078V45.0926" stroke="#444144" stroke-width="0.96" stroke-linecap="round" stroke-linejoin="round"/>
</g>
<defs>
<clipPath id="clip0_369_5174">
<rect width="202.884" height="56" fill="white" transform="translate(0.117188)"/>
</clipPath>
</defs>
</svg>
