<svg xmlns="http://www.w3.org/2000/svg" viewBox="0 0 1032 724">
  <path d="M 30 0 C 14 0 0 14 0 30 L 0 694 C 0 710 14 724 30 724 L 1002 724 C 1018 724 1032 710 1032 694 L 1032 30 C 1032 14 1018 0 1002 0 L 30 0 Z M 30 30 L 1002 30 L 1002 150 L 30 150 L 30 30 Z M 30 322 L 1002 322 L 1002 694 L 30 694 L 30 322 Z M 178 430 C 174 430 170 434 170 438 C 172 442 174 446 178 446 L 462 446 C 464 446 468 444 468 442 C 470 440 470 436 468 434 C 468 432 464 430 462 430 L 178 430 C 178 430 178 430 178 430 Z M 178 536 C 174 536 170 540 170 544 C 172 548 174 552 178 552 L 604 552 C 606 552 608 550 610 548 C 612 546 612 542 610 540 C 608 538 606 536 604 536 L 178 536 C 178 536 178 536 178 536 Z" />
</svg>