<svg width="53" height="36" viewBox="0 0 53 36" fill="none" xmlns="http://www.w3.org/2000/svg">
<rect x="1" y="0.5" width="51.5" height="35" rx="5.5" fill="white" stroke="#D9D9D9"/>
<path fill-rule="evenodd" clip-rule="evenodd" d="M15.35 22.8613H13.0166C12.8569 22.8613 12.7211 22.9774 12.6962 23.135L11.7524 29.1186C11.7337 29.2367 11.8251 29.3431 11.9449 29.3431H13.0589C13.2186 29.3431 13.3544 29.227 13.3793 29.0691L13.6338 27.4553C13.6584 27.2972 13.7945 27.1813 13.9539 27.1813H14.6925C16.2296 27.1813 17.1167 26.4375 17.3485 24.9635C17.4529 24.3187 17.3529 23.812 17.0509 23.4571C16.7193 23.0675 16.131 22.8613 15.35 22.8613ZM15.6192 25.0468C15.4916 25.8841 14.8519 25.8841 14.2333 25.8841H13.8812L14.1282 24.3203C14.1429 24.2259 14.2248 24.1562 14.3203 24.1562H14.4817C14.9031 24.1562 15.3006 24.1562 15.506 24.3964C15.6284 24.5398 15.666 24.7526 15.6192 25.0468ZM22.3252 25.0199H21.2078C21.1125 25.0199 21.0303 25.0895 21.0156 25.1841L20.9662 25.4966L20.888 25.3834C20.6461 25.0322 20.1068 24.9149 19.5683 24.9149C18.3334 24.9149 17.2789 25.8501 17.0734 27.1621C16.9667 27.8164 17.1184 28.4421 17.4896 28.8786C17.8302 29.2798 18.3175 29.447 18.8971 29.447C19.892 29.447 20.4439 28.8072 20.4439 28.8072L20.394 29.1178C20.3752 29.2365 20.4666 29.3429 20.5857 29.3429H21.5922C21.7523 29.3429 21.8873 29.2269 21.9126 29.069L22.5166 25.2444C22.5357 25.1268 22.4446 25.0199 22.3252 25.0199ZM20.7675 27.1948C20.6597 27.8331 20.153 28.2617 19.5069 28.2617C19.1824 28.2617 18.923 28.1576 18.7566 27.9604C18.5914 27.7646 18.5286 27.4858 18.5812 27.1753C18.6819 26.5423 19.1971 26.0999 19.8334 26.0999C20.1507 26.0999 20.4087 26.2052 20.5785 26.4042C20.7488 26.6052 20.8163 26.8856 20.7675 27.1948ZM27.1535 25.0198H28.2764C28.4337 25.0198 28.5254 25.1961 28.436 25.3251L24.7013 30.716C24.6409 30.8033 24.5412 30.8552 24.4348 30.8552H23.3133C23.1554 30.8552 23.0632 30.6775 23.1546 30.5481L24.3175 28.9067L23.0807 25.277C23.0379 25.1508 23.1311 25.0198 23.2653 25.0198H24.3687C24.512 25.0198 24.6385 25.1139 24.6799 25.2511L25.3362 27.4433L26.885 25.162C26.9457 25.073 27.0464 25.0198 27.1535 25.0198Z" fill="#253B80"/>
<path fill-rule="evenodd" clip-rule="evenodd" d="M39.3287 29.1179L40.2863 23.0249C40.301 22.9303 40.383 22.8607 40.4782 22.8604H41.5563C41.6753 22.8604 41.7668 22.9671 41.748 23.0852L40.8036 29.0685C40.779 29.2264 40.6432 29.3424 40.4832 29.3424H39.5204C39.4013 29.3424 39.3099 29.236 39.3287 29.1179ZM31.9946 22.8607H29.6608C29.5015 22.8607 29.3657 22.9767 29.3407 23.1343L28.397 29.1179C28.3782 29.236 28.4696 29.3424 28.5888 29.3424H29.7863C29.8976 29.3424 29.9928 29.2613 30.0102 29.1507L30.278 27.4546C30.3026 27.2966 30.4387 27.1807 30.598 27.1807H31.3364C32.8738 27.1807 33.7607 26.4368 33.9926 24.9629C34.0973 24.318 33.9967 23.8114 33.6948 23.4564C33.3634 23.0669 32.7756 22.8607 31.9946 22.8607ZM32.2638 25.0461C32.1366 25.8834 31.4968 25.8834 30.8778 25.8834H30.526L30.7735 24.3196C30.7881 24.2252 30.8693 24.1556 30.9652 24.1556H31.1265C31.5476 24.1556 31.9455 24.1556 32.1508 24.3957C32.2733 24.5391 32.3106 24.7519 32.2638 25.0461ZM38.9692 25.0193H37.8525C37.7565 25.0193 37.6751 25.0889 37.6607 25.1835L37.6113 25.4959L37.5328 25.3827C37.2909 25.0316 36.7519 24.9143 36.2134 24.9143C34.9785 24.9143 33.9243 25.8495 33.7188 27.1614C33.6124 27.8157 33.7635 28.4415 34.1347 28.8779C34.476 29.2791 34.9626 29.4463 35.5422 29.4463C36.5371 29.4463 37.0888 28.8065 37.0888 28.8065L37.0391 29.1171C37.0203 29.2358 37.1117 29.3423 37.2315 29.3423H38.2376C38.397 29.3423 38.5327 29.2262 38.5577 29.0683L39.162 25.2438C39.1804 25.1261 39.089 25.0193 38.9692 25.0193ZM37.4117 27.1941C37.3045 27.8325 36.7972 28.261 36.1509 28.261C35.8271 28.261 35.5672 28.1569 35.4006 27.9597C35.2354 27.7639 35.1734 27.4851 35.2253 27.1747C35.3265 26.5417 35.8411 26.0993 36.4774 26.0993C36.7948 26.0993 37.0526 26.2046 37.2227 26.4035C37.3935 26.6045 37.4611 26.8849 37.4117 27.1941Z" fill="#179BD7"/>
<path d="M23.9855 20.7207L24.2724 18.8986L23.6334 18.8838H20.582L22.7026 5.43802C22.709 5.39742 22.7305 5.35957 22.7618 5.3327C22.793 5.30583 22.8331 5.29102 22.8748 5.29102H28.0198C29.7279 5.29102 30.9066 5.64645 31.5221 6.348C31.8106 6.67711 31.9944 7.02102 32.0833 7.3995C32.1764 7.79664 32.1782 8.2711 32.0871 8.84978L32.0804 8.89202V9.2628L32.3691 9.42627C32.6121 9.55516 32.805 9.70271 32.9531 9.87166C33.2001 10.153 33.3597 10.5107 33.4271 10.9347C33.4967 11.3708 33.4737 11.8896 33.3597 12.4771C33.228 13.1529 33.0152 13.7414 32.7278 14.223C32.4633 14.6668 32.1265 15.0348 31.7267 15.3201C31.345 15.591 30.8913 15.7968 30.3785 15.9284C29.8814 16.0578 29.3149 16.1231 28.6934 16.1231H28.293C28.0067 16.1231 27.7285 16.2262 27.5103 16.4111C27.2915 16.5998 27.1465 16.8575 27.1022 17.1395L27.072 17.3035L26.5652 20.515L26.5421 20.6329C26.5361 20.6703 26.5257 20.689 26.5104 20.7016C26.4966 20.713 26.4769 20.7207 26.4576 20.7207H23.9855Z" fill="#253B80"/>
<path d="M32.6423 8.93457C32.627 9.03275 32.6095 9.13312 32.5897 9.23624C31.9111 12.7199 29.5899 13.9233 26.6251 13.9233H25.1156C24.7531 13.9233 24.4476 14.1866 24.391 14.5442L23.6181 19.4458L23.3993 20.8351C23.3625 21.0699 23.5436 21.2817 23.7805 21.2817H26.4579C26.7749 21.2817 27.0441 21.0513 27.094 20.7387L27.1204 20.6025L27.6246 17.4036L27.6569 17.2282C27.7062 16.9144 27.976 16.6841 28.2931 16.6841H28.6935C31.2874 16.6841 33.3181 15.6309 33.9116 12.5833C34.1595 11.3102 34.0312 10.2472 33.3751 9.49953C33.1766 9.27409 32.9303 9.08705 32.6423 8.93457Z" fill="#179BD7"/>
<path d="M31.9322 8.65174C31.8286 8.62157 31.7215 8.59414 31.6118 8.56946C31.5016 8.54533 31.3885 8.52394 31.2723 8.50529C30.8653 8.43947 30.4194 8.4082 29.9416 8.4082H25.9089C25.8096 8.4082 25.7154 8.43069 25.6309 8.47128C25.4449 8.56068 25.3067 8.73677 25.2733 8.95233L24.4153 14.3859L24.3906 14.5444C24.4472 14.1868 24.7527 13.9235 25.1152 13.9235H26.6247C29.5895 13.9235 31.9109 12.7195 32.5893 9.23646C32.6095 9.13334 32.6266 9.03296 32.6419 8.93478C32.4703 8.84372 32.2843 8.76584 32.0841 8.69946C32.0348 8.683 31.9838 8.6671 31.9322 8.65174Z" fill="#222D65"/>
<path d="M25.2734 8.95251C25.3068 8.73693 25.4451 8.56086 25.631 8.472C25.7161 8.43141 25.8099 8.40892 25.909 8.40892H29.9418C30.4196 8.40892 30.8655 8.44019 31.2724 8.50601C31.3888 8.52466 31.5018 8.54605 31.612 8.57018C31.7218 8.59487 31.8287 8.6223 31.9324 8.65246C31.9839 8.66782 32.0349 8.68372 32.0848 8.69964C32.285 8.766 32.471 8.84444 32.6426 8.93495C32.8446 7.64758 32.6411 6.77106 31.9451 5.97735C31.1777 5.10358 29.7926 4.72949 28.0204 4.72949H22.8752C22.5132 4.72949 22.2045 4.99277 22.1485 5.35095L20.0055 18.9349C19.9632 19.2037 20.1705 19.4462 20.4414 19.4462H23.618L24.4155 14.3861L25.2734 8.95251Z" fill="#253B80"/>
</svg>
