<svg xmlns="http://www.w3.org/2000/svg" viewBox="0 0 1032 724">
  <path d="M 30 0 C 14 0 0 14 0 30 L 0 694 C 0 710 14 724 30 724 L 1002 724 C 1018 724 1032 710 1032 694 L 1032 30 C 1032 14 1018 0 1002 0 L 30 0 Z M 30 30 L 1002 30 L 1002 694 L 30 694 L 30 30 Z M 438 182 C 430 182 424 186 422 194 L 362 468 C 360 472 362 478 366 482 C 368 486 372 488 378 488 L 432 488 C 440 488 448 482 448 474 L 468 386 L 530 386 C 562 386 590 376 612 358 C 634 340 648 316 656 286 C 662 256 658 230 642 212 C 626 192 602 182 574 182 L 438 182 Z M 500 244 L 542 244 C 552 244 562 248 568 256 C 574 264 576 274 572 286 C 572 286 572 286 572 286 C 566 308 544 328 522 328 L 480 328 L 500 244 Z M 674 254 C 674 266 674 278 672 290 C 664 322 646 350 622 372 C 596 392 566 402 530 402 L 480 402 L 464 478 C 462 494 448 504 432 504 L 410 504 L 406 522 C 406 528 406 532 410 536 C 412 540 418 542 422 542 L 478 542 C 484 542 492 536 494 530 L 512 440 L 576 440 C 606 440 634 432 656 414 C 678 396 694 370 700 340 C 706 310 702 286 686 266 C 682 262 678 258 674 254 Z" />
</svg>