<svg width="233" height="81" viewBox="0 0 233 81" fill="none" xmlns="http://www.w3.org/2000/svg">
<g filter="url(#filter0_d_2001_14815)">
<path d="M50.9688 18.2344V28.4062C50.9688 33.9844 51.0625 38.5312 51.3438 40.9219C51.5312 42.6094 51.6719 43.6875 53.5 43.9688C54.2969 44.1094 55.6562 44.25 56.1719 44.25C56.5469 44.25 56.6875 44.5312 56.6875 44.7188C56.6875 45 56.3594 45.1875 55.6562 45.1875C52.4219 45.1875 48.625 45 48.25 45C48.0156 45 44.125 45.1875 42.3438 45.1875C41.6875 45.1875 41.4062 45.0469 41.4062 44.7188C41.4062 44.5312 41.5469 44.25 41.875 44.25C42.4375 44.25 43.0938 44.1094 43.6562 43.9688C44.875 43.6875 45.0625 42.5625 45.2969 40.875C45.5312 38.4844 45.5312 34.125 45.5312 28.5469V22.7812C45.5312 22.5 45.3906 22.4531 45.2031 22.4531H20.2656C20.0781 22.4531 19.9375 22.5 19.9375 22.7812V28.5469C19.9375 34.125 19.9375 38.5312 20.2188 40.9219C20.4062 42.6094 20.5938 43.6875 22.375 43.9688C23.2656 44.1094 24.5312 44.25 25.0938 44.25C25.4219 44.25 25.5625 44.5312 25.5625 44.7188C25.5625 45 25.2812 45.1875 24.625 45.1875C21.2969 45.1875 17.5 45 17.2188 45C16.8438 45 13.0469 45.1875 11.2188 45.1875C10.6094 45.1875 10.2812 45.0469 10.2812 44.7188C10.2812 44.5312 10.4219 44.25 10.75 44.25C11.3125 44.25 12.0625 44.1094 12.5781 43.9688C13.75 43.6875 13.8906 42.6094 14.125 40.9219C14.5 38.5312 14.5 33.9844 14.5 28.4062V18.2344C14.5 9.23438 14.5 7.64062 14.3594 5.76562C14.2188 3.79688 13.8906 2.85938 11.9219 2.57812C11.4062 2.53125 10.4219 2.4375 9.85938 2.4375C9.67188 2.4375 9.39062 2.20312 9.39062 1.96875C9.39062 1.64062 9.67188 1.5 10.3281 1.5C13.0469 1.5 16.8438 1.64062 17.2188 1.64062C17.5 1.64062 21.2969 1.5 23.125 1.5C23.7812 1.5 24.0625 1.64062 24.0625 1.96875C24.0625 2.20312 23.7812 2.4375 23.5938 2.4375C23.1719 2.4375 22.7969 2.4375 22.0938 2.57812C20.4531 2.90625 20.125 3.75 19.9844 5.76562C19.9375 7.64062 19.9375 9.375 19.9375 18.375V19.5938C19.9375 19.9219 20.0781 19.9219 20.2656 19.9219H45.2031C45.3906 19.9219 45.5312 19.9219 45.5312 19.5938V18.375C45.5312 9.375 45.4844 7.64062 45.3906 5.76562C45.2969 3.79688 45.0156 2.85938 43.0469 2.57812C42.5781 2.53125 41.5469 2.4375 40.9844 2.4375C40.7031 2.4375 40.5156 2.20312 40.5156 1.96875C40.5156 1.64062 40.7969 1.5 41.4531 1.5C44.125 1.5 48.0156 1.64062 48.25 1.64062C48.625 1.64062 52.4219 1.5 54.2031 1.5C54.8594 1.5 55.1875 1.64062 55.1875 1.96875C55.1875 2.20312 54.9062 2.4375 54.6719 2.4375C54.25 2.4375 53.9219 2.4375 53.1719 2.57812C51.5781 2.90625 51.25 3.75 51.1094 5.76562C50.9688 7.64062 50.9688 9.23438 50.9688 18.2344ZM73 28.4062V18.2344C73 9.23438 73 7.64062 72.8594 5.76562C72.7188 3.79688 72.3906 2.85938 70.4219 2.57812C69.9062 2.53125 68.9219 2.4375 68.3594 2.4375C68.1719 2.4375 67.8906 2.20312 67.8906 1.96875C67.8906 1.64062 68.1719 1.5 68.8281 1.5C71.5469 1.5 75.4375 1.64062 75.7656 1.64062C76.1875 1.64062 88.7031 1.6875 90.0625 1.64062C91.1875 1.54688 92.3125 1.35938 92.7812 1.3125C93.0156 1.21875 93.2969 1.03125 93.5781 1.03125C93.7656 1.03125 93.8594 1.3125 93.8594 1.54688C93.8594 1.96875 93.5312 2.67188 93.3906 4.26562C93.2969 4.82812 93.1562 7.40625 93.0156 8.10938C92.9688 8.34375 92.7812 8.71875 92.5 8.71875C92.1719 8.71875 92.0312 8.4375 92.0312 7.96875C92.0312 7.54688 91.9375 6.60938 91.6562 5.90625C91.2812 4.96875 90.6719 4.54688 87.3906 4.17188C86.3594 4.03125 79.4219 3.9375 78.7656 3.9375C78.4844 3.9375 78.4375 4.17188 78.4375 4.54688V20.25C78.4375 20.6719 78.4375 20.8594 78.7656 20.8594C79.5156 20.8594 87.3906 20.8594 88.75 20.7188C90.2031 20.5781 91.0469 20.5312 91.6562 19.9219C92.0781 19.5 92.3594 19.1719 92.5469 19.1719C92.7812 19.1719 92.9219 19.3125 92.9219 19.6406C92.9219 19.9688 92.5469 20.9531 92.4062 22.8281C92.3125 24 92.1719 26.1562 92.1719 26.5781C92.1719 27.0469 92.0312 27.6562 91.6094 27.6562C91.3281 27.6562 91.1875 27.4688 91.1875 27.1406C91.1875 26.5781 91.1875 25.9688 90.9531 25.2188C90.7188 24.4219 90.2031 23.7188 87.8594 23.4375C86.2188 23.25 79.8438 23.2031 78.8125 23.2031C78.4844 23.2031 78.4375 23.3906 78.4375 23.5781V28.4062C78.4375 30.375 78.3438 37.125 78.4375 38.25C78.5781 42.1406 79.6562 42.8906 85.5625 42.8906C87.1094 42.8906 89.9688 42.8906 91.5625 42.2812C93.1094 41.625 93.9062 40.5938 94.2812 38.25C94.375 37.5938 94.5156 37.4062 94.8906 37.4062C95.2188 37.4062 95.2656 37.875 95.2656 38.25C95.2656 38.6719 94.7969 42.6094 94.4688 43.8281C94.0469 45.3281 93.4375 45.3281 91.1406 45.3281C86.6406 45.3281 83.1719 45.1875 80.7344 45.1406C78.2031 45 76.6562 45 75.7656 45C75.625 45 74.5 45 73.1875 45.0469C72.0156 45.1406 70.6562 45.1875 69.7188 45.1875C69.1094 45.1875 68.7812 45.0469 68.7812 44.7188C68.7812 44.5312 68.9219 44.25 69.25 44.25C69.8125 44.25 70.5625 44.0625 71.0781 43.9688C72.25 43.7812 72.3906 42.6094 72.625 40.9219C73 38.5312 73 33.9844 73 28.4062ZM116.125 18.2344V28.5469C116.125 37.0312 116.266 40.5 117.344 41.5312C118.281 42.4688 120.578 42.8906 125.266 42.8906C128.406 42.8906 131.078 42.8438 132.484 41.1094C133.234 40.2656 133.703 39 133.938 37.875C133.984 37.4531 134.172 37.125 134.547 37.125C134.781 37.125 134.922 37.4062 134.922 38.0156C134.922 38.625 134.547 42.0938 134.078 43.7812C133.656 45.1406 133.422 45.3281 130.234 45.3281C125.969 45.3281 122.641 45.2812 119.828 45.1406C117.109 45.0469 115.094 45 113.312 45C113.031 45 112.047 45 110.875 45.0469C109.656 45.1406 108.344 45.1875 107.406 45.1875C106.797 45.1875 106.469 45.0469 106.469 44.7188C106.469 44.5312 106.609 44.25 106.938 44.25C107.5 44.25 108.25 44.1094 108.766 43.9688C109.938 43.6875 110.078 42.6094 110.312 40.9219C110.688 38.5312 110.688 33.9844 110.688 28.4062V18.2344C110.688 9.23438 110.688 7.64062 110.547 5.76562C110.406 3.79688 110.078 2.85938 108.109 2.57812C107.594 2.53125 106.609 2.4375 106.047 2.4375C105.859 2.4375 105.578 2.20312 105.578 1.96875C105.578 1.64062 105.859 1.5 106.516 1.5C109.234 1.5 112.984 1.64062 113.312 1.64062C113.594 1.64062 118.094 1.5 119.922 1.5C120.531 1.5 120.859 1.64062 120.859 1.96875C120.859 2.20312 120.578 2.39062 120.391 2.39062C119.969 2.39062 119.125 2.4375 118.422 2.53125C116.641 2.85938 116.312 3.75 116.172 5.76562C116.125 7.64062 116.125 9.23438 116.125 18.2344ZM152.969 18.2344V28.5469C152.969 37.0312 153.109 40.5 154.188 41.5312C155.125 42.4688 157.422 42.8906 162.109 42.8906C165.25 42.8906 167.922 42.8438 169.328 41.1094C170.078 40.2656 170.547 39 170.781 37.875C170.828 37.4531 171.016 37.125 171.391 37.125C171.625 37.125 171.766 37.4062 171.766 38.0156C171.766 38.625 171.391 42.0938 170.922 43.7812C170.5 45.1406 170.266 45.3281 167.078 45.3281C162.812 45.3281 159.484 45.2812 156.672 45.1406C153.953 45.0469 151.938 45 150.156 45C149.875 45 148.891 45 147.719 45.0469C146.5 45.1406 145.188 45.1875 144.25 45.1875C143.641 45.1875 143.312 45.0469 143.312 44.7188C143.312 44.5312 143.453 44.25 143.781 44.25C144.344 44.25 145.094 44.1094 145.609 43.9688C146.781 43.6875 146.922 42.6094 147.156 40.9219C147.531 38.5312 147.531 33.9844 147.531 28.4062V18.2344C147.531 9.23438 147.531 7.64062 147.391 5.76562C147.25 3.79688 146.922 2.85938 144.953 2.57812C144.438 2.53125 143.453 2.4375 142.891 2.4375C142.703 2.4375 142.422 2.20312 142.422 1.96875C142.422 1.64062 142.703 1.5 143.359 1.5C146.078 1.5 149.828 1.64062 150.156 1.64062C150.438 1.64062 154.938 1.5 156.766 1.5C157.375 1.5 157.703 1.64062 157.703 1.96875C157.703 2.20312 157.422 2.39062 157.234 2.39062C156.812 2.39062 155.969 2.4375 155.266 2.53125C153.484 2.85938 153.156 3.75 153.016 5.76562C152.969 7.64062 152.969 9.23438 152.969 18.2344ZM177.578 23.25C177.578 13.9219 184.75 0.703125 201.297 0.703125C214.75 0.703125 224.922 8.90625 224.922 22.3594C224.922 35.2969 215.359 45.9375 200.969 45.9375C184.562 45.9375 177.578 33.6562 177.578 23.25ZM183.766 21.7031C183.766 35.1562 191.828 43.5938 202.656 43.5938C208 43.5938 218.828 40.7344 218.828 24C218.828 10.125 210.391 2.85938 200.969 2.85938C190.938 2.85938 183.766 9.09375 183.766 21.7031ZM8.6375 62.168V61.48C8.6375 61.3733 8.69083 61.32 8.7975 61.32H9.8215C9.92817 61.32 9.9815 61.3733 9.9815 61.48V66.904C9.9815 67.224 10.0402 67.448 10.1575 67.576C10.2855 67.6933 10.4828 67.752 10.7495 67.752H11.4535C11.8802 67.752 12.0935 67.9653 12.0935 68.392C12.0935 68.6587 12.0402 68.8293 11.9335 68.904C11.8375 68.968 11.6775 69 11.4535 69H10.5095C9.98683 69 9.57617 68.904 9.2775 68.712C8.9895 68.5093 8.7975 68.1787 8.7015 67.72C8.48817 67.912 8.23217 68.056 7.9335 68.152C7.63483 68.248 7.3095 68.296 6.9575 68.296C6.5415 68.296 6.15217 68.2373 5.7895 68.12C5.4375 68.0027 5.12817 67.8267 4.8615 67.592C4.6055 67.3467 4.40283 67.0427 4.2535 66.68C4.10417 66.3067 4.0295 65.8693 4.0295 65.368C4.0295 64.7707 4.11483 64.2693 4.2855 63.864C4.45617 63.4587 4.68017 63.1333 4.9575 62.888C5.23483 62.632 5.55483 62.4507 5.9175 62.344C6.29083 62.2267 6.67483 62.168 7.0695 62.168H8.6375ZM6.9735 67.048C7.5815 67.048 8.00817 66.872 8.2535 66.52C8.5095 66.1573 8.6375 65.656 8.6375 65.016V63.416H7.0695C6.56817 63.416 6.1575 63.56 5.8375 63.848C5.52817 64.1253 5.3735 64.632 5.3735 65.368C5.3735 65.9227 5.51217 66.344 5.7895 66.632C6.06683 66.9093 6.4615 67.048 6.9735 67.048ZM7.5335 60.232C7.42683 60.232 7.3735 60.1787 7.3735 60.072V58.904C7.3735 58.7973 7.42683 58.744 7.5335 58.744H8.6215C8.72817 58.744 8.7815 58.7973 8.7815 58.904V60.072C8.7815 60.1787 8.72817 60.232 8.6215 60.232H7.5335ZM5.5815 60.232C5.47483 60.232 5.4215 60.1787 5.4215 60.072V58.904C5.4215 58.7973 5.47483 58.744 5.5815 58.744H6.6695C6.77617 58.744 6.8295 58.7973 6.8295 58.904V60.072C6.8295 60.1787 6.77617 60.232 6.6695 60.232H5.5815ZM11.5651 69C11.3518 69 11.1918 68.9627 11.0851 68.888C10.9785 68.8133 10.9251 68.664 10.9251 68.44C10.9251 68.1733 10.9785 67.992 11.0851 67.896C11.1811 67.8 11.3411 67.752 11.5651 67.752H12.6531C12.9198 67.752 13.1118 67.6933 13.2291 67.576C13.3571 67.448 13.4211 67.224 13.4211 66.904V62.616C13.4211 62.5093 13.4745 62.456 13.5811 62.456H14.6051C14.7118 62.456 14.7651 62.5093 14.7651 62.616V66.664C14.7651 67.0267 14.8931 67.2987 15.1491 67.48C15.4158 67.6613 15.7678 67.752 16.2051 67.752H16.3971C16.6105 67.752 16.7705 67.8 16.8771 67.896C16.9838 67.9813 17.0371 68.1307 17.0371 68.344C17.0371 68.6213 16.9838 68.8027 16.8771 68.888C16.7811 68.9627 16.6211 69 16.3971 69H16.0451C15.7038 69 15.4051 68.9307 15.1491 68.792C14.8931 68.6533 14.6958 68.4453 14.5571 68.168C14.2905 68.7227 13.7358 69 12.8931 69H11.5651ZM14.3331 71.976C14.2265 71.976 14.1731 71.9227 14.1731 71.816V70.648C14.1731 70.5413 14.2265 70.488 14.3331 70.488H15.4211C15.5278 70.488 15.5811 70.5413 15.5811 70.648V71.816C15.5811 71.9227 15.5278 71.976 15.4211 71.976H14.3331ZM12.3811 71.976C12.2745 71.976 12.2211 71.9227 12.2211 71.816V70.648C12.2211 70.5413 12.2745 70.488 12.3811 70.488H13.4691C13.5758 70.488 13.6291 70.5413 13.6291 70.648V71.816C13.6291 71.9227 13.5758 71.976 13.4691 71.976H12.3811ZM17.7346 60.264C17.6493 60.1573 17.58 60.0293 17.5266 59.88C17.4733 59.7307 17.4466 59.56 17.4466 59.368C17.4466 59.208 17.4733 59.0427 17.5266 58.872C17.58 58.6907 17.676 58.5253 17.8146 58.376C17.9533 58.2267 18.1293 58.104 18.3426 58.008C18.5666 57.9013 18.8493 57.848 19.1906 57.848C19.4893 57.848 19.7666 57.9067 20.0226 58.024C20.2786 58.1307 20.4653 58.2747 20.5826 58.456C20.6253 58.52 20.62 58.5787 20.5666 58.632L20.1506 58.984C20.1186 59.0053 20.076 58.9893 20.0226 58.936C19.916 58.84 19.7933 58.76 19.6546 58.696C19.516 58.6213 19.3453 58.584 19.1426 58.584C18.8333 58.584 18.6093 58.6693 18.4706 58.84C18.332 59.0107 18.2626 59.1973 18.2626 59.4C18.2626 59.6347 18.3213 59.8213 18.4386 59.96C18.556 60.0987 18.6733 60.2 18.7906 60.264H20.5986C20.6626 60.264 20.6946 60.3013 20.6946 60.376V60.888C20.6946 60.9627 20.6626 61 20.5986 61H17.1906C17.1266 61 17.0946 60.9627 17.0946 60.888V60.376C17.0946 60.3013 17.1266 60.264 17.1906 60.264H17.7346ZM16.5026 69C16.2893 69 16.1293 68.9627 16.0226 68.888C15.916 68.8133 15.8626 68.664 15.8626 68.44C15.8626 68.1733 15.916 67.992 16.0226 67.896C16.1186 67.8 16.2786 67.752 16.5026 67.752H17.5106C17.7773 67.752 17.9693 67.6933 18.0866 67.576C18.2146 67.448 18.2786 67.224 18.2786 66.904V62.616C18.2786 62.5093 18.332 62.456 18.4386 62.456H19.4626C19.5693 62.456 19.6226 62.5093 19.6226 62.616V66.984C19.6226 67.6773 19.4786 68.1893 19.1906 68.52C18.9026 68.84 18.4226 69 17.7506 69H16.5026ZM22.0106 58.28C22.0106 58.1733 22.064 58.12 22.1706 58.12H23.1946C23.3013 58.12 23.3546 58.1733 23.3546 58.28V66.904C23.3546 67.224 23.4133 67.448 23.5306 67.576C23.6586 67.6933 23.856 67.752 24.1226 67.752H24.8266C25.2533 67.752 25.4666 67.9653 25.4666 68.392C25.4666 68.6587 25.4133 68.8293 25.3066 68.904C25.2106 68.968 25.0506 69 24.8266 69H23.8826C23.2106 69 22.7306 68.84 22.4426 68.52C22.1546 68.1893 22.0106 67.6773 22.0106 66.984V58.28ZM24.9401 69C24.7268 69 24.5668 68.9627 24.4601 68.888C24.3535 68.8133 24.3001 68.664 24.3001 68.44C24.3001 68.1733 24.3535 67.992 24.4601 67.896C24.5561 67.8 24.7161 67.752 24.9401 67.752H25.9481C26.2148 67.752 26.4068 67.6933 26.5241 67.576C26.6521 67.448 26.7161 67.224 26.7161 66.904V62.616C26.7161 62.5093 26.7695 62.456 26.8761 62.456H27.9001C28.0068 62.456 28.0601 62.5093 28.0601 62.616V66.664C28.0601 67.0267 28.1881 67.2987 28.4441 67.48C28.7108 67.6613 29.0628 67.752 29.5001 67.752H29.6921C29.9055 67.752 30.0655 67.8 30.1721 67.896C30.2788 67.9813 30.3321 68.1307 30.3321 68.344C30.3321 68.6213 30.2788 68.8027 30.1721 68.888C30.0761 68.9627 29.9161 69 29.6921 69H29.3401C28.9988 69 28.7001 68.9307 28.4441 68.792C28.1881 68.6533 27.9908 68.4453 27.8521 68.168C27.5855 68.7227 27.0308 69 26.1881 69H24.9401ZM26.8441 60.872C26.7375 60.872 26.6841 60.8187 26.6841 60.712V59.544C26.6841 59.4373 26.7375 59.384 26.8441 59.384H27.9321C28.0388 59.384 28.0921 59.4373 28.0921 59.544V60.712C28.0921 60.8187 28.0388 60.872 27.9321 60.872H26.8441ZM29.6745 69C29.4612 69 29.3012 68.9627 29.1945 68.888C29.0878 68.8133 29.0345 68.664 29.0345 68.44C29.0345 68.1733 29.0878 67.992 29.1945 67.896C29.2905 67.8 29.4505 67.752 29.6745 67.752H30.7625C31.0292 67.752 31.2212 67.6933 31.3385 67.576C31.4665 67.448 31.5305 67.224 31.5305 66.904V62.616C31.5305 62.5093 31.5838 62.456 31.6905 62.456H32.7145C32.8212 62.456 32.8745 62.5093 32.8745 62.616V66.664C32.8745 67.0267 33.0025 67.2987 33.2585 67.48C33.5252 67.6613 33.8772 67.752 34.3145 67.752H34.5065C34.7198 67.752 34.8798 67.8 34.9865 67.896C35.0932 67.9813 35.1465 68.1307 35.1465 68.344C35.1465 68.6213 35.0932 68.8027 34.9865 68.888C34.8905 68.9627 34.7305 69 34.5065 69H34.1545C33.8132 69 33.5145 68.9307 33.2585 68.792C33.0025 68.6533 32.8052 68.4453 32.6665 68.168C32.3998 68.7227 31.8452 69 31.0025 69H29.6745ZM32.6185 60.872C32.5118 60.872 32.4585 60.8187 32.4585 60.712V59.544C32.4585 59.4373 32.5118 59.384 32.6185 59.384H33.7065C33.8132 59.384 33.8665 59.4373 33.8665 59.544V60.712C33.8665 60.8187 33.8132 60.872 33.7065 60.872H32.6185ZM30.6665 60.872C30.5598 60.872 30.5065 60.8187 30.5065 60.712V59.544C30.5065 59.4373 30.5598 59.384 30.6665 59.384H31.7545C31.8612 59.384 31.9145 59.4373 31.9145 59.544V60.712C31.9145 60.8187 31.8612 60.872 31.7545 60.872H30.6665ZM31.6585 59C31.5518 59 31.4985 58.9467 31.4985 58.84V57.672C31.4985 57.5653 31.5518 57.512 31.6585 57.512H32.7465C32.8532 57.512 32.9065 57.5653 32.9065 57.672V58.84C32.9065 58.9467 32.8532 59 32.7465 59H31.6585ZM34.612 69C34.3987 69 34.2387 68.9627 34.132 68.888C34.0253 68.8133 33.972 68.664 33.972 68.44C33.972 68.1733 34.0253 67.992 34.132 67.896C34.228 67.8 34.388 67.752 34.612 67.752H35.7C35.9667 67.752 36.1587 67.6933 36.276 67.576C36.404 67.448 36.468 67.224 36.468 66.904V62.616C36.468 62.5093 36.5213 62.456 36.628 62.456H37.652C37.7587 62.456 37.812 62.5093 37.812 62.616V66.664C37.812 67.0267 37.94 67.2987 38.196 67.48C38.4627 67.6613 38.8147 67.752 39.252 67.752H39.444C39.6573 67.752 39.8173 67.8 39.924 67.896C40.0307 67.9813 40.084 68.1307 40.084 68.344C40.084 68.6213 40.0307 68.8027 39.924 68.888C39.828 68.9627 39.668 69 39.444 69H39.092C38.7507 69 38.452 68.9307 38.196 68.792C37.94 68.6533 37.7427 68.4453 37.604 68.168C37.3373 68.7227 36.7827 69 35.94 69H34.612ZM37.54 60.872C37.4333 60.872 37.38 60.8187 37.38 60.712V59.544C37.38 59.4373 37.4333 59.384 37.54 59.384H38.628C38.7347 59.384 38.788 59.4373 38.788 59.544V60.712C38.788 60.8187 38.7347 60.872 38.628 60.872H37.54ZM35.588 60.872C35.4813 60.872 35.428 60.8187 35.428 60.712V59.544C35.428 59.4373 35.4813 59.384 35.588 59.384H36.676C36.7827 59.384 36.836 59.4373 36.836 59.544V60.712C36.836 60.8187 36.7827 60.872 36.676 60.872H35.588ZM44.3175 69C43.9762 69 43.6775 68.9307 43.4215 68.792C43.1655 68.6533 42.9682 68.4453 42.8295 68.168C42.5628 68.7227 42.0082 69 41.1655 69H39.4375C39.2242 69 39.0642 68.9627 38.9575 68.888C38.8508 68.8133 38.7975 68.664 38.7975 68.44C38.7975 68.1733 38.8508 67.992 38.9575 67.896C39.0535 67.8 39.2135 67.752 39.4375 67.752H40.9255C41.1922 67.752 41.3842 67.6933 41.5015 67.576C41.6295 67.448 41.6935 67.224 41.6935 66.904V63.992C41.6935 63.8853 41.7468 63.832 41.8535 63.832H42.8775C42.9842 63.832 43.0375 63.8853 43.0375 63.992V66.664C43.0375 67.0267 43.1655 67.2987 43.4215 67.48C43.6775 67.6613 44.0188 67.752 44.4455 67.752H44.8455C45.1122 67.752 45.3042 67.6933 45.4215 67.576C45.5495 67.448 45.6135 67.224 45.6135 66.904V63.992C45.6135 63.8853 45.6668 63.832 45.7735 63.832H46.7975C46.9042 63.832 46.9575 63.8853 46.9575 63.992V66.664C46.9575 67.0267 47.0855 67.2987 47.3415 67.48C47.5975 67.6613 47.9388 67.752 48.3655 67.752H48.7655C49.0322 67.752 49.2242 67.6933 49.3415 67.576C49.4695 67.448 49.5335 67.224 49.5335 66.904V62.616C49.5335 62.5093 49.5868 62.456 49.6935 62.456H50.7175C50.8242 62.456 50.8775 62.5093 50.8775 62.616V66.984C50.8775 67.6773 50.7335 68.1893 50.4455 68.52C50.1575 68.84 49.6775 69 49.0055 69H48.2375C47.8962 69 47.5975 68.9307 47.3415 68.792C47.0855 68.6533 46.8882 68.4453 46.7495 68.168C46.4828 68.7227 45.9282 69 45.0855 69H44.3175ZM54.3859 68.84C54.3859 68.9467 54.3325 69 54.2259 69H53.2019C53.0952 69 53.0419 68.9467 53.0419 68.84V58.28C53.0419 58.1733 53.0952 58.12 53.2019 58.12H54.2259C54.3325 58.12 54.3859 58.1733 54.3859 58.28V68.84ZM64.5438 62.168V61.48C64.5438 61.3733 64.5971 61.32 64.7038 61.32H65.7278C65.8344 61.32 65.8878 61.3733 65.8878 61.48V66.904C65.8878 67.224 65.9464 67.448 66.0638 67.576C66.1918 67.6933 66.3891 67.752 66.6558 67.752H67.3598C67.7864 67.752 67.9998 67.9653 67.9998 68.392C67.9998 68.6587 67.9464 68.8293 67.8398 68.904C67.7438 68.968 67.5838 69 67.3598 69H66.4158C65.8931 69 65.4824 68.904 65.1838 68.712C64.8958 68.5093 64.7038 68.1787 64.6078 67.72C64.3944 67.912 64.1384 68.056 63.8398 68.152C63.5411 68.248 63.2158 68.296 62.8638 68.296C62.4478 68.296 62.0584 68.2373 61.6957 68.12C61.3438 68.0027 61.0344 67.8267 60.7678 67.592C60.5118 67.3467 60.3091 67.0427 60.1598 66.68C60.0104 66.3067 59.9358 65.8693 59.9358 65.368C59.9358 64.7707 60.0211 64.2693 60.1918 63.864C60.3624 63.4587 60.5864 63.1333 60.8638 62.888C61.1411 62.632 61.4611 62.4507 61.8238 62.344C62.1971 62.2267 62.5811 62.168 62.9758 62.168H64.5438ZM62.8798 67.048C63.4878 67.048 63.9144 66.872 64.1598 66.52C64.4158 66.1573 64.5438 65.656 64.5438 65.016V63.416H62.9758C62.4744 63.416 62.0638 63.56 61.7438 63.848C61.4344 64.1253 61.2798 64.632 61.2798 65.368C61.2798 65.9227 61.4184 66.344 61.6957 66.632C61.9731 66.9093 62.3678 67.048 62.8798 67.048ZM63.4398 60.232C63.3331 60.232 63.2798 60.1787 63.2798 60.072V58.904C63.2798 58.7973 63.3331 58.744 63.4398 58.744H64.5278C64.6344 58.744 64.6878 58.7973 64.6878 58.904V60.072C64.6878 60.1787 64.6344 60.232 64.5278 60.232H63.4398ZM61.4878 60.232C61.3811 60.232 61.3278 60.1787 61.3278 60.072V58.904C61.3278 58.7973 61.3811 58.744 61.4878 58.744H62.5758C62.6824 58.744 62.7358 58.7973 62.7358 58.904V60.072C62.7358 60.1787 62.6824 60.232 62.5758 60.232H61.4878ZM67.3594 69C67.146 69 66.986 68.9627 66.8794 68.888C66.7727 68.8133 66.7194 68.664 66.7194 68.44C66.7194 68.1733 66.7727 67.992 66.8794 67.896C66.9754 67.8 67.1354 67.752 67.3594 67.752H68.3674C68.634 67.752 68.826 67.6933 68.9434 67.576C69.0714 67.448 69.1354 67.224 69.1354 66.904V62.616C69.1354 62.5093 69.1887 62.456 69.2954 62.456H70.3194C70.426 62.456 70.4794 62.5093 70.4794 62.616V66.984C70.4794 67.6773 70.3354 68.1893 70.0474 68.52C69.7594 68.84 69.2794 69 68.6074 69H67.3594ZM68.8954 71.928C68.7887 71.928 68.7354 71.8747 68.7354 71.768V70.6C68.7354 70.4933 68.7887 70.44 68.8954 70.44H69.9834C70.09 70.44 70.1434 70.4933 70.1434 70.6V71.768C70.1434 71.8747 70.09 71.928 69.9834 71.928H68.8954ZM71.7538 72.184C71.6471 72.184 71.5938 72.1307 71.5938 72.024V71.096C71.5938 70.9893 71.6471 70.936 71.7538 70.936H72.1217C72.9858 70.936 73.4178 70.4827 73.4178 69.576V62.616C73.4178 62.5093 73.4711 62.456 73.5778 62.456H74.6018C74.7084 62.456 74.7618 62.5093 74.7618 62.616V66.664C74.7618 67.0267 74.8898 67.2987 75.1458 67.48C75.4124 67.6613 75.7644 67.752 76.2018 67.752H76.3778C76.5911 67.752 76.7511 67.8 76.8578 67.896C76.9644 67.9813 77.0178 68.1307 77.0178 68.344C77.0178 68.6213 76.9644 68.8027 76.8578 68.888C76.7618 68.9627 76.6018 69 76.3778 69H76.0418C75.4871 69 75.0604 68.8293 74.7618 68.488V69.544C74.7618 70.408 74.5431 71.064 74.1058 71.512C73.6684 71.96 73.0284 72.184 72.1858 72.184H71.7538ZM80.119 63.416C79.7563 63.416 79.4203 63.4907 79.111 63.64C78.8123 63.7893 78.5457 63.992 78.311 64.248C78.247 64.3227 78.1723 64.328 78.087 64.264L77.383 63.688C77.287 63.6133 77.271 63.5387 77.335 63.464C77.6337 63.0907 78.0017 62.7813 78.439 62.536C78.887 62.2907 79.431 62.168 80.071 62.168C80.807 62.168 81.4097 62.2853 81.879 62.52C82.3483 62.744 82.7163 63.0427 82.983 63.416C83.2603 63.7893 83.4523 64.2213 83.559 64.712C83.6657 65.2027 83.719 65.7093 83.719 66.232C83.719 66.328 83.7137 66.4187 83.703 66.504C83.703 66.5893 83.703 66.6747 83.703 66.76C83.7243 67.0907 83.863 67.3413 84.119 67.512C84.3857 67.672 84.727 67.752 85.143 67.752H85.319C85.5323 67.752 85.6923 67.8 85.799 67.896C85.9057 67.9813 85.959 68.1307 85.959 68.344C85.959 68.6213 85.9057 68.8027 85.799 68.888C85.703 68.9627 85.543 69 85.319 69H84.983C84.6203 69 84.295 68.9253 84.007 68.776C83.719 68.616 83.5163 68.3813 83.399 68.072C83.2177 68.4133 82.9617 68.6533 82.631 68.792C82.311 68.9307 81.9057 69 81.415 69H76.375C75.9483 69 75.735 68.7867 75.735 68.36C75.735 68.0933 75.7883 67.928 75.895 67.864C75.991 67.7893 76.151 67.752 76.375 67.752H80.919C81.2177 67.752 81.4577 67.7307 81.639 67.688C81.8203 67.6347 81.959 67.5493 82.055 67.432C82.151 67.3147 82.215 67.16 82.247 66.968C82.279 66.7653 82.295 66.52 82.295 66.232C82.295 65.816 82.2577 65.4373 82.183 65.096C82.1083 64.744 81.9857 64.4453 81.815 64.2C81.655 63.944 81.4363 63.752 81.159 63.624C80.8817 63.4853 80.535 63.416 80.119 63.416ZM79.815 71.944C79.7083 71.944 79.655 71.8907 79.655 71.784V70.616C79.655 70.5093 79.7083 70.456 79.815 70.456H80.903C81.0097 70.456 81.063 70.5093 81.063 70.616V71.784C81.063 71.8907 81.0097 71.944 80.903 71.944H79.815ZM85.4245 69C85.2112 69 85.0512 68.9627 84.9445 68.888C84.8378 68.8133 84.7845 68.664 84.7845 68.44C84.7845 68.1733 84.8378 67.992 84.9445 67.896C85.0405 67.8 85.2005 67.752 85.4245 67.752H86.5125C86.7792 67.752 86.9712 67.6933 87.0885 67.576C87.2165 67.448 87.2805 67.224 87.2805 66.904V62.616C87.2805 62.5093 87.3338 62.456 87.4405 62.456H88.4645C88.5712 62.456 88.6245 62.5093 88.6245 62.616V66.664C88.6245 67.0267 88.7525 67.2987 89.0085 67.48C89.2752 67.6613 89.6272 67.752 90.0645 67.752H90.2565C90.4698 67.752 90.6298 67.8 90.7365 67.896C90.8432 67.9813 90.8965 68.1307 90.8965 68.344C90.8965 68.6213 90.8432 68.8027 90.7365 68.888C90.6405 68.9627 90.4805 69 90.2565 69H89.9045C89.5632 69 89.2645 68.9307 89.0085 68.792C88.7525 68.6533 88.5552 68.4453 88.4165 68.168C88.1498 68.7227 87.5952 69 86.7525 69H85.4245ZM88.3525 60.872C88.2458 60.872 88.1925 60.8187 88.1925 60.712V59.544C88.1925 59.4373 88.2458 59.384 88.3525 59.384H89.4405C89.5472 59.384 89.6005 59.4373 89.6005 59.544V60.712C89.6005 60.8187 89.5472 60.872 89.4405 60.872H88.3525ZM86.4005 60.872C86.2938 60.872 86.2405 60.8187 86.2405 60.712V59.544C86.2405 59.4373 86.2938 59.384 86.4005 59.384H87.4885C87.5952 59.384 87.6485 59.4373 87.6485 59.544V60.712C87.6485 60.8187 87.5952 60.872 87.4885 60.872H86.4005ZM90.25 69C90.0367 69 89.8767 68.9627 89.77 68.888C89.6633 68.8133 89.61 68.664 89.61 68.44C89.61 68.1733 89.6633 67.992 89.77 67.896C89.866 67.8 90.026 67.752 90.25 67.752H91.258C91.5247 67.752 91.7167 67.6933 91.834 67.576C91.962 67.448 92.026 67.224 92.026 66.904V62.616C92.026 62.5093 92.0793 62.456 92.186 62.456H93.21C93.3167 62.456 93.37 62.5093 93.37 62.616V66.984C93.37 67.6773 93.226 68.1893 92.938 68.52C92.65 68.84 92.17 69 91.498 69H90.25ZM91.786 71.928C91.6793 71.928 91.626 71.8747 91.626 71.768V70.6C91.626 70.4933 91.6793 70.44 91.786 70.44H92.874C92.9807 70.44 93.034 70.4933 93.034 70.6V71.768C93.034 71.8747 92.9807 71.928 92.874 71.928H91.786ZM102.872 62.168C104.013 62.168 104.856 62.392 105.4 62.84C105.944 63.288 106.216 63.896 106.216 64.664C106.216 65.0053 106.163 65.3253 106.056 65.624C105.949 65.9227 105.811 66.2 105.64 66.456C105.48 66.712 105.293 66.9467 105.08 67.16C104.867 67.3627 104.659 67.5333 104.456 67.672C104.573 67.6933 104.691 67.7147 104.808 67.736C104.925 67.7467 105.037 67.752 105.144 67.752H107.48C107.693 67.752 107.853 67.7893 107.96 67.864C108.067 67.9387 108.12 68.088 108.12 68.312C108.12 68.5787 108.067 68.76 107.96 68.856C107.864 68.952 107.704 69 107.48 69H105.096C104.787 69 104.456 68.9627 104.104 68.888C103.752 68.8133 103.437 68.6853 103.16 68.504C102.851 68.6213 102.525 68.728 102.184 68.824C101.843 68.9093 101.533 69.0053 101.256 69.112C100.979 69.2187 100.749 69.352 100.568 69.512C100.387 69.672 100.296 69.8853 100.296 70.152C100.296 70.408 100.392 70.6 100.584 70.728C100.787 70.8667 101.149 70.936 101.672 70.936H103.208C103.315 70.936 103.368 70.9893 103.368 71.096V72.024C103.368 72.1307 103.315 72.184 103.208 72.184H101.56C100.696 72.184 100.04 72.0293 99.5921 71.72C99.1441 71.4107 98.9201 70.888 98.9201 70.152C98.9201 69.6933 99.0161 69.3147 99.2081 69.016C99.4108 68.7173 99.6615 68.4773 99.9601 68.296C100.259 68.1147 100.584 67.976 100.936 67.88C101.288 67.7733 101.624 67.688 101.944 67.624C101.869 67.1973 101.757 66.8293 101.608 66.52C101.459 66.2107 101.288 65.944 101.096 65.72C100.904 65.4853 100.691 65.2827 100.456 65.112C100.232 64.9307 100.003 64.7547 99.7681 64.584C99.6721 64.52 99.6081 64.4667 99.5761 64.424C99.5548 64.3707 99.5441 64.3173 99.5441 64.264V63.304C99.5441 63.1547 99.5975 63.048 99.7041 62.984C99.8321 62.9093 99.9975 62.824 100.2 62.728C100.413 62.632 100.653 62.5413 100.92 62.456C101.197 62.3707 101.501 62.3013 101.832 62.248C102.163 62.1947 102.509 62.168 102.872 62.168ZM102.872 63.416C102.392 63.416 101.971 63.4693 101.608 63.576C101.245 63.672 101.005 63.7573 100.888 63.832C101.432 64.1413 101.907 64.5733 102.312 65.128C102.728 65.6827 103.027 66.344 103.208 67.112C103.379 67.0053 103.56 66.872 103.752 66.712C103.944 66.5413 104.115 66.36 104.264 66.168C104.424 65.9653 104.552 65.7467 104.648 65.512C104.755 65.2667 104.808 65.016 104.808 64.76C104.808 64.4933 104.755 64.2747 104.648 64.104C104.552 63.9333 104.419 63.8 104.248 63.704C104.077 63.5973 103.869 63.5227 103.624 63.48C103.389 63.4373 103.139 63.416 102.872 63.416ZM107.612 69C107.399 69 107.239 68.9627 107.132 68.888C107.025 68.8133 106.972 68.664 106.972 68.44C106.972 68.1733 107.025 67.992 107.132 67.896C107.228 67.8 107.388 67.752 107.612 67.752H108.7C108.967 67.752 109.159 67.6933 109.276 67.576C109.404 67.448 109.468 67.224 109.468 66.904V62.616C109.468 62.5093 109.521 62.456 109.628 62.456H110.652C110.759 62.456 110.812 62.5093 110.812 62.616V66.664C110.812 67.0267 110.94 67.2987 111.196 67.48C111.463 67.6613 111.815 67.752 112.252 67.752H112.444C112.657 67.752 112.817 67.8 112.924 67.896C113.031 67.9813 113.084 68.1307 113.084 68.344C113.084 68.6213 113.031 68.8027 112.924 68.888C112.828 68.9627 112.668 69 112.444 69H112.092C111.751 69 111.452 68.9307 111.196 68.792C110.94 68.6533 110.743 68.4453 110.604 68.168C110.337 68.7227 109.783 69 108.94 69H107.612ZM110.54 60.872C110.433 60.872 110.38 60.8187 110.38 60.712V59.544C110.38 59.4373 110.433 59.384 110.54 59.384H111.628C111.735 59.384 111.788 59.4373 111.788 59.544V60.712C111.788 60.8187 111.735 60.872 111.628 60.872H110.54ZM108.588 60.872C108.481 60.872 108.428 60.8187 108.428 60.712V59.544C108.428 59.4373 108.481 59.384 108.588 59.384H109.676C109.783 59.384 109.836 59.4373 109.836 59.544V60.712C109.836 60.8187 109.783 60.872 109.676 60.872H108.588ZM117.27 69.112C116.768 69.112 116.326 69.0427 115.942 68.904C115.558 68.7547 115.232 68.5253 114.966 68.216C114.742 68.5573 114.454 68.776 114.102 68.872C113.75 68.9573 113.424 69 113.126 69H112.438C112.011 69 111.797 68.7867 111.797 68.36C111.797 68.0933 111.851 67.928 111.957 67.864C112.053 67.7893 112.213 67.752 112.438 67.752H113.238C113.355 67.752 113.472 67.7307 113.59 67.688C113.707 67.6347 113.814 67.5547 113.91 67.448C114.006 67.3307 114.08 67.1813 114.134 67C114.198 66.808 114.23 66.5733 114.23 66.296C114.219 66.1893 114.214 66.088 114.214 65.992C114.214 65.8853 114.214 65.7733 114.214 65.656C114.214 64.4293 114.486 63.544 115.03 63C115.574 62.4453 116.32 62.168 117.27 62.168C118.219 62.168 118.966 62.4453 119.51 63C120.054 63.544 120.326 64.4293 120.326 65.656C120.326 65.7733 120.32 65.8907 120.31 66.008C120.31 66.1253 120.304 66.2373 120.294 66.344C120.304 66.888 120.411 67.2613 120.614 67.464C120.827 67.656 121.051 67.752 121.286 67.752H121.75C121.963 67.752 122.123 67.8 122.23 67.896C122.336 67.9813 122.39 68.1307 122.39 68.344C122.39 68.6213 122.336 68.8027 122.23 68.888C122.134 68.9627 121.974 69 121.75 69H121.398C121.248 69 121.088 68.9947 120.918 68.984C120.747 68.9627 120.576 68.9253 120.406 68.872C120.246 68.8187 120.091 68.744 119.942 68.648C119.792 68.5413 119.664 68.4027 119.558 68.232C119.291 68.5413 118.966 68.7653 118.582 68.904C118.198 69.0427 117.76 69.112 117.27 69.112ZM117.27 63.416C116.672 63.416 116.235 63.6133 115.958 64.008C115.691 64.4027 115.558 64.952 115.558 65.656C115.558 66.424 115.691 66.984 115.958 67.336C116.235 67.688 116.672 67.864 117.27 67.864C117.867 67.864 118.299 67.688 118.566 67.336C118.843 66.984 118.982 66.424 118.982 65.656C118.982 64.952 118.843 64.4027 118.566 64.008C118.299 63.6133 117.867 63.416 117.27 63.416ZM121.846 69C121.633 69 121.473 68.9627 121.366 68.888C121.26 68.8133 121.206 68.664 121.206 68.44C121.206 68.1733 121.26 67.992 121.366 67.896C121.462 67.8 121.622 67.752 121.846 67.752H122.934C123.201 67.752 123.393 67.6933 123.51 67.576C123.638 67.448 123.702 67.224 123.702 66.904V62.616C123.702 62.5093 123.756 62.456 123.862 62.456H124.886C124.993 62.456 125.046 62.5093 125.046 62.616V66.664C125.046 67.0267 125.174 67.2987 125.43 67.48C125.697 67.6613 126.049 67.752 126.486 67.752H126.678C126.892 67.752 127.052 67.8 127.158 67.896C127.265 67.9813 127.318 68.1307 127.318 68.344C127.318 68.6213 127.265 68.8027 127.158 68.888C127.062 68.9627 126.902 69 126.678 69H126.326C125.985 69 125.686 68.9307 125.43 68.792C125.174 68.6533 124.977 68.4453 124.838 68.168C124.572 68.7227 124.017 69 123.174 69H121.846ZM124.774 60.872C124.668 60.872 124.614 60.8187 124.614 60.712V59.544C124.614 59.4373 124.668 59.384 124.774 59.384H125.862C125.969 59.384 126.022 59.4373 126.022 59.544V60.712C126.022 60.8187 125.969 60.872 125.862 60.872H124.774ZM122.822 60.872C122.716 60.872 122.662 60.8187 122.662 60.712V59.544C122.662 59.4373 122.716 59.384 122.822 59.384H123.91C124.017 59.384 124.07 59.4373 124.07 59.544V60.712C124.07 60.8187 124.017 60.872 123.91 60.872H122.822ZM131.552 69C131.211 69 130.912 68.9307 130.656 68.792C130.4 68.6533 130.203 68.4453 130.064 68.168C129.797 68.7227 129.243 69 128.4 69H126.672C126.459 69 126.299 68.9627 126.192 68.888C126.085 68.8133 126.032 68.664 126.032 68.44C126.032 68.1733 126.085 67.992 126.192 67.896C126.288 67.8 126.448 67.752 126.672 67.752H128.16C128.427 67.752 128.619 67.6933 128.736 67.576C128.864 67.448 128.928 67.224 128.928 66.904V63.992C128.928 63.8853 128.981 63.832 129.088 63.832H130.112C130.219 63.832 130.272 63.8853 130.272 63.992V66.664C130.272 67.0267 130.4 67.2987 130.656 67.48C130.912 67.6613 131.253 67.752 131.68 67.752H132.08C132.347 67.752 132.539 67.6933 132.656 67.576C132.784 67.448 132.848 67.224 132.848 66.904V63.992C132.848 63.8853 132.901 63.832 133.008 63.832H134.032C134.139 63.832 134.192 63.8853 134.192 63.992V66.664C134.192 67.0267 134.32 67.2987 134.576 67.48C134.832 67.6613 135.173 67.752 135.6 67.752H136C136.267 67.752 136.459 67.6933 136.576 67.576C136.704 67.448 136.768 67.224 136.768 66.904V62.616C136.768 62.5093 136.821 62.456 136.928 62.456H137.952C138.059 62.456 138.112 62.5093 138.112 62.616V66.984C138.112 67.6773 137.968 68.1893 137.68 68.52C137.392 68.84 136.912 69 136.24 69H135.472C135.131 69 134.832 68.9307 134.576 68.792C134.32 68.6533 134.123 68.4453 133.984 68.168C133.717 68.7227 133.163 69 132.32 69H131.552ZM141.62 68.84C141.62 68.9467 141.567 69 141.46 69H140.436C140.33 69 140.276 68.9467 140.276 68.84V58.28C140.276 58.1733 140.33 58.12 140.436 58.12H141.46C141.567 58.12 141.62 58.1733 141.62 58.28V68.84ZM144.974 72.184C144.868 72.184 144.814 72.1307 144.814 72.024V71.096C144.814 70.9893 144.868 70.936 144.974 70.936H146.894C147.108 70.936 147.305 70.9093 147.486 70.856C147.668 70.8133 147.822 70.7333 147.95 70.616C148.089 70.5093 148.196 70.3547 148.27 70.152C148.345 69.96 148.382 69.7147 148.382 69.416V69H146.67C146.201 69 145.774 68.9467 145.39 68.84C145.017 68.7227 144.697 68.5413 144.43 68.296C144.164 68.04 143.961 67.704 143.822 67.288C143.684 66.872 143.614 66.36 143.614 65.752C143.614 65.144 143.694 64.616 143.854 64.168C144.014 63.7093 144.233 63.336 144.51 63.048C144.798 62.7493 145.129 62.5307 145.502 62.392C145.876 62.2427 146.276 62.168 146.702 62.168C147.652 62.168 148.393 62.4453 148.926 63C149.46 63.544 149.726 64.4293 149.726 65.656V69.384C149.726 69.8853 149.657 70.312 149.518 70.664C149.39 71.016 149.204 71.304 148.958 71.528C148.724 71.752 148.436 71.9173 148.094 72.024C147.753 72.1307 147.374 72.184 146.958 72.184H144.974ZM146.702 63.416C146.158 63.416 145.732 63.6293 145.422 64.056C145.113 64.4827 144.958 65.048 144.958 65.752C144.958 66.5093 145.108 67.032 145.406 67.32C145.716 67.608 146.169 67.752 146.766 67.752H148.382V65.656C148.382 64.952 148.249 64.4027 147.982 64.008C147.726 63.6133 147.3 63.416 146.702 63.416ZM164.705 67.752C164.983 67.752 165.18 67.6933 165.297 67.576C165.425 67.448 165.489 67.224 165.489 66.904V62.616C165.489 62.5093 165.543 62.456 165.649 62.456H166.673C166.78 62.456 166.833 62.5093 166.833 62.616V66.984C166.833 67.6773 166.689 68.1893 166.401 68.52C166.113 68.84 165.623 69 164.929 69H157.233C156.561 69 156.081 68.84 155.793 68.52C155.505 68.1893 155.361 67.6773 155.361 66.984V63.64C155.361 63.5333 155.415 63.48 155.521 63.48H156.545C156.652 63.48 156.705 63.5333 156.705 63.64V66.904C156.705 67.224 156.764 67.448 156.881 67.576C157.009 67.6933 157.207 67.752 157.473 67.752H164.705ZM160.497 71.976C160.391 71.976 160.337 71.9227 160.337 71.816V70.648C160.337 70.5413 160.391 70.488 160.497 70.488H161.585C161.692 70.488 161.745 70.5413 161.745 70.648V71.816C161.745 71.9227 161.692 71.976 161.585 71.976H160.497ZM168.87 58.28C168.87 58.1733 168.923 58.12 169.03 58.12H170.054C170.161 58.12 170.214 58.1733 170.214 58.28V66.904C170.214 67.224 170.273 67.448 170.39 67.576C170.518 67.6933 170.715 67.752 170.982 67.752H171.686C172.113 67.752 172.326 67.9653 172.326 68.392C172.326 68.6587 172.273 68.8293 172.166 68.904C172.07 68.968 171.91 69 171.686 69H170.742C170.07 69 169.59 68.84 169.302 68.52C169.014 68.1893 168.87 67.6773 168.87 66.984V58.28ZM176.568 69C176.226 69 175.928 68.9307 175.672 68.792C175.416 68.6533 175.218 68.4453 175.08 68.168C174.813 68.7227 174.258 69 173.416 69H171.688C171.474 69 171.314 68.9627 171.207 68.888C171.101 68.8133 171.047 68.664 171.047 68.44C171.047 68.1733 171.101 67.992 171.207 67.896C171.303 67.8 171.463 67.752 171.688 67.752H173.176C173.442 67.752 173.634 67.6933 173.752 67.576C173.88 67.448 173.944 67.224 173.944 66.904V63.992C173.944 63.8853 173.997 63.832 174.104 63.832H175.128C175.234 63.832 175.288 63.8853 175.288 63.992V66.664C175.288 67.0267 175.416 67.2987 175.672 67.48C175.928 67.6613 176.269 67.752 176.696 67.752H177.096C177.362 67.752 177.554 67.6933 177.672 67.576C177.8 67.448 177.864 67.224 177.864 66.904V63.992C177.864 63.8853 177.917 63.832 178.024 63.832H179.048C179.154 63.832 179.208 63.8853 179.208 63.992V66.728C179.208 67.0693 179.341 67.3253 179.608 67.496C179.874 67.6667 180.221 67.752 180.648 67.752H181.016C181.282 67.752 181.474 67.6933 181.592 67.576C181.72 67.448 181.784 67.224 181.784 66.904V62.616C181.784 62.5093 181.837 62.456 181.944 62.456H182.968C183.074 62.456 183.128 62.5093 183.128 62.616V66.664C183.128 67.0267 183.256 67.2987 183.512 67.48C183.778 67.6613 184.13 67.752 184.568 67.752H184.744C184.957 67.752 185.117 67.8 185.224 67.896C185.33 67.9813 185.384 68.1307 185.384 68.344C185.384 68.6213 185.33 68.8027 185.224 68.888C185.128 68.9627 184.968 69 184.744 69H184.408C184.066 69 183.768 68.9307 183.512 68.792C183.256 68.6533 183.058 68.4453 182.92 68.168C182.653 68.7227 182.098 69 181.256 69H180.488C180.146 69 179.848 68.9307 179.592 68.792C179.336 68.6533 179.138 68.4453 179 68.168C178.733 68.7227 178.178 69 177.336 69H176.568ZM188.494 63.416C188.131 63.416 187.795 63.4907 187.486 63.64C187.187 63.7893 186.921 63.992 186.686 64.248C186.622 64.3227 186.547 64.328 186.462 64.264L185.758 63.688C185.662 63.6133 185.646 63.5387 185.71 63.464C186.009 63.0907 186.377 62.7813 186.814 62.536C187.262 62.2907 187.806 62.168 188.446 62.168C189.182 62.168 189.785 62.2853 190.254 62.52C190.723 62.744 191.091 63.0427 191.358 63.416C191.635 63.7893 191.827 64.2213 191.934 64.712C192.041 65.2027 192.094 65.7093 192.094 66.232C192.094 66.7653 192.046 67.208 191.95 67.56C191.865 67.912 191.726 68.1947 191.534 68.408C191.353 68.6213 191.113 68.776 190.814 68.872C190.526 68.9573 190.185 69 189.79 69H184.75C184.323 69 184.11 68.7867 184.11 68.36C184.11 68.0933 184.163 67.928 184.27 67.864C184.366 67.7893 184.526 67.752 184.75 67.752H189.294C189.593 67.752 189.833 67.7307 190.014 67.688C190.195 67.6347 190.334 67.5493 190.43 67.432C190.526 67.3147 190.59 67.16 190.622 66.968C190.654 66.7653 190.67 66.52 190.67 66.232C190.67 65.816 190.633 65.4373 190.558 65.096C190.483 64.744 190.361 64.4453 190.19 64.2C190.03 63.944 189.811 63.752 189.534 63.624C189.257 63.4853 188.91 63.416 188.494 63.416ZM203.853 66.616C204.194 66.744 204.525 66.8773 204.845 67.016C205.165 67.144 205.474 67.2667 205.773 67.384C206.082 67.4907 206.386 67.5813 206.685 67.656C206.983 67.72 207.287 67.752 207.597 67.752H208.893C209.106 67.752 209.266 67.7893 209.373 67.864C209.479 67.9387 209.533 68.088 209.533 68.312C209.533 68.5787 209.479 68.76 209.373 68.856C209.277 68.952 209.117 69 208.893 69H207.757C207.81 69.0853 207.874 69.224 207.949 69.416C208.023 69.6187 208.061 69.8373 208.061 70.072C208.061 70.328 208.007 70.5787 207.901 70.824C207.805 71.08 207.639 71.3093 207.405 71.512C207.17 71.7147 206.861 71.8747 206.477 71.992C206.093 72.12 205.623 72.184 205.069 72.184H201.325C200.077 72.184 199.127 71.8693 198.477 71.24C197.826 70.6213 197.501 69.768 197.501 68.68C197.501 68.0507 197.602 67.448 197.805 66.872C198.018 66.2853 198.263 65.7947 198.541 65.4C198.583 65.3253 198.658 65.32 198.765 65.384L199.645 65.864C199.73 65.9173 199.746 65.9867 199.693 66.072C199.501 66.3707 199.314 66.7387 199.133 67.176C198.962 67.6133 198.877 68.072 198.877 68.552C198.877 68.9893 198.946 69.3573 199.085 69.656C199.234 69.9653 199.431 70.2107 199.677 70.392C199.922 70.5733 200.199 70.7013 200.509 70.776C200.829 70.8613 201.165 70.904 201.516 70.904H205.053C205.693 70.904 206.135 70.808 206.381 70.616C206.637 70.424 206.765 70.1947 206.765 69.928C206.765 69.6933 206.69 69.4907 206.541 69.32C206.402 69.1493 206.189 68.9947 205.901 68.856C205.623 68.7067 205.271 68.5573 204.845 68.408C204.429 68.2587 203.949 68.0827 203.405 67.88C203.309 67.848 203.277 67.784 203.309 67.688L203.661 66.728C203.693 66.6213 203.757 66.584 203.853 66.616ZM198.669 63.096C198.583 62.9893 198.514 62.8613 198.461 62.712C198.407 62.5627 198.381 62.392 198.381 62.2C198.381 62.04 198.407 61.8747 198.461 61.704C198.514 61.5227 198.61 61.3573 198.749 61.208C198.887 61.0587 199.063 60.936 199.277 60.84C199.501 60.7333 199.783 60.68 200.125 60.68C200.423 60.68 200.701 60.7387 200.957 60.856C201.213 60.9627 201.399 61.1067 201.516 61.288C201.559 61.352 201.554 61.4107 201.501 61.464L201.085 61.816C201.053 61.8373 201.01 61.8213 200.957 61.768C200.85 61.672 200.727 61.592 200.589 61.528C200.45 61.4533 200.279 61.416 200.077 61.416C199.767 61.416 199.543 61.5013 199.405 61.672C199.266 61.8427 199.197 62.0293 199.197 62.232C199.197 62.4667 199.255 62.6533 199.373 62.792C199.49 62.9307 199.607 63.032 199.725 63.096H201.533C201.597 63.096 201.629 63.1333 201.629 63.208V63.72C201.629 63.7947 201.597 63.832 201.533 63.832H198.125C198.061 63.832 198.029 63.7947 198.029 63.72V63.208C198.029 63.1333 198.061 63.096 198.125 63.096H198.669ZM213.883 69C213.541 69 213.243 68.9307 212.987 68.792C212.731 68.6533 212.533 68.4453 212.395 68.168C212.128 68.7227 211.573 69 210.731 69H209.003C208.789 69 208.629 68.9627 208.523 68.888C208.416 68.8133 208.363 68.664 208.363 68.44C208.363 68.1733 208.416 67.992 208.523 67.896C208.619 67.8 208.779 67.752 209.003 67.752H210.491C210.757 67.752 210.949 67.6933 211.067 67.576C211.195 67.448 211.259 67.224 211.259 66.904V63.992C211.259 63.8853 211.312 63.832 211.419 63.832H212.443C212.549 63.832 212.603 63.8853 212.603 63.992V66.664C212.603 67.0267 212.731 67.2987 212.987 67.48C213.243 67.6613 213.584 67.752 214.011 67.752H214.411C214.677 67.752 214.869 67.6933 214.987 67.576C215.115 67.448 215.179 67.224 215.179 66.904V63.992C215.179 63.8853 215.232 63.832 215.339 63.832H216.363C216.469 63.832 216.523 63.8853 216.523 63.992V66.728C216.523 67.0693 216.656 67.3253 216.923 67.496C217.189 67.6667 217.536 67.752 217.963 67.752H218.331C218.597 67.752 218.789 67.6933 218.907 67.576C219.035 67.448 219.099 67.224 219.099 66.904V62.616C219.099 62.5093 219.152 62.456 219.259 62.456H220.283C220.389 62.456 220.443 62.5093 220.443 62.616V66.664C220.443 67.0267 220.571 67.2987 220.827 67.48C221.093 67.6613 221.445 67.752 221.883 67.752H222.059C222.272 67.752 222.432 67.8 222.539 67.896C222.645 67.9813 222.699 68.1307 222.699 68.344C222.699 68.6213 222.645 68.8027 222.539 68.888C222.443 68.9627 222.283 69 222.059 69H221.723C221.381 69 221.083 68.9307 220.827 68.792C220.571 68.6533 220.373 68.4453 220.235 68.168C219.968 68.7227 219.413 69 218.571 69H217.803C217.461 69 217.163 68.9307 216.907 68.792C216.651 68.6533 216.453 68.4453 216.315 68.168C216.048 68.7227 215.493 69 214.651 69H213.883ZM216.251 60.872C216.144 60.872 216.091 60.8187 216.091 60.712V59.544C216.091 59.4373 216.144 59.384 216.251 59.384H217.339C217.445 59.384 217.499 59.4373 217.499 59.544V60.712C217.499 60.8187 217.445 60.872 217.339 60.872H216.251ZM214.299 60.872C214.192 60.872 214.139 60.8187 214.139 60.712V59.544C214.139 59.4373 214.192 59.384 214.299 59.384H215.387C215.493 59.384 215.547 59.4373 215.547 59.544V60.712C215.547 60.8187 215.493 60.872 215.387 60.872H214.299ZM215.291 59C215.184 59 215.131 58.9467 215.131 58.84V57.672C215.131 57.5653 215.184 57.512 215.291 57.512H216.379C216.485 57.512 216.539 57.5653 216.539 57.672V58.84C216.539 58.9467 216.485 59 216.379 59H215.291ZM222.065 69C221.852 69 221.692 68.9627 221.585 68.888C221.478 68.8133 221.425 68.664 221.425 68.44C221.425 68.1733 221.478 67.992 221.585 67.896C221.681 67.8 221.841 67.752 222.065 67.752H223.073C223.34 67.752 223.532 67.6933 223.649 67.576C223.777 67.448 223.841 67.224 223.841 66.904V62.616C223.841 62.5093 223.894 62.456 224.001 62.456H225.025C225.132 62.456 225.185 62.5093 225.185 62.616V66.984C225.185 67.6773 225.041 68.1893 224.753 68.52C224.465 68.84 223.985 69 223.313 69H222.065ZM223.969 60.872C223.862 60.872 223.809 60.8187 223.809 60.712V59.544C223.809 59.4373 223.862 59.384 223.969 59.384H225.057C225.164 59.384 225.217 59.4373 225.217 59.544V60.712C225.217 60.8187 225.164 60.872 225.057 60.872H223.969ZM228.448 68.84C228.448 68.9467 228.395 69 228.288 69H227.264C227.158 69 227.104 68.9467 227.104 68.84V58.28C227.104 58.1733 227.158 58.12 227.264 58.12H228.288C228.395 58.12 228.448 58.1733 228.448 58.28V68.84Z" fill="black"/>
</g>
<defs>
<filter id="filter0_d_2001_14815" x="0.0292969" y="0.703125" width="232.419" height="79.4808" filterUnits="userSpaceOnUse" color-interpolation-filters="sRGB">
<feFlood flood-opacity="0" result="BackgroundImageFix"/>
<feColorMatrix in="SourceAlpha" type="matrix" values="0 0 0 0 0 0 0 0 0 0 0 0 0 0 0 0 0 0 127 0" result="hardAlpha"/>
<feOffset dy="4"/>
<feGaussianBlur stdDeviation="2"/>
<feComposite in2="hardAlpha" operator="out"/>
<feColorMatrix type="matrix" values="0 0 0 0 0 0 0 0 0 0 0 0 0 0 0 0 0 0 0.25 0"/>
<feBlend mode="normal" in2="BackgroundImageFix" result="effect1_dropShadow_2001_14815"/>
<feBlend mode="normal" in="SourceGraphic" in2="effect1_dropShadow_2001_14815" result="shape"/>
</filter>
</defs>
</svg>
