<svg width="358" height="99" viewBox="0 0 358 99" fill="none" xmlns="http://www.w3.org/2000/svg">
<g filter="url(#filter0_d_742_14816)">
<path d="M107.422 21.5469V33.5C107.422 40.0156 107.422 45.4062 107.75 48.2656C107.938 50.2344 108.359 51.6875 110.422 51.9688C111.359 52.1094 112.859 52.25 113.469 52.25C113.891 52.25 114.031 52.4375 114.031 52.6719C114.031 53 113.656 53.1875 112.906 53.1875C109.203 53.1875 104.891 53 104.562 53C104.234 53 99.9219 53.1875 97.9062 53.1875C97.1562 53.1875 96.8281 53.0469 96.8281 52.6719C96.8281 52.4375 96.9688 52.25 97.3438 52.25C97.9531 52.25 98.7969 52.1094 99.4062 51.9688C100.766 51.6875 101.094 50.2344 101.375 48.2656C101.703 45.4062 101.703 40.0156 101.703 33.5V26.375C101.703 26.0938 101.516 25.9531 101.281 25.9531H72.5C72.2656 25.9531 72.0781 26 72.0781 26.375V33.5C72.0781 40.0156 72.0781 45.4062 72.4062 48.2656C72.5938 50.2344 73.0156 51.6875 75.0781 51.9688C76.0156 52.1094 77.5156 52.25 78.125 52.25C78.5469 52.25 78.6875 52.4375 78.6875 52.6719C78.6875 53 78.3125 53.1875 77.5625 53.1875C73.8594 53.1875 69.5469 53 69.2188 53C68.8906 53 64.5781 53.1875 62.5625 53.1875C61.8125 53.1875 61.4844 53.0469 61.4844 52.6719C61.4844 52.4375 61.625 52.25 62 52.25C62.6094 52.25 63.4531 52.1094 64.0625 51.9688C65.4219 51.6875 65.75 50.2344 66.0312 48.2656C66.3594 45.4062 66.3594 40.0156 66.3594 33.5V21.5469C66.3594 10.9062 66.3594 9.03125 66.2188 6.82812C66.0781 4.53125 65.5625 3.45312 63.3125 2.98438C62.75 2.84375 61.625 2.75 61.0156 2.75C60.7344 2.75 60.4531 2.65625 60.4531 2.375C60.4531 1.95312 60.7812 1.8125 61.5312 1.8125C64.5781 1.8125 68.8906 2.04688 69.2188 2.04688C69.5469 2.04688 73.8594 1.8125 75.875 1.8125C76.625 1.8125 76.9531 1.95312 76.9531 2.375C76.9531 2.65625 76.6719 2.75 76.4375 2.75C75.9688 2.75 75.5469 2.84375 74.7031 2.98438C72.875 3.3125 72.3594 4.48438 72.2188 6.82812C72.0781 9.03125 72.0781 10.9062 72.0781 21.5469V22.9531C72.0781 23.2812 72.2656 23.375 72.5 23.375H101.281C101.516 23.375 101.703 23.2812 101.703 22.9531V21.5469C101.703 10.9062 101.703 9.03125 101.562 6.82812C101.422 4.53125 100.906 3.45312 98.6562 2.98438C98.0938 2.84375 96.9688 2.75 96.3594 2.75C96.0781 2.75 95.7969 2.65625 95.7969 2.375C95.7969 1.95312 96.125 1.8125 96.875 1.8125C99.9219 1.8125 104.234 2.04688 104.562 2.04688C104.891 2.04688 109.203 1.8125 111.219 1.8125C111.969 1.8125 112.297 1.95312 112.297 2.375C112.297 2.65625 112.016 2.75 111.781 2.75C111.312 2.75 110.891 2.84375 110.047 2.98438C108.219 3.3125 107.703 4.48438 107.562 6.82812C107.422 9.03125 107.422 10.9062 107.422 21.5469ZM130.109 33.5V21.5469C130.109 10.9062 130.109 9.03125 129.969 6.82812C129.828 4.53125 129.312 3.45312 127.062 2.98438C126.5 2.84375 125.375 2.75 124.766 2.75C124.484 2.75 124.203 2.65625 124.203 2.375C124.203 1.95312 124.531 1.8125 125.281 1.8125C126.828 1.8125 128.703 1.8125 130.203 1.90625L132.969 2.04688C133.438 2.04688 146.984 2.04688 148.531 1.95312C149.844 1.90625 150.922 1.76562 151.438 1.625C151.812 1.53125 152.047 1.29688 152.422 1.29688C152.609 1.29688 152.656 1.53125 152.656 1.90625C152.656 2.375 152.328 3.17188 152.141 5.09375C152.047 5.75 151.953 8.75 151.812 9.54688C151.719 9.92188 151.578 10.2969 151.297 10.2969C150.922 10.2969 150.781 9.96875 150.781 9.45312C150.781 8.9375 150.688 7.8125 150.359 6.96875C149.891 5.89062 149.234 5.09375 145.531 4.67188C144.406 4.53125 137 4.48438 136.25 4.48438C135.969 4.48438 135.828 4.67188 135.828 5.14062V23.8906C135.828 24.4062 135.875 24.5938 136.25 24.5938C137.094 24.5938 145.484 24.5938 147.031 24.4531C148.672 24.3125 149.609 24.1719 150.219 23.5156C150.688 22.9531 150.969 22.625 151.25 22.625C151.438 22.625 151.578 22.7656 151.578 23.1406C151.578 23.5625 151.25 24.7344 151.062 26.9844C150.922 28.3438 150.781 30.8281 150.781 31.2969C150.781 31.8594 150.781 32.6094 150.312 32.6094C149.938 32.6094 149.844 32.3281 149.844 32C149.844 31.2969 149.844 30.6406 149.562 29.75C149.281 28.8125 148.672 27.6406 146 27.3594C144.172 27.1719 137.469 27.0312 136.297 27.0312C135.969 27.0312 135.828 27.2188 135.828 27.5V33.5C135.828 35.7969 135.734 43.6719 135.828 45.125C136.016 49.8125 137.047 50.7031 143.703 50.7031C145.484 50.7031 148.484 50.7031 150.219 49.9531C152 49.2031 152.797 47.8438 153.312 45.0312C153.406 44.2812 153.547 44.0469 153.922 44.0469C154.297 44.0469 154.297 44.5625 154.297 45.0312C154.297 45.5938 153.781 50.2344 153.406 51.6406C152.938 53.4219 152.422 53.4219 149.75 53.4219C144.641 53.4219 140.938 53.2812 138.266 53.1875C135.641 53.0469 134 53 132.969 53C132.828 53 131.656 53 130.25 53.0469C128.891 53.0469 127.344 53.1875 126.312 53.1875C125.562 53.1875 125.234 53.0469 125.234 52.6719C125.234 52.4375 125.375 52.25 125.75 52.25C126.359 52.25 127.203 52.1094 127.812 51.9688C129.172 51.6875 129.5 50.2344 129.781 48.2656C130.109 45.4062 130.109 40.0156 130.109 33.5ZM175.859 21.5469V33.6406C175.859 43.625 176.141 47.9844 177.359 49.2031C178.438 50.2812 180.219 50.75 185.516 50.75C189.125 50.75 192.078 50.7031 193.719 48.7344C194.609 47.6094 195.312 45.9219 195.5 44.6562C195.547 44.0938 195.688 43.7656 196.109 43.7656C196.438 43.7656 196.531 44.0469 196.531 44.7969C196.531 45.5469 196.062 49.625 195.5 51.5938C195.031 53.1406 194.797 53.4219 191.234 53.4219C186.312 53.4219 182.797 53.2812 179.938 53.1875C177.078 53.0469 174.969 53 173 53C172.719 53 171.594 53.0469 170.234 53.0469C168.875 53.1406 167.375 53.1875 166.344 53.1875C165.594 53.1875 165.266 53.0469 165.266 52.6719C165.266 52.4375 165.406 52.25 165.781 52.25C166.391 52.25 167.234 52.1094 167.844 51.9688C169.203 51.6875 169.531 50.2344 169.812 48.2656C170.141 45.4062 170.141 40.0156 170.141 33.5V21.5469C170.141 10.9062 170.141 9.03125 170 6.82812C169.859 4.53125 169.344 3.45312 167.094 2.98438C166.531 2.84375 165.406 2.75 164.797 2.75C164.516 2.75 164.234 2.65625 164.234 2.375C164.234 1.95312 164.562 1.8125 165.312 1.8125C168.359 1.8125 172.672 2.04688 173 2.04688C173.328 2.04688 178.297 1.8125 180.359 1.8125C181.109 1.8125 181.438 1.95312 181.438 2.375C181.438 2.65625 181.156 2.75 180.875 2.75C180.406 2.75 179.469 2.84375 178.625 2.98438C176.656 3.3125 176.141 4.48438 176 6.82812C175.859 9.03125 175.859 10.9062 175.859 21.5469ZM217.391 21.5469V33.6406C217.391 43.625 217.672 47.9844 218.891 49.2031C219.969 50.2812 221.75 50.75 227.047 50.75C230.656 50.75 233.609 50.7031 235.25 48.7344C236.141 47.6094 236.844 45.9219 237.031 44.6562C237.078 44.0938 237.219 43.7656 237.641 43.7656C237.969 43.7656 238.062 44.0469 238.062 44.7969C238.062 45.5469 237.594 49.625 237.031 51.5938C236.562 53.1406 236.328 53.4219 232.766 53.4219C227.844 53.4219 224.328 53.2812 221.469 53.1875C218.609 53.0469 216.5 53 214.531 53C214.25 53 213.125 53.0469 211.766 53.0469C210.406 53.1406 208.906 53.1875 207.875 53.1875C207.125 53.1875 206.797 53.0469 206.797 52.6719C206.797 52.4375 206.938 52.25 207.312 52.25C207.922 52.25 208.766 52.1094 209.375 51.9688C210.734 51.6875 211.062 50.2344 211.344 48.2656C211.672 45.4062 211.672 40.0156 211.672 33.5V21.5469C211.672 10.9062 211.672 9.03125 211.531 6.82812C211.391 4.53125 210.875 3.45312 208.625 2.98438C208.062 2.84375 206.938 2.75 206.328 2.75C206.047 2.75 205.766 2.65625 205.766 2.375C205.766 1.95312 206.094 1.8125 206.844 1.8125C209.891 1.8125 214.203 2.04688 214.531 2.04688C214.859 2.04688 219.828 1.8125 221.891 1.8125C222.641 1.8125 222.969 1.95312 222.969 2.375C222.969 2.65625 222.688 2.75 222.406 2.75C221.938 2.75 221 2.84375 220.156 2.98438C218.188 3.3125 217.672 4.48438 217.531 6.82812C217.391 9.03125 217.391 10.9062 217.391 21.5469ZM245.469 27.4531C245.469 16.4375 253.484 0.875 272.234 0.875C287.516 0.875 298.953 10.5312 298.953 26.375C298.953 41.5625 288.219 54.1719 271.812 54.1719C253.203 54.1719 245.469 39.6875 245.469 27.4531ZM251.938 25.5312C251.938 41.375 261.453 51.5938 273.688 51.5938C279.781 51.5938 292.438 48.0312 292.438 28.25C292.438 11.9375 282.5 3.17188 271.766 3.17188C260.422 3.17188 251.938 10.6719 251.938 25.5312ZM4.56381 85.504C4.49981 85.3333 4.44648 85.1627 4.40381 84.992C4.37181 84.8107 4.34515 84.6133 4.32381 84.4C4.30248 84.176 4.28648 83.92 4.27581 83.632C4.26515 83.3333 4.25981 82.976 4.25981 82.56C4.25981 82.144 4.26515 81.792 4.27581 81.504C4.28648 81.2053 4.30248 80.9493 4.32381 80.736C4.34515 80.512 4.37181 80.3147 4.40381 80.144C4.44648 79.9733 4.49981 79.7973 4.56381 79.616C4.85181 78.72 5.32648 78.0533 5.98781 77.616C6.65981 77.168 7.47581 76.944 8.43581 76.944C9.36381 76.944 10.1478 77.1573 10.7878 77.584C11.4385 78 11.9185 78.592 12.2278 79.36C12.2811 79.456 12.2545 79.52 12.1478 79.552L10.4038 80.336C10.3078 80.3893 10.2331 80.3627 10.1798 80.256C10.0305 79.904 9.81715 79.6107 9.53981 79.376C9.27315 79.1413 8.91048 79.024 8.45181 79.024C8.02515 79.024 7.67315 79.1307 7.39581 79.344C7.12915 79.5573 6.93715 79.8507 6.81981 80.224C6.78781 80.32 6.76115 80.4267 6.73981 80.544C6.71848 80.6507 6.69715 80.7893 6.67581 80.96C6.66515 81.1307 6.65448 81.344 6.64381 81.6C6.64381 81.856 6.64381 82.176 6.64381 82.56C6.64381 82.944 6.64381 83.264 6.64381 83.52C6.65448 83.776 6.66515 83.9893 6.67581 84.16C6.69715 84.3307 6.71848 84.4747 6.73981 84.592C6.76115 84.6987 6.78781 84.8 6.81981 84.896C6.93715 85.2693 7.12915 85.5627 7.39581 85.776C7.67315 85.9893 8.02515 86.096 8.45181 86.096C8.91048 86.096 9.27315 85.9787 9.53981 85.744C9.81715 85.5093 10.0305 85.216 10.1798 84.864C10.2331 84.7573 10.3078 84.7307 10.4038 84.784L12.1478 85.568C12.2545 85.6 12.2811 85.664 12.2278 85.76C11.9185 86.528 11.4385 87.1253 10.7878 87.552C10.1478 87.968 9.36381 88.176 8.43581 88.176C7.47581 88.176 6.65981 87.9573 5.98781 87.52C5.32648 87.072 4.85181 86.4 4.56381 85.504ZM13.8789 88C13.7723 88 13.7189 87.9467 13.7189 87.84V80.416C13.7189 80.3093 13.7723 80.256 13.8789 80.256H15.7989C15.9056 80.256 15.9589 80.3093 15.9589 80.416V81.072H15.9749C16.1563 80.7627 16.4176 80.5227 16.7589 80.352C17.1003 80.1707 17.5109 80.08 17.9909 80.08C18.2469 80.08 18.4923 80.1227 18.7269 80.208C18.9723 80.2827 19.1803 80.3947 19.3509 80.544C19.4256 80.608 19.4416 80.6827 19.3989 80.768L18.5029 82.4C18.4496 82.464 18.3749 82.4747 18.2789 82.432C17.8949 82.1867 17.5216 82.0693 17.1589 82.08C16.7429 82.1013 16.4389 82.256 16.2469 82.544C16.0549 82.832 15.9589 83.2373 15.9589 83.76V87.84C15.9589 87.9467 15.9056 88 15.7989 88H13.8789ZM23.8434 88.176C22.9581 88.176 22.2221 87.984 21.6354 87.6C21.0488 87.216 20.6434 86.672 20.4194 85.968C20.3341 85.7227 20.2648 85.456 20.2114 85.168C20.1688 84.88 20.1474 84.5333 20.1474 84.128C20.1474 83.7227 20.1688 83.376 20.2114 83.088C20.2541 82.7893 20.3181 82.5173 20.4034 82.272C20.6274 81.568 21.0274 81.0293 21.6034 80.656C22.1901 80.272 22.8994 80.08 23.7314 80.08C24.5954 80.08 25.3101 80.272 25.8754 80.656C26.4514 81.04 26.8514 81.5733 27.0754 82.256C27.1181 82.384 27.1554 82.5227 27.1874 82.672C27.2194 82.8107 27.2461 82.9707 27.2674 83.152C27.2888 83.3333 27.3048 83.5467 27.3154 83.792C27.3261 84.0267 27.3314 84.3093 27.3314 84.64C27.3314 84.7467 27.2728 84.8 27.1554 84.8H22.4674C22.4034 84.8 22.3714 84.832 22.3714 84.896C22.3821 85.056 22.4141 85.2 22.4674 85.328C22.5741 85.6693 22.7661 85.9253 23.0434 86.096C23.3208 86.2667 23.6621 86.352 24.0674 86.352C24.4514 86.352 24.7874 86.2933 25.0754 86.176C25.3634 86.048 25.6194 85.8773 25.8434 85.664C25.9394 85.5893 26.0141 85.5893 26.0674 85.664L27.1234 86.656C27.2088 86.7307 27.2141 86.8053 27.1394 86.88C26.7661 87.2747 26.3021 87.5893 25.7474 87.824C25.1928 88.0587 24.5581 88.176 23.8434 88.176ZM25.0274 83.312C25.0914 83.312 25.1234 83.28 25.1234 83.216C25.1234 83.0987 25.1128 82.9973 25.0914 82.912C25.0808 82.816 25.0648 82.7253 25.0434 82.64C24.9581 82.3733 24.7981 82.1653 24.5634 82.016C24.3394 81.8667 24.0674 81.792 23.7474 81.792C23.4274 81.792 23.1501 81.8667 22.9154 82.016C22.6914 82.1653 22.5368 82.3733 22.4514 82.64C22.4301 82.7253 22.4088 82.816 22.3874 82.912C22.3768 82.9973 22.3714 83.0987 22.3714 83.216C22.3714 83.28 22.4034 83.312 22.4674 83.312H25.0274ZM33.5129 88C33.4063 88 33.3529 87.9467 33.3529 87.84V87.328H33.3369C33.1343 87.584 32.8623 87.792 32.5209 87.952C32.1796 88.1013 31.7423 88.176 31.2089 88.176C30.8676 88.176 30.5369 88.128 30.2169 88.032C29.9076 87.9467 29.6356 87.808 29.4009 87.616C29.1663 87.424 28.9796 87.1787 28.8409 86.88C28.7023 86.5813 28.6329 86.224 28.6329 85.808C28.6329 84.9547 28.9263 84.3253 29.5129 83.92C30.1103 83.5147 30.8889 83.312 31.8489 83.312H33.2249C33.2889 83.312 33.3209 83.28 33.3209 83.216V82.928C33.3209 82.5653 33.2089 82.2987 32.9849 82.128C32.7716 81.9573 32.3556 81.872 31.7369 81.872C31.3423 81.872 31.0009 81.92 30.7129 82.016C30.4249 82.112 30.1903 82.2293 30.0089 82.368C29.9236 82.432 29.8543 82.4213 29.8009 82.336L29.0809 81.072C29.0276 80.976 29.0436 80.9013 29.1289 80.848C29.4596 80.6133 29.8596 80.4267 30.3289 80.288C30.8089 80.1493 31.3689 80.08 32.0089 80.08C32.6383 80.08 33.1716 80.1387 33.6089 80.256C34.0463 80.3627 34.3983 80.5333 34.6649 80.768C34.9423 80.992 35.1396 81.28 35.2569 81.632C35.3849 81.984 35.4489 82.4 35.4489 82.88V87.84C35.4489 87.9467 35.3956 88 35.2889 88H33.5129ZM31.8809 86.496C32.8409 86.496 33.3209 86.1387 33.3209 85.424V84.896C33.3209 84.832 33.2889 84.8 33.2249 84.8H32.1369C31.2196 84.8 30.7609 85.0933 30.7609 85.68C30.7609 86.224 31.1343 86.496 31.8809 86.496ZM40.0461 88.096C39.1501 88.096 38.5154 87.888 38.1421 87.472C37.7687 87.056 37.5821 86.4053 37.5821 85.52V82C37.5821 81.936 37.5501 81.904 37.4861 81.904H37.0061C36.8994 81.904 36.8461 81.8507 36.8461 81.744V80.416C36.8461 80.3093 36.8994 80.256 37.0061 80.256H37.4861C37.5501 80.256 37.5821 80.224 37.5821 80.16V78.08C37.5821 77.9733 37.6354 77.92 37.7421 77.92H39.6461C39.7527 77.92 39.8061 77.9733 39.8061 78.08V80.16C39.8061 80.224 39.8381 80.256 39.9021 80.256H40.8941C41.0007 80.256 41.0541 80.3093 41.0541 80.416V81.744C41.0541 81.8507 41.0007 81.904 40.8941 81.904H39.9021C39.8381 81.904 39.8061 81.936 39.8061 82V85.424C39.8061 85.712 39.8594 85.9147 39.9661 86.032C40.0727 86.1387 40.2541 86.192 40.5101 86.192H40.8941C41.0007 86.192 41.0541 86.2453 41.0541 86.352V87.936C41.0541 88.0427 41.0007 88.096 40.8941 88.096H40.0461ZM46.0309 88.176C45.1456 88.176 44.4096 87.984 43.8229 87.6C43.2363 87.216 42.8309 86.672 42.6069 85.968C42.5216 85.7227 42.4523 85.456 42.3989 85.168C42.3563 84.88 42.3349 84.5333 42.3349 84.128C42.3349 83.7227 42.3563 83.376 42.3989 83.088C42.4416 82.7893 42.5056 82.5173 42.5909 82.272C42.8149 81.568 43.2149 81.0293 43.7909 80.656C44.3776 80.272 45.0869 80.08 45.9189 80.08C46.7829 80.08 47.4976 80.272 48.0629 80.656C48.6389 81.04 49.0389 81.5733 49.2629 82.256C49.3056 82.384 49.3429 82.5227 49.3749 82.672C49.4069 82.8107 49.4336 82.9707 49.4549 83.152C49.4763 83.3333 49.4923 83.5467 49.5029 83.792C49.5136 84.0267 49.5189 84.3093 49.5189 84.64C49.5189 84.7467 49.4603 84.8 49.3429 84.8H44.6549C44.5909 84.8 44.5589 84.832 44.5589 84.896C44.5696 85.056 44.6016 85.2 44.6549 85.328C44.7616 85.6693 44.9536 85.9253 45.2309 86.096C45.5083 86.2667 45.8496 86.352 46.2549 86.352C46.6389 86.352 46.9749 86.2933 47.2629 86.176C47.5509 86.048 47.8069 85.8773 48.0309 85.664C48.1269 85.5893 48.2016 85.5893 48.2549 85.664L49.3109 86.656C49.3963 86.7307 49.4016 86.8053 49.3269 86.88C48.9536 87.2747 48.4896 87.5893 47.9349 87.824C47.3803 88.0587 46.7456 88.176 46.0309 88.176ZM47.2149 83.312C47.2789 83.312 47.3109 83.28 47.3109 83.216C47.3109 83.0987 47.3003 82.9973 47.2789 82.912C47.2683 82.816 47.2523 82.7253 47.2309 82.64C47.1456 82.3733 46.9856 82.1653 46.7509 82.016C46.5269 81.8667 46.2549 81.792 45.9349 81.792C45.6149 81.792 45.3376 81.8667 45.1029 82.016C44.8789 82.1653 44.7243 82.3733 44.6389 82.64C44.6176 82.7253 44.5963 82.816 44.5749 82.912C44.5643 82.9973 44.5589 83.0987 44.5589 83.216C44.5589 83.28 44.5909 83.312 44.6549 83.312H47.2149ZM59.4817 88C59.375 88 59.3217 87.9467 59.3217 87.84V87.328H59.3057C59.103 87.584 58.831 87.792 58.4897 87.952C58.1484 88.1013 57.711 88.176 57.1777 88.176C56.8364 88.176 56.5057 88.128 56.1857 88.032C55.8764 87.9467 55.6044 87.808 55.3697 87.616C55.135 87.424 54.9484 87.1787 54.8097 86.88C54.671 86.5813 54.6017 86.224 54.6017 85.808C54.6017 84.9547 54.895 84.3253 55.4817 83.92C56.079 83.5147 56.8577 83.312 57.8177 83.312H59.1937C59.2577 83.312 59.2897 83.28 59.2897 83.216V82.928C59.2897 82.5653 59.1777 82.2987 58.9537 82.128C58.7404 81.9573 58.3244 81.872 57.7057 81.872C57.311 81.872 56.9697 81.92 56.6817 82.016C56.3937 82.112 56.159 82.2293 55.9777 82.368C55.8924 82.432 55.823 82.4213 55.7697 82.336L55.0497 81.072C54.9964 80.976 55.0124 80.9013 55.0977 80.848C55.4284 80.6133 55.8284 80.4267 56.2977 80.288C56.7777 80.1493 57.3377 80.08 57.9777 80.08C58.607 80.08 59.1404 80.1387 59.5777 80.256C60.015 80.3627 60.367 80.5333 60.6337 80.768C60.911 80.992 61.1084 81.28 61.2257 81.632C61.3537 81.984 61.4177 82.4 61.4177 82.88V87.84C61.4177 87.9467 61.3644 88 61.2577 88H59.4817ZM57.8497 86.496C58.8097 86.496 59.2897 86.1387 59.2897 85.424V84.896C59.2897 84.832 59.2577 84.8 59.1937 84.8H58.1057C57.1884 84.8 56.7297 85.0933 56.7297 85.68C56.7297 86.224 57.103 86.496 57.8497 86.496ZM66.5908 88.176C65.7695 88.176 65.0655 87.9947 64.4788 87.632C63.8921 87.2587 63.4815 86.7093 63.2468 85.984C63.1615 85.7493 63.0975 85.4827 63.0548 85.184C63.0228 84.8853 63.0068 84.5333 63.0068 84.128C63.0068 83.7227 63.0228 83.3707 63.0548 83.072C63.0975 82.7733 63.1615 82.5067 63.2468 82.272C63.4815 81.5467 63.8921 81.0027 64.4788 80.64C65.0655 80.2667 65.7695 80.08 66.5908 80.08C67.2628 80.08 67.8495 80.2187 68.3508 80.496C68.8521 80.7627 69.2415 81.1093 69.5188 81.536C69.5721 81.6213 69.5615 81.696 69.4868 81.76L68.0948 82.672C67.9988 82.736 67.9188 82.7253 67.8548 82.64C67.6841 82.4053 67.5028 82.2347 67.3108 82.128C67.1295 82.0213 66.9001 81.968 66.6228 81.968C66.3241 81.968 66.0681 82.0373 65.8548 82.176C65.6521 82.3147 65.5081 82.5227 65.4228 82.8C65.3695 82.96 65.3321 83.1413 65.3108 83.344C65.2895 83.5467 65.2788 83.808 65.2788 84.128C65.2788 84.448 65.2895 84.7093 65.3108 84.912C65.3321 85.1147 65.3695 85.296 65.4228 85.456C65.5081 85.7333 65.6521 85.9413 65.8548 86.08C66.0681 86.2187 66.3241 86.288 66.6228 86.288C66.9001 86.288 67.1295 86.2347 67.3108 86.128C67.5028 86.0213 67.6841 85.8507 67.8548 85.616C67.9188 85.5307 67.9988 85.52 68.0948 85.584L69.4868 86.496C69.5615 86.56 69.5721 86.6347 69.5188 86.72C69.2415 87.1467 68.8521 87.4987 68.3508 87.776C67.8495 88.0427 67.2628 88.176 66.5908 88.176ZM74.0127 88.176C73.1914 88.176 72.4874 87.9947 71.9007 87.632C71.314 87.2587 70.9034 86.7093 70.6687 85.984C70.5834 85.7493 70.5194 85.4827 70.4767 85.184C70.4447 84.8853 70.4287 84.5333 70.4287 84.128C70.4287 83.7227 70.4447 83.3707 70.4767 83.072C70.5194 82.7733 70.5834 82.5067 70.6687 82.272C70.9034 81.5467 71.314 81.0027 71.9007 80.64C72.4874 80.2667 73.1914 80.08 74.0127 80.08C74.6847 80.08 75.2714 80.2187 75.7727 80.496C76.274 80.7627 76.6634 81.1093 76.9407 81.536C76.994 81.6213 76.9834 81.696 76.9087 81.76L75.5167 82.672C75.4207 82.736 75.3407 82.7253 75.2767 82.64C75.106 82.4053 74.9247 82.2347 74.7327 82.128C74.5514 82.0213 74.322 81.968 74.0447 81.968C73.746 81.968 73.49 82.0373 73.2767 82.176C73.074 82.3147 72.93 82.5227 72.8447 82.8C72.7914 82.96 72.754 83.1413 72.7327 83.344C72.7114 83.5467 72.7007 83.808 72.7007 84.128C72.7007 84.448 72.7114 84.7093 72.7327 84.912C72.754 85.1147 72.7914 85.296 72.8447 85.456C72.93 85.7333 73.074 85.9413 73.2767 86.08C73.49 86.2187 73.746 86.288 74.0447 86.288C74.322 86.288 74.5514 86.2347 74.7327 86.128C74.9247 86.0213 75.106 85.8507 75.2767 85.616C75.3407 85.5307 75.4207 85.52 75.5167 85.584L76.9087 86.496C76.9834 86.56 76.994 86.6347 76.9407 86.72C76.6634 87.1467 76.274 87.4987 75.7727 87.776C75.2714 88.0427 74.6847 88.176 74.0127 88.176ZM81.7478 88.176C80.9265 88.176 80.2171 87.9893 79.6198 87.616C79.0225 87.2427 78.6118 86.704 78.3878 86C78.3025 85.7227 78.2385 85.44 78.1958 85.152C78.1531 84.8533 78.1318 84.512 78.1318 84.128C78.1318 83.744 78.1531 83.408 78.1958 83.12C78.2385 82.8213 78.3025 82.5333 78.3878 82.256C78.6118 81.552 79.0225 81.0133 79.6198 80.64C80.2171 80.2667 80.9265 80.08 81.7478 80.08C82.5691 80.08 83.2785 80.2667 83.8758 80.64C84.4731 81.0133 84.8838 81.552 85.1078 82.256C85.1931 82.5333 85.2571 82.8213 85.2998 83.12C85.3425 83.408 85.3638 83.744 85.3638 84.128C85.3638 84.512 85.3425 84.8533 85.2998 85.152C85.2571 85.44 85.1931 85.7227 85.1078 86C84.8838 86.704 84.4731 87.2427 83.8758 87.616C83.2785 87.9893 82.5691 88.176 81.7478 88.176ZM81.7478 86.288C82.3665 86.288 82.7665 86.0107 82.9478 85.456C83.0011 85.2747 83.0385 85.0933 83.0598 84.912C83.0811 84.72 83.0918 84.4587 83.0918 84.128C83.0918 83.7973 83.0811 83.5413 83.0598 83.36C83.0385 83.168 83.0011 82.9813 82.9478 82.8C82.7665 82.2453 82.3665 81.968 81.7478 81.968C81.1291 81.968 80.7291 82.2453 80.5478 82.8C80.4945 82.9813 80.4571 83.168 80.4358 83.36C80.4145 83.5413 80.4038 83.7973 80.4038 84.128C80.4038 84.4587 80.4145 84.72 80.4358 84.912C80.4571 85.0933 80.4945 85.2747 80.5478 85.456C80.7291 86.0107 81.1291 86.288 81.7478 86.288ZM91.6882 88C91.5815 88 91.5282 87.9467 91.5282 87.84V87.28H91.5122C91.3095 87.5467 91.0482 87.7653 90.7282 87.936C90.4189 88.096 90.0189 88.176 89.5282 88.176C89.1015 88.176 88.7229 88.1067 88.3922 87.968C88.0722 87.8187 87.8002 87.616 87.5762 87.36C87.3629 87.104 87.1975 86.8 87.0802 86.448C86.9735 86.096 86.9202 85.712 86.9202 85.296V80.416C86.9202 80.3093 86.9735 80.256 87.0802 80.256H89.0002C89.1069 80.256 89.1602 80.3093 89.1602 80.416V84.864C89.1602 85.28 89.2562 85.6213 89.4482 85.888C89.6509 86.144 89.9495 86.272 90.3442 86.272C90.7282 86.272 91.0215 86.144 91.2242 85.888C91.4269 85.632 91.5282 85.2907 91.5282 84.864V80.416C91.5282 80.3093 91.5815 80.256 91.6882 80.256H93.6082C93.7149 80.256 93.7682 80.3093 93.7682 80.416V87.84C93.7682 87.9467 93.7149 88 93.6082 88H91.6882ZM100.597 88C100.491 88 100.437 87.9467 100.437 87.84V83.392C100.437 82.9653 100.336 82.624 100.133 82.368C99.9414 82.112 99.6428 81.984 99.2374 81.984C98.8534 81.984 98.5548 82.112 98.3414 82.368C98.1281 82.624 98.0214 82.9653 98.0214 83.392V87.84C98.0214 87.9467 97.9681 88 97.8614 88H95.9414C95.8348 88 95.7814 87.9467 95.7814 87.84V80.416C95.7814 80.3093 95.8348 80.256 95.9414 80.256H97.8614C97.9681 80.256 98.0214 80.3093 98.0214 80.416V80.96H98.0374C98.2188 80.7147 98.4694 80.5067 98.7894 80.336C99.1201 80.1653 99.5361 80.08 100.037 80.08C100.464 80.08 100.843 80.1493 101.173 80.288C101.504 80.4267 101.781 80.624 102.005 80.88C102.229 81.136 102.395 81.44 102.501 81.792C102.619 82.144 102.677 82.5333 102.677 82.96V87.84C102.677 87.9467 102.624 88 102.517 88H100.597ZM107.249 88.096C106.353 88.096 105.719 87.888 105.345 87.472C104.972 87.056 104.785 86.4053 104.785 85.52V82C104.785 81.936 104.753 81.904 104.689 81.904H104.209C104.103 81.904 104.049 81.8507 104.049 81.744V80.416C104.049 80.3093 104.103 80.256 104.209 80.256H104.689C104.753 80.256 104.785 80.224 104.785 80.16V78.08C104.785 77.9733 104.839 77.92 104.945 77.92H106.849C106.956 77.92 107.009 77.9733 107.009 78.08V80.16C107.009 80.224 107.041 80.256 107.105 80.256H108.097C108.204 80.256 108.257 80.3093 108.257 80.416V81.744C108.257 81.8507 108.204 81.904 108.097 81.904H107.105C107.041 81.904 107.009 81.936 107.009 82V85.424C107.009 85.712 107.063 85.9147 107.169 86.032C107.276 86.1387 107.457 86.192 107.713 86.192H108.097C108.204 86.192 108.257 86.2453 108.257 86.352V87.936C108.257 88.0427 108.204 88.096 108.097 88.096H107.249ZM118.247 88C118.141 88 118.087 87.9467 118.087 87.84V87.328H118.071C117.869 87.584 117.597 87.792 117.255 87.952C116.914 88.1013 116.477 88.176 115.943 88.176C115.602 88.176 115.271 88.128 114.951 88.032C114.642 87.9467 114.37 87.808 114.135 87.616C113.901 87.424 113.714 87.1787 113.575 86.88C113.437 86.5813 113.367 86.224 113.367 85.808C113.367 84.9547 113.661 84.3253 114.247 83.92C114.845 83.5147 115.623 83.312 116.583 83.312H117.959C118.023 83.312 118.055 83.28 118.055 83.216V82.928C118.055 82.5653 117.943 82.2987 117.719 82.128C117.506 81.9573 117.09 81.872 116.471 81.872C116.077 81.872 115.735 81.92 115.447 82.016C115.159 82.112 114.925 82.2293 114.743 82.368C114.658 82.432 114.589 82.4213 114.535 82.336L113.815 81.072C113.762 80.976 113.778 80.9013 113.863 80.848C114.194 80.6133 114.594 80.4267 115.063 80.288C115.543 80.1493 116.103 80.08 116.743 80.08C117.373 80.08 117.906 80.1387 118.343 80.256C118.781 80.3627 119.133 80.5333 119.399 80.768C119.677 80.992 119.874 81.28 119.991 81.632C120.119 81.984 120.183 82.4 120.183 82.88V87.84C120.183 87.9467 120.13 88 120.023 88H118.247ZM116.615 86.496C117.575 86.496 118.055 86.1387 118.055 85.424V84.896C118.055 84.832 118.023 84.8 117.959 84.8H116.871C115.954 84.8 115.495 85.0933 115.495 85.68C115.495 86.224 115.869 86.496 116.615 86.496ZM126.972 88C126.866 88 126.812 87.9467 126.812 87.84V83.392C126.812 82.9653 126.711 82.624 126.508 82.368C126.316 82.112 126.018 81.984 125.612 81.984C125.228 81.984 124.93 82.112 124.716 82.368C124.503 82.624 124.396 82.9653 124.396 83.392V87.84C124.396 87.9467 124.343 88 124.236 88H122.316C122.21 88 122.156 87.9467 122.156 87.84V80.416C122.156 80.3093 122.21 80.256 122.316 80.256H124.236C124.343 80.256 124.396 80.3093 124.396 80.416V80.96H124.412C124.594 80.7147 124.844 80.5067 125.164 80.336C125.495 80.1653 125.911 80.08 126.412 80.08C126.839 80.08 127.218 80.1493 127.548 80.288C127.879 80.4267 128.156 80.624 128.38 80.88C128.604 81.136 128.77 81.44 128.876 81.792C128.994 82.144 129.052 82.5333 129.052 82.96V87.84C129.052 87.9467 128.999 88 128.892 88H126.972ZM135.72 88C135.614 88 135.56 87.9467 135.56 87.84V87.28H135.544C135.363 87.5467 135.107 87.7653 134.776 87.936C134.446 88.096 134.024 88.176 133.512 88.176C132.862 88.176 132.312 88.0213 131.864 87.712C131.416 87.392 131.091 86.928 130.888 86.32C130.792 86.0107 130.723 85.696 130.68 85.376C130.638 85.0453 130.616 84.6293 130.616 84.128C130.616 83.616 130.638 83.2 130.68 82.88C130.723 82.56 130.792 82.2453 130.888 81.936C131.091 81.3173 131.416 80.8533 131.864 80.544C132.312 80.2347 132.862 80.08 133.512 80.08C134.024 80.08 134.446 80.1653 134.776 80.336C135.107 80.496 135.363 80.7093 135.544 80.976H135.56V77.28C135.56 77.1733 135.614 77.12 135.72 77.12H137.64C137.747 77.12 137.8 77.1733 137.8 77.28V87.84C137.8 87.9467 137.747 88 137.64 88H135.72ZM134.232 86.288C134.84 86.288 135.235 86.0107 135.416 85.456C135.47 85.3067 135.507 85.136 135.528 84.944C135.55 84.7413 135.56 84.4693 135.56 84.128C135.56 83.7867 135.55 83.52 135.528 83.328C135.507 83.1253 135.47 82.9493 135.416 82.8C135.246 82.2453 134.851 81.968 134.232 81.968C133.603 81.968 133.203 82.2453 133.032 82.8C132.979 82.9493 132.942 83.1253 132.92 83.328C132.899 83.52 132.888 83.7867 132.888 84.128C132.888 84.4693 132.899 84.7413 132.92 84.944C132.942 85.136 132.979 85.3067 133.032 85.456C133.214 86.0107 133.614 86.288 134.232 86.288ZM146.906 88.176C146.021 88.176 145.285 87.984 144.698 87.6C144.111 87.216 143.706 86.672 143.482 85.968C143.397 85.7227 143.327 85.456 143.274 85.168C143.231 84.88 143.21 84.5333 143.21 84.128C143.21 83.7227 143.231 83.376 143.274 83.088C143.317 82.7893 143.381 82.5173 143.466 82.272C143.69 81.568 144.09 81.0293 144.666 80.656C145.253 80.272 145.962 80.08 146.794 80.08C147.658 80.08 148.373 80.272 148.938 80.656C149.514 81.04 149.914 81.5733 150.138 82.256C150.181 82.384 150.218 82.5227 150.25 82.672C150.282 82.8107 150.309 82.9707 150.33 83.152C150.351 83.3333 150.367 83.5467 150.378 83.792C150.389 84.0267 150.394 84.3093 150.394 84.64C150.394 84.7467 150.335 84.8 150.218 84.8H145.53C145.466 84.8 145.434 84.832 145.434 84.896C145.445 85.056 145.477 85.2 145.53 85.328C145.637 85.6693 145.829 85.9253 146.106 86.096C146.383 86.2667 146.725 86.352 147.13 86.352C147.514 86.352 147.85 86.2933 148.138 86.176C148.426 86.048 148.682 85.8773 148.906 85.664C149.002 85.5893 149.077 85.5893 149.13 85.664L150.186 86.656C150.271 86.7307 150.277 86.8053 150.202 86.88C149.829 87.2747 149.365 87.5893 148.81 87.824C148.255 88.0587 147.621 88.176 146.906 88.176ZM148.09 83.312C148.154 83.312 148.186 83.28 148.186 83.216C148.186 83.0987 148.175 82.9973 148.154 82.912C148.143 82.816 148.127 82.7253 148.106 82.64C148.021 82.3733 147.861 82.1653 147.626 82.016C147.402 81.8667 147.13 81.792 146.81 81.792C146.49 81.792 146.213 81.8667 145.978 82.016C145.754 82.1653 145.599 82.3733 145.514 82.64C145.493 82.7253 145.471 82.816 145.45 82.912C145.439 82.9973 145.434 83.0987 145.434 83.216C145.434 83.28 145.466 83.312 145.53 83.312H148.09ZM156.847 88C156.741 88 156.687 87.9467 156.687 87.84V83.392C156.687 82.9653 156.586 82.624 156.383 82.368C156.191 82.112 155.893 81.984 155.487 81.984C155.103 81.984 154.805 82.112 154.591 82.368C154.378 82.624 154.271 82.9653 154.271 83.392V87.84C154.271 87.9467 154.218 88 154.111 88H152.191C152.085 88 152.031 87.9467 152.031 87.84V80.416C152.031 80.3093 152.085 80.256 152.191 80.256H154.111C154.218 80.256 154.271 80.3093 154.271 80.416V80.96H154.287C154.469 80.7147 154.719 80.5067 155.039 80.336C155.37 80.1653 155.786 80.08 156.287 80.08C156.714 80.08 157.093 80.1493 157.423 80.288C157.754 80.4267 158.031 80.624 158.255 80.88C158.479 81.136 158.645 81.44 158.751 81.792C158.869 82.144 158.927 82.5333 158.927 82.96V87.84C158.927 87.9467 158.874 88 158.767 88H156.847ZM161.035 79.024C160.929 79.024 160.875 78.9707 160.875 78.864V77.28C160.875 77.1733 160.929 77.12 161.035 77.12H162.955C163.062 77.12 163.115 77.1733 163.115 77.28V78.864C163.115 78.9707 163.062 79.024 162.955 79.024H161.035ZM159.691 90.88C159.585 90.88 159.531 90.8267 159.531 90.72V89.152C159.531 89.0453 159.585 88.992 159.691 88.992H160.011C160.321 88.992 160.539 88.928 160.667 88.8C160.806 88.6827 160.875 88.448 160.875 88.096V80.416C160.875 80.3093 160.929 80.256 161.035 80.256H162.955C163.062 80.256 163.115 80.3093 163.115 80.416V88.08C163.115 89.072 162.865 89.7867 162.363 90.224C161.873 90.6613 161.158 90.88 160.219 90.88H159.691ZM168.357 88.176C167.536 88.176 166.827 87.9893 166.229 87.616C165.632 87.2427 165.221 86.704 164.997 86C164.912 85.7227 164.848 85.44 164.805 85.152C164.763 84.8533 164.741 84.512 164.741 84.128C164.741 83.744 164.763 83.408 164.805 83.12C164.848 82.8213 164.912 82.5333 164.997 82.256C165.221 81.552 165.632 81.0133 166.229 80.64C166.827 80.2667 167.536 80.08 168.357 80.08C169.179 80.08 169.888 80.2667 170.485 80.64C171.083 81.0133 171.493 81.552 171.717 82.256C171.803 82.5333 171.867 82.8213 171.909 83.12C171.952 83.408 171.973 83.744 171.973 84.128C171.973 84.512 171.952 84.8533 171.909 85.152C171.867 85.44 171.803 85.7227 171.717 86C171.493 86.704 171.083 87.2427 170.485 87.616C169.888 87.9893 169.179 88.176 168.357 88.176ZM168.357 86.288C168.976 86.288 169.376 86.0107 169.557 85.456C169.611 85.2747 169.648 85.0933 169.669 84.912C169.691 84.72 169.701 84.4587 169.701 84.128C169.701 83.7973 169.691 83.5413 169.669 83.36C169.648 83.168 169.611 82.9813 169.557 82.8C169.376 82.2453 168.976 81.968 168.357 81.968C167.739 81.968 167.339 82.2453 167.157 82.8C167.104 82.9813 167.067 83.168 167.045 83.36C167.024 83.5413 167.013 83.7973 167.013 84.128C167.013 84.4587 167.024 84.72 167.045 84.912C167.067 85.0933 167.104 85.2747 167.157 85.456C167.339 86.0107 167.739 86.288 168.357 86.288ZM173.902 90.88C173.795 90.88 173.742 90.8267 173.742 90.72V89.152C173.742 89.0453 173.795 88.992 173.902 88.992H174.238C174.515 88.992 174.734 88.928 174.894 88.8C175.065 88.6827 175.198 88.48 175.294 88.192L175.502 87.616L172.622 80.416C172.59 80.3093 172.633 80.256 172.75 80.256H174.798C174.894 80.256 174.958 80.3093 174.99 80.416L176.542 84.896H176.574L178.014 80.416C178.046 80.3093 178.11 80.256 178.206 80.256H180.19C180.307 80.256 180.35 80.3093 180.318 80.416L177.182 88.656C177.022 89.0827 176.851 89.44 176.67 89.728C176.499 90.016 176.307 90.2453 176.094 90.416C175.881 90.5867 175.641 90.704 175.374 90.768C175.107 90.8427 174.798 90.88 174.446 90.88H173.902ZM189.857 88C189.75 88 189.697 87.9467 189.697 87.84V87.328H189.681C189.478 87.584 189.206 87.792 188.865 87.952C188.523 88.1013 188.086 88.176 187.553 88.176C187.211 88.176 186.881 88.128 186.561 88.032C186.251 87.9467 185.979 87.808 185.745 87.616C185.51 87.424 185.323 87.1787 185.185 86.88C185.046 86.5813 184.977 86.224 184.977 85.808C184.977 84.9547 185.27 84.3253 185.857 83.92C186.454 83.5147 187.233 83.312 188.193 83.312H189.569C189.633 83.312 189.665 83.28 189.665 83.216V82.928C189.665 82.5653 189.553 82.2987 189.329 82.128C189.115 81.9573 188.699 81.872 188.081 81.872C187.686 81.872 187.345 81.92 187.057 82.016C186.769 82.112 186.534 82.2293 186.353 82.368C186.267 82.432 186.198 82.4213 186.145 82.336L185.425 81.072C185.371 80.976 185.387 80.9013 185.473 80.848C185.803 80.6133 186.203 80.4267 186.673 80.288C187.153 80.1493 187.713 80.08 188.353 80.08C188.982 80.08 189.515 80.1387 189.953 80.256C190.39 80.3627 190.742 80.5333 191.009 80.768C191.286 80.992 191.483 81.28 191.601 81.632C191.729 81.984 191.793 82.4 191.793 82.88V87.84C191.793 87.9467 191.739 88 191.633 88H189.857ZM188.225 86.496C189.185 86.496 189.665 86.1387 189.665 85.424V84.896C189.665 84.832 189.633 84.8 189.569 84.8H188.481C187.563 84.8 187.105 85.0933 187.105 85.68C187.105 86.224 187.478 86.496 188.225 86.496ZM198.582 88C198.475 88 198.422 87.9467 198.422 87.84V83.392C198.422 82.9653 198.32 82.624 198.118 82.368C197.926 82.112 197.627 81.984 197.222 81.984C196.838 81.984 196.539 82.112 196.326 82.368C196.112 82.624 196.006 82.9653 196.006 83.392V87.84C196.006 87.9467 195.952 88 195.846 88H193.926C193.819 88 193.766 87.9467 193.766 87.84V80.416C193.766 80.3093 193.819 80.256 193.926 80.256H195.846C195.952 80.256 196.006 80.3093 196.006 80.416V80.96H196.022C196.203 80.7147 196.454 80.5067 196.774 80.336C197.104 80.1653 197.52 80.08 198.022 80.08C198.448 80.08 198.827 80.1493 199.158 80.288C199.488 80.4267 199.766 80.624 199.99 80.88C200.214 81.136 200.379 81.44 200.486 81.792C200.603 82.144 200.662 82.5333 200.662 82.96V87.84C200.662 87.9467 200.608 88 200.502 88H198.582ZM206.423 77.28C206.423 77.1733 206.476 77.12 206.583 77.12H213.559C213.665 77.12 213.719 77.1733 213.719 77.28V78.992C213.719 79.0987 213.665 79.152 213.559 79.152H208.871C208.807 79.152 208.775 79.184 208.775 79.248V81.408C208.775 81.472 208.807 81.504 208.871 81.504H212.775C212.881 81.504 212.935 81.5573 212.935 81.664V83.36C212.935 83.4667 212.881 83.52 212.775 83.52H208.871C208.807 83.52 208.775 83.552 208.775 83.616V85.872C208.775 85.936 208.807 85.968 208.871 85.968H213.559C213.665 85.968 213.719 86.0213 213.719 86.128V87.84C213.719 87.9467 213.665 88 213.559 88H206.583C206.476 88 206.423 87.9467 206.423 87.84V77.28ZM220.174 88C220.078 88 219.998 87.952 219.934 87.856L218.542 85.744H218.526L217.15 87.856C217.064 87.952 216.979 88 216.894 88H214.83C214.766 88 214.723 87.984 214.702 87.952C214.691 87.92 214.696 87.8827 214.718 87.84L217.326 83.984L214.91 80.416C214.888 80.3733 214.883 80.336 214.894 80.304C214.915 80.272 214.958 80.256 215.022 80.256H217.102C217.219 80.256 217.31 80.304 217.374 80.4L218.542 82.224H218.558L219.742 80.4C219.816 80.304 219.902 80.256 219.998 80.256H222.062C222.136 80.256 222.179 80.272 222.19 80.304C222.211 80.336 222.211 80.3733 222.19 80.416L219.774 83.984L222.382 87.84C222.403 87.8827 222.403 87.92 222.382 87.952C222.371 87.984 222.328 88 222.254 88H220.174ZM226.591 88.176C225.769 88.176 225.065 87.9947 224.479 87.632C223.892 87.2587 223.481 86.7093 223.247 85.984C223.161 85.7493 223.097 85.4827 223.055 85.184C223.023 84.8853 223.007 84.5333 223.007 84.128C223.007 83.7227 223.023 83.3707 223.055 83.072C223.097 82.7733 223.161 82.5067 223.247 82.272C223.481 81.5467 223.892 81.0027 224.479 80.64C225.065 80.2667 225.769 80.08 226.591 80.08C227.263 80.08 227.849 80.2187 228.351 80.496C228.852 80.7627 229.241 81.1093 229.519 81.536C229.572 81.6213 229.561 81.696 229.487 81.76L228.095 82.672C227.999 82.736 227.919 82.7253 227.855 82.64C227.684 82.4053 227.503 82.2347 227.311 82.128C227.129 82.0213 226.9 81.968 226.623 81.968C226.324 81.968 226.068 82.0373 225.855 82.176C225.652 82.3147 225.508 82.5227 225.423 82.8C225.369 82.96 225.332 83.1413 225.311 83.344C225.289 83.5467 225.279 83.808 225.279 84.128C225.279 84.448 225.289 84.7093 225.311 84.912C225.332 85.1147 225.369 85.296 225.423 85.456C225.508 85.7333 225.652 85.9413 225.855 86.08C226.068 86.2187 226.324 86.288 226.623 86.288C226.9 86.288 227.129 86.2347 227.311 86.128C227.503 86.0213 227.684 85.8507 227.855 85.616C227.919 85.5307 227.999 85.52 228.095 85.584L229.487 86.496C229.561 86.56 229.572 86.6347 229.519 86.72C229.241 87.1467 228.852 87.4987 228.351 87.776C227.849 88.0427 227.263 88.176 226.591 88.176ZM233.462 88.096C232.598 88.096 231.979 87.904 231.606 87.52C231.243 87.1253 231.062 86.496 231.062 85.632V77.28C231.062 77.1733 231.115 77.12 231.222 77.12H233.142C233.249 77.12 233.302 77.1733 233.302 77.28V85.456C233.302 85.7227 233.355 85.9147 233.462 86.032C233.569 86.1387 233.739 86.192 233.974 86.192H234.31C234.417 86.192 234.47 86.2453 234.47 86.352V87.936C234.47 88.0427 234.417 88.096 234.31 88.096H233.462ZM240.641 88C240.535 88 240.481 87.9467 240.481 87.84V87.28H240.465C240.263 87.5467 240.001 87.7653 239.681 87.936C239.372 88.096 238.972 88.176 238.481 88.176C238.055 88.176 237.676 88.1067 237.345 87.968C237.025 87.8187 236.753 87.616 236.529 87.36C236.316 87.104 236.151 86.8 236.033 86.448C235.927 86.096 235.873 85.712 235.873 85.296V80.416C235.873 80.3093 235.927 80.256 236.033 80.256H237.953C238.06 80.256 238.113 80.3093 238.113 80.416V84.864C238.113 85.28 238.209 85.6213 238.401 85.888C238.604 86.144 238.903 86.272 239.297 86.272C239.681 86.272 239.975 86.144 240.177 85.888C240.38 85.632 240.481 85.2907 240.481 84.864V80.416C240.481 80.3093 240.535 80.256 240.641 80.256H242.561C242.668 80.256 242.721 80.3093 242.721 80.416V87.84C242.721 87.9467 242.668 88 242.561 88H240.641ZM247.775 88.176C246.964 88.176 246.265 88.0587 245.679 87.824C245.103 87.5787 244.628 87.296 244.255 86.976C244.18 86.9013 244.18 86.8267 244.255 86.752L245.295 85.584C245.359 85.52 245.433 85.52 245.519 85.584C245.86 85.8507 246.239 86.0587 246.655 86.208C247.071 86.3573 247.481 86.432 247.887 86.432C248.292 86.432 248.591 86.3627 248.783 86.224C248.985 86.0853 249.087 85.9093 249.087 85.696C249.087 85.5147 249.012 85.3707 248.863 85.264C248.724 85.1467 248.431 85.0667 247.983 85.024L247.119 84.928C246.297 84.8427 245.668 84.6027 245.231 84.208C244.804 83.8133 244.591 83.264 244.591 82.56C244.591 81.792 244.868 81.1893 245.423 80.752C245.977 80.304 246.761 80.08 247.775 80.08C248.436 80.08 249.033 80.1707 249.567 80.352C250.1 80.5333 250.548 80.7627 250.911 81.04C250.985 81.1147 250.991 81.1947 250.927 81.28L250.031 82.384C249.967 82.4587 249.892 82.4693 249.807 82.416C249.54 82.2453 249.225 82.1013 248.863 81.984C248.5 81.856 248.116 81.792 247.711 81.792C247.38 81.792 247.135 81.8507 246.975 81.968C246.815 82.0853 246.735 82.24 246.735 82.432C246.735 82.6133 246.804 82.7573 246.943 82.864C247.081 82.96 247.369 83.0293 247.807 83.072L248.655 83.168C249.572 83.2533 250.228 83.504 250.623 83.92C251.028 84.336 251.231 84.8693 251.231 85.52C251.22 86.32 250.916 86.9653 250.319 87.456C249.732 87.936 248.884 88.176 247.775 88.176ZM252.973 79.024C252.866 79.024 252.813 78.9707 252.813 78.864V77.28C252.813 77.1733 252.866 77.12 252.973 77.12H254.893C254.999 77.12 255.053 77.1733 255.053 77.28V78.864C255.053 78.9707 254.999 79.024 254.893 79.024H252.973ZM252.973 88C252.866 88 252.813 87.9467 252.813 87.84V80.416C252.813 80.3093 252.866 80.256 252.973 80.256H254.893C254.999 80.256 255.053 80.3093 255.053 80.416V87.84C255.053 87.9467 254.999 88 254.893 88H252.973ZM259.239 88C259.143 88 259.079 87.9467 259.047 87.84L256.295 80.416C256.263 80.3093 256.305 80.256 256.423 80.256H258.439C258.545 80.256 258.615 80.3093 258.647 80.416L260.151 85.008H260.183L261.623 80.416C261.655 80.3093 261.724 80.256 261.831 80.256H263.815C263.932 80.256 263.975 80.3093 263.943 80.416L261.191 87.84C261.159 87.9467 261.095 88 260.999 88H259.239ZM268.312 88.176C267.427 88.176 266.691 87.984 266.104 87.6C265.518 87.216 265.112 86.672 264.888 85.968C264.803 85.7227 264.734 85.456 264.68 85.168C264.638 84.88 264.616 84.5333 264.616 84.128C264.616 83.7227 264.638 83.376 264.68 83.088C264.723 82.7893 264.787 82.5173 264.872 82.272C265.096 81.568 265.496 81.0293 266.072 80.656C266.659 80.272 267.368 80.08 268.2 80.08C269.064 80.08 269.779 80.272 270.344 80.656C270.92 81.04 271.32 81.5733 271.544 82.256C271.587 82.384 271.624 82.5227 271.656 82.672C271.688 82.8107 271.715 82.9707 271.736 83.152C271.758 83.3333 271.774 83.5467 271.784 83.792C271.795 84.0267 271.8 84.3093 271.8 84.64C271.8 84.7467 271.742 84.8 271.624 84.8H266.936C266.872 84.8 266.84 84.832 266.84 84.896C266.851 85.056 266.883 85.2 266.936 85.328C267.043 85.6693 267.235 85.9253 267.512 86.096C267.79 86.2667 268.131 86.352 268.536 86.352C268.92 86.352 269.256 86.2933 269.544 86.176C269.832 86.048 270.088 85.8773 270.312 85.664C270.408 85.5893 270.483 85.5893 270.536 85.664L271.592 86.656C271.678 86.7307 271.683 86.8053 271.608 86.88C271.235 87.2747 270.771 87.5893 270.216 87.824C269.662 88.0587 269.027 88.176 268.312 88.176ZM269.496 83.312C269.56 83.312 269.592 83.28 269.592 83.216C269.592 83.0987 269.582 82.9973 269.56 82.912C269.55 82.816 269.534 82.7253 269.512 82.64C269.427 82.3733 269.267 82.1653 269.032 82.016C268.808 81.8667 268.536 81.792 268.216 81.792C267.896 81.792 267.619 81.8667 267.384 82.016C267.16 82.1653 267.006 82.3733 266.92 82.64C266.899 82.7253 266.878 82.816 266.856 82.912C266.846 82.9973 266.84 83.0987 266.84 83.216C266.84 83.28 266.872 83.312 266.936 83.312H269.496ZM280.531 88.176C279.646 88.176 278.91 87.984 278.323 87.6C277.736 87.216 277.331 86.672 277.107 85.968C277.022 85.7227 276.952 85.456 276.899 85.168C276.856 84.88 276.835 84.5333 276.835 84.128C276.835 83.7227 276.856 83.376 276.899 83.088C276.942 82.7893 277.006 82.5173 277.091 82.272C277.315 81.568 277.715 81.0293 278.291 80.656C278.878 80.272 279.587 80.08 280.419 80.08C281.283 80.08 281.998 80.272 282.563 80.656C283.139 81.04 283.539 81.5733 283.763 82.256C283.806 82.384 283.843 82.5227 283.875 82.672C283.907 82.8107 283.934 82.9707 283.955 83.152C283.976 83.3333 283.992 83.5467 284.003 83.792C284.014 84.0267 284.019 84.3093 284.019 84.64C284.019 84.7467 283.96 84.8 283.843 84.8H279.155C279.091 84.8 279.059 84.832 279.059 84.896C279.07 85.056 279.102 85.2 279.155 85.328C279.262 85.6693 279.454 85.9253 279.731 86.096C280.008 86.2667 280.35 86.352 280.755 86.352C281.139 86.352 281.475 86.2933 281.763 86.176C282.051 86.048 282.307 85.8773 282.531 85.664C282.627 85.5893 282.702 85.5893 282.755 85.664L283.811 86.656C283.896 86.7307 283.902 86.8053 283.827 86.88C283.454 87.2747 282.99 87.5893 282.435 87.824C281.88 88.0587 281.246 88.176 280.531 88.176ZM281.715 83.312C281.779 83.312 281.811 83.28 281.811 83.216C281.811 83.0987 281.8 82.9973 281.779 82.912C281.768 82.816 281.752 82.7253 281.731 82.64C281.646 82.3733 281.486 82.1653 281.251 82.016C281.027 81.8667 280.755 81.792 280.435 81.792C280.115 81.792 279.838 81.8667 279.603 82.016C279.379 82.1653 279.224 82.3733 279.139 82.64C279.118 82.7253 279.096 82.816 279.075 82.912C279.064 82.9973 279.059 83.0987 279.059 83.216C279.059 83.28 279.091 83.312 279.155 83.312H281.715ZM290.267 88C290.171 88 290.091 87.952 290.027 87.856L288.635 85.744H288.619L287.243 87.856C287.158 87.952 287.073 88 286.987 88H284.923C284.859 88 284.817 87.984 284.795 87.952C284.785 87.92 284.79 87.8827 284.811 87.84L287.419 83.984L285.003 80.416C284.982 80.3733 284.977 80.336 284.987 80.304C285.009 80.272 285.051 80.256 285.115 80.256H287.195C287.313 80.256 287.403 80.304 287.467 80.4L288.635 82.224H288.651L289.835 80.4C289.91 80.304 289.995 80.256 290.091 80.256H292.155C292.23 80.256 292.273 80.272 292.283 80.304C292.305 80.336 292.305 80.3733 292.283 80.416L289.867 83.984L292.475 87.84C292.497 87.8827 292.497 87.92 292.475 87.952C292.465 87.984 292.422 88 292.347 88H290.267ZM293.926 90.88C293.819 90.88 293.766 90.8267 293.766 90.72V80.416C293.766 80.3093 293.819 80.256 293.926 80.256H295.846C295.952 80.256 296.006 80.3093 296.006 80.416V80.976H296.022C296.203 80.7093 296.459 80.496 296.79 80.336C297.12 80.1653 297.542 80.08 298.054 80.08C298.704 80.08 299.254 80.2347 299.702 80.544C300.15 80.8533 300.475 81.3173 300.678 81.936C300.774 82.2453 300.843 82.56 300.886 82.88C300.928 83.2 300.95 83.616 300.95 84.128C300.95 84.6293 300.928 85.0453 300.886 85.376C300.843 85.696 300.774 86.0107 300.678 86.32C300.475 86.928 300.15 87.392 299.702 87.712C299.254 88.0213 298.704 88.176 298.054 88.176C297.542 88.176 297.12 88.096 296.79 87.936C296.459 87.7653 296.203 87.5467 296.022 87.28H296.006V90.72C296.006 90.8267 295.952 90.88 295.846 90.88H293.926ZM297.334 86.288C297.952 86.288 298.352 86.0107 298.534 85.456C298.587 85.3067 298.624 85.136 298.646 84.944C298.667 84.7413 298.678 84.4693 298.678 84.128C298.678 83.7867 298.667 83.52 298.646 83.328C298.624 83.1253 298.587 82.9493 298.534 82.8C298.363 82.2453 297.963 81.968 297.334 81.968C296.715 81.968 296.32 82.2453 296.15 82.8C296.096 82.9493 296.059 83.1253 296.038 83.328C296.016 83.52 296.006 83.7867 296.006 84.128C296.006 84.4693 296.016 84.7413 296.038 84.944C296.059 85.136 296.096 85.3067 296.15 85.456C296.331 86.0107 296.726 86.288 297.334 86.288ZM305.89 88.176C305.005 88.176 304.269 87.984 303.682 87.6C303.096 87.216 302.69 86.672 302.466 85.968C302.381 85.7227 302.312 85.456 302.258 85.168C302.216 84.88 302.194 84.5333 302.194 84.128C302.194 83.7227 302.216 83.376 302.258 83.088C302.301 82.7893 302.365 82.5173 302.45 82.272C302.674 81.568 303.074 81.0293 303.65 80.656C304.237 80.272 304.946 80.08 305.778 80.08C306.642 80.08 307.357 80.272 307.922 80.656C308.498 81.04 308.898 81.5733 309.122 82.256C309.165 82.384 309.202 82.5227 309.234 82.672C309.266 82.8107 309.293 82.9707 309.314 83.152C309.336 83.3333 309.352 83.5467 309.362 83.792C309.373 84.0267 309.378 84.3093 309.378 84.64C309.378 84.7467 309.32 84.8 309.202 84.8H304.514C304.45 84.8 304.418 84.832 304.418 84.896C304.429 85.056 304.461 85.2 304.514 85.328C304.621 85.6693 304.813 85.9253 305.09 86.096C305.368 86.2667 305.709 86.352 306.114 86.352C306.498 86.352 306.834 86.2933 307.122 86.176C307.41 86.048 307.666 85.8773 307.89 85.664C307.986 85.5893 308.061 85.5893 308.114 85.664L309.17 86.656C309.256 86.7307 309.261 86.8053 309.186 86.88C308.813 87.2747 308.349 87.5893 307.794 87.824C307.24 88.0587 306.605 88.176 305.89 88.176ZM307.074 83.312C307.138 83.312 307.17 83.28 307.17 83.216C307.17 83.0987 307.16 82.9973 307.138 82.912C307.128 82.816 307.112 82.7253 307.09 82.64C307.005 82.3733 306.845 82.1653 306.61 82.016C306.386 81.8667 306.114 81.792 305.794 81.792C305.474 81.792 305.197 81.8667 304.962 82.016C304.738 82.1653 304.584 82.3733 304.498 82.64C304.477 82.7253 304.456 82.816 304.434 82.912C304.424 82.9973 304.418 83.0987 304.418 83.216C304.418 83.28 304.45 83.312 304.514 83.312H307.074ZM311.176 88C311.069 88 311.016 87.9467 311.016 87.84V80.416C311.016 80.3093 311.069 80.256 311.176 80.256H313.096C313.202 80.256 313.256 80.3093 313.256 80.416V81.072H313.272C313.453 80.7627 313.714 80.5227 314.056 80.352C314.397 80.1707 314.808 80.08 315.288 80.08C315.544 80.08 315.789 80.1227 316.024 80.208C316.269 80.2827 316.477 80.3947 316.648 80.544C316.722 80.608 316.738 80.6827 316.696 80.768L315.8 82.4C315.746 82.464 315.672 82.4747 315.576 82.432C315.192 82.1867 314.818 82.0693 314.456 82.08C314.04 82.1013 313.736 82.256 313.544 82.544C313.352 82.832 313.256 83.2373 313.256 83.76V87.84C313.256 87.9467 313.202 88 313.096 88H311.176ZM317.988 79.024C317.882 79.024 317.828 78.9707 317.828 78.864V77.28C317.828 77.1733 317.882 77.12 317.988 77.12H319.908C320.015 77.12 320.068 77.1733 320.068 77.28V78.864C320.068 78.9707 320.015 79.024 319.908 79.024H317.988ZM317.988 88C317.882 88 317.828 87.9467 317.828 87.84V80.416C317.828 80.3093 317.882 80.256 317.988 80.256H319.908C320.015 80.256 320.068 80.3093 320.068 80.416V87.84C320.068 87.9467 320.015 88 319.908 88H317.988ZM325.39 88.176C324.505 88.176 323.769 87.984 323.182 87.6C322.596 87.216 322.19 86.672 321.966 85.968C321.881 85.7227 321.812 85.456 321.758 85.168C321.716 84.88 321.694 84.5333 321.694 84.128C321.694 83.7227 321.716 83.376 321.758 83.088C321.801 82.7893 321.865 82.5173 321.95 82.272C322.174 81.568 322.574 81.0293 323.15 80.656C323.737 80.272 324.446 80.08 325.278 80.08C326.142 80.08 326.857 80.272 327.422 80.656C327.998 81.04 328.398 81.5733 328.622 82.256C328.665 82.384 328.702 82.5227 328.734 82.672C328.766 82.8107 328.793 82.9707 328.814 83.152C328.836 83.3333 328.852 83.5467 328.862 83.792C328.873 84.0267 328.878 84.3093 328.878 84.64C328.878 84.7467 328.82 84.8 328.702 84.8H324.014C323.95 84.8 323.918 84.832 323.918 84.896C323.929 85.056 323.961 85.2 324.014 85.328C324.121 85.6693 324.313 85.9253 324.59 86.096C324.868 86.2667 325.209 86.352 325.614 86.352C325.998 86.352 326.334 86.2933 326.622 86.176C326.91 86.048 327.166 85.8773 327.39 85.664C327.486 85.5893 327.561 85.5893 327.614 85.664L328.67 86.656C328.756 86.7307 328.761 86.8053 328.686 86.88C328.313 87.2747 327.849 87.5893 327.294 87.824C326.74 88.0587 326.105 88.176 325.39 88.176ZM326.574 83.312C326.638 83.312 326.67 83.28 326.67 83.216C326.67 83.0987 326.66 82.9973 326.638 82.912C326.628 82.816 326.612 82.7253 326.59 82.64C326.505 82.3733 326.345 82.1653 326.11 82.016C325.886 81.8667 325.614 81.792 325.294 81.792C324.974 81.792 324.697 81.8667 324.462 82.016C324.238 82.1653 324.084 82.3733 323.998 82.64C323.977 82.7253 323.956 82.816 323.934 82.912C323.924 82.9973 323.918 83.0987 323.918 83.216C323.918 83.28 323.95 83.312 324.014 83.312H326.574ZM335.332 88C335.225 88 335.172 87.9467 335.172 87.84V83.392C335.172 82.9653 335.07 82.624 334.868 82.368C334.676 82.112 334.377 81.984 333.972 81.984C333.588 81.984 333.289 82.112 333.076 82.368C332.862 82.624 332.756 82.9653 332.756 83.392V87.84C332.756 87.9467 332.702 88 332.596 88H330.676C330.569 88 330.516 87.9467 330.516 87.84V80.416C330.516 80.3093 330.569 80.256 330.676 80.256H332.596C332.702 80.256 332.756 80.3093 332.756 80.416V80.96H332.772C332.953 80.7147 333.204 80.5067 333.524 80.336C333.854 80.1653 334.27 80.08 334.772 80.08C335.198 80.08 335.577 80.1493 335.908 80.288C336.238 80.4267 336.516 80.624 336.74 80.88C336.964 81.136 337.129 81.44 337.236 81.792C337.353 82.144 337.412 82.5333 337.412 82.96V87.84C337.412 87.9467 337.358 88 337.252 88H335.332ZM342.56 88.176C341.738 88.176 341.034 87.9947 340.448 87.632C339.861 87.2587 339.45 86.7093 339.216 85.984C339.13 85.7493 339.066 85.4827 339.024 85.184C338.992 84.8853 338.976 84.5333 338.976 84.128C338.976 83.7227 338.992 83.3707 339.024 83.072C339.066 82.7733 339.13 82.5067 339.216 82.272C339.45 81.5467 339.861 81.0027 340.448 80.64C341.034 80.2667 341.738 80.08 342.56 80.08C343.232 80.08 343.818 80.2187 344.32 80.496C344.821 80.7627 345.21 81.1093 345.488 81.536C345.541 81.6213 345.53 81.696 345.456 81.76L344.064 82.672C343.968 82.736 343.888 82.7253 343.824 82.64C343.653 82.4053 343.472 82.2347 343.28 82.128C343.098 82.0213 342.869 81.968 342.592 81.968C342.293 81.968 342.037 82.0373 341.824 82.176C341.621 82.3147 341.477 82.5227 341.392 82.8C341.338 82.96 341.301 83.1413 341.28 83.344C341.258 83.5467 341.248 83.808 341.248 84.128C341.248 84.448 341.258 84.7093 341.28 84.912C341.301 85.1147 341.338 85.296 341.392 85.456C341.477 85.7333 341.621 85.9413 341.824 86.08C342.037 86.2187 342.293 86.288 342.592 86.288C342.869 86.288 343.098 86.2347 343.28 86.128C343.472 86.0213 343.653 85.8507 343.824 85.616C343.888 85.5307 343.968 85.52 344.064 85.584L345.456 86.496C345.53 86.56 345.541 86.6347 345.488 86.72C345.21 87.1467 344.821 87.4987 344.32 87.776C343.818 88.0427 343.232 88.176 342.56 88.176ZM350.375 88.176C349.489 88.176 348.753 87.984 348.167 87.6C347.58 87.216 347.175 86.672 346.951 85.968C346.865 85.7227 346.796 85.456 346.743 85.168C346.7 84.88 346.679 84.5333 346.679 84.128C346.679 83.7227 346.7 83.376 346.743 83.088C346.785 82.7893 346.849 82.5173 346.935 82.272C347.159 81.568 347.559 81.0293 348.135 80.656C348.721 80.272 349.431 80.08 350.263 80.08C351.127 80.08 351.841 80.272 352.407 80.656C352.983 81.04 353.383 81.5733 353.607 82.256C353.649 82.384 353.687 82.5227 353.719 82.672C353.751 82.8107 353.777 82.9707 353.799 83.152C353.82 83.3333 353.836 83.5467 353.847 83.792C353.857 84.0267 353.863 84.3093 353.863 84.64C353.863 84.7467 353.804 84.8 353.687 84.8H348.999C348.935 84.8 348.903 84.832 348.903 84.896C348.913 85.056 348.945 85.2 348.999 85.328C349.105 85.6693 349.297 85.9253 349.575 86.096C349.852 86.2667 350.193 86.352 350.599 86.352C350.983 86.352 351.319 86.2933 351.607 86.176C351.895 86.048 352.151 85.8773 352.375 85.664C352.471 85.5893 352.545 85.5893 352.599 85.664L353.655 86.656C353.74 86.7307 353.745 86.8053 353.671 86.88C353.297 87.2747 352.833 87.5893 352.279 87.824C351.724 88.0587 351.089 88.176 350.375 88.176ZM351.559 83.312C351.623 83.312 351.655 83.28 351.655 83.216C351.655 83.0987 351.644 82.9973 351.623 82.912C351.612 82.816 351.596 82.7253 351.575 82.64C351.489 82.3733 351.329 82.1653 351.095 82.016C350.871 81.8667 350.599 81.792 350.279 81.792C349.959 81.792 349.681 81.8667 349.447 82.016C349.223 82.1653 349.068 82.3733 348.983 82.64C348.961 82.7253 348.94 82.816 348.919 82.912C348.908 82.9973 348.903 83.0987 348.903 83.216C348.903 83.28 348.935 83.312 348.999 83.312H351.559Z" fill="black"/>
</g>
<defs>
<filter id="filter0_d_742_14816" x="0.259766" y="0.875" width="357.603" height="98.005" filterUnits="userSpaceOnUse" color-interpolation-filters="sRGB">
<feFlood flood-opacity="0" result="BackgroundImageFix"/>
<feColorMatrix in="SourceAlpha" type="matrix" values="0 0 0 0 0 0 0 0 0 0 0 0 0 0 0 0 0 0 127 0" result="hardAlpha"/>
<feOffset dy="4"/>
<feGaussianBlur stdDeviation="2"/>
<feComposite in2="hardAlpha" operator="out"/>
<feColorMatrix type="matrix" values="0 0 0 0 0 0 0 0 0 0 0 0 0 0 0 0 0 0 0.25 0"/>
<feBlend mode="normal" in2="BackgroundImageFix" result="effect1_dropShadow_742_14816"/>
<feBlend mode="normal" in="SourceGraphic" in2="effect1_dropShadow_742_14816" result="shape"/>
</filter>
</defs>
</svg>
