<svg width="233" height="115" viewBox="0 0 233 115" fill="none" xmlns="http://www.w3.org/2000/svg">
<g filter="url(#filter0_d_2001_14814)">
<path d="M44.625 76.9375V79C29.0625 77.7344 28.6875 66.3438 28.6875 54.7188C28.6875 50.3125 28.6875 27.9062 28.6875 21.3438C28.6875 18.8594 28.7344 17.3594 27.8438 16.5625C27.375 16.1875 24.9375 16.0469 24.9375 15.5312C24.9375 15.2031 25.1719 15.1094 25.7812 15.1094C29.6719 15.1094 33.5625 15.1094 37.4531 15.1094C37.9219 15.1094 38.3438 15.1094 38.3438 15.5312C38.3438 15.7188 38.1094 15.9531 37.875 15.9531C34.5938 15.9531 33.7969 16.8438 33.7969 19C33.7969 30.2969 33.7031 51.8125 33.7031 60.4375C33.7031 67.2812 34.6406 76.2344 44.625 76.9375ZM35.4844 6.95312C30.4688 8.54688 23.7656 9.0625 20.7188 12.7188C20.4844 12.9531 20.25 13.0469 20.1094 13.0469C20.0156 13.0469 19.9219 13 19.9219 12.8125C21.9375 10.6094 24.4688 8.26562 28.5 7.04688C33.5625 5.3125 39.8906 4.9375 43.2656 1.28125C43.5 1 43.6875 0.859375 43.8281 0.859375C43.9688 0.859375 44.0156 0.953125 44.0156 1.09375C41.9062 3.39062 39.4219 5.6875 35.4844 6.95312ZM35.4844 10.3281C30.4688 11.9219 23.7656 12.4375 20.7188 16.0938C20.4844 16.3281 20.25 16.4219 20.1094 16.4219C20.0156 16.4219 19.9219 16.375 19.9219 16.1875C21.9375 13.9844 24.4688 11.6406 28.5 10.4219C33.5625 8.6875 39.8906 8.3125 43.2656 4.65625C43.5 4.375 43.6875 4.23438 43.8281 4.23438C43.9688 4.23438 44.0156 4.32812 44.0156 4.46875C41.9062 6.76562 39.4219 9.0625 35.4844 10.3281ZM60.5156 60.3906C60.5156 66.1094 60.8906 71.9688 65.9062 75.1094C67.6406 76.2344 69.5625 76.8438 71.4844 76.8906V79C64.1719 78.4375 60.2344 75.5781 58.0312 71.5469C55.9219 75.5781 51.9844 78.4375 44.6719 79V76.8906C54.1406 76.4219 55.4531 66.9531 55.5469 60.25C55.5469 60.0625 55.5469 42.8125 55.5469 42.625C55.5469 40.3281 55.2656 38.5938 52.6406 38.5938C51.6562 38.5938 50.9062 38.4531 50.9062 38.125C50.9062 37.75 51.3281 37.6562 51.7969 37.6562H64.3594C65.0625 37.6562 65.25 37.8906 65.25 38.125C65.25 38.5938 63.7031 38.5938 63.5156 38.5938C60.8438 38.5938 60.6094 40.4688 60.6094 42.0625C60.6094 42.3906 60.6094 42.7188 60.5156 60.3906ZM58.0312 82.75C60.3281 82.75 62.1562 84.5781 62.1562 86.875C62.1562 89.2188 60.3281 91 58.0312 91C55.7344 91 53.9062 89.2188 53.9062 86.875C53.9062 84.5781 55.7344 82.75 58.0312 82.75ZM123.797 50.9688C121.125 50.875 118.5 50.8281 115.875 50.8281C110.438 50.8281 105 50.9688 99.5625 50.9688C90.7031 50.9688 73.1719 49.6094 72.9375 38.125C76.0781 43.6094 82.3125 45.0156 88.1719 45.4375C99.0938 46.2344 108.844 45.7656 118.547 45.7656C128.016 45.7656 135.891 53.2656 135.891 62.3125C135.891 71.1719 129.984 79 121.781 79H71.4844V76.8906H120.516C127.734 76.8906 131.391 68.3594 131.391 61.2344C131.391 56.9219 129.047 51.2031 123.797 50.9688ZM148.734 52.8906C148.734 56.2188 148.734 59.5938 148.734 62.9688C148.969 69.1094 150.938 76.4688 159.609 76.8906C159.609 77.6406 159.609 78.2969 159.609 79C155.25 78.625 151.219 76.9844 148.547 73.6094C148.594 74.0312 148.594 74.4531 148.594 74.875C148.594 82.5156 143.016 87.6719 135.891 90.2969C141.609 84.7656 143.766 84.9062 143.766 68.2188C143.766 56.6406 143.719 43.4688 143.719 41.6875C143.719 40.4219 143.391 38.6406 141.094 38.6406C140.812 38.6406 140.438 38.7344 140.109 38.7344C139.688 38.7344 139.078 38.5938 139.078 38.0312C139.078 37.8906 139.172 37.7969 139.359 37.7031C143.484 37.7031 147.609 37.6094 151.641 37.6094C152.438 37.6094 152.484 37.7969 152.484 38.0781C152.484 38.6875 151.922 38.4062 150.656 38.6875C149.016 39.0625 148.734 39.8594 148.734 41.5469C148.734 45.0156 148.734 46.8438 148.734 52.8906ZM170.578 58.2344C170.578 47.875 178.688 37.6094 192.234 37.6094C205.641 37.6094 213.469 45.8125 213.844 57.4844C213.844 70.1875 204.094 79 191.859 79C183.234 79 176.578 74.9688 173.25 68.8281C171.234 75.25 165.75 78.5312 159.609 79V76.8906C161.531 76.7969 163.453 76.2344 165.188 75.1562C170.859 71.6406 170.578 64 170.578 58.2344ZM176.203 56.8281C176.203 70.0938 184.219 76.8438 194.156 76.8438C198.562 76.8438 208.172 74.125 208.172 58.9375C208.172 45.4844 199.969 39.625 191.859 39.625C182.859 39.625 176.203 45.3438 176.203 56.8281ZM9.1375 96.168V95.48C9.1375 95.3733 9.19083 95.32 9.2975 95.32H10.3215C10.4282 95.32 10.4815 95.3733 10.4815 95.48V100.904C10.4815 101.224 10.5402 101.448 10.6575 101.576C10.7855 101.693 10.9828 101.752 11.2495 101.752H11.9535C12.3802 101.752 12.5935 101.965 12.5935 102.392C12.5935 102.659 12.5402 102.829 12.4335 102.904C12.3375 102.968 12.1775 103 11.9535 103H11.0095C10.4868 103 10.0762 102.904 9.7775 102.712C9.4895 102.509 9.2975 102.179 9.2015 101.72C8.98817 101.912 8.73217 102.056 8.4335 102.152C8.13483 102.248 7.8095 102.296 7.4575 102.296C7.0415 102.296 6.65217 102.237 6.2895 102.12C5.9375 102.003 5.62817 101.827 5.3615 101.592C5.1055 101.347 4.90283 101.043 4.7535 100.68C4.60417 100.307 4.5295 99.8693 4.5295 99.368C4.5295 98.7707 4.61483 98.2693 4.7855 97.864C4.95617 97.4587 5.18017 97.1333 5.4575 96.888C5.73483 96.632 6.05483 96.4507 6.4175 96.344C6.79083 96.2267 7.17483 96.168 7.5695 96.168H9.1375ZM7.4735 101.048C8.0815 101.048 8.50817 100.872 8.7535 100.52C9.0095 100.157 9.1375 99.656 9.1375 99.016V97.416H7.5695C7.06817 97.416 6.6575 97.56 6.3375 97.848C6.02817 98.1253 5.8735 98.632 5.8735 99.368C5.8735 99.9227 6.01217 100.344 6.2895 100.632C6.56683 100.909 6.9615 101.048 7.4735 101.048ZM8.0335 94.232C7.92683 94.232 7.8735 94.1787 7.8735 94.072V92.904C7.8735 92.7973 7.92683 92.744 8.0335 92.744H9.1215C9.22817 92.744 9.2815 92.7973 9.2815 92.904V94.072C9.2815 94.1787 9.22817 94.232 9.1215 94.232H8.0335ZM6.0815 94.232C5.97483 94.232 5.9215 94.1787 5.9215 94.072V92.904C5.9215 92.7973 5.97483 92.744 6.0815 92.744H7.1695C7.27617 92.744 7.3295 92.7973 7.3295 92.904V94.072C7.3295 94.1787 7.27617 94.232 7.1695 94.232H6.0815ZM12.0651 103C11.8518 103 11.6918 102.963 11.5851 102.888C11.4785 102.813 11.4251 102.664 11.4251 102.44C11.4251 102.173 11.4785 101.992 11.5851 101.896C11.6811 101.8 11.8411 101.752 12.0651 101.752H13.1531C13.4198 101.752 13.6118 101.693 13.7291 101.576C13.8571 101.448 13.9211 101.224 13.9211 100.904V96.616C13.9211 96.5093 13.9745 96.456 14.0811 96.456H15.1051C15.2118 96.456 15.2651 96.5093 15.2651 96.616V100.664C15.2651 101.027 15.3931 101.299 15.6491 101.48C15.9158 101.661 16.2678 101.752 16.7051 101.752H16.8971C17.1105 101.752 17.2705 101.8 17.3771 101.896C17.4838 101.981 17.5371 102.131 17.5371 102.344C17.5371 102.621 17.4838 102.803 17.3771 102.888C17.2811 102.963 17.1211 103 16.8971 103H16.5451C16.2038 103 15.9051 102.931 15.6491 102.792C15.3931 102.653 15.1958 102.445 15.0571 102.168C14.7905 102.723 14.2358 103 13.3931 103H12.0651ZM14.8331 105.976C14.7265 105.976 14.6731 105.923 14.6731 105.816V104.648C14.6731 104.541 14.7265 104.488 14.8331 104.488H15.9211C16.0278 104.488 16.0811 104.541 16.0811 104.648V105.816C16.0811 105.923 16.0278 105.976 15.9211 105.976H14.8331ZM12.8811 105.976C12.7745 105.976 12.7211 105.923 12.7211 105.816V104.648C12.7211 104.541 12.7745 104.488 12.8811 104.488H13.9691C14.0758 104.488 14.1291 104.541 14.1291 104.648V105.816C14.1291 105.923 14.0758 105.976 13.9691 105.976H12.8811ZM18.2346 94.264C18.1493 94.1573 18.08 94.0293 18.0266 93.88C17.9733 93.7307 17.9466 93.56 17.9466 93.368C17.9466 93.208 17.9733 93.0427 18.0266 92.872C18.08 92.6907 18.176 92.5253 18.3146 92.376C18.4533 92.2267 18.6293 92.104 18.8426 92.008C19.0666 91.9013 19.3493 91.848 19.6906 91.848C19.9893 91.848 20.2666 91.9067 20.5226 92.024C20.7786 92.1307 20.9653 92.2747 21.0826 92.456C21.1253 92.52 21.12 92.5787 21.0666 92.632L20.6506 92.984C20.6186 93.0053 20.576 92.9893 20.5226 92.936C20.416 92.84 20.2933 92.76 20.1546 92.696C20.016 92.6213 19.8453 92.584 19.6426 92.584C19.3333 92.584 19.1093 92.6693 18.9706 92.84C18.832 93.0107 18.7626 93.1973 18.7626 93.4C18.7626 93.6347 18.8213 93.8213 18.9386 93.96C19.056 94.0987 19.1733 94.2 19.2906 94.264H21.0986C21.1626 94.264 21.1946 94.3013 21.1946 94.376V94.888C21.1946 94.9627 21.1626 95 21.0986 95H17.6906C17.6266 95 17.5946 94.9627 17.5946 94.888V94.376C17.5946 94.3013 17.6266 94.264 17.6906 94.264H18.2346ZM17.0026 103C16.7893 103 16.6293 102.963 16.5226 102.888C16.416 102.813 16.3626 102.664 16.3626 102.44C16.3626 102.173 16.416 101.992 16.5226 101.896C16.6186 101.8 16.7786 101.752 17.0026 101.752H18.0106C18.2773 101.752 18.4693 101.693 18.5866 101.576C18.7146 101.448 18.7786 101.224 18.7786 100.904V96.616C18.7786 96.5093 18.832 96.456 18.9386 96.456H19.9626C20.0693 96.456 20.1226 96.5093 20.1226 96.616V100.984C20.1226 101.677 19.9786 102.189 19.6906 102.52C19.4026 102.84 18.9226 103 18.2506 103H17.0026ZM22.5106 92.28C22.5106 92.1733 22.564 92.12 22.6706 92.12H23.6946C23.8013 92.12 23.8546 92.1733 23.8546 92.28V100.904C23.8546 101.224 23.9133 101.448 24.0306 101.576C24.1586 101.693 24.356 101.752 24.6226 101.752H25.3266C25.7533 101.752 25.9666 101.965 25.9666 102.392C25.9666 102.659 25.9133 102.829 25.8066 102.904C25.7106 102.968 25.5506 103 25.3266 103H24.3826C23.7106 103 23.2306 102.84 22.9426 102.52C22.6546 102.189 22.5106 101.677 22.5106 100.984V92.28ZM25.4401 103C25.2268 103 25.0668 102.963 24.9601 102.888C24.8535 102.813 24.8001 102.664 24.8001 102.44C24.8001 102.173 24.8535 101.992 24.9601 101.896C25.0561 101.8 25.2161 101.752 25.4401 101.752H26.4481C26.7148 101.752 26.9068 101.693 27.0241 101.576C27.1521 101.448 27.2161 101.224 27.2161 100.904V96.616C27.2161 96.5093 27.2695 96.456 27.3761 96.456H28.4001C28.5068 96.456 28.5601 96.5093 28.5601 96.616V100.664C28.5601 101.027 28.6881 101.299 28.9441 101.48C29.2108 101.661 29.5628 101.752 30.0001 101.752H30.1921C30.4055 101.752 30.5655 101.8 30.6721 101.896C30.7788 101.981 30.8321 102.131 30.8321 102.344C30.8321 102.621 30.7788 102.803 30.6721 102.888C30.5761 102.963 30.4161 103 30.1921 103H29.8401C29.4988 103 29.2001 102.931 28.9441 102.792C28.6881 102.653 28.4908 102.445 28.3521 102.168C28.0855 102.723 27.5308 103 26.6881 103H25.4401ZM27.3441 94.872C27.2375 94.872 27.1841 94.8187 27.1841 94.712V93.544C27.1841 93.4373 27.2375 93.384 27.3441 93.384H28.4321C28.5388 93.384 28.5921 93.4373 28.5921 93.544V94.712C28.5921 94.8187 28.5388 94.872 28.4321 94.872H27.3441ZM30.1745 103C29.9612 103 29.8012 102.963 29.6945 102.888C29.5878 102.813 29.5345 102.664 29.5345 102.44C29.5345 102.173 29.5878 101.992 29.6945 101.896C29.7905 101.8 29.9505 101.752 30.1745 101.752H31.2625C31.5292 101.752 31.7212 101.693 31.8385 101.576C31.9665 101.448 32.0305 101.224 32.0305 100.904V96.616C32.0305 96.5093 32.0838 96.456 32.1905 96.456H33.2145C33.3212 96.456 33.3745 96.5093 33.3745 96.616V100.664C33.3745 101.027 33.5025 101.299 33.7585 101.48C34.0252 101.661 34.3772 101.752 34.8145 101.752H35.0065C35.2198 101.752 35.3798 101.8 35.4865 101.896C35.5932 101.981 35.6465 102.131 35.6465 102.344C35.6465 102.621 35.5932 102.803 35.4865 102.888C35.3905 102.963 35.2305 103 35.0065 103H34.6545C34.3132 103 34.0145 102.931 33.7585 102.792C33.5025 102.653 33.3052 102.445 33.1665 102.168C32.8998 102.723 32.3452 103 31.5025 103H30.1745ZM33.1185 94.872C33.0118 94.872 32.9585 94.8187 32.9585 94.712V93.544C32.9585 93.4373 33.0118 93.384 33.1185 93.384H34.2065C34.3132 93.384 34.3665 93.4373 34.3665 93.544V94.712C34.3665 94.8187 34.3132 94.872 34.2065 94.872H33.1185ZM31.1665 94.872C31.0598 94.872 31.0065 94.8187 31.0065 94.712V93.544C31.0065 93.4373 31.0598 93.384 31.1665 93.384H32.2545C32.3612 93.384 32.4145 93.4373 32.4145 93.544V94.712C32.4145 94.8187 32.3612 94.872 32.2545 94.872H31.1665ZM32.1585 93C32.0518 93 31.9985 92.9467 31.9985 92.84V91.672C31.9985 91.5653 32.0518 91.512 32.1585 91.512H33.2465C33.3532 91.512 33.4065 91.5653 33.4065 91.672V92.84C33.4065 92.9467 33.3532 93 33.2465 93H32.1585ZM35.112 103C34.8987 103 34.7387 102.963 34.632 102.888C34.5253 102.813 34.472 102.664 34.472 102.44C34.472 102.173 34.5253 101.992 34.632 101.896C34.728 101.8 34.888 101.752 35.112 101.752H36.2C36.4667 101.752 36.6587 101.693 36.776 101.576C36.904 101.448 36.968 101.224 36.968 100.904V96.616C36.968 96.5093 37.0213 96.456 37.128 96.456H38.152C38.2587 96.456 38.312 96.5093 38.312 96.616V100.664C38.312 101.027 38.44 101.299 38.696 101.48C38.9627 101.661 39.3147 101.752 39.752 101.752H39.944C40.1573 101.752 40.3173 101.8 40.424 101.896C40.5307 101.981 40.584 102.131 40.584 102.344C40.584 102.621 40.5307 102.803 40.424 102.888C40.328 102.963 40.168 103 39.944 103H39.592C39.2507 103 38.952 102.931 38.696 102.792C38.44 102.653 38.2427 102.445 38.104 102.168C37.8373 102.723 37.2827 103 36.44 103H35.112ZM38.04 94.872C37.9333 94.872 37.88 94.8187 37.88 94.712V93.544C37.88 93.4373 37.9333 93.384 38.04 93.384H39.128C39.2347 93.384 39.288 93.4373 39.288 93.544V94.712C39.288 94.8187 39.2347 94.872 39.128 94.872H38.04ZM36.088 94.872C35.9813 94.872 35.928 94.8187 35.928 94.712V93.544C35.928 93.4373 35.9813 93.384 36.088 93.384H37.176C37.2827 93.384 37.336 93.4373 37.336 93.544V94.712C37.336 94.8187 37.2827 94.872 37.176 94.872H36.088ZM44.8175 103C44.4762 103 44.1775 102.931 43.9215 102.792C43.6655 102.653 43.4682 102.445 43.3295 102.168C43.0628 102.723 42.5082 103 41.6655 103H39.9375C39.7242 103 39.5642 102.963 39.4575 102.888C39.3508 102.813 39.2975 102.664 39.2975 102.44C39.2975 102.173 39.3508 101.992 39.4575 101.896C39.5535 101.8 39.7135 101.752 39.9375 101.752H41.4255C41.6922 101.752 41.8842 101.693 42.0015 101.576C42.1295 101.448 42.1935 101.224 42.1935 100.904V97.992C42.1935 97.8853 42.2468 97.832 42.3535 97.832H43.3775C43.4842 97.832 43.5375 97.8853 43.5375 97.992V100.664C43.5375 101.027 43.6655 101.299 43.9215 101.48C44.1775 101.661 44.5188 101.752 44.9455 101.752H45.3455C45.6122 101.752 45.8042 101.693 45.9215 101.576C46.0495 101.448 46.1135 101.224 46.1135 100.904V97.992C46.1135 97.8853 46.1668 97.832 46.2735 97.832H47.2975C47.4042 97.832 47.4575 97.8853 47.4575 97.992V100.664C47.4575 101.027 47.5855 101.299 47.8415 101.48C48.0975 101.661 48.4388 101.752 48.8655 101.752H49.2655C49.5322 101.752 49.7242 101.693 49.8415 101.576C49.9695 101.448 50.0335 101.224 50.0335 100.904V96.616C50.0335 96.5093 50.0868 96.456 50.1935 96.456H51.2175C51.3242 96.456 51.3775 96.5093 51.3775 96.616V100.984C51.3775 101.677 51.2335 102.189 50.9455 102.52C50.6575 102.84 50.1775 103 49.5055 103H48.7375C48.3962 103 48.0975 102.931 47.8415 102.792C47.5855 102.653 47.3882 102.445 47.2495 102.168C46.9828 102.723 46.4282 103 45.5855 103H44.8175ZM54.8859 102.84C54.8859 102.947 54.8325 103 54.7259 103H53.7019C53.5952 103 53.5419 102.947 53.5419 102.84V92.28C53.5419 92.1733 53.5952 92.12 53.7019 92.12H54.7259C54.8325 92.12 54.8859 92.1733 54.8859 92.28V102.84ZM65.0438 96.168V95.48C65.0438 95.3733 65.0971 95.32 65.2038 95.32H66.2278C66.3344 95.32 66.3878 95.3733 66.3878 95.48V100.904C66.3878 101.224 66.4464 101.448 66.5638 101.576C66.6918 101.693 66.8891 101.752 67.1558 101.752H67.8598C68.2864 101.752 68.4998 101.965 68.4998 102.392C68.4998 102.659 68.4464 102.829 68.3398 102.904C68.2438 102.968 68.0838 103 67.8598 103H66.9158C66.3931 103 65.9824 102.904 65.6838 102.712C65.3958 102.509 65.2038 102.179 65.1078 101.72C64.8944 101.912 64.6384 102.056 64.3398 102.152C64.0411 102.248 63.7158 102.296 63.3638 102.296C62.9478 102.296 62.5584 102.237 62.1957 102.12C61.8438 102.003 61.5344 101.827 61.2678 101.592C61.0118 101.347 60.8091 101.043 60.6598 100.68C60.5104 100.307 60.4358 99.8693 60.4358 99.368C60.4358 98.7707 60.5211 98.2693 60.6918 97.864C60.8624 97.4587 61.0864 97.1333 61.3638 96.888C61.6411 96.632 61.9611 96.4507 62.3238 96.344C62.6971 96.2267 63.0811 96.168 63.4758 96.168H65.0438ZM63.3798 101.048C63.9878 101.048 64.4144 100.872 64.6598 100.52C64.9158 100.157 65.0438 99.656 65.0438 99.016V97.416H63.4758C62.9744 97.416 62.5638 97.56 62.2438 97.848C61.9344 98.1253 61.7798 98.632 61.7798 99.368C61.7798 99.9227 61.9184 100.344 62.1957 100.632C62.4731 100.909 62.8678 101.048 63.3798 101.048ZM63.9398 94.232C63.8331 94.232 63.7798 94.1787 63.7798 94.072V92.904C63.7798 92.7973 63.8331 92.744 63.9398 92.744H65.0278C65.1344 92.744 65.1878 92.7973 65.1878 92.904V94.072C65.1878 94.1787 65.1344 94.232 65.0278 94.232H63.9398ZM61.9878 94.232C61.8811 94.232 61.8278 94.1787 61.8278 94.072V92.904C61.8278 92.7973 61.8811 92.744 61.9878 92.744H63.0758C63.1824 92.744 63.2358 92.7973 63.2358 92.904V94.072C63.2358 94.1787 63.1824 94.232 63.0758 94.232H61.9878ZM67.8594 103C67.646 103 67.486 102.963 67.3794 102.888C67.2727 102.813 67.2194 102.664 67.2194 102.44C67.2194 102.173 67.2727 101.992 67.3794 101.896C67.4754 101.8 67.6354 101.752 67.8594 101.752H68.8674C69.134 101.752 69.326 101.693 69.4434 101.576C69.5714 101.448 69.6354 101.224 69.6354 100.904V96.616C69.6354 96.5093 69.6887 96.456 69.7954 96.456H70.8194C70.926 96.456 70.9794 96.5093 70.9794 96.616V100.984C70.9794 101.677 70.8354 102.189 70.5474 102.52C70.2594 102.84 69.7794 103 69.1074 103H67.8594ZM69.3954 105.928C69.2887 105.928 69.2354 105.875 69.2354 105.768V104.6C69.2354 104.493 69.2887 104.44 69.3954 104.44H70.4834C70.59 104.44 70.6434 104.493 70.6434 104.6V105.768C70.6434 105.875 70.59 105.928 70.4834 105.928H69.3954ZM72.2538 106.184C72.1471 106.184 72.0938 106.131 72.0938 106.024V105.096C72.0938 104.989 72.1471 104.936 72.2538 104.936H72.6217C73.4858 104.936 73.9178 104.483 73.9178 103.576V96.616C73.9178 96.5093 73.9711 96.456 74.0778 96.456H75.1018C75.2084 96.456 75.2618 96.5093 75.2618 96.616V100.664C75.2618 101.027 75.3898 101.299 75.6458 101.48C75.9124 101.661 76.2644 101.752 76.7018 101.752H76.8778C77.0911 101.752 77.2511 101.8 77.3578 101.896C77.4644 101.981 77.5178 102.131 77.5178 102.344C77.5178 102.621 77.4644 102.803 77.3578 102.888C77.2618 102.963 77.1018 103 76.8778 103H76.5418C75.9871 103 75.5604 102.829 75.2618 102.488V103.544C75.2618 104.408 75.0431 105.064 74.6058 105.512C74.1684 105.96 73.5284 106.184 72.6858 106.184H72.2538ZM80.619 97.416C80.2563 97.416 79.9203 97.4907 79.611 97.64C79.3123 97.7893 79.0457 97.992 78.811 98.248C78.747 98.3227 78.6723 98.328 78.587 98.264L77.883 97.688C77.787 97.6133 77.771 97.5387 77.835 97.464C78.1337 97.0907 78.5017 96.7813 78.939 96.536C79.387 96.2907 79.931 96.168 80.571 96.168C81.307 96.168 81.9097 96.2853 82.379 96.52C82.8483 96.744 83.2163 97.0427 83.483 97.416C83.7603 97.7893 83.9523 98.2213 84.059 98.712C84.1657 99.2027 84.219 99.7093 84.219 100.232C84.219 100.328 84.2137 100.419 84.203 100.504C84.203 100.589 84.203 100.675 84.203 100.76C84.2243 101.091 84.363 101.341 84.619 101.512C84.8857 101.672 85.227 101.752 85.643 101.752H85.819C86.0323 101.752 86.1923 101.8 86.299 101.896C86.4057 101.981 86.459 102.131 86.459 102.344C86.459 102.621 86.4057 102.803 86.299 102.888C86.203 102.963 86.043 103 85.819 103H85.483C85.1203 103 84.795 102.925 84.507 102.776C84.219 102.616 84.0163 102.381 83.899 102.072C83.7177 102.413 83.4617 102.653 83.131 102.792C82.811 102.931 82.4057 103 81.915 103H76.875C76.4483 103 76.235 102.787 76.235 102.36C76.235 102.093 76.2883 101.928 76.395 101.864C76.491 101.789 76.651 101.752 76.875 101.752H81.419C81.7177 101.752 81.9577 101.731 82.139 101.688C82.3203 101.635 82.459 101.549 82.555 101.432C82.651 101.315 82.715 101.16 82.747 100.968C82.779 100.765 82.795 100.52 82.795 100.232C82.795 99.816 82.7577 99.4373 82.683 99.096C82.6083 98.744 82.4857 98.4453 82.315 98.2C82.155 97.944 81.9363 97.752 81.659 97.624C81.3817 97.4853 81.035 97.416 80.619 97.416ZM80.315 105.944C80.2083 105.944 80.155 105.891 80.155 105.784V104.616C80.155 104.509 80.2083 104.456 80.315 104.456H81.403C81.5097 104.456 81.563 104.509 81.563 104.616V105.784C81.563 105.891 81.5097 105.944 81.403 105.944H80.315ZM85.9245 103C85.7112 103 85.5512 102.963 85.4445 102.888C85.3378 102.813 85.2845 102.664 85.2845 102.44C85.2845 102.173 85.3378 101.992 85.4445 101.896C85.5405 101.8 85.7005 101.752 85.9245 101.752H87.0125C87.2792 101.752 87.4712 101.693 87.5885 101.576C87.7165 101.448 87.7805 101.224 87.7805 100.904V96.616C87.7805 96.5093 87.8338 96.456 87.9405 96.456H88.9645C89.0712 96.456 89.1245 96.5093 89.1245 96.616V100.664C89.1245 101.027 89.2525 101.299 89.5085 101.48C89.7752 101.661 90.1272 101.752 90.5645 101.752H90.7565C90.9698 101.752 91.1298 101.8 91.2365 101.896C91.3432 101.981 91.3965 102.131 91.3965 102.344C91.3965 102.621 91.3432 102.803 91.2365 102.888C91.1405 102.963 90.9805 103 90.7565 103H90.4045C90.0632 103 89.7645 102.931 89.5085 102.792C89.2525 102.653 89.0552 102.445 88.9165 102.168C88.6498 102.723 88.0952 103 87.2525 103H85.9245ZM88.8525 94.872C88.7458 94.872 88.6925 94.8187 88.6925 94.712V93.544C88.6925 93.4373 88.7458 93.384 88.8525 93.384H89.9405C90.0472 93.384 90.1005 93.4373 90.1005 93.544V94.712C90.1005 94.8187 90.0472 94.872 89.9405 94.872H88.8525ZM86.9005 94.872C86.7938 94.872 86.7405 94.8187 86.7405 94.712V93.544C86.7405 93.4373 86.7938 93.384 86.9005 93.384H87.9885C88.0952 93.384 88.1485 93.4373 88.1485 93.544V94.712C88.1485 94.8187 88.0952 94.872 87.9885 94.872H86.9005ZM90.75 103C90.5367 103 90.3767 102.963 90.27 102.888C90.1633 102.813 90.11 102.664 90.11 102.44C90.11 102.173 90.1633 101.992 90.27 101.896C90.366 101.8 90.526 101.752 90.75 101.752H91.758C92.0247 101.752 92.2167 101.693 92.334 101.576C92.462 101.448 92.526 101.224 92.526 100.904V96.616C92.526 96.5093 92.5793 96.456 92.686 96.456H93.71C93.8167 96.456 93.87 96.5093 93.87 96.616V100.984C93.87 101.677 93.726 102.189 93.438 102.52C93.15 102.84 92.67 103 91.998 103H90.75ZM92.286 105.928C92.1793 105.928 92.126 105.875 92.126 105.768V104.6C92.126 104.493 92.1793 104.44 92.286 104.44H93.374C93.4807 104.44 93.534 104.493 93.534 104.6V105.768C93.534 105.875 93.4807 105.928 93.374 105.928H92.286ZM103.372 96.168C104.513 96.168 105.356 96.392 105.9 96.84C106.444 97.288 106.716 97.896 106.716 98.664C106.716 99.0053 106.663 99.3253 106.556 99.624C106.449 99.9227 106.311 100.2 106.14 100.456C105.98 100.712 105.793 100.947 105.58 101.16C105.367 101.363 105.159 101.533 104.956 101.672C105.073 101.693 105.191 101.715 105.308 101.736C105.425 101.747 105.537 101.752 105.644 101.752H107.98C108.193 101.752 108.353 101.789 108.46 101.864C108.567 101.939 108.62 102.088 108.62 102.312C108.62 102.579 108.567 102.76 108.46 102.856C108.364 102.952 108.204 103 107.98 103H105.596C105.287 103 104.956 102.963 104.604 102.888C104.252 102.813 103.937 102.685 103.66 102.504C103.351 102.621 103.025 102.728 102.684 102.824C102.343 102.909 102.033 103.005 101.756 103.112C101.479 103.219 101.249 103.352 101.068 103.512C100.887 103.672 100.796 103.885 100.796 104.152C100.796 104.408 100.892 104.6 101.084 104.728C101.287 104.867 101.649 104.936 102.172 104.936H103.708C103.815 104.936 103.868 104.989 103.868 105.096V106.024C103.868 106.131 103.815 106.184 103.708 106.184H102.06C101.196 106.184 100.54 106.029 100.092 105.72C99.6441 105.411 99.4201 104.888 99.4201 104.152C99.4201 103.693 99.5161 103.315 99.7081 103.016C99.9108 102.717 100.161 102.477 100.46 102.296C100.759 102.115 101.084 101.976 101.436 101.88C101.788 101.773 102.124 101.688 102.444 101.624C102.369 101.197 102.257 100.829 102.108 100.52C101.959 100.211 101.788 99.944 101.596 99.72C101.404 99.4853 101.191 99.2827 100.956 99.112C100.732 98.9307 100.503 98.7547 100.268 98.584C100.172 98.52 100.108 98.4667 100.076 98.424C100.055 98.3707 100.044 98.3173 100.044 98.264V97.304C100.044 97.1547 100.097 97.048 100.204 96.984C100.332 96.9093 100.497 96.824 100.7 96.728C100.913 96.632 101.153 96.5413 101.42 96.456C101.697 96.3707 102.001 96.3013 102.332 96.248C102.663 96.1947 103.009 96.168 103.372 96.168ZM103.372 97.416C102.892 97.416 102.471 97.4693 102.108 97.576C101.745 97.672 101.505 97.7573 101.388 97.832C101.932 98.1413 102.407 98.5733 102.812 99.128C103.228 99.6827 103.527 100.344 103.708 101.112C103.879 101.005 104.06 100.872 104.252 100.712C104.444 100.541 104.615 100.36 104.764 100.168C104.924 99.9653 105.052 99.7467 105.148 99.512C105.255 99.2667 105.308 99.016 105.308 98.76C105.308 98.4933 105.255 98.2747 105.148 98.104C105.052 97.9333 104.919 97.8 104.748 97.704C104.577 97.5973 104.369 97.5227 104.124 97.48C103.889 97.4373 103.639 97.416 103.372 97.416ZM108.112 103C107.899 103 107.739 102.963 107.632 102.888C107.525 102.813 107.472 102.664 107.472 102.44C107.472 102.173 107.525 101.992 107.632 101.896C107.728 101.8 107.888 101.752 108.112 101.752H109.2C109.467 101.752 109.659 101.693 109.776 101.576C109.904 101.448 109.968 101.224 109.968 100.904V96.616C109.968 96.5093 110.021 96.456 110.128 96.456H111.152C111.259 96.456 111.312 96.5093 111.312 96.616V100.664C111.312 101.027 111.44 101.299 111.696 101.48C111.963 101.661 112.315 101.752 112.752 101.752H112.944C113.157 101.752 113.317 101.8 113.424 101.896C113.531 101.981 113.584 102.131 113.584 102.344C113.584 102.621 113.531 102.803 113.424 102.888C113.328 102.963 113.168 103 112.944 103H112.592C112.251 103 111.952 102.931 111.696 102.792C111.44 102.653 111.243 102.445 111.104 102.168C110.837 102.723 110.283 103 109.44 103H108.112ZM111.04 94.872C110.933 94.872 110.88 94.8187 110.88 94.712V93.544C110.88 93.4373 110.933 93.384 111.04 93.384H112.128C112.235 93.384 112.288 93.4373 112.288 93.544V94.712C112.288 94.8187 112.235 94.872 112.128 94.872H111.04ZM109.088 94.872C108.981 94.872 108.928 94.8187 108.928 94.712V93.544C108.928 93.4373 108.981 93.384 109.088 93.384H110.176C110.283 93.384 110.336 93.4373 110.336 93.544V94.712C110.336 94.8187 110.283 94.872 110.176 94.872H109.088ZM117.77 103.112C117.268 103.112 116.826 103.043 116.442 102.904C116.058 102.755 115.732 102.525 115.466 102.216C115.242 102.557 114.954 102.776 114.602 102.872C114.25 102.957 113.924 103 113.626 103H112.938C112.511 103 112.297 102.787 112.297 102.36C112.297 102.093 112.351 101.928 112.457 101.864C112.553 101.789 112.713 101.752 112.938 101.752H113.738C113.855 101.752 113.972 101.731 114.09 101.688C114.207 101.635 114.314 101.555 114.41 101.448C114.506 101.331 114.58 101.181 114.634 101C114.698 100.808 114.73 100.573 114.73 100.296C114.719 100.189 114.714 100.088 114.714 99.992C114.714 99.8853 114.714 99.7733 114.714 99.656C114.714 98.4293 114.986 97.544 115.53 97C116.074 96.4453 116.82 96.168 117.77 96.168C118.719 96.168 119.466 96.4453 120.01 97C120.554 97.544 120.826 98.4293 120.826 99.656C120.826 99.7733 120.82 99.8907 120.81 100.008C120.81 100.125 120.804 100.237 120.794 100.344C120.804 100.888 120.911 101.261 121.114 101.464C121.327 101.656 121.551 101.752 121.786 101.752H122.25C122.463 101.752 122.623 101.8 122.73 101.896C122.836 101.981 122.89 102.131 122.89 102.344C122.89 102.621 122.836 102.803 122.73 102.888C122.634 102.963 122.474 103 122.25 103H121.898C121.748 103 121.588 102.995 121.418 102.984C121.247 102.963 121.076 102.925 120.906 102.872C120.746 102.819 120.591 102.744 120.442 102.648C120.292 102.541 120.164 102.403 120.058 102.232C119.791 102.541 119.466 102.765 119.082 102.904C118.698 103.043 118.26 103.112 117.77 103.112ZM117.77 97.416C117.172 97.416 116.735 97.6133 116.458 98.008C116.191 98.4027 116.058 98.952 116.058 99.656C116.058 100.424 116.191 100.984 116.458 101.336C116.735 101.688 117.172 101.864 117.77 101.864C118.367 101.864 118.799 101.688 119.066 101.336C119.343 100.984 119.482 100.424 119.482 99.656C119.482 98.952 119.343 98.4027 119.066 98.008C118.799 97.6133 118.367 97.416 117.77 97.416ZM122.346 103C122.133 103 121.973 102.963 121.866 102.888C121.76 102.813 121.706 102.664 121.706 102.44C121.706 102.173 121.76 101.992 121.866 101.896C121.962 101.8 122.122 101.752 122.346 101.752H123.434C123.701 101.752 123.893 101.693 124.01 101.576C124.138 101.448 124.202 101.224 124.202 100.904V96.616C124.202 96.5093 124.256 96.456 124.362 96.456H125.386C125.493 96.456 125.546 96.5093 125.546 96.616V100.664C125.546 101.027 125.674 101.299 125.93 101.48C126.197 101.661 126.549 101.752 126.986 101.752H127.178C127.392 101.752 127.552 101.8 127.658 101.896C127.765 101.981 127.818 102.131 127.818 102.344C127.818 102.621 127.765 102.803 127.658 102.888C127.562 102.963 127.402 103 127.178 103H126.826C126.485 103 126.186 102.931 125.93 102.792C125.674 102.653 125.477 102.445 125.338 102.168C125.072 102.723 124.517 103 123.674 103H122.346ZM125.274 94.872C125.168 94.872 125.114 94.8187 125.114 94.712V93.544C125.114 93.4373 125.168 93.384 125.274 93.384H126.362C126.469 93.384 126.522 93.4373 126.522 93.544V94.712C126.522 94.8187 126.469 94.872 126.362 94.872H125.274ZM123.322 94.872C123.216 94.872 123.162 94.8187 123.162 94.712V93.544C123.162 93.4373 123.216 93.384 123.322 93.384H124.41C124.517 93.384 124.57 93.4373 124.57 93.544V94.712C124.57 94.8187 124.517 94.872 124.41 94.872H123.322ZM132.052 103C131.711 103 131.412 102.931 131.156 102.792C130.9 102.653 130.703 102.445 130.564 102.168C130.297 102.723 129.743 103 128.9 103H127.172C126.959 103 126.799 102.963 126.692 102.888C126.585 102.813 126.532 102.664 126.532 102.44C126.532 102.173 126.585 101.992 126.692 101.896C126.788 101.8 126.948 101.752 127.172 101.752H128.66C128.927 101.752 129.119 101.693 129.236 101.576C129.364 101.448 129.428 101.224 129.428 100.904V97.992C129.428 97.8853 129.481 97.832 129.588 97.832H130.612C130.719 97.832 130.772 97.8853 130.772 97.992V100.664C130.772 101.027 130.9 101.299 131.156 101.48C131.412 101.661 131.753 101.752 132.18 101.752H132.58C132.847 101.752 133.039 101.693 133.156 101.576C133.284 101.448 133.348 101.224 133.348 100.904V97.992C133.348 97.8853 133.401 97.832 133.508 97.832H134.532C134.639 97.832 134.692 97.8853 134.692 97.992V100.664C134.692 101.027 134.82 101.299 135.076 101.48C135.332 101.661 135.673 101.752 136.1 101.752H136.5C136.767 101.752 136.959 101.693 137.076 101.576C137.204 101.448 137.268 101.224 137.268 100.904V96.616C137.268 96.5093 137.321 96.456 137.428 96.456H138.452C138.559 96.456 138.612 96.5093 138.612 96.616V100.984C138.612 101.677 138.468 102.189 138.18 102.52C137.892 102.84 137.412 103 136.74 103H135.972C135.631 103 135.332 102.931 135.076 102.792C134.82 102.653 134.623 102.445 134.484 102.168C134.217 102.723 133.663 103 132.82 103H132.052ZM142.12 102.84C142.12 102.947 142.067 103 141.96 103H140.936C140.83 103 140.776 102.947 140.776 102.84V92.28C140.776 92.1733 140.83 92.12 140.936 92.12H141.96C142.067 92.12 142.12 92.1733 142.12 92.28V102.84ZM145.474 106.184C145.368 106.184 145.314 106.131 145.314 106.024V105.096C145.314 104.989 145.368 104.936 145.474 104.936H147.394C147.608 104.936 147.805 104.909 147.986 104.856C148.168 104.813 148.322 104.733 148.45 104.616C148.589 104.509 148.696 104.355 148.77 104.152C148.845 103.96 148.882 103.715 148.882 103.416V103H147.17C146.701 103 146.274 102.947 145.89 102.84C145.517 102.723 145.197 102.541 144.93 102.296C144.664 102.04 144.461 101.704 144.322 101.288C144.184 100.872 144.114 100.36 144.114 99.752C144.114 99.144 144.194 98.616 144.354 98.168C144.514 97.7093 144.733 97.336 145.01 97.048C145.298 96.7493 145.629 96.5307 146.002 96.392C146.376 96.2427 146.776 96.168 147.202 96.168C148.152 96.168 148.893 96.4453 149.426 97C149.96 97.544 150.226 98.4293 150.226 99.656V103.384C150.226 103.885 150.157 104.312 150.018 104.664C149.89 105.016 149.704 105.304 149.458 105.528C149.224 105.752 148.936 105.917 148.594 106.024C148.253 106.131 147.874 106.184 147.458 106.184H145.474ZM147.202 97.416C146.658 97.416 146.232 97.6293 145.922 98.056C145.613 98.4827 145.458 99.048 145.458 99.752C145.458 100.509 145.608 101.032 145.906 101.32C146.216 101.608 146.669 101.752 147.266 101.752H148.882V99.656C148.882 98.952 148.749 98.4027 148.482 98.008C148.226 97.6133 147.8 97.416 147.202 97.416ZM165.205 101.752C165.483 101.752 165.68 101.693 165.797 101.576C165.925 101.448 165.989 101.224 165.989 100.904V96.616C165.989 96.5093 166.043 96.456 166.149 96.456H167.173C167.28 96.456 167.333 96.5093 167.333 96.616V100.984C167.333 101.677 167.189 102.189 166.901 102.52C166.613 102.84 166.123 103 165.429 103H157.733C157.061 103 156.581 102.84 156.293 102.52C156.005 102.189 155.861 101.677 155.861 100.984V97.64C155.861 97.5333 155.915 97.48 156.021 97.48H157.045C157.152 97.48 157.205 97.5333 157.205 97.64V100.904C157.205 101.224 157.264 101.448 157.381 101.576C157.509 101.693 157.707 101.752 157.973 101.752H165.205ZM160.997 105.976C160.891 105.976 160.837 105.923 160.837 105.816V104.648C160.837 104.541 160.891 104.488 160.997 104.488H162.085C162.192 104.488 162.245 104.541 162.245 104.648V105.816C162.245 105.923 162.192 105.976 162.085 105.976H160.997ZM169.37 92.28C169.37 92.1733 169.423 92.12 169.53 92.12H170.554C170.661 92.12 170.714 92.1733 170.714 92.28V100.904C170.714 101.224 170.773 101.448 170.89 101.576C171.018 101.693 171.215 101.752 171.482 101.752H172.186C172.613 101.752 172.826 101.965 172.826 102.392C172.826 102.659 172.773 102.829 172.666 102.904C172.57 102.968 172.41 103 172.186 103H171.242C170.57 103 170.09 102.84 169.802 102.52C169.514 102.189 169.37 101.677 169.37 100.984V92.28ZM177.068 103C176.726 103 176.428 102.931 176.172 102.792C175.916 102.653 175.718 102.445 175.58 102.168C175.313 102.723 174.758 103 173.916 103H172.188C171.974 103 171.814 102.963 171.707 102.888C171.601 102.813 171.547 102.664 171.547 102.44C171.547 102.173 171.601 101.992 171.707 101.896C171.803 101.8 171.963 101.752 172.188 101.752H173.676C173.942 101.752 174.134 101.693 174.252 101.576C174.38 101.448 174.444 101.224 174.444 100.904V97.992C174.444 97.8853 174.497 97.832 174.604 97.832H175.628C175.734 97.832 175.788 97.8853 175.788 97.992V100.664C175.788 101.027 175.916 101.299 176.172 101.48C176.428 101.661 176.769 101.752 177.196 101.752H177.596C177.862 101.752 178.054 101.693 178.172 101.576C178.3 101.448 178.364 101.224 178.364 100.904V97.992C178.364 97.8853 178.417 97.832 178.524 97.832H179.548C179.654 97.832 179.708 97.8853 179.708 97.992V100.728C179.708 101.069 179.841 101.325 180.108 101.496C180.374 101.667 180.721 101.752 181.148 101.752H181.516C181.782 101.752 181.974 101.693 182.092 101.576C182.22 101.448 182.284 101.224 182.284 100.904V96.616C182.284 96.5093 182.337 96.456 182.444 96.456H183.468C183.574 96.456 183.628 96.5093 183.628 96.616V100.664C183.628 101.027 183.756 101.299 184.012 101.48C184.278 101.661 184.63 101.752 185.068 101.752H185.244C185.457 101.752 185.617 101.8 185.724 101.896C185.83 101.981 185.884 102.131 185.884 102.344C185.884 102.621 185.83 102.803 185.724 102.888C185.628 102.963 185.468 103 185.244 103H184.908C184.566 103 184.268 102.931 184.012 102.792C183.756 102.653 183.558 102.445 183.42 102.168C183.153 102.723 182.598 103 181.756 103H180.988C180.646 103 180.348 102.931 180.092 102.792C179.836 102.653 179.638 102.445 179.5 102.168C179.233 102.723 178.678 103 177.836 103H177.068ZM188.994 97.416C188.631 97.416 188.295 97.4907 187.986 97.64C187.687 97.7893 187.421 97.992 187.186 98.248C187.122 98.3227 187.047 98.328 186.962 98.264L186.258 97.688C186.162 97.6133 186.146 97.5387 186.21 97.464C186.509 97.0907 186.877 96.7813 187.314 96.536C187.762 96.2907 188.306 96.168 188.946 96.168C189.682 96.168 190.285 96.2853 190.754 96.52C191.223 96.744 191.591 97.0427 191.858 97.416C192.135 97.7893 192.327 98.2213 192.434 98.712C192.541 99.2027 192.594 99.7093 192.594 100.232C192.594 100.765 192.546 101.208 192.45 101.56C192.365 101.912 192.226 102.195 192.034 102.408C191.853 102.621 191.613 102.776 191.314 102.872C191.026 102.957 190.685 103 190.29 103H185.25C184.823 103 184.61 102.787 184.61 102.36C184.61 102.093 184.663 101.928 184.77 101.864C184.866 101.789 185.026 101.752 185.25 101.752H189.794C190.093 101.752 190.333 101.731 190.514 101.688C190.695 101.635 190.834 101.549 190.93 101.432C191.026 101.315 191.09 101.16 191.122 100.968C191.154 100.765 191.17 100.52 191.17 100.232C191.17 99.816 191.133 99.4373 191.058 99.096C190.983 98.744 190.861 98.4453 190.69 98.2C190.53 97.944 190.311 97.752 190.034 97.624C189.757 97.4853 189.41 97.416 188.994 97.416ZM204.353 100.616C204.694 100.744 205.025 100.877 205.345 101.016C205.665 101.144 205.974 101.267 206.273 101.384C206.582 101.491 206.886 101.581 207.185 101.656C207.483 101.72 207.787 101.752 208.097 101.752H209.393C209.606 101.752 209.766 101.789 209.873 101.864C209.979 101.939 210.033 102.088 210.033 102.312C210.033 102.579 209.979 102.76 209.873 102.856C209.777 102.952 209.617 103 209.393 103H208.257C208.31 103.085 208.374 103.224 208.449 103.416C208.523 103.619 208.561 103.837 208.561 104.072C208.561 104.328 208.507 104.579 208.401 104.824C208.305 105.08 208.139 105.309 207.905 105.512C207.67 105.715 207.361 105.875 206.977 105.992C206.593 106.12 206.123 106.184 205.569 106.184H201.825C200.577 106.184 199.627 105.869 198.977 105.24C198.326 104.621 198.001 103.768 198.001 102.68C198.001 102.051 198.102 101.448 198.305 100.872C198.518 100.285 198.763 99.7947 199.041 99.4C199.083 99.3253 199.158 99.32 199.265 99.384L200.145 99.864C200.23 99.9173 200.246 99.9867 200.193 100.072C200.001 100.371 199.814 100.739 199.633 101.176C199.462 101.613 199.377 102.072 199.377 102.552C199.377 102.989 199.446 103.357 199.585 103.656C199.734 103.965 199.931 104.211 200.177 104.392C200.422 104.573 200.699 104.701 201.009 104.776C201.329 104.861 201.665 104.904 202.016 104.904H205.553C206.193 104.904 206.635 104.808 206.881 104.616C207.137 104.424 207.265 104.195 207.265 103.928C207.265 103.693 207.19 103.491 207.041 103.32C206.902 103.149 206.689 102.995 206.401 102.856C206.123 102.707 205.771 102.557 205.345 102.408C204.929 102.259 204.449 102.083 203.905 101.88C203.809 101.848 203.777 101.784 203.809 101.688L204.161 100.728C204.193 100.621 204.257 100.584 204.353 100.616ZM199.169 97.096C199.083 96.9893 199.014 96.8613 198.961 96.712C198.907 96.5627 198.881 96.392 198.881 96.2C198.881 96.04 198.907 95.8747 198.961 95.704C199.014 95.5227 199.11 95.3573 199.249 95.208C199.387 95.0587 199.563 94.936 199.777 94.84C200.001 94.7333 200.283 94.68 200.625 94.68C200.923 94.68 201.201 94.7387 201.457 94.856C201.713 94.9627 201.899 95.1067 202.016 95.288C202.059 95.352 202.054 95.4107 202.001 95.464L201.585 95.816C201.553 95.8373 201.51 95.8213 201.457 95.768C201.35 95.672 201.227 95.592 201.089 95.528C200.95 95.4533 200.779 95.416 200.577 95.416C200.267 95.416 200.043 95.5013 199.905 95.672C199.766 95.8427 199.697 96.0293 199.697 96.232C199.697 96.4667 199.755 96.6533 199.873 96.792C199.99 96.9307 200.107 97.032 200.225 97.096H202.033C202.097 97.096 202.129 97.1333 202.129 97.208V97.72C202.129 97.7947 202.097 97.832 202.033 97.832H198.625C198.561 97.832 198.529 97.7947 198.529 97.72V97.208C198.529 97.1333 198.561 97.096 198.625 97.096H199.169ZM214.383 103C214.041 103 213.743 102.931 213.487 102.792C213.231 102.653 213.033 102.445 212.895 102.168C212.628 102.723 212.073 103 211.231 103H209.503C209.289 103 209.129 102.963 209.023 102.888C208.916 102.813 208.863 102.664 208.863 102.44C208.863 102.173 208.916 101.992 209.023 101.896C209.119 101.8 209.279 101.752 209.503 101.752H210.991C211.257 101.752 211.449 101.693 211.567 101.576C211.695 101.448 211.759 101.224 211.759 100.904V97.992C211.759 97.8853 211.812 97.832 211.919 97.832H212.943C213.049 97.832 213.103 97.8853 213.103 97.992V100.664C213.103 101.027 213.231 101.299 213.487 101.48C213.743 101.661 214.084 101.752 214.511 101.752H214.911C215.177 101.752 215.369 101.693 215.487 101.576C215.615 101.448 215.679 101.224 215.679 100.904V97.992C215.679 97.8853 215.732 97.832 215.839 97.832H216.863C216.969 97.832 217.023 97.8853 217.023 97.992V100.728C217.023 101.069 217.156 101.325 217.423 101.496C217.689 101.667 218.036 101.752 218.463 101.752H218.831C219.097 101.752 219.289 101.693 219.407 101.576C219.535 101.448 219.599 101.224 219.599 100.904V96.616C219.599 96.5093 219.652 96.456 219.759 96.456H220.783C220.889 96.456 220.943 96.5093 220.943 96.616V100.664C220.943 101.027 221.071 101.299 221.327 101.48C221.593 101.661 221.945 101.752 222.383 101.752H222.559C222.772 101.752 222.932 101.8 223.039 101.896C223.145 101.981 223.199 102.131 223.199 102.344C223.199 102.621 223.145 102.803 223.039 102.888C222.943 102.963 222.783 103 222.559 103H222.223C221.881 103 221.583 102.931 221.327 102.792C221.071 102.653 220.873 102.445 220.735 102.168C220.468 102.723 219.913 103 219.071 103H218.303C217.961 103 217.663 102.931 217.407 102.792C217.151 102.653 216.953 102.445 216.815 102.168C216.548 102.723 215.993 103 215.151 103H214.383ZM216.751 94.872C216.644 94.872 216.591 94.8187 216.591 94.712V93.544C216.591 93.4373 216.644 93.384 216.751 93.384H217.839C217.945 93.384 217.999 93.4373 217.999 93.544V94.712C217.999 94.8187 217.945 94.872 217.839 94.872H216.751ZM214.799 94.872C214.692 94.872 214.639 94.8187 214.639 94.712V93.544C214.639 93.4373 214.692 93.384 214.799 93.384H215.887C215.993 93.384 216.047 93.4373 216.047 93.544V94.712C216.047 94.8187 215.993 94.872 215.887 94.872H214.799ZM215.791 93C215.684 93 215.631 92.9467 215.631 92.84V91.672C215.631 91.5653 215.684 91.512 215.791 91.512H216.879C216.985 91.512 217.039 91.5653 217.039 91.672V92.84C217.039 92.9467 216.985 93 216.879 93H215.791ZM222.565 103C222.352 103 222.192 102.963 222.085 102.888C221.978 102.813 221.925 102.664 221.925 102.44C221.925 102.173 221.978 101.992 222.085 101.896C222.181 101.8 222.341 101.752 222.565 101.752H223.573C223.84 101.752 224.032 101.693 224.149 101.576C224.277 101.448 224.341 101.224 224.341 100.904V96.616C224.341 96.5093 224.394 96.456 224.501 96.456H225.525C225.632 96.456 225.685 96.5093 225.685 96.616V100.984C225.685 101.677 225.541 102.189 225.253 102.52C224.965 102.84 224.485 103 223.813 103H222.565ZM224.469 94.872C224.362 94.872 224.309 94.8187 224.309 94.712V93.544C224.309 93.4373 224.362 93.384 224.469 93.384H225.557C225.664 93.384 225.717 93.4373 225.717 93.544V94.712C225.717 94.8187 225.664 94.872 225.557 94.872H224.469ZM228.948 102.84C228.948 102.947 228.895 103 228.788 103H227.764C227.658 103 227.604 102.947 227.604 102.84V92.28C227.604 92.1733 227.658 92.12 227.764 92.12H228.788C228.895 92.12 228.948 92.1733 228.948 92.28V102.84Z" fill="black"/>
</g>
<defs>
<filter id="filter0_d_2001_14814" x="0.529297" y="0.859375" width="232.419" height="113.325" filterUnits="userSpaceOnUse" color-interpolation-filters="sRGB">
<feFlood flood-opacity="0" result="BackgroundImageFix"/>
<feColorMatrix in="SourceAlpha" type="matrix" values="0 0 0 0 0 0 0 0 0 0 0 0 0 0 0 0 0 0 127 0" result="hardAlpha"/>
<feOffset dy="4"/>
<feGaussianBlur stdDeviation="2"/>
<feComposite in2="hardAlpha" operator="out"/>
<feColorMatrix type="matrix" values="0 0 0 0 0 0 0 0 0 0 0 0 0 0 0 0 0 0 0.25 0"/>
<feBlend mode="normal" in2="BackgroundImageFix" result="effect1_dropShadow_2001_14814"/>
<feBlend mode="normal" in="SourceGraphic" in2="effect1_dropShadow_2001_14814" result="shape"/>
</filter>
</defs>
</svg>
