<svg width="44" height="44" viewBox="0 0 44 44" fill="none" xmlns="http://www.w3.org/2000/svg">
<path d="M22 1C10.4017 1 1 10.4017 1 22C1 33.5983 10.4017 43 22 43C33.5983 43 43 33.5983 43 22C43 10.4017 33.5983 1 22 1Z" stroke="#282828" stroke-width="1.5" stroke-linecap="round" stroke-linejoin="round"/>
<path d="M5.76953 35.3265C5.76953 35.3265 10.4504 29.3499 22.0004 29.3499C33.5504 29.3499 38.2334 35.3265 38.2334 35.3265M22.0004 21.9999C23.6713 21.9999 25.2737 21.3362 26.4552 20.1547C27.6367 18.9732 28.3004 17.3708 28.3004 15.6999C28.3004 14.029 27.6367 12.4266 26.4552 11.2451C25.2737 10.0637 23.6713 9.3999 22.0004 9.3999C20.3296 9.3999 18.7271 10.0637 17.5457 11.2451C16.3642 12.4266 15.7004 14.029 15.7004 15.6999C15.7004 17.3708 16.3642 18.9732 17.5457 20.1547C18.7271 21.3362 20.3296 21.9999 22.0004 21.9999Z" stroke="#282828" stroke-width="1.5" stroke-linecap="round" stroke-linejoin="round"/>
</svg>
