<svg width="28" height="29" viewBox="0 0 28 29" fill="none" xmlns="http://www.w3.org/2000/svg">
<path d="M9.54637 8.32316L9.54637 8.32315C9.35036 8.31653 9.11751 8.31641 8.87448 8.31641C8.76178 8.32006 8.65096 8.34648 8.54872 8.39411C8.44476 8.44253 8.35188 8.51184 8.27586 8.59771L8.27091 8.6033L8.26579 8.60875L8.19971 8.67904L8.19848 8.68036L8.19848 8.68035L8.19589 8.68309C7.84625 9.05236 7.13477 9.8038 7.13477 11.2777C7.13477 12.0401 7.41381 12.8193 7.74007 13.4639C8.06172 14.0995 8.40818 14.5638 8.50782 14.6973L8.50815 14.6977L8.50888 14.6987L8.51658 14.709L8.52176 14.7159L8.5267 14.723L8.60122 14.8298L8.6057 14.8362L8.60565 14.8363C9.06268 15.514 11.2387 18.7131 14.4897 19.9915L14.49 19.9916C15.8577 20.5302 16.707 20.7651 17.2749 20.8601C17.8182 20.951 18.1116 20.916 18.3938 20.8823L18.4034 20.8812L18.4037 20.8812L18.5935 20.8587L18.6062 20.8572L18.6063 20.8573C18.8246 20.8371 19.2805 20.6671 19.7418 20.3703C20.2085 20.07 20.5347 19.7328 20.6307 19.4713C20.765 19.0894 20.8304 18.7407 20.8528 18.4785C20.8638 18.3502 20.8638 18.2496 20.8588 18.1807C20.8031 18.1477 20.7249 18.1096 20.6002 18.0503L20.5948 18.0478L20.5948 18.0477L20.3938 17.9493L20.3921 17.9485C20.2126 17.8598 19.6788 17.5976 19.1487 17.3423C18.6051 17.0805 18.1047 16.8451 17.9635 16.7921C17.8836 16.7626 17.8306 16.7453 17.7898 16.7358C17.7847 16.7347 17.7801 16.7337 17.7761 16.7329C17.7677 16.7428 17.7566 16.7573 17.7432 16.7778L17.7388 16.7845L17.7387 16.7845C17.4739 17.1742 16.755 18.0109 16.5554 18.2427M9.54637 8.32316L16.1766 17.9164M9.54637 8.32316L9.54959 8.32325C9.68051 8.32683 9.69809 8.33506 9.71436 8.34448C9.72875 8.35282 9.81008 8.40488 9.92135 8.65153M9.54637 8.32316L9.56325 7.82344M16.5554 18.2427L16.1766 17.9164M16.5554 18.2427C16.5555 18.2426 16.5555 18.2425 16.5556 18.2425L16.1766 17.9164M16.5554 18.2427C16.4009 18.4222 16.1902 18.5818 15.9005 18.6161C15.6344 18.6475 15.3861 18.5615 15.1734 18.456M16.1766 17.9164C15.9685 18.1582 15.7534 18.1863 15.3921 18.0063M15.1734 18.456C15.1746 18.4566 15.1757 18.4571 15.1769 18.4576L15.3921 18.0063M15.1734 18.456C15.1218 18.4315 15.051 18.3998 14.9592 18.3604M15.1734 18.456C15.172 18.4553 15.1706 18.4546 15.1692 18.4539L15.3921 18.0063M15.3921 18.0063L14.9592 18.3604M14.9592 18.3604C14.9603 18.3608 14.9613 18.3613 14.9624 18.3617L15.1531 17.8995L14.9561 18.3591C14.9572 18.3595 14.9582 18.3599 14.9592 18.3604ZM14.9592 18.3604C13.9264 17.9338 12.9744 17.3334 12.1445 16.5853M14.9592 18.3604L12.4777 16.2124M12.1445 16.5853C12.1451 16.5858 12.1457 16.5863 12.1462 16.5868L12.4777 16.2124M12.1445 16.5853C12.1439 16.5847 12.1434 16.5842 12.1428 16.5837L12.4777 16.2124M12.1445 16.5853C11.0077 15.5783 10.2454 14.3415 10.0273 13.9644C9.8641 13.682 9.8202 13.3873 9.92603 13.1045C10.0098 12.8806 10.1741 12.7184 10.2565 12.637C10.2607 12.6329 10.2646 12.629 10.2683 12.6253L10.6205 12.9803L10.2669 12.6267C10.3476 12.5461 10.4516 12.4222 10.5736 12.273L10.578 12.2675L10.5781 12.2676L10.7791 12.0286L10.7833 12.0236L10.7834 12.0236C10.8835 11.9076 10.9649 11.7767 11.0246 11.6356L11.0294 11.6241L11.0348 11.6129L11.0742 11.5313L11.0747 11.5303C11.0928 11.493 11.0923 11.4736 11.091 11.4602C11.0888 11.4391 11.0798 11.4037 11.0491 11.3425C11.0053 11.2549 10.871 10.928 10.7148 10.548C10.6918 10.4919 10.6683 10.4347 10.6445 10.377L10.6445 10.3769C10.6277 10.336 10.6106 10.2946 10.5934 10.2527C10.3555 9.67397 10.0853 9.01656 9.92135 8.65153M12.4777 16.2124C11.3993 15.2578 10.6683 14.0741 10.4602 13.7141C10.2521 13.3542 10.4391 13.1602 10.6205 12.9803C10.7217 12.879 10.8412 12.7356 10.9607 12.5894L11.1618 12.3504C11.296 12.195 11.4051 12.0194 11.4851 11.8302L11.5245 11.7487C11.6426 11.5055 11.5863 11.2988 11.4964 11.1189C11.4616 11.0493 11.3346 10.7405 11.1727 10.3466C11.1513 10.2947 11.1294 10.2413 11.1069 10.1867C11.0897 10.1448 11.0722 10.1022 11.0544 10.0591C10.8179 9.48375 10.5447 8.81899 10.3773 8.44625M9.92135 8.65153C9.92139 8.65162 9.92142 8.6517 9.92146 8.65178L10.3773 8.44625M9.92135 8.65153C9.92128 8.65139 9.92122 8.65124 9.92115 8.6511L10.3773 8.44625M10.3773 8.44625C10.1059 7.84452 9.82053 7.83047 9.56325 7.82344M14.3067 20.4568C17.0676 21.5441 17.8463 21.4512 18.4586 21.3782L18.4626 21.3777L14.3067 20.4568ZM14.3067 20.4568C10.896 19.1156 8.6452 15.7892 8.19109 15.1158L14.3067 20.4568ZM9.56325 7.82344C9.35518 7.81641 9.11055 7.81641 8.86733 7.81641C8.68408 7.8211 8.50376 7.86347 8.3376 7.94087C8.17143 8.01826 8.02298 8.12904 7.90148 8.26629L9.56325 7.82344Z" fill="#282828" stroke="#282828"/>
<path d="M3.89653 22.0108L3.42213 21.8801C3.47885 21.6743 3.49402 21.4592 3.46676 21.2475C3.43951 21.0357 3.37038 20.8315 3.2634 20.6467L3.2633 20.6465C2.18057 18.7749 1.60994 16.6511 1.60885 14.4888L1.60885 14.4886C1.60885 7.70088 7.16755 2.1636 13.9999 2.1636C17.3231 2.1636 20.4274 3.44864 22.7678 5.7784C23.9201 6.91835 24.8339 8.27631 25.456 9.77309C26.0781 11.2699 26.3959 12.8755 26.391 14.4964C26.391 14.4967 26.391 14.4969 26.391 14.4972L25.891 14.4956L3.89653 22.0108ZM3.89653 22.0108L3.42213 21.8802L2.40426 25.5749L2.1741 26.4103L3.0126 26.1914L6.89568 25.1778L6.89602 25.1777M3.89653 22.0108L6.89602 25.1777M6.89602 25.1777C7.29091 25.0743 7.71032 25.1249 8.0693 25.3192L6.89602 25.1777ZM0.622328 27.866L0.622641 27.8649L2.35189 21.5862L2.4075 21.3843L2.30261 21.203C1.12074 19.1605 0.5 16.8456 0.5 14.4886C0.5 7.0839 6.56092 1.05475 13.9999 1.05475L14.0014 1.05475C15.7739 1.0494 17.53 1.39454 19.1686 2.07032C20.8072 2.7461 22.2961 3.73919 23.5495 4.99246L23.5513 4.9942C24.8064 6.23684 25.8019 7.7167 26.4798 9.34766C27.1577 10.9786 27.5044 12.7281 27.4998 14.4943V14.4956C27.4998 21.9018 21.4389 27.9309 13.9999 27.9309H13.9944C13.9944 27.9309 13.9943 27.9309 13.9943 27.9309C11.7404 27.9302 9.52221 27.3678 7.54036 26.2943L7.36679 26.2003L7.1758 26.2502L0.698836 27.9429L0.698255 27.9431C0.687639 27.9458 0.67648 27.9458 0.665904 27.9429C0.655326 27.94 0.645701 27.9343 0.638 27.9265C0.630299 27.9187 0.624795 27.909 0.622043 27.8984C0.619291 27.8878 0.619389 27.8766 0.622328 27.866Z" fill="#282828" stroke="#282828"/>
</svg>
