<svg width="26" height="26" viewBox="0 0 26 26" fill="none" xmlns="http://www.w3.org/2000/svg">
<path d="M2.7545 2.96072H8.49966L10.3512 7.41215L7.37621 9.31921C7.20102 9.4316 7.05739 9.58383 6.95807 9.7624C6.85874 9.94097 6.80679 10.1404 6.80682 10.3429C6.81066 10.4585 6.80682 10.3441 6.80682 10.3441V10.3699C6.80746 10.425 6.81002 10.4799 6.81449 10.5348C6.82132 10.6365 6.83625 10.7718 6.85928 10.9408C6.90918 11.273 7.00515 11.7307 7.19196 12.2696C7.56815 13.3523 8.30517 14.7537 9.74082 16.1342C11.1765 17.5146 12.6339 18.2233 13.7586 18.585C14.3203 18.7647 14.795 18.8557 15.1431 18.9049C15.3394 18.9324 15.5372 18.9488 15.7355 18.9541L15.7521 18.9554H15.7624C15.7624 18.9554 15.9057 18.948 15.7636 18.9554C16.0012 18.9552 16.234 18.8915 16.4361 18.7714C16.6381 18.6512 16.8014 18.4793 16.9076 18.275L17.7648 16.6263L23.4409 17.5368V22.8519C20.7398 23.2272 13.4438 23.5975 7.71146 18.0855C1.97909 12.5735 2.36296 5.55677 2.7545 2.96072ZM9.45932 10.9408L11.7715 9.45947C12.2599 9.14618 12.6215 8.68092 12.7955 8.14171C12.9695 7.6025 12.9454 7.02215 12.7273 6.498L10.8758 2.04656C10.6858 1.58998 10.3579 1.19862 9.93433 0.92295C9.5108 0.647285 9.01109 0.499967 8.49966 0.5H2.68796C1.52485 0.5 0.430841 1.27636 0.240189 2.48949C-0.194856 5.24795 -0.784726 13.3954 5.90218 19.8252C12.5891 26.2551 21.0622 25.6867 23.931 25.2696C25.1926 25.085 26 24.0343 26 22.9159V17.5368C26.0001 16.9543 25.7852 16.3906 25.3937 15.9461C25.0022 15.5016 24.4594 15.2051 23.8619 15.1093L18.1858 14.2C17.646 14.1134 17.0915 14.1954 16.6037 14.4342C16.1159 14.6729 15.7206 15.0557 15.4757 15.5264L15.033 16.379C14.8766 16.3416 14.7216 16.2985 14.5685 16.2498C13.7752 15.9964 12.6735 15.4747 11.5501 14.3944C10.4267 13.3142 9.88412 12.2548 9.62054 11.4908C9.5584 11.3099 9.50503 11.1264 9.4606 10.9408H9.45932Z" fill="#282828"/>
</svg>
