<svg width="16" height="16" viewBox="0 0 16 16" fill="none" xmlns="http://www.w3.org/2000/svg">
<path d="M13.7188 11V5C13.7188 4.83178 13.6286 4.67647 13.4826 4.59303L8.23256 1.59303C8.08847 1.51066 7.91156 1.51066 7.76744 1.59303L2.51744 4.59303C2.37137 4.67647 2.28125 4.83178 2.28125 5V11C2.28125 11.1682 2.37137 11.3235 2.51744 11.407L7.76744 14.407C7.9115 14.4893 8.08844 14.4893 8.23256 14.407L13.4826 11.407C13.6286 11.3235 13.7188 11.1682 13.7188 11ZM3.21875 5.80772L7.05522 8L3.21875 10.1923V5.80772ZM7.5335 8.80644L7.54581 13.2006L3.69478 11L7.5335 8.80644ZM8.47103 8.80903L12.3052 11L8.48331 13.184L8.47103 8.80903ZM8.94478 8L12.7812 5.80775V10.1923L8.94478 8ZM8 2.53988L12.3052 5L8 7.46012L3.69481 5L8 2.53988Z" fill="#E3A745"/>
<path d="M13.5 0H12.25C11.9911 0 11.7813 0.209875 11.7813 0.46875C11.7813 0.727625 11.9911 0.9375 12.25 0.9375H12.3996L11.6685 1.66856C11.4855 1.85162 11.4855 2.14841 11.6685 2.33147C11.8516 2.51453 12.1484 2.51456 12.3315 2.33147L13.0313 1.63166V1.75C13.0313 2.00887 13.2411 2.21875 13.5 2.21875C13.7589 2.21875 13.9688 2.00887 13.9688 1.75V0.46875C13.9688 0.209875 13.7589 0 13.5 0Z" fill="#E3A745"/>
<path d="M2.5 2.21875C2.75888 2.21875 2.96875 2.00887 2.96875 1.75V1.63166L3.66856 2.33147C3.85159 2.51453 4.14841 2.51456 4.33147 2.33147C4.51453 2.14841 4.51453 1.85162 4.33147 1.66856L3.60041 0.9375H3.75C4.00888 0.9375 4.21875 0.727625 4.21875 0.46875C4.21875 0.209875 4.00888 0 3.75 0H2.5C2.24113 0 2.03125 0.209875 2.03125 0.46875V1.75C2.03125 2.00887 2.24113 2.21875 2.5 2.21875Z" fill="#E3A745"/>
<path d="M13.5 13.7813C13.2411 13.7813 13.0313 13.9911 13.0313 14.25V14.3684L12.3315 13.6685C12.1484 13.4855 11.8516 13.4855 11.6685 13.6685C11.4855 13.8516 11.4855 14.1484 11.6685 14.3315L12.3996 15.0625H12.25C11.9911 15.0625 11.7813 15.2724 11.7813 15.5313C11.7813 15.7901 11.9911 16 12.25 16H13.5C13.7589 16 13.9688 15.7901 13.9688 15.5313V14.25C13.9688 13.9911 13.7589 13.7813 13.5 13.7813Z" fill="#E3A745"/>
<path d="M3.66856 13.6686L2.96875 14.3684V14.25C2.96875 13.9911 2.75888 13.7813 2.5 13.7813C2.24113 13.7813 2.03125 13.9911 2.03125 14.25V15.5313C2.03125 15.7901 2.24113 16 2.5 16H3.75C4.00888 16 4.21875 15.7901 4.21875 15.5313C4.21875 15.2724 4.00888 15.0625 3.75 15.0625H3.60041L4.33147 14.3314C4.51453 14.1484 4.51453 13.8516 4.33147 13.6685C4.14841 13.4855 3.85159 13.4855 3.66856 13.6686Z" fill="#E3A745"/>
</svg>
