<svg width="34" height="34" viewBox="0 0 34 34" fill="none" xmlns="http://www.w3.org/2000/svg">
<circle cx="17" cy="17" r="16.75" stroke="#EEEEEE" stroke-width="0.5"/>
<g clip-path="url(#clip0_577_3235)">
<path d="M24.351 20.0606C22.3055 19.724 21.3837 17.6288 21.3464 17.5399L21.3378 17.5227C21.2336 17.3104 21.2087 17.1354 21.2661 17.0025C21.378 16.7405 21.8064 16.6047 22.0894 16.5148C22.1717 16.489 22.2491 16.4641 22.3132 16.4392C22.5924 16.3293 22.7913 16.2097 22.9233 16.0749C23.0801 15.9133 23.1107 15.7584 23.1088 15.658C23.104 15.4132 22.9166 15.1952 22.6173 15.089C22.5114 15.0469 22.3984 15.0254 22.2845 15.0259C22.1779 15.0244 22.0722 15.0459 21.9747 15.089C21.7356 15.2009 21.5214 15.2621 21.3369 15.2707C21.2642 15.2687 21.1925 15.2531 21.1255 15.2248L21.1437 14.9293L21.1466 14.8853C21.2125 13.8497 21.2938 12.5617 20.9515 11.7967C20.7312 11.2925 20.413 10.8371 20.0153 10.4569C19.6873 10.1483 19.3085 9.89855 18.8955 9.71872C18.3443 9.47823 17.7499 9.35264 17.1485 9.34961H17.1102L16.8473 9.35248C16.5078 9.35248 15.8279 9.40029 15.0983 9.72159C14.6865 9.90113 14.309 10.1506 13.9823 10.4589C13.5866 10.8388 13.2698 11.2931 13.05 11.7957C12.7077 12.5597 12.7889 13.8478 12.854 14.8825V14.8844L12.875 15.2239C12.7957 15.2569 12.7103 15.2728 12.6245 15.2707C12.4313 15.2707 12.2018 15.2095 11.9427 15.0881C11.8612 15.0515 11.7728 15.0333 11.6835 15.0345C11.5222 15.0362 11.3642 15.0804 11.2255 15.1627C11.0476 15.2669 10.9329 15.4132 10.9013 15.5767C10.8812 15.6838 10.8822 15.8971 11.1193 16.1132C11.2503 16.2317 11.4416 16.3417 11.6892 16.4392C11.7543 16.4651 11.8317 16.489 11.913 16.5148C12.1961 16.6047 12.6254 16.7405 12.7373 17.0025C12.7937 17.1354 12.7689 17.3104 12.6646 17.5227L12.657 17.5399C12.4573 17.9713 12.1978 18.3724 11.8862 18.7314C11.6174 19.0481 11.3044 19.3244 10.9568 19.5518C10.5613 19.8093 10.1169 19.9822 9.65148 20.0596C9.56426 20.0737 9.48537 20.1196 9.43007 20.1885C9.37478 20.2574 9.34702 20.3444 9.35217 20.4325C9.35504 20.4851 9.36747 20.5377 9.38946 20.5884V20.5894C9.4631 20.7605 9.63235 20.9049 9.90775 21.0321C10.2444 21.188 10.7473 21.319 11.4043 21.4213C11.4378 21.4844 11.4722 21.6422 11.4961 21.7503C11.5209 21.865 11.5468 21.9836 11.5841 22.1089C11.6242 22.2446 11.7275 22.4072 11.9943 22.4072C12.0957 22.4072 12.2114 22.3843 12.3462 22.3584C12.5432 22.3202 12.8128 22.2676 13.1485 22.2676C13.335 22.2676 13.5281 22.2838 13.7222 22.3164C14.0971 22.3785 14.4203 22.6061 14.7942 22.87C15.3412 23.2564 15.9608 23.6934 16.9075 23.6934L16.985 23.6905C17.0156 23.6924 17.0548 23.6934 17.0949 23.6934C18.0416 23.6934 18.6613 23.2564 19.2082 22.871L19.2092 22.87C19.5831 22.6071 19.9063 22.3795 20.2812 22.3173C20.4753 22.2848 20.6684 22.2685 20.8549 22.2685C21.1762 22.2685 21.4306 22.3097 21.6572 22.3537C21.8054 22.3823 21.9202 22.3967 22.0091 22.3967H22.0263C22.1156 22.4006 22.2036 22.3736 22.2752 22.3201C22.3469 22.2666 22.3978 22.1899 22.4193 22.1031C22.4529 21.9856 22.4823 21.867 22.5073 21.7474C22.5293 21.646 22.5656 21.4835 22.5981 21.4204C23.2551 21.3171 23.7581 21.187 24.0947 21.0312C24.3691 20.904 24.5384 20.7596 24.612 20.5894C24.6341 20.5395 24.6471 20.4861 24.6503 20.4316C24.6551 20.3437 24.6272 20.2571 24.5719 20.1885C24.5167 20.12 24.4379 20.0744 24.351 20.0606Z" fill="#EEEEEE"/>
</g>
<defs>
<clipPath id="clip0_577_3235">
<rect width="15.3" height="15.3" fill="white" transform="translate(9.35156 9.34961)"/>
</clipPath>
</defs>
</svg>
