<svg width="25" height="25" viewBox="0 0 25 25" fill="none" xmlns="http://www.w3.org/2000/svg">
<path d="M7.032 5.25H13.968C14.425 5.25 14.822 5.25 15.133 5.28C15.44 5.308 15.818 5.375 16.126 5.628C16.523 5.954 16.747 6.442 16.75 6.95C16.752 7.34 16.578 7.676 16.41 7.942C16.242 8.212 15.999 8.532 15.715 8.906L15.684 8.946L15.674 8.959L13.119 12.328C12.867 12.66 12.804 12.748 12.76 12.838C12.7142 12.9323 12.6809 13.0321 12.661 13.135C12.641 13.235 12.638 13.347 12.638 13.769V18.012C12.638 18.22 12.638 18.424 12.624 18.59C12.609 18.754 12.572 19.017 12.4 19.253C12.19 19.54 11.863 19.726 11.5 19.748C11.198 19.767 10.953 19.645 10.81 19.565C10.666 19.485 10.501 19.37 10.334 19.255L9.345 18.572L9.297 18.539C9.106 18.408 8.894 18.263 8.735 18.062C8.59682 17.8886 8.49389 17.6899 8.432 17.477C8.361 17.233 8.362 16.977 8.362 16.739V13.769C8.362 13.347 8.358 13.235 8.339 13.135C8.3188 13.0321 8.28518 12.9322 8.239 12.838C8.196 12.748 8.133 12.66 7.881 12.328L5.325 8.959L5.315 8.947L5.285 8.907C5.001 8.532 4.758 8.212 4.589 7.942C4.422 7.676 4.249 7.34 4.25 6.95C4.25053 6.69734 4.30672 6.4479 4.41457 6.21941C4.52242 5.99092 4.67928 5.789 4.874 5.628C5.182 5.375 5.56 5.308 5.867 5.279C6.178 5.25 6.574 5.25 7.032 5.25ZM7.429 9.25L9.076 11.42L9.111 11.467C9.312 11.731 9.472 11.942 9.589 12.182C9.69167 12.3933 9.76567 12.615 9.811 12.847C9.862 13.108 9.861 13.374 9.861 13.711V16.679C9.861 16.837 9.862 16.926 9.866 16.993L9.872 17.055C9.87887 17.0815 9.89113 17.1064 9.908 17.128L9.949 17.162C9.999 17.202 10.069 17.25 10.197 17.338L11.138 17.988V13.71C11.138 13.373 11.138 13.107 11.189 12.846C11.2343 12.6147 11.3083 12.393 11.411 12.181C11.528 11.941 11.688 11.731 11.889 11.466L11.924 11.42L13.57 9.25H7.429ZM14.709 7.75C14.904 7.49 15.043 7.3 15.139 7.146C15.219 7.02 15.243 6.958 15.249 6.939C15.2458 6.88916 15.2257 6.8419 15.192 6.805C15.1266 6.78759 15.0596 6.77687 14.992 6.773C14.76 6.751 14.436 6.75 13.932 6.75H7.068C6.564 6.75 6.24 6.75 6.008 6.773C5.94043 6.77687 5.87342 6.78759 5.808 6.805C5.77434 6.8419 5.75424 6.88916 5.751 6.939C5.757 6.958 5.781 7.02 5.861 7.146C5.957 7.301 6.096 7.49 6.291 7.75H14.709ZM16.25 11C16.25 10.8011 16.329 10.6103 16.4697 10.4697C16.6103 10.329 16.8011 10.25 17 10.25H20C20.1989 10.25 20.3897 10.329 20.5303 10.4697C20.671 10.6103 20.75 10.8011 20.75 11C20.75 11.1989 20.671 11.3897 20.5303 11.5303C20.3897 11.671 20.1989 11.75 20 11.75H17C16.8011 11.75 16.6103 11.671 16.4697 11.5303C16.329 11.3897 16.25 11.1989 16.25 11ZM14.75 13.5C14.75 13.3011 14.829 13.1103 14.9697 12.9697C15.1103 12.829 15.3011 12.75 15.5 12.75H20C20.1989 12.75 20.3897 12.829 20.5303 12.9697C20.671 13.1103 20.75 13.3011 20.75 13.5C20.75 13.6989 20.671 13.8897 20.5303 14.0303C20.3897 14.171 20.1989 14.25 20 14.25H15.5C15.3011 14.25 15.1103 14.171 14.9697 14.0303C14.829 13.8897 14.75 13.6989 14.75 13.5ZM14.25 16C14.25 15.8011 14.329 15.6103 14.4697 15.4697C14.6103 15.329 14.8011 15.25 15 15.25H20C20.1989 15.25 20.3897 15.329 20.5303 15.4697C20.671 15.6103 20.75 15.8011 20.75 16C20.75 16.1989 20.671 16.3897 20.5303 16.5303C20.3897 16.671 20.1989 16.75 20 16.75H15C14.8011 16.75 14.6103 16.671 14.4697 16.5303C14.329 16.3897 14.25 16.1989 14.25 16ZM14.25 18.5C14.25 18.3011 14.329 18.1103 14.4697 17.9697C14.6103 17.829 14.8011 17.75 15 17.75H17.5C17.6989 17.75 17.8897 17.829 18.0303 17.9697C18.171 18.1103 18.25 18.3011 18.25 18.5C18.25 18.6989 18.171 18.8897 18.0303 19.0303C17.8897 19.171 17.6989 19.25 17.5 19.25H15C14.8011 19.25 14.6103 19.171 14.4697 19.0303C14.329 18.8897 14.25 18.6989 14.25 18.5Z" fill="#B87153"/>
</svg>
