<svg width="53" height="36" viewBox="0 0 53 36" fill="none" xmlns="http://www.w3.org/2000/svg">
<rect x="0.5" y="0.5" width="51.5" height="35" rx="5.5" fill="white" stroke="#D9D9D9"/>
<path fill-rule="evenodd" clip-rule="evenodd" d="M28.2082 12.2131L25.5413 12.7855V10.6233L28.2082 10.0615V12.2131ZM17.3705 11.291L14.778 11.8421L14.7674 20.332C14.7674 21.9006 15.9468 23.0559 17.5193 23.0559C18.3905 23.0559 19.028 22.897 19.3787 22.7062V20.5546C19.0387 20.6924 17.3599 21.1799 17.3599 19.6113V15.8486H19.3787V13.591H17.3599L17.3705 11.291ZM45.75 18.2652C45.75 15.5518 44.4325 13.4108 41.9144 13.4108C39.3856 13.4108 37.8556 15.5518 37.8556 18.244C37.8556 21.4343 39.6619 23.0454 42.2544 23.0454C43.5187 23.0454 44.475 22.7592 45.1975 22.3564V20.2366C44.475 20.597 43.6462 20.8196 42.5944 20.8196C41.5637 20.8196 40.65 20.4592 40.5331 19.2085H45.7288C45.7288 19.1505 45.7325 19.0193 45.7369 18.8677L45.737 18.8647L45.737 18.8645L45.737 18.8639C45.743 18.6563 45.75 18.4116 45.75 18.2652ZM40.5012 17.2583C40.5012 16.0606 41.2343 15.5624 41.9037 15.5624C42.5518 15.5624 43.2424 16.0606 43.2424 17.2583H40.5012ZM11.0913 15.7108C10.5281 15.7108 10.1881 15.8698 10.1881 16.2832C10.1881 16.7345 10.7733 16.933 11.4992 17.1793C12.6827 17.5809 14.2403 18.1094 14.2469 20.067C14.2469 21.9643 12.7275 23.056 10.5175 23.056C9.60376 23.056 8.60501 22.8758 7.61688 22.4518V19.9293C8.50938 20.4168 9.63563 20.7772 10.5175 20.7772C11.1125 20.7772 11.5375 20.6182 11.5375 20.1306C11.5375 19.6307 10.9032 19.4022 10.1374 19.1263C8.97118 18.7062 7.5 18.1762 7.5 16.4104C7.5 14.5343 8.93438 13.4108 11.0913 13.4108C11.9731 13.4108 12.8444 13.5486 13.7263 13.8984V16.3892C12.9188 15.9546 11.8988 15.7108 11.0913 15.7108ZM22.6832 14.3753L22.5132 13.591H20.2182V22.8652H22.8745V16.5799C23.5013 15.7638 24.5638 15.9122 24.8932 16.0288V13.591C24.5532 13.4638 23.3101 13.2306 22.6832 14.3753ZM25.5411 13.591H28.208V22.8652H25.5411V13.591ZM31.6717 14.2375C32.0436 13.8984 32.713 13.4108 33.7542 13.4108C35.6136 13.4108 37.3668 15.0855 37.3774 18.1592C37.3774 21.5191 35.6455 23.0454 33.7436 23.0454C32.8086 23.0454 32.2455 22.6532 31.863 22.3776L31.8524 25.3772L29.1961 25.9389V13.5804H31.5336L31.6717 14.2375ZM31.863 20.2154C32.118 20.491 32.4898 20.7136 33.1167 20.7136C34.0942 20.7136 34.753 19.6536 34.753 18.2334C34.753 16.8449 34.0836 15.7638 33.1167 15.7638C32.5111 15.7638 32.1286 15.9758 31.8523 16.2832L31.863 20.2154Z" fill="#6461FC"/>
</svg>
