<svg xmlns="http://www.w3.org/2000/svg" viewBox="0 0 35 24">
  <g id="Group_1" data-name="Group 1" transform="translate(-677 -366)">
    <path id="Path_2" data-name="Path 2" d="M.293.293A1,1,0,0,1,1,0H34a1,1,0,0,1,1,1V23a1,1,0,0,1-1,1H1a1,1,0,0,1-1-1V1A1,1,0,0,1,.293.293ZM34,1H1V23H34Z" transform="translate(677 366)" fill="#2d2d2d" fill-rule="evenodd"/>
    <path id="Path_3" data-name="Path 3" d="M29.14,9.66,27.4,16.306l0,.015h1.352L30.5,9.659H29.14ZM7.609,13.44a1.473,1.473,0,0,1-.653.15c-.487,0-.765-.077-.794-.473v-.026l0-.047v-1.15l0-.135v-.81h0V10.6l0-.135v-.78l-1.21.16A1.515,1.515,0,0,0,6.242,8.4V8H4.874V9.86L4.8,9.881v3.446a1.548,1.548,0,0,0,1.73,1.544,2.823,2.823,0,0,0,1.09-.224l.005,0V13.436Z" transform="translate(677 366)" fill="#292929"/>
    <path id="Path_4" data-name="Path 4" d="M7.818,9.411,4,10v.968l3.818-.59V9.41Zm0,1.411L4,11.413v.924l3.818-.59Zm4.283.447a1.673,1.673,0,0,0-1.822-1.713,1.809,1.809,0,0,0-1.5.7,3.2,3.2,0,0,0-.537,1.952,3.2,3.2,0,0,0,.537,1.952,1.811,1.811,0,0,0,1.5.7A1.677,1.677,0,0,0,12.1,13.144v1.621H13.46V9.671l-1.362.21Zm.071.942c0,.954-.5,1.568-1.273,1.568-.8,0-1.275-.588-1.275-1.568s.475-1.577,1.275-1.577a1.146,1.146,0,0,1,.937.437A1.849,1.849,0,0,1,12.172,12.211ZM17.441,9.56a1.673,1.673,0,0,0-1.822,1.715V8.189l-1.364.21v6.37h1.361V13.147a1.677,1.677,0,0,0,1.822,1.724c1.282,0,2.046-.992,2.046-2.654s-.764-2.658-2.043-2.658Zm-.617,4.219c-.774,0-1.276-.614-1.276-1.568a1.808,1.808,0,0,1,.337-1.14,1.147,1.147,0,0,1,.936-.437c.8,0,1.275.59,1.275,1.577S17.621,13.779,16.824,13.779ZM23.19,9.56a1.673,1.673,0,0,0-1.822,1.715V8.189l-1.361.21v6.37h1.361V13.147a1.677,1.677,0,0,0,1.822,1.724c1.281,0,2.046-.992,2.046-2.654s-.767-2.658-2.046-2.658Zm-.617,4.219c-.774,0-1.276-.614-1.276-1.568a1.808,1.808,0,0,1,.337-1.14,1.147,1.147,0,0,1,.936-.437c.8,0,1.276.59,1.276,1.577S23.37,13.779,22.573,13.779ZM25.228,9.66h1.453l1.181,5.1h-1.3Z" transform="translate(677 366)" fill="#292929"/>
  </g>
</svg>
