<svg width="18" height="19" viewBox="0 0 18 19" fill="none" xmlns="http://www.w3.org/2000/svg">
<path fill-rule="evenodd" clip-rule="evenodd" d="M2.67248 8.95671C2.33442 9.29477 2.33442 9.84288 2.67248 10.1809L8.73211 16.2406C9.07018 16.5786 9.61828 16.5786 9.95635 16.2406L16.016 10.1809C16.185 10.0119 16.2696 9.7903 16.2695 9.56872V5.24051C16.2695 3.80624 15.1068 2.64352 13.6725 2.64352H9.34399C9.12253 2.64358 8.90109 2.7281 8.73211 2.89707L2.67248 8.95671ZM13.6725 6.10617C13.1945 6.10617 12.8069 5.7186 12.8069 5.24051C12.8069 4.76242 13.1945 4.37485 13.6725 4.37485C14.1506 4.37485 14.5382 4.76242 14.5382 5.24051C14.5382 5.7186 14.1506 6.10617 13.6725 6.10617Z" fill="#A1A1AA"/>
</svg>
