<svg width="55" height="40" viewBox="0 0 55 40" fill="none" xmlns="http://www.w3.org/2000/svg">
<path d="M9.4165 14.779C9.4165 17.662 14.0407 19.9999 19.7498 19.9999V14.779C19.7498 12.2112 19.7498 10.9247 18.7243 10.1419C17.6961 9.35918 16.6783 9.65109 14.6426 10.2375C11.5219 11.1391 9.4165 12.8312 9.4165 14.779Z" stroke="#B87153" stroke-width="2" stroke-linecap="round" stroke-linejoin="round"/>
<path d="M37.8332 10.9583C37.8332 15.9519 29.737 20 19.7498 20C9.76267 20 1.6665 15.9519 1.6665 10.9583C1.6665 5.96471 9.76267 1.91663 19.7498 1.91663C29.737 1.91663 37.8332 5.96471 37.8332 10.9583Z" stroke="#B87153" stroke-width="2" stroke-linecap="round" stroke-linejoin="round"/>
<path d="M1.6665 12.25V29.4731C1.6665 34.2264 9.76267 38.0833 19.7498 38.0833H48.1665C50.6026 38.0833 51.8193 38.0833 52.5763 37.3264C53.3332 36.5695 53.3332 35.3528 53.3332 32.9167V25.1667C53.3332 22.7306 53.3332 21.5138 52.5763 20.7569C51.8193 20 50.6026 20 48.1665 20H19.7498M42.9998 38.0833V32.9167M32.6665 38.0833V32.9167M22.3332 38.0833V32.9167M11.9998 36.7917V31.625" stroke="#B87153" stroke-width="2" stroke-linecap="round" stroke-linejoin="round"/>
</svg>
