<svg width="34" height="34" viewBox="0 0 34 34" fill="none" xmlns="http://www.w3.org/2000/svg">
<circle cx="17" cy="17" r="16.75" stroke="white" stroke-width="0.5"/>
<path d="M20.0924 8H17.2274V19.5797C17.2274 20.9594 16.1255 22.0928 14.7542 22.0928C13.3829 22.0928 12.281 20.9594 12.281 19.5797C12.281 18.2246 13.3584 17.1159 14.6808 17.0667V14.1594C11.7668 14.2087 9.41602 16.5986 9.41602 19.5797C9.41602 22.5855 11.8157 25 14.7787 25C17.7416 25 20.1413 22.5609 20.1413 19.5797V13.642C21.2188 14.4304 22.5411 14.8986 23.9368 14.9232V12.0159C21.782 11.942 20.0924 10.1681 20.0924 8Z" fill="white"/>
</svg>
