<svg width="53" height="36" viewBox="0 0 53 36" fill="none" xmlns="http://www.w3.org/2000/svg">
<rect x="0.5" y="0.5" width="51.5" height="35" rx="5.5" fill="white" stroke="#D9D9D9"/>
<path fill-rule="evenodd" clip-rule="evenodd" d="M15.9379 24.3874H12.7574L10.3724 15.2886C10.2592 14.87 10.0189 14.5 9.66531 14.3256C8.78297 13.8873 7.81068 13.5386 6.75 13.3626V13.0123H11.8735C12.5806 13.0123 13.111 13.5386 13.1994 14.1497L14.4368 20.713L17.6157 13.0123H20.7078L15.9379 24.3874ZM22.4756 24.3874H19.4719L21.9453 13.0123H24.949L22.4756 24.3874ZM28.835 16.1636C28.9234 15.5509 29.4538 15.2006 30.0725 15.2006C31.0448 15.1127 32.1039 15.2886 32.9878 15.7253L33.5182 13.2762C32.6343 12.9259 31.662 12.75 30.7796 12.75C27.8643 12.75 25.743 14.3256 25.743 16.5124C25.743 18.1759 27.2456 19.0494 28.3063 19.5756C29.4538 20.1003 29.8957 20.4506 29.8073 20.9753C29.8073 21.7624 28.9234 22.1127 28.0411 22.1127C26.9804 22.1127 25.9197 21.8503 24.949 21.4121L24.4187 23.8627C25.4793 24.2994 26.6269 24.4753 27.6875 24.4753C30.9564 24.5618 32.9878 22.9877 32.9878 20.625C32.9878 17.6497 28.835 17.4753 28.835 16.1636ZM43.5 24.3874L41.115 13.0123H38.5533C38.0229 13.0123 37.4926 13.3626 37.3158 13.8873L32.8994 24.3874H35.9915L36.6087 22.7253H40.4079L40.7615 24.3874H43.5ZM38.9952 16.0756L39.8776 20.3627H37.4042L38.9952 16.0756Z" fill="#172B85"/>
</svg>
