<svg
  xmlns="http://www.w3.org/2000/svg"
  viewBox="0 0 29 20"
  fill="#fff"
>
  <rect
    stroke="#000"
    x=".5"
    y=".5"
    rx="1"
    width="28"
    height="19"
  />
  <path
    fill="#1A1F71"
    d="M12.2 7.3h1.5l-1 6.4h-1.5l1-6.4zm5 0c-1.6 0-2.8.9-2.8 2 0 1 .9 1.4 1.5 1.7.7.3.9.5.9.8 0 .4-.5.6-1 .6A3.8 3.8 0 0114 12l-.3 1.3c.4.2 1.2.4 2 .4 1.7 0 2.8-.9 2.8-2.1 0-.7-.4-1.3-1.4-1.7-.6-.3-1-.5-1-.8 0-.2.4-.5 1-.5l1.5.3.2-1.3a4.4 4.4 0 00-1.5-.3zm3.8 4.1L22 9l.5 2.4H21zm2-4h-1.2c-.4 0-.7 0-.9.5l-2.4 5.8h1.7l.4-1h2l.2 1h1.5L23 7.3zM8.1 11.6l-.1-1c-.3-1-1.3-2-2.3-2.6l1.5 5.6h1.7l2.6-6.4H9.7l-1.6 4.4z"
  />
  <path
    fill="#FA9B00"
    d="M4 7.3v.2C6 8 7.3 9.3 8 10.9l-.6-3c-.1-.4-.4-.6-.8-.6H4z"
  />
</svg>